<svg xmlns="http://www.w3.org/2000/svg" viewBox="0 0 78.61 78.61"><defs><style>.cls-1{fill:#22232a;stroke:#bfcde0;stroke-miterlimit:10;stroke-width:2px;}.cls-2{fill:#bfcde0;opacity:0.8;}</style></defs><g id="Layer_2" data-name="Layer 2"><g id="Layer_1-2" data-name="Layer 1"><path class="cls-1" d="M77.61,39.3A38.31,38.31,0,1,1,39.3,1,38.35,38.35,0,0,1,77.61,39.3Z"/><path class="cls-2" d="M58.82,50.75l-8.49-8.49a.7.7,0,0,0-1,0l-.49.5-1.5-1.5a.72.72,0,0,0-1,0l-1,1-1.42-1.41L51,33.79l3.38.27a.71.71,0,0,0,.55-.21l5.29-5.29a.7.7,0,0,0,.2-.63l-.8-4.2a.7.7,0,0,0-1.19-.36l-4.47,4.47-2.78-.22-.22-2.78,4.47-4.47A.7.7,0,0,0,55,19.18l-4.2-.8a.72.72,0,0,0-.63.2l-5.29,5.29a.69.69,0,0,0-.2.55L45,27.8l-7.07,7.06-8.69-8.7V23.45a.69.69,0,0,0-.35-.61l-7-4A.71.71,0,0,0,21,19l-2,2a.71.71,0,0,0-.12.85l4,7a.71.71,0,0,0,.61.36h2.71l8.7,8.7-7.06,7.06-3.38-.27a.71.71,0,0,0-.55.21l-5.29,5.28a.71.71,0,0,0-.2.63l.8,4.2a.7.7,0,0,0,1.19.37l4.47-4.47,2.78.22.22,2.78-4.47,4.47a.69.69,0,0,0-.18.71.71.71,0,0,0,.55.48l4.2.8h.13a.7.7,0,0,0,.5-.21l5.29-5.29a.7.7,0,0,0,.2-.55l-.27-3.38,7.06-7.06,1.41,1.41-1,1a.71.71,0,0,0,0,1l1.5,1.5-.5.5a.72.72,0,0,0,0,1l8.49,8.49a5.65,5.65,0,1,0,8-8Zm-32.58-23h-2.3l-3.52-6.17,1.23-1.23,6.17,3.52v2.29Zm1.29.71,1-1,8.41,8.41-1,1Zm5.18,25.62-4.8,4.79-2.52-.47,3.76-3.76a.72.72,0,0,0,.2-.56l-.29-3.7a.71.71,0,0,0-.65-.65l-3.7-.29a.72.72,0,0,0-.56.2L20.4,53.39l-.48-2.52,4.79-4.8,3.38.27a.72.72,0,0,0,.56-.2L46.22,28.56a.69.69,0,0,0,.2-.55l-.27-3.38L51,19.84l2.52.48-3.75,3.75a.69.69,0,0,0-.21.55l.29,3.71a.71.71,0,0,0,.65.65l3.7.29a.7.7,0,0,0,.56-.21l3.75-3.75.48,2.52-4.79,4.8-3.38-.27a.69.69,0,0,0-.56.2L32.64,50.13a.72.72,0,0,0-.2.56Zm9.22-11.23,1-1,1.42,1.41-1,1Zm1.91,4.91-1-1,4-4,1,1Zm14,10a4.22,4.22,0,0,1-6,0l-8-8,6-6,8,8a4.24,4.24,0,0,1,0,6Z"/></g></g></svg>