<svg xmlns="http://www.w3.org/2000/svg" viewBox="0 0 78.61 78.61"><defs><style>.cls-1,.cls-4{fill:#22232a;}.cls-1{stroke:#bfcde0;stroke-miterlimit:10;stroke-width:2px;}.cls-2,.cls-5,.cls-6{opacity:0.8;}.cls-3,.cls-5{fill:#bfcde0;}.cls-6{fill:#bdc9d6;}</style></defs><g id="Layer_2" data-name="Layer 2"><g id="Layer_1-2" data-name="Layer 1"><path class="cls-1" d="M77.61,39.3A38.31,38.31,0,1,1,39.3,1,38.35,38.35,0,0,1,77.61,39.3Z"/><g class="cls-2"><path class="cls-3" d="M57.39,41.76a2.74,2.74,0,0,1-2,.88,2.59,2.59,0,0,1-1.15-.27,4.61,4.61,0,0,0-1.13-1.52,3.81,3.81,0,0,0-.94-.6,2.4,2.4,0,0,0-.56-.2A18.44,18.44,0,0,0,26,41.76a2.7,2.7,0,0,1-4,0,3.21,3.21,0,0,1,0-4.28A23.77,23.77,0,0,1,52.53,33.4l-.09,0,.93,2.11,1,.46,1-.38a27.44,27.44,0,0,1,2,1.92A3.21,3.21,0,0,1,57.39,41.76Z"/><path class="cls-3" d="M50.51,48.58a3.24,3.24,0,0,1-.72,1.34,2.72,2.72,0,0,1-2,.89,2.68,2.68,0,0,1-2-.89,8.26,8.26,0,0,0-12.27,0,2.7,2.7,0,0,1-4,0,3.21,3.21,0,0,1,0-4.28,13.58,13.58,0,0,1,17.14-2.51,5.42,5.42,0,0,0-.13,1.33,4.44,4.44,0,0,0,.57,2,4.17,4.17,0,0,0,2.74,2A3.37,3.37,0,0,0,50.51,48.58Z"/><ellipse class="cls-3" cx="39.68" cy="56.5" rx="3.74" ry="4.02"/><path class="cls-3" d="M65.1,29.18a34.24,34.24,0,0,0-50.83,0,3.2,3.2,0,0,0,0,4.27,2.68,2.68,0,0,0,4,0,28.88,28.88,0,0,1,42.88,0,2.66,2.66,0,0,0,4,0A3.2,3.2,0,0,0,65.1,29.18Z"/></g><path class="cls-4" d="M60.79,46.28V43l-2.6-1.33-.44-1.11,1-2.92-2.17-2.33-2.71,1-1-.46-1.23-2.81H48.5l-1.23,2.81-1,.46-2.72-1-2.17,2.33,1,2.92-.43,1.12L39.28,43v3.3l2.6,1.32.43,1.12-1,2.92L43.51,54l2.72-1,1,.46,1.23,2.8h3.07l1.23-2.8,1-.46,2.71,1,2.17-2.33-1-2.92.44-1.12ZM50,49a4.35,4.35,0,1,1,4-4.34A4.2,4.2,0,0,1,50,49Z"/><path class="cls-5" d="M61.36,45.89V42.6l-2.6-1.33-.43-1.12,1-2.92L57.13,34.9l-2.72,1-1-.46-1.23-2.8H49.07l-1.23,2.8-1,.46-2.72-1-2.16,2.33,1,2.92-.44,1.12-2.6,1.33v3.29l2.6,1.33.44,1.12-1,2.92,2.16,2.33,2.72-1,1,.46,1.23,2.8h3.07L53.37,53l1-.46,2.72,1,2.17-2.33-1-2.92.43-1.12ZM50.61,48.58a4.35,4.35,0,1,1,4-4.34A4.2,4.2,0,0,1,50.61,48.58Z"/><path class="cls-6" d="M50.61,37.74a6.52,6.52,0,1,0,6,6.5A6.29,6.29,0,0,0,50.61,37.74Zm0,10.84a4.35,4.35,0,1,1,4-4.34A4.2,4.2,0,0,1,50.61,48.58Z"/></g></g></svg>