<svg xmlns="http://www.w3.org/2000/svg" viewBox="0 0 78.61 78.61"><defs><style>.cls-1{fill:#22232a;stroke:#bfcde0;stroke-miterlimit:10;stroke-width:2px;}.cls-2{opacity:0.8;}.cls-3{fill:#bfcde0;}</style></defs><g id="Layer_2" data-name="Layer 2"><g id="Layer_1-2" data-name="Layer 1"><path class="cls-1" d="M77.61,39.3A38.31,38.31,0,1,1,39.3,1,38.35,38.35,0,0,1,77.61,39.3Z"/><g class="cls-2"><path class="cls-3" d="M25.21,18.45a2.94,2.94,0,1,0,2.94,2.94A2.94,2.94,0,0,0,25.21,18.45Zm0,3.91a1,1,0,0,1,0-1.94,1,1,0,0,1,0,1.94Z"/><path class="cls-3" d="M31.69,18.45a2.94,2.94,0,1,0,2.94,2.94A2.94,2.94,0,0,0,31.69,18.45Zm0,3.91a1,1,0,1,1,1-1A1,1,0,0,1,31.69,22.36Z"/><path class="cls-3" d="M38.17,18.45a2.94,2.94,0,1,0,2.94,2.94,2.94,2.94,0,0,0-2.94-2.94Zm0,3.91a1,1,0,1,1,1-1,1,1,0,0,1-1,1Z"/><path class="cls-3" d="M46.18,26.9h0a1,1,0,1,0-1-1A1,1,0,0,0,46.18,26.9Z"/><path class="cls-3" d="M58,31.55a2.88,2.88,0,0,0-2.82-1.78V20a4.13,4.13,0,0,0-4.12-4.12H23.83A4.85,4.85,0,0,0,19,20.73V44.38a4.85,4.85,0,0,0,4.85,4.85H44.49V52.3H44a2.3,2.3,0,0,0-2.29,2.29v7.9a3.82,3.82,0,1,0,7.63,0v-7.9A2.3,2.3,0,0,0,47,52.3h-.54V49.23h3.89a4.86,4.86,0,0,0,4.86-4.85V41.82A2.89,2.89,0,0,0,58,40a11.21,11.21,0,0,0,0-8.48Zm-10.71,23v7.9a1.85,1.85,0,1,1-3.69,0v-7.9a.32.32,0,0,1,.32-.32h3A.32.32,0,0,1,47.32,54.59Zm3-17.29v4.77a1,1,0,0,1-1.07,1,1,1,0,0,1-.87-1V37.66A3.79,3.79,0,0,0,45,33.9a3.74,3.74,0,0,0-4.11,3.68l0,2.74a.87.87,0,1,1-1.74,0c0-7.45.12-7.59-.38-8.57H55.37a.89.89,0,0,1,.83.55,8.52,8.52,0,0,1,.51,1.7,26.78,26.78,0,0,0-3.71.06,3.32,3.32,0,0,0-2.64,3.25Zm-7.47.29a1.76,1.76,0,0,1,1.75-1.74,1.81,1.81,0,0,1,1.81,1.81v2.19H42.88Zm-7.31,2.26a.89.89,0,0,1-.83-.56,9.2,9.2,0,0,1,0-7c.45-1.11,2.44-.48,2.44,1v6.52ZM23.83,47.26A2.88,2.88,0,0,1,21,44.38V26.9H42.24a1,1,0,0,0,0-2H21v-4.2a2.88,2.88,0,0,1,2.88-2.88H51.08A2.16,2.16,0,0,1,53.24,20v4.93H50.12a1,1,0,1,0,0,2h3.12v2.87H35.58a2.87,2.87,0,0,0-2.66,1.79,11.63,11.63,0,0,0-.78,3.15H31.08a3.36,3.36,0,0,0-3.36,3.35v4.16a3.62,3.62,0,0,0,3.62,3.61H43.42a1.07,1.07,0,0,1,1.07,1.07v.36Zm29.41-2.88a2.89,2.89,0,0,1-2.89,2.88H46.46V46.9a3,3,0,0,0-3-3H31.34a1.64,1.64,0,0,1-1.65-1.64V38.06a1.38,1.38,0,0,1,1.39-1.38h1a11.22,11.22,0,0,0,.8,3.35,2.87,2.87,0,0,0,2.66,1.79h2a2.84,2.84,0,0,0,4.82,0h4v.25a2.94,2.94,0,1,0,5.88,0v-.25h.91v2.56Zm3-5.09a.9.9,0,0,1-.84.56h-3V37.3A1.34,1.34,0,0,1,53.67,36h3.22a9.3,9.3,0,0,1-.68,3.33Z"/></g></g></g></svg>