<svg xmlns="http://www.w3.org/2000/svg" viewBox="0 0 35.79 34.75"><defs><style>.cls-1{fill:#1b3663;}</style></defs><g id="Layer_2" data-name="Layer 2"><g id="Layer_1-2" data-name="Layer 1"><path class="cls-1" d="M.75,14.78a2.31,2.31,0,0,0,3.12,3.4l14-12.76,14,12.76a2.28,2.28,0,0,0,1.56.61A2.36,2.36,0,0,0,35.19,18h0A2.32,2.32,0,0,0,35,14.78L19.45.6a2.32,2.32,0,0,0-3.11,0L.75,14.78ZM17.9,7.53,5.55,18.76V33.19a1.25,1.25,0,0,0,.65,1.06,2,2,0,0,0,1,.25H28.6a2,2,0,0,0,1-.25,1.25,1.25,0,0,0,.65-1.06V18.76ZM14.38,34.75V24.61h7.07V34.75ZM32,10.73l-8.9-8.58,9.49-.3Z"/></g></g></svg>