<svg xmlns="http://www.w3.org/2000/svg" viewBox="0 0 35.11 38.09"><defs><style>.cls-1{fill:#1b3663;}</style></defs><g id="Layer_2" data-name="Layer 2"><g id="Layer_1-2" data-name="Layer 1"><path class="cls-1" d="M2.46,7.35a1.45,1.45,0,0,0,1-.35l4-3.36A1.49,1.49,0,0,0,5.54,1.35l-4,3.37a1.47,1.47,0,0,0-.19,2.09A1.45,1.45,0,0,0,2.46,7.35Z"/><path class="cls-1" d="M27.66,3.64,31.7,7a1.47,1.47,0,0,0,2.09-.19,1.47,1.47,0,0,0-.19-2.09l-4-3.37a1.49,1.49,0,0,0-1.9,2.29Z"/><path class="cls-1" d="M30,8.12A17.45,17.45,0,0,0,19,3V1.49a1.49,1.49,0,1,0-3,0V3A17.56,17.56,0,0,0,5.14,32.94c.31.31.63.61,1,.89l-1.19,2a1.48,1.48,0,1,0,2.55,1.52l1.06-1.78a17.61,17.61,0,0,0,18.09,0l1.06,1.78a1.48,1.48,0,0,0,1.28.73,1.48,1.48,0,0,0,1.27-2.25l-1.86-3.13a1.49,1.49,0,0,0-2.16-.43,14.58,14.58,0,1,1,5.94-11.75,14.65,14.65,0,0,1-1.79,7A1.48,1.48,0,1,0,32.94,29,17.55,17.55,0,0,0,30,8.12Z"/><path class="cls-1" d="M17.48,9.6A1.49,1.49,0,0,0,16,11.08v9.45a1.49,1.49,0,0,0,.44,1l4.21,4.21a1.48,1.48,0,0,0,2.1-2.1L19,19.91V11.08A1.49,1.49,0,0,0,17.48,9.6Z"/></g></g></svg>