<svg xmlns="http://www.w3.org/2000/svg" viewBox="0 0 38.07 39.62"><defs><style>.cls-1{fill:#1b3663;}</style></defs><g id="Layer_2" data-name="Layer 2"><g id="Layer_1-2" data-name="Layer 1"><path class="cls-1" d="M26.75,29.77A13.92,13.92,0,0,1,19,4.32c-.43,0-.86-.05-1.3-.05a17.68,17.68,0,1,0,16.8,23.16A13.81,13.81,0,0,1,26.75,29.77Z"/><polygon class="cls-1" points="33.23 7.27 37.56 0 29.64 0 29.64 2.32 33.48 2.32 29.15 9.6 38.07 9.6 38.07 7.27 33.23 7.27"/><polygon class="cls-1" points="26.6 8.84 19.43 8.84 19.43 11.16 22.51 11.16 19.17 16.77 26.52 16.77 26.52 14.45 23.25 14.45 26.6 8.84"/><polygon class="cls-1" points="30.92 22.03 33.03 18.48 27.04 18.48 27.04 20.8 28.95 20.8 26.83 24.36 33.12 24.36 33.12 22.03 30.92 22.03"/></g></g></svg>