<svg xmlns="http://www.w3.org/2000/svg" xmlns:xlink="http://www.w3.org/1999/xlink" viewBox="0 0 60.99 58.52"><defs><style>.cls-1{fill:none;}.cls-2{clip-path:url(#clip-path);}.cls-3{opacity:0.4;}.cls-4{fill:#193563;}.cls-5{fill:#020202;}</style><clipPath id="clip-path" transform="translate(-132.37 -112.34)"><path class="cls-1" d="M5.55,0H178.19a5.54,5.54,0,0,1,5.54,5.54V153.3a5.55,5.55,0,0,1-5.55,5.55H5.55A5.55,5.55,0,0,1,0,153.3V5.55A5.55,5.55,0,0,1,5.55,0Z"/></clipPath></defs><g id="Layer_2" data-name="Layer 2"><g id="Layer_1-2" data-name="Layer 1"><g class="cls-2"><g class="cls-3"><path class="cls-4" d="M193.37,148.94h-61v-6.52h61Zm-59-2h57v-2.49h-57Z" transform="translate(-132.37 -112.34)"/><path class="cls-4" d="M136.74,170.86h-3V147h4.87Zm-1-21.83v8.66l.68-8.66Z" transform="translate(-132.37 -112.34)"/><path class="cls-5" d="M190,170.86h-3L185.14,147H190ZM187.32,149l.68,8.66V149Z" transform="translate(-132.37 -112.34)"/><path class="cls-4" d="M176,133.85H148.74a3.28,3.28,0,0,1-3.27-3.26v-15a3.28,3.28,0,0,1,3.27-3.26H176a3.27,3.27,0,0,1,3.26,3.26v15A3.27,3.27,0,0,1,176,133.85Zm-27.25-19.49a1.25,1.25,0,0,0-1.25,1.24v15a1.25,1.25,0,0,0,1.25,1.24H176a1.25,1.25,0,0,0,1.25-1.24v-15a1.25,1.25,0,0,0-1.25-1.24Z" transform="translate(-132.37 -112.34)"/><rect class="cls-4" x="14.11" y="14.58" width="31.76" height="2.02"/><path class="cls-4" d="M165.76,139.66H159v-7.58h6.79Zm-4.78-2h2.77V134.1H161Z" transform="translate(-132.37 -112.34)"/><path class="cls-4" d="M170.83,144.43H153.89v-4.27a2.52,2.52,0,0,1,2.52-2.52h11.9a2.52,2.52,0,0,1,2.52,2.52Zm-14.92-2h12.91v-2.26a.5.5,0,0,0-.51-.5h-11.9a.5.5,0,0,0-.5.5Z" transform="translate(-132.37 -112.34)"/></g></g></g></g></svg>