<svg xmlns="http://www.w3.org/2000/svg" viewBox="0 0 306.59 368.48"><defs><style>.cls-1{fill:#fff;}</style></defs><g id="Layer_2" data-name="Layer 2"><g id="Layer_1-2" data-name="Layer 1"><path class="cls-1" d="M153.19,368.46q-18.34,0-36.67,0c-5.94,0-7.87-2.56-5.86-8,6-16.12,17.38-25.45,34.59-27.3,2.51-.27,3.5-1.09,3.48-3.64q-.1-20.76,0-41.53c0-2.37-.89-3.45-3.3-3.35-2.25.1-4.49,0-6.74,0-4.75-.07-6.33-1.52-6.36-6.27-.07-11.47,0-23,0-34.42,0-5.5,0-5.5-5.39-5.79-4.29-.23-6.1-1.84-6.35-6.23-.23-4-.23-8-.07-12,.12-3.21-1-4.55-4.34-5.14-25-4.47-48.41-12.9-69.38-27.46-19.63-13.62-35.28-30.53-42.68-53.78C-4.22,107.51.37,83.22,15.78,61,32.8,36.51,57,21.66,84.54,11.67A199.08,199.08,0,0,1,161.38.19c35.4,1.5,68.75,10.24,98.36,30.5,19.36,13.25,34.91,29.89,42.39,52.66,9.61,29.2,3.34,55.72-15.49,79.32-19.2,24.07-45.08,38.07-74,47A153.24,153.24,0,0,1,190,214.88c-3,.45-4,1.93-3.89,4.76q.17,5.61,0,11.22c-.16,5.44-1.9,7.35-7.24,7.21-3.67-.09-4.87,1.29-4.62,4.81.23,3.35.09,6.73.06,10.1,0,2,.92,3,2.94,2.93,6.48-.17,13,.51,19.42-.56a12.8,12.8,0,0,0,5.48-2.24c2.06-1.49,3.26-3,1-5.42-1.74-1.91-1.53-4.22.29-6.08a4.28,4.28,0,0,1,6.13-.3c4,3.33,7.89,6.87,11.67,10.49a4,4,0,0,1,.19,6c-1.72,1.94-3.95,2.49-6,.75-2.26-1.94-3.74-1.39-5.7.46a22.48,22.48,0,0,1-15.68,6.07c-5.36.07-10.73.11-16.09,0-2.74-.06-3.83,1-3.73,3.74.13,3.37.11,6.74,0,10.11-.16,4.06-1.75,5.55-5.82,5.66-2.37.07-4.74.12-7.11,0-2.63-.13-3.47,1.07-3.46,3.58.06,13.72.08,27.44,0,41.16,0,2.76,1,3.6,3.72,3.79a39.78,39.78,0,0,1,34.67,28.22c1.27,4.52-.51,7.05-5.27,7.08C178.38,368.51,165.78,368.46,153.19,368.46ZM155.1,9c-25.1.11-47.91,3.78-69.85,12C62.71,29.39,42.52,41.53,27.34,60.66,9.79,82.77,4.25,107.39,14.17,134.35c7.2,19.55,21,34,38,45.47,30.05,20.23,63.8,28.29,99.51,28.88a186.92,186.92,0,0,0,55.79-7.4c27.29-8,51.71-20.72,70.66-42.7,22.76-26.4,25.35-62.12,6.11-91.16-11.32-17.07-26.93-29.26-44.94-38.53C212.38,15,183.51,9.34,155.1,9Zm9.48,247.78c0-5-.08-10,0-14.92,0-2.73-1.07-3.8-3.78-3.74-5.09.11-10.2.1-15.3,0-2.56,0-3.55,1.08-3.53,3.58q.08,15.12,0,30.23c0,2.55,1,3.56,3.58,3.51,5.1-.09,10.2-.11,15.3,0,2.75.07,3.79-1.05,3.73-3.75C164.5,266.75,164.58,261.77,164.58,256.79ZM153.17,359.28c9.48,0,19,0,28.44,0,.95,0,2.17.42,2.77-.55s-.4-1.85-.92-2.63c-4.57-6.83-10.79-11.43-18.89-13a59.31,59.31,0,0,0-22.3,0c-8.12,1.52-14.36,6.06-19,12.85-.54.8-1.54,1.64-1.15,2.62.53,1.33,2,.76,3,.76C134.47,359.3,143.82,359.28,153.17,359.28Zm.24-130.85c6.47,0,13,0,19.42,0,1.48,0,3,.05,3.52-1.94,2-7.06-.2-9.8-7.34-9.13a169.12,169.12,0,0,1-31.66,0c-7.13-.66-7.21-.44-7.26,6.75,0,3.19,1,4.49,4.28,4.4C140.72,228.31,147.07,228.43,153.41,228.43Z"/><path class="cls-1" d="M153.3,180.46c27,.17,52.53-5.42,75.88-19.32,16-9.52,29-22,36-39.72a53.47,53.47,0,0,0,3-30.83c-.27-1.35-.54-2.69-.82-4-.62-3,.65-5,3.4-5.76s4.51.87,5.29,3.47A58,58,0,0,1,278,108.33c-3,23.64-16.33,40.85-34.75,54.59-20,14.91-42.91,22.58-67.41,25.77-31.24,4.05-61.51.28-90.28-12.78C64.84,166.52,47.46,153,36.4,132.66,28.41,118,26.11,102.33,30,85.94c.46-1.91.85-4,3.08-4.81,3.71-1.37,6.9,1.59,6,5.79-1.74,8-2.31,16-.72,24.11,3.22,16.46,12.24,29.36,24.76,39.9,20.84,17.56,45.52,25.82,72.24,28.79,3,.33,6,.59,8.93.71S150.31,180.46,153.3,180.46Z"/></g></g></svg>