<svg xmlns="http://www.w3.org/2000/svg" viewBox="0 0 368.48 368.39"><defs><style>.cls-1{fill:#fff;}</style></defs><g id="Layer_2" data-name="Layer 2"><g id="Layer_1-2" data-name="Layer 1"><path class="cls-1" d="M368.48,184.14q0,81.21,0,162.42c0,14-7.74,21.82-21.71,21.82H21.56C7.83,368.38,0,360.54,0,346.8Q0,184,.1,21.21C.11,8,8.09,0,21.33,0H346.91c13.52,0,21.46,7.9,21.47,21.35q0,81.39,0,162.79Zm-118.5.3h.11V14.55c0-5.55,0-5.56-5.65-5.56H152c-5.9,0-5.94,0-5.9,6.06.29,45.14.06,90.28.47,135.43.61,67.6.17,135.21.17,202.81,0,5.9,0,5.91,6,5.91h91.68c5.5,0,5.5,0,5.5-5.63Q250,269,250,184.44Zm9.1-.3h.09q0,84.93,0,169.86c0,5.18,0,5.19,5.17,5.2q40.61,0,81.19,0c10.2,0,13.75-3.55,13.75-13.75q.06-161.44.1-322.89c0-9.86-3.7-13.56-13.57-13.56H265c-5.91,0-5.92,0-5.92,6ZM73.1,292.72c-19.83,0-39.66.07-59.49-.06-3.43,0-4.52,1.11-4.49,4.53.14,16.33,0,32.67.08,49,0,9.22,3.77,13,13,13,36.66,0,73.32,0,110,.08,3.73,0,5-1,5-4.85q-.26-28.43,0-56.86c0-3.78-1.13-4.94-4.91-4.91C112.5,292.8,92.8,292.72,73.1,292.72ZM73,71.17q29.37,0,58.75,0c5.2,0,5.32-.12,5.32-5.17q0-26,0-52c0-4.84-.17-5-5.11-5H22C12.94,9,9.1,12.91,9.09,22.09q0,21.88,0,43.78c0,5.19.1,5.3,5.18,5.3Q43.65,71.19,73,71.17Zm0,71c19.71,0,39.42-.08,59.13.07,3.69,0,5-1,5-4.85-.17-17.22-.05-34.43-.06-51.64,0-4.69-.21-4.91-4.82-4.91q-59.12,0-118.25,0c-4.71,0-4.9.19-4.9,4.81q0,25.64,0,51.27c0,5.23,0,5.25,5.15,5.25Zm.42,9.11c-19.83,0-39.66.09-59.49-.07-3.78,0-4.93,1.14-4.9,4.91q.27,25.82,0,51.63c0,3.78,1.12,4.91,4.9,4.9q59.11-.18,118.22,0c3.79,0,4.94-1.17,4.9-4.93q-.24-25.81,0-51.63c0-3.81-1.21-4.91-4.94-4.88C112.62,151.33,93,151.25,73.46,151.25ZM73.1,283c19.82,0,39.64-.05,59.45.06,3.4,0,4.57-1.1,4.55-4.53q-.19-25.8,0-51.6c0-3.6-1.18-4.74-4.75-4.73q-59.27.15-118.53,0c-3.58,0-4.75,1.15-4.72,4.73q.23,25.62,0,51.23c0,3.77,1.14,5,4.91,4.92C33.71,282.91,53.41,283,73.1,283Z"/><path class="cls-1" d="M227.65,164.13c0-5.34-.07-10.69,0-16,.07-3.9,1.84-6,4.75-5.85,3.62.21,4.29,2.72,4.33,5.75.16,10.06-.26,20.12.48,30.18.38,5.29-1.77,8.23-5,8.11s-4.58-2.45-4.59-8c0-4.72,0-9.45,0-14.17Z"/><path class="cls-1" d="M280,164c0,5.22.06,10.45,0,15.67-.06,3.92-2,6.48-4.68,6.58s-4.93-2.57-4.95-6.69c-.07-10.2,0-20.39,0-30.59a10.49,10.49,0,0,1,.05-1.12c.35-3.85,2.07-5.83,5.08-5.63,3.57.22,4.44,2.77,4.49,5.74.07,5.35,0,10.69,0,16Z"/></g></g></svg>