<svg xmlns="http://www.w3.org/2000/svg" viewBox="0 0 351.85 333.72"><defs><style>.cls-1{fill:#fff;}</style></defs><g id="Layer_2" data-name="Layer 2"><g id="Layer_1-2" data-name="Layer 1"><path class="cls-1" d="M133,125.49c-.16-2-1.4-2.58-2.22-3.44-14.43-15.15-20.25-33.11-17.63-53.82.63-5,3.82-7.71,9.34-7.74,13.47-.06,26.94,0,40.41,0,5.54,0,5.55,0,5.56-5.67,0-10.11,0-20.21,0-30.31.08-13.25,7.76-22.18,20.75-24.26,12.28-2,25.69,9.79,25.28,22.21a4.69,4.69,0,0,1-3.88,4.85c-2.49.5-4-1.08-4.78-3.26a16.82,16.82,0,0,1-.66-2.91C204,13.94,198.58,9,191.76,8.9s-12.49,4.71-13.91,11.8c-.77,3.82-.33,7.71-.36,11.57-.05,8,.11,16,0,23.95-.07,3.3,1.21,4.31,4.4,4.29,15.47-.11,30.94-.06,46.41,0,7.34,0,9.89,2.6,10.63,10,2,20.42-4.36,37.78-18.64,52.38-.58.58-1.47,1-1.3,2.17,1.34.86,2.87.44,4.31.44q53.7,0,107.4,0c12.89,0,21.13,8.11,21.15,21q.07,67.74,0,135.47c0,13.19-8.25,21.43-21.51,21.74-8.77.21-8.77.21-11,8.88-1.25,5-2.43,9.94-3.76,14.87s-3.06,6.17-7.93,6.25q-4.5.07-9,0c-4.88-.08-6.67-1.41-7.94-6.23-1.73-6.51-3.42-13-4.89-19.61-.7-3.12-2.26-4.2-5.44-4.2q-104.79.11-209.57,0c-3.29,0-4.63,1.26-5.31,4.33-1.43,6.45-3.13,12.84-4.78,19.24-1.24,4.8-3.28,6.39-8.22,6.48q-4.3.07-8.6,0c-5-.09-6.9-1.47-8.24-6.44C34,320.86,32.26,314.47,30.88,308c-.72-3.34-2.28-4.51-5.63-4.38-7.12.3-13.91-.52-19.33-6.08A20.05,20.05,0,0,1,0,283Q0,214.37.07,145.7c0-11.94,8.53-20.19,20.4-20.2q54.08,0,108.15,0Zm47.49,88.75h0c0,24.95.07,49.9-.07,74.84,0,3.72,1,5,4.84,4.95q72.42-.16,144.82-.08c8.51,0,12-3.54,12-12.09q0-67.53,0-135.08c0-8.65-3.57-12.16-12.35-12.17q-72,0-144.07,0c-5.2,0-5.22,0-5.22,5.17Q180.47,177,180.49,214.24Zm-9.16,0h0c0-24.94-.07-49.89.08-74.83,0-3.77-1.11-4.91-4.89-4.9q-72.41.17-144.81.08c-8.31,0-12,3.76-12,12.15q0,67.54,0,135.08c0,8.55,3.48,12.09,12,12.1q72.41,0,144.8.08c3.81,0,4.9-1.18,4.88-4.92C171.26,264.16,171.33,239.22,171.33,214.27Zm4.85-144.75H126.84c-2.52,0-4.66,0-4.85,3.55-1.2,21.67,7.16,38.48,25.33,50.39a12.3,12.3,0,0,0,7,2.07q21.5-.1,43,0a12.77,12.77,0,0,0,7.37-2.18c17.34-11.43,25.77-27.49,25.16-48.28-.15-5.3-.28-5.54-5.47-5.54Q200.3,69.49,176.18,69.52Zm126.9,234.17c-1.49,0-3,.12-4.47,0-3.29-.32-4.21.86-3.23,4.08,1.24,4,2.23,8.16,3.1,12.29.58,2.75,1.82,4,4.78,4,2.79,0,4-1.19,4.55-3.81s1.31-5.3,2-8C311.92,303.69,311.92,303.69,303.08,303.69Zm-254.49,0c-1.87,0-3.73,0-5.6,0-2.5-.07-3.34.91-2.65,3.44,1.26,4.55,2.38,9.14,3.43,13.75.54,2.4,1.91,3.16,4.26,3.13s4.07-.51,4.6-3.21c.61-3,1.48-6,2.24-9.05C56.91,303.69,56.91,303.69,48.59,303.7Z"/><path class="cls-1" d="M201.39,208.63c0,2.11.14,4.23,0,6.33a4.15,4.15,0,0,1-4.2,4,4,4,0,0,1-4.54-3.55,53.6,53.6,0,0,1,0-14.09c.32-2.36,2.28-3.54,4.65-3.43a3.92,3.92,0,0,1,4,3.71,69.24,69.24,0,0,1,.05,7.06Z"/><path class="cls-1" d="M154.17,208.33a51.82,51.82,0,0,1,0,6c-.3,2.61-1.81,4.53-4.56,4.6a4.42,4.42,0,0,1-4.67-4,39.35,39.35,0,0,1,.15-13.39,4.21,4.21,0,0,1,4.49-3.71,4.57,4.57,0,0,1,4.54,4.21,51.54,51.54,0,0,1,.05,6.34Z"/></g></g></svg>