<svg xmlns="http://www.w3.org/2000/svg" viewBox="0 0 271.12 368.45"><defs><style>.cls-1{fill:#fff;}</style></defs><g id="Layer_2" data-name="Layer 2"><g id="Layer_1-2" data-name="Layer 1"><path class="cls-1" d="M131.06,103.31V14.24c0-5.18-.06-5.23-5.22-5.24H97a9.42,9.42,0,0,1-4.4-.61A4.12,4.12,0,0,1,90.13,4.5,4.16,4.16,0,0,1,93,.49,12.23,12.23,0,0,1,97.77,0h75.6c5.32,0,7.66,1.4,7.63,4.52S178.64,9,173.3,9c-9.61,0-19.22.12-28.82-.06C141,8.88,140,10.18,140,13.53q.13,89.64.1,179.27c0,2.89.45,4.61,4,4.79,28.61,1.48,54,11.57,76,29.69q44.2,36.42,50.39,93.7a93.57,93.57,0,0,1,.61,10.44c0,5.89-2.5,8.42-8.45,8.44-19.22,0-38.43,0-57.64,0-10.73,0-21.46.12-32.19-.06-3.24-.05-4.75.79-5.71,4.15-6.84,24-34,32.23-53.1,16.26a28.49,28.49,0,0,1-9.94-15.92c-.84-3.88-2.8-4.5-6.24-4.48-29.19.1-58.38.06-87.57.05-8.46,0-10.57-1.93-10.25-10.35C1.2,298.57,11.56,271,31.17,247c21.94-26.77,50.17-42.88,84.36-48.43a65.18,65.18,0,0,1,10.78-1c3.58,0,4.74-1.31,4.72-4.86-.1-22.58,0-45.16,0-67.74V103.31Zm4.5,226.84H249c3.25,0,6.49,0,9.73,0,2,0,2.94-.54,2.81-2.82A115.45,115.45,0,0,0,260,313.2c-5.43-30.31-19.34-55.94-42.76-76-28.91-24.82-62.54-34.53-100.16-29.17-31.29,4.46-57.18,19.35-77.5,43.51-17.86,21.23-28,45.8-29.81,73.61-.33,5-.21,5,4.87,5Zm0,9.73c-6.48,0-13,.08-19.43,0-2.8,0-3.55.86-2.66,3.55,2.92,8.85,12.49,15.77,22,15.79a24,24,0,0,0,22-15.71c.87-2.56.4-3.69-2.54-3.63C148.55,340,142.07,339.88,135.59,339.88Z"/></g></g></svg>