<svg xmlns="http://www.w3.org/2000/svg" viewBox="0 0 368.47 339.2"><defs><style>.cls-1{fill:#fff;}</style></defs><g id="Layer_2" data-name="Layer 2"><g id="Layer_1-2" data-name="Layer 1"><path class="cls-1" d="M368.47,222.41v107.4c0,1.24,0,2.49,0,3.74-.07,3-1.24,5.15-4.47,5.41-2.72.22-4.5-2-4.66-5.6-.06-1.12,0-2.24,0-3.37,0-10-.09-20,.05-29.93.05-3.22-1-4.38-4.29-4.38q-97.47.1-195,0c-3.4,0-4.22,1.38-4.19,4.48.13,10.6.06,21.21,0,31.81,0,5.78-1.32,7.21-7,7.21q-71.1,0-142.19,0c-5.19,0-6.79-1.59-6.79-6.69Q0,222.66.06,112.84a19.28,19.28,0,0,1,19-19.23c6.74-.12,13.47-.09,20.21,0,2.37,0,4-.67,5-3a12.88,12.88,0,0,1,7.45-7c2.47-.9,3.17-2.5,3-4.89-.53-5.83-1.1-11.66-1.48-17.5C52.9,56,54.78,51.72,59.47,49c2.81-1.66,2.18-4.34,1.74-6.69s-2.74-1.66-4.37-1.7c-4.36-.09-8.73,0-13.09-.06-6.47-.15-9.59-4.56-7.27-10.58,3.29-8.49,6.9-16.85,10.31-25.28C48.14,1.31,50.52,0,54.08,0,61.44.12,68.8.14,76.16,0c3.61-.07,6,1.49,7.37,4.64,3.57,8.51,7.19,17,10.4,25.66,2.15,5.81-1.2,10.1-7.49,10.22-3.87.07-7.74,0-11.6,0-1.53,0-3.62-.56-4.08,1.6S69.63,47,72,48.36c6.28,3.64,7.39,9.26,6.75,15.76-.46,4.71-.8,9.43-1.35,14.13-.28,2.41.16,4,2.71,4.94A15.47,15.47,0,0,1,89,91.31c.66,1.33,1.45,2.43,3.12,2,1.84-.43,1.55-2,1.59-3.36.07-2.49-.06-5,.08-7.48.33-5.71,2.55-8.22,8.24-9.13,2-.33,2.81-1.34,2.81-3.24,0-3,0-6,0-9,.13-5.16,2.9-8.08,8-8.54.62,0,1.25,0,1.87,0q40.23,0,80.45,0a15.73,15.73,0,0,1,4.79.63c3.26,1,5.24,3.29,5.27,6.89,0,4.74.09,9.48,0,14.22-.08,4.58-1.9,7.1-6.5,7.73-4.34.58-4.09,1.14-4,8.61.07,3.91,3.11,2.88,5.24,2.88q74.09.08,148.18,0c9.69,0,17.29,5.8,19.69,14.74a24,24,0,0,1,.53,6.31V222.41ZM257.58,152.12H161.07c-5.14,0-5.16,0-5.16,5.23l0,123.44c0,5.19,0,5.2,5.2,5.2h193c5.1,0,5.12,0,5.12-5.26q0-61.73,0-123.44c0-5.16,0-5.17-5.21-5.17ZM184,143H354.27c5,0,5,0,5-5,0-6.86,0-13.72,0-20.58,0-11.47-3.25-14.77-14.6-14.77H23c-10.19,0-13.84,3.62-13.84,13.66q0,10.47,0,21c0,5.71,0,5.72,5.79,5.72ZM78,243.37c-21.46,0-42.91.06-64.36-.05-3.38,0-4.57,1-4.55,4.49q.18,38.54,0,77.08c0,3.67,1.28,4.65,4.78,4.64q64-.13,128,0c3.73,0,5-1.07,4.95-4.88-.14-25.45-.07-50.89-.08-76.34,0-4.85-.1-4.94-5.1-4.94Zm-.46-9.73c21.45,0,42.9-.08,64.35.07,3.79,0,4.92-1.16,4.9-4.92q-.21-35.91,0-71.83c0-3.77-1.12-4.92-4.9-4.91q-64,.16-127.95,0c-3.76,0-4.93,1.09-4.91,4.88q.24,35.92,0,71.84c0,3.72,1,5,4.86,4.95C35.16,233.56,56.36,233.64,77.56,233.64ZM154.64,72.77c12.33,0,24.67,0,37,0,4.41,0,4.6-.28,4.58-5.53,0-4.76-.23-5-4.7-5q-36.45,0-72.91,0c-4.53,0-4.72.24-4.74,5,0,5.36.11,5.59,4.49,5.6C130.46,72.79,142.55,72.77,154.64,72.77ZM136.92,93.58h26.94c7.17,0,7.06,0,6.95-7.3-.05-3-1.21-4-4-3.89-4.74.13-9.48,0-14.22,0-15,0-29.94.07-44.9,0-3.25,0-4.67,1.13-4.31,4.36a4.7,4.7,0,0,1,0,.75c0,6.08,0,6.08,5.89,6.09Zm-72-62.06c5.48,0,11,0,16.43,0,2.36,0,3.22-.71,2.2-3.12q-3.5-8.25-6.77-16.59A4,4,0,0,0,72.53,9c-4.85.06-9.71.07-14.56,0a4.24,4.24,0,0,0-4.58,3c-2.1,5.45-4.25,10.89-6.52,16.28-1.14,2.69-.06,3.3,2.39,3.27C54.49,31.48,59.72,31.53,64.94,31.52ZM69.7,62.71c0-1,0-1.61,0-2.24,0-2.25-.87-4-3.39-4.07s-4.11,1.54-4,4c.43,6.58,1.12,13.14,1.78,19.7.12,1.15.76,2.2,2.17,2.13S68,81,68.13,79.82C68.66,74,69.2,68.17,69.7,62.71Zm116,25c0-.5,0-1,0-1.48,0-2-.08-3.75-2.79-3.81-2.91-.07-3.09,1.79-3.06,3.92,0,1.23,0,2.47,0,3.7,0,2.2.78,3.52,3.23,3.46s2.6-1.75,2.59-3.58C185.67,89.21,185.67,88.47,185.68,87.74ZM55,91.88v1.29H78.23V92A126.61,126.61,0,0,0,55,91.88Z"/><path class="cls-1" d="M183.86,122c-3.23,0-6.47.15-9.69,0-3-.18-5.56-1.51-5.45-4.9.11-3.13,2.6-4.49,5.43-4.55,6.71-.15,13.43-.16,20.13,0,3,.07,5.56,1.51,5.45,4.89-.1,3.14-2.59,4.41-5.43,4.56C190.83,122.15,187.34,122,183.86,122Z"/><path class="cls-1" d="M132,287a30.91,30.91,0,0,1-.42,4.43,4.2,4.2,0,0,1-4.53,3.61,4.37,4.37,0,0,1-4.48-3.73,20.9,20.9,0,0,1-.08-8.52c.5-2.56,2-4.37,4.86-4.18s4.18,2,4.45,4.65a35.67,35.67,0,0,1,0,3.73Z"/><path class="cls-1" d="M131.73,188.93c.12,5.63-1.42,8.13-4.81,8-3.08-.12-4.78-2.91-4.76-8a26.3,26.3,0,0,1,.31-4.44,4.43,4.43,0,0,1,5-4c2.7.12,3.92,1.93,4.26,4.35A29.2,29.2,0,0,1,131.73,188.93Z"/></g></g></svg>