<svg xmlns="http://www.w3.org/2000/svg" viewBox="0 0 279.96 368.52"><defs><style>.cls-1{fill:#fff;}</style></defs><g id="Layer_2" data-name="Layer 2"><g id="Layer_1-2" data-name="Layer 1"><path class="cls-1" d="M280,185.42q0,80.27,0,160.52c0,6-1,11.72-5.37,16.25a19.17,19.17,0,0,1-14.28,6.33q-120.3,0-240.6,0C8.8,368.48.85,360.46.06,349c-.09-1.25,0-2.5,0-3.74Q0,184.91.08,24.58c0-5.15.32-10.27,3.05-14.84A18.6,18.6,0,0,1,19.46.18c6.48-.18,13,0,19.46,0C111.64.13,184.35.28,257.07,0c13.28,0,22.78,7.57,22.81,22.65q0,12.35,0,24.69V185.42Zm-9.73-52.73h.06q0-55.38,0-110.75c0-9.44-3.39-12.82-12.86-12.82h-107c-5.94,0-5.95,0-5.94,6q0,114.69.1,229.37c0,5.62,0,5.64,5.51,5.64h114.5c5.62,0,5.63,0,5.63-5.57Q270.24,188.64,270.23,132.69Zm-134.84-3.06h.1q0-57.81,0-115.62c0-4.72-.16-4.88-4.81-4.88q-54.43,0-108.88,0c-8.48,0-12.11,3.63-12.11,12.06q0,111.87.06,223.75c0,5.14.06,5.19,5.26,5.2H130.24c5.13,0,5.14,0,5.14-5.26Q135.39,187.25,135.39,129.63ZM140,259.87H15.41c-5.66,0-5.67,0-5.67,5.53q0,40.61,0,81.19c0,9,3.73,12.73,12.74,12.73h235c9,0,12.78-3.74,12.78-12.69q0-40.59,0-81.19c0-5.56,0-5.57-5.63-5.57Z"/><path class="cls-1" d="M168.44,107.92c0,4.49.07,9,0,13.46-.07,3.54-1.9,5.74-4.66,5.58-3.32-.2-4.36-2.46-4.36-5.41q0-13.45,0-26.91c0-3,1.11-5.17,4.41-5.36,2.81-.17,4.53,1.92,4.59,5.56C168.49,99.2,168.44,103.56,168.44,107.92Z"/><path class="cls-1" d="M111.52,107.55c0-4.36,0-8.73,0-13.09,0-3,1.31-5.2,4.6-5.16,3.06,0,4.37,2.12,4.38,5q.06,13.83,0,27.68c0,2.85-1.31,4.94-4.4,5-3.3,0-4.56-2.16-4.58-5.17C111.48,117,111.51,112.29,111.52,107.55Z"/><path class="cls-1" d="M138.69,292.78c7.1,0,14.19,0,21.29,0a14,14,0,0,1,4,.53,4,4,0,0,1,2.92,3.92,4.19,4.19,0,0,1-2.45,4.26,9,9,0,0,1-3.57.91c-15.06.06-30.12.1-45.18,0-4,0-5.84-1.88-5.78-4.89s2-4.65,6-4.69C123.51,292.73,131.1,292.79,138.69,292.78Z"/></g></g></svg>