<svg xmlns="http://www.w3.org/2000/svg" viewBox="0 0 280.11 352.67"><defs><style>.cls-1{fill:#fff;}</style></defs><g id="Layer_2" data-name="Layer 2"><g id="Layer_1-2" data-name="Layer 1"><path class="cls-1" d="M.1,161.73q0-69.79,0-139.6c0-9.06,3-16.34,11.66-20.47A17.34,17.34,0,0,1,19.36,0q120.69,0,241.4,0c10.63,0,18.42,8.1,19.16,19.52.08,1.25,0,2.5,0,3.74q0,138.3.15,276.59c0,10.15-3.41,17.71-13.06,21.77-1.76.74-2.28,2.13-2.69,3.75q-2.58,10.15-5.23,20.29c-1.29,4.91-3.11,6.51-8.07,6.78-3.11.17-6.24.08-9.35,0-4.11-.16-6.68-2.2-7.67-6.33-1.54-6.43-3.37-12.79-4.82-19.24-.65-2.91-1.88-4.13-5-4.12q-84.21.12-168.42,0c-2.92,0-4.23,1-4.86,3.85-1.43,6.32-3.08,12.6-4.74,18.87-1.41,5.3-3.21,6.69-8.66,7l-.75,0c-13.64.49-14.08.15-17.41-13.06-.64-2.54-1.48-5-2-7.6-1.13-5.43-2.62-9.86-8.58-12.73C2.35,316.06,0,309.36,0,302.08q.06-52.77,0-105.54V161.73Zm135.35-62.9h.09q0-42.27,0-84.55c0-5.19-.09-5.29-5.18-5.29h-86C36.19,9,28.09,8.93,20,9c-5.66.07-9.41,3.22-10.45,8.76a33.31,33.31,0,0,0-.43,6.32q.28,69.77.62,139.52c0,6.49,0,13,0,19.46,0,5.48,0,5.5,5.32,5.5H130.28c5.15,0,5.17,0,5.17-5.2Q135.47,141.1,135.45,98.83Zm72,89.76h57.24c5.62,0,5.58,0,5.65-5.55.31-25.81-.16-51.61.42-77.42.63-28.17.25-56.37.16-84.55C270.9,12.9,266.71,9,258.54,9Q204.11,9,149.67,9c-5,0-5.14.15-5.14,5q0,84.93,0,169.86c0,3.82,1.19,4.89,4.93,4.86C168.79,188.5,188.12,188.59,207.45,188.59Zm-67.83,62.23H264.94c5.33,0,5.38-.05,5.38-5.47,0-14.34-.06-28.68.06-43,0-3.28-.87-4.63-4.43-4.63q-125.88.12-251.76,0c-3.47,0-4.54,1.17-4.51,4.55.13,14.33.05,28.68.06,43,0,5.53,0,5.54,5.68,5.54Zm.6,9.73H14.85c-4.94,0-5.1.16-5.1,5q0,18.15,0,36.3c0,8,3.68,11.69,11.65,11.75,6.86.06,13.72,0,20.58,0H256.79c10.46,0,13.53-3.1,13.53-13.64q0-17,0-34.05c0-5.33-.05-5.37-5.48-5.37ZM33.65,322.81c-1.74,0-3.49.1-5.23,0-2.8-.2-3.5.91-2.76,3.55,1.25,4.43,2.41,8.89,3.38,13.39.59,2.73,2.27,3.12,4.63,3.16s3.73-.71,4.24-3.13c.61-2.92,1.39-5.81,2.18-8.69C42.71,321.58,42.8,322.92,33.65,322.81Zm213.25,0c-1.74,0-3.48.08-5.22,0-2.93-.16-3.76,1-2.93,3.84,1.26,4.29,2.39,8.63,3.36,13,.58,2.62,2.07,3.27,4.53,3.26s3.94-.84,4.44-3.41c.57-2.93,1.42-5.8,2.15-8.7C255.26,322.8,255.26,322.8,246.9,322.81Z"/><path class="cls-1" d="M121.39,103q0,15.15,0,30.3c0,2.21-.23,4.28-2.4,5.5a4.39,4.39,0,0,1-6.47-2.9,15.88,15.88,0,0,1-.24-3.72q0-29.19,0-58.37c0-.75,0-1.49,0-2.24.12-3,1.24-5.33,4.5-5.33s4.47,2.37,4.48,5.33c0,10.47,0,20.95,0,31.43Z"/><path class="cls-1" d="M168.53,103.1v28.06c0,.87,0,1.75,0,2.62-.14,3.6-1.85,5.68-4.68,5.49-3.29-.22-4.4-2.4-4.4-5.38V112.56q0-19.28,0-38.54a21.52,21.52,0,0,1,.21-4.1,4.34,4.34,0,0,1,8.58-.1,18.47,18.47,0,0,1,.24,3.72q0,14.77,0,29.56Z"/><path class="cls-1" d="M140,230h-9.68c-2.93,0-4.87-1.45-5-4.37s1.85-4.62,4.69-4.68q10.05-.21,20.1,0c2.84.06,4.8,1.75,4.63,4.73s-2.13,4.32-5.06,4.32Z"/><path class="cls-1" d="M140,291.31c-3.35,0-6.71.05-10.06,0-2.79-.05-4.51-1.62-4.66-4.32a4.16,4.16,0,0,1,4.3-4.66q10.41-.29,20.85,0a4.15,4.15,0,0,1,4.29,4.66c-.15,2.71-1.87,4.27-4.67,4.32C146.73,291.35,143.38,291.31,140,291.31Z"/></g></g></svg>