<svg xmlns="http://www.w3.org/2000/svg" viewBox="0 0 368.5 229.96"><defs><style>.cls-1{fill:#fff;}</style></defs><g id="Layer_2" data-name="Layer 2"><g id="Layer_1-2" data-name="Layer 1"><path class="cls-1" d="M184.27,230H10.62c-1.25,0-2.5,0-3.74,0-4.52-.19-6.78-2.24-6.81-6.68q-.15-19.08,0-38.17c0-4.23,2.17-6.35,6.43-6.77a40.21,40.21,0,0,1,4.11-.08H357.9a29,29,0,0,1,4.85.18c3.47.59,5.7,2.53,5.71,6.28,0,13,.08,25.94,0,38.92,0,4-2.33,6.06-6.4,6.31-1.37.08-2.75,0-4.12,0Zm132.87-9.2c12.59,0,25.18-.1,37.77.06,3.46.05,4.55-1.13,4.47-4.53-.2-8-.17-15.95,0-23.93.05-3.11-.78-4.48-4.18-4.47q-38.15.17-76.28,0c-3.1,0-4.19,1.13-4.14,4.17.14,8,.23,16,0,23.93-.13,3.9,1.35,4.87,5,4.82C292.21,220.63,304.68,220.75,317.14,220.75ZM51,220.74c12.72,0,25.43-.06,38.14,0,3.19,0,4.48-1,4.42-4.3-.15-8.22-.12-16.45,0-24.68,0-2.93-1.1-3.91-4-3.91q-38.14.1-76.28,0c-3,0-4.23,1-4.17,4.09.16,8.1.19,16.21,0,24.3-.08,3.42,1,4.57,4.48,4.52C26.09,220.65,38.55,220.75,51,220.74Zm90.24,0c11.46,0,22.92-.07,34.38.06,3.12,0,4.14-1.08,4.08-4.14q-.22-12.33,0-24.67c.05-3.13-1.14-4.1-4.17-4.09q-34.38.12-68.77,0c-3.11,0-4.15,1.13-4.09,4.17.13,8.1.19,16.2,0,24.29-.1,3.52,1.23,4.49,4.57,4.45C118.57,220.65,129.91,220.75,141.25,220.74Zm85.82-32.8c-11.34,0-22.68.06-34,0-2.94,0-4.31.79-4.25,4q.24,12.51,0,25c-.05,3,1.18,3.84,4,3.83q34.2-.1,68.41,0c2.94,0,3.94-1.09,3.9-4-.11-8.22-.15-16.45,0-24.67.07-3.34-1.27-4.29-4.43-4.26C249.5,188,238.28,187.94,227.07,187.94Z"/><path class="cls-1" d="M184.45,0h128c7.27,0,8.8,1.5,8.8,8.74q.06,74.85.08,149.7c0,7.13-2.11,9.25-9.45,9.25q-55.58,0-111.15,0-71.1,0-142.21,0a30.22,30.22,0,0,1-5.95-.38c-3.29-.67-5.24-2.74-5.34-6.26,0-1,0-2,0-3q0-74.48.09-148.95a19.47,19.47,0,0,1,.27-4.46C48.21,1.81,50,.08,53.09,0c1.37,0,2.74,0,4.12,0Zm-.19,9H61.5c-5.13,0-5.23.1-5.22,5.26q0,69.24.08,138.48c0,5.24,0,5.26,5.14,5.26H307c5.12,0,5.14,0,5.14-5.27q0-69,.08-138.1c0-5.61,0-5.63-5.6-5.63Z"/><path class="cls-1" d="M298.75,204.09a5.58,5.58,0,1,1-5.32-5.63A5.76,5.76,0,0,1,298.75,204.09Z"/><path class="cls-1" d="M68.93,209.68a5.23,5.23,0,0,1-5.27-5.59,5.62,5.62,0,0,1,5.45-5.53,5.91,5.91,0,0,1,5.59,5.9A5.59,5.59,0,0,1,68.93,209.68Z"/><path class="cls-1" d="M126.22,204.18a5.56,5.56,0,0,1-5.47,5.5,5.44,5.44,0,0,1-5.61-5.69,5.81,5.81,0,0,1,5.6-5.43A6,6,0,0,1,126.22,204.18Z"/><path class="cls-1" d="M247.18,203.93a5.7,5.7,0,0,1-5.68,5.67,5.59,5.59,0,1,1,.24-11.17A5.62,5.62,0,0,1,247.18,203.93Z"/></g></g></svg>