<svg xmlns="http://www.w3.org/2000/svg" viewBox="0 0 368.5 308.59"><defs><style>.cls-1{fill:#fff;}</style></defs><g id="Layer_2" data-name="Layer 2"><g id="Layer_1-2" data-name="Layer 1"><path class="cls-1" d="M47.32,39c5.32-7.21,12.74-8.41,21-8.31,18.33.24,36.67.06,55,.09,11.81,0,19.94,7.56,20.46,19.26.14,3.18,1.38,4,4.32,4q39.1-.1,78.21,0c1.63,0,3.28,0,4.52-1.31,5.43-5.78,12.49-6.86,19.89-6.87q32.94,0,65.87,0c5.34,0,5.38-.05,5.4-5.45,0-6.74,0-13.48,0-20.21.1-11.74,8.37-20,20.14-20,3.72,0,7.47-.39,11.18.51a19.51,19.51,0,0,1,15.06,18.26c0,1,0,2,0,3q.06,138.47.1,276.93c0,1.12,0,2.25,0,3.36-.27,4.05-2.33,6.31-6.36,6.36q-16.85.17-33.68,0c-4.23,0-6.37-2.31-6.49-6.59-.13-4.61-.13-9.23,0-13.85.06-2.56-1-3.71-3.53-3.53-1,.07-2,0-3,0H53.05c-6.43,0-6.42,0-6.43,6.6,0,3.61.08,7.23,0,10.85-.15,4.26-2.29,6.49-6.56,6.53q-16.65.15-33.3,0c-4.45,0-6.5-2.29-6.68-6.81,0-1.12,0-2.24,0-3.37q0-138.09.1-276.17C.12,7.67,7.77.16,22.33,0,29,0,35.26.43,40.38,5.44a19.48,19.48,0,0,1,6.13,14.37c0,6.22,0,12.44,0,18.66ZM46.61,189c4.56-5.1,9.08-8.49,15.22-8.79,20.94-1,41.9-.82,62.83-.16,12.08.38,18.65,8,19.21,20.11.14,3,1.6,3.41,4,3.41q39.3-.06,78.59,0a5.92,5.92,0,0,0,4.74-1.7c4.58-4.9,10.39-6.53,16.92-6.51,23.08.05,46.16,0,69.24.08,3.37,0,4.58-1,4.54-4.49-.14-15.34-.05-30.69,0-46,0-6.36,0-6.36-6.3-6.36H52.89c-1.12,0-2.25,0-3.37,0-2,0-2.92,1-2.92,3C46.62,157,46.61,172.49,46.61,189ZM9.1,157.92h.1q0,67.91,0,135.81c0,5.63,0,5.64,5.46,5.64H31.5c5.93,0,5.93,0,5.93-5.92q.06-135.06.1-270.13c0-1.37,0-2.75-.08-4.11-.32-3.54-1.65-6.78-4.9-8.35a20.5,20.5,0,0,0-18.06-.21c-5.15,2.4-5.43,7.51-5.42,12.58Q9.15,90.58,9.1,157.92Zm321.87,0h.1v95.4q0,20.58,0,41.15c0,4.91,0,4.92,5.06,4.93h17.21c6,0,6,0,6-5.89l.09-270.12a39.48,39.48,0,0,0-.11-4.49c-.38-3.38-1.72-6.49-4.83-8a20.59,20.59,0,0,0-18.07-.23c-5.15,2.38-5.46,7.48-5.45,12.56Q331,90.55,331,157.89Zm-146.7-28.44H303.59c4.86,0,9.73,0,14.59,0,1.21,0,2.91.31,3.29-1.11a15.87,15.87,0,0,0-.06-9.55c-.83-2.19-3.55-1.2-5.44-1.2-22.56-.06-45.13,0-67.7-.06-11.51,0-18.78-5.25-22-15.9-.82-2.69-2.57-2.65-4.59-2.65q-85.47,0-170.94,0c-3,0-4.25.94-4.18,4.08.17,7,0,14,.06,20.94,0,5.5,0,5.51,5.65,5.51Zm-.41,145.35H317c2.61,0,4.92.19,5-3.69,0-3.48-1.16-4.5-4.54-4.48q-35.91.17-71.82,0c-9,0-16.42-5.27-18.78-13.75-1-3.51-2.57-4.32-6-4.31-30.29.12-60.59.07-90.89.07-26.31,0-52.62,0-78.93-.06-3.43,0-4.63,1.06-4.49,4.5.23,5.35.06,10.72.06,16.08,0,5.59,0,5.6,5.57,5.6Zm-48-35.31c28.3,0,56.6-.05,84.9.06,3.54,0,4.92-1,4.77-4.68-.23-5.6-.11-11.21,0-16.82.07-5.28.13-5.29-5.34-5.29H133.78q-36.66,0-73.31,0c-10.47,0-13.82,3.4-13.85,14v7.1c0,5.62,0,5.63,5.48,5.63ZM136,89.87h84.19c5.2,0,5.3-.1,5.32-5.16,0-5.36-.4-10.76.14-16.07.62-6.1-.54-5.63-5.64-5.63H61.36a39.18,39.18,0,0,0-4.85.16c-6.35.8-9.75,4.57-9.93,11-.09,3.49,0,7,0,10.48,0,5.18,0,5.2,5.23,5.2Zm145.82,18c11.85,0,23.7-.07,35.55.06,3.26,0,4.69-.83,4.66-4.41-.16-14.6-.12-29.19,0-43.79,0-3.23-1.08-4.37-4.34-4.36-23.82.09-47.65,0-71.48.07-7.18,0-11,4-11.06,11.19,0,9.61,0,19.22,0,28.82,0,8.65,3.8,12.4,12.59,12.42C259.08,107.88,270.44,107.86,281.79,107.86Zm-.19,97.26c-11.35,0-22.69,0-34,0-8.63,0-12.34,3.7-12.36,12.22q0,13.85,0,27.67c0,8.39,4,12.45,12.32,12.47,23.31,0,46.62,0,69.93.07,3.44,0,4.52-1.1,4.48-4.51q-.22-21.69,0-43.38c.05-3.73-1.38-4.65-4.83-4.6C305.28,205.21,293.44,205.12,281.6,205.12ZM94,54c12.2,0,24.4,0,36.61,0,3.83,0,4.56-.94,4-4.76A10.49,10.49,0,0,0,124,39.77c-9.22-.09-18.43,0-27.65,0-10.7,0-21.41,0-32.12,0-6.32,0-10.6,3.86-10.92,9.45C53,53.34,53.57,54,57.8,54,69.88,54,82,54,94,54Zm-.36,149.61c12.35,0,24.7-.1,37,.06,3.5,0,4.34-1.43,4-4.53a10.45,10.45,0,0,0-10.58-9.6c-8-.11-16,0-24,0-12,0-24,0-35.92,0-5.84,0-10.27,3.94-10.85,9.27-.44,4.09.18,4.8,4.37,4.8Q75.72,203.6,93.68,203.58Z"/></g></g></svg>