<svg xmlns="http://www.w3.org/2000/svg" viewBox="0 0 196.2 348.93"><defs><style>.cls-1{fill:#fff;}</style></defs><g id="Layer_2" data-name="Layer 2"><g id="Layer_1-2" data-name="Layer 1"><path class="cls-1" d="M93.54,232q0-51.27,0-102.53c0-5.18,0-5.19-5.21-5.21-3.75,0-7.5.15-11.23,0-3.22-.17-4.46,1-4.37,4.29.31,11,.42,21.93.6,32.9,0,2.12.13,4.25,0,6.36-.3,4.06.36,7.1,4.47,9.58,5.39,3.24,7.08,10.75,4.9,16.66-2.31,6.29-8.34,10.55-14.59,10.32a15.64,15.64,0,0,1-14.33-11.27,14.56,14.56,0,0,1,6.35-16.6c2.93-1.81,3.6-3.9,3.58-7-.11-13.22,0-26.44,0-39.66,0-5.51,0-5.52-5.69-5.52q-24.33,0-48.64,0c-8.85,0-11.34-4.11-7.71-12.22q23-51.37,45.94-102.79C48.11,8,48.77,6.8,49.29,5.53,50.91,1.58,53.78,0,58.07,0c22.58.1,45.15.05,67.73.05,4.11,0,8.24.14,12.35,0,4.3-.18,7,1.66,8.77,5.55,7.8,17.55,15.69,35.05,23.53,52.58,8.05,18,16,36,24.14,53.94,3.64,8.09,1.11,12.19-7.77,12.19q-39.47,0-78.95,0c-5.2,0-5.22,0-5.22,5.21q0,102.51,0,205c0,5.18,0,5.19,5.17,5.2,9.85,0,19.7,0,29.56,0,4,0,6.13,1.66,6,4.5s-2.29,4.65-6.08,4.66q-39.28,0-78.57,0c-3.8,0-6-1.8-6.09-4.66s2-4.49,6-4.5c10,0,20-.17,29.94.06,3.79.09,4.9-1.12,4.88-4.9-.13-34.29-.07-68.59-.07-102.89ZM98,114.61q41.34,0,82.69,0c4.71,0,4.78,0,2.84-4.47-4.36-9.93-8.79-19.83-13.2-29.74q-15.11-34-30.2-68c-1-2.17-2.24-3.36-4.77-3.36q-37.23.08-74.46,0a4.69,4.69,0,0,0-4.86,3.23C54.45,16.16,52.69,20,51,23.89Q31.74,67.13,12.53,110.37c-1.86,4.18-1.78,4.24,2.8,4.24Q56.69,114.63,98,114.61ZM74.07,189a5.51,5.51,0,0,0-5.76-5.51,5.59,5.59,0,1,0,.14,11.17A5.51,5.51,0,0,0,74.07,189Z"/></g></g></svg>