<svg xmlns="http://www.w3.org/2000/svg" viewBox="0 0 239.63 368.3"><defs><style>.cls-1{fill:#fff;}</style></defs><g id="Layer_2" data-name="Layer 2"><g id="Layer_1-2" data-name="Layer 1"><path class="cls-1" d="M239.62,199.86V360a25.68,25.68,0,0,1-.18,4.48,4.48,4.48,0,0,1-8.84,0,26.71,26.71,0,0,1-.16-4.48q0-55.2,0-110.4c0-5.63,0-5.58-5.55-5.66-69.72-1-139.45-.35-209.18-.57-5.86,0-5.87,0-5.87,6V360.52c0,5.58-1.39,7.87-4.71,7.78S.65,366,.65,360.65q0-71.85,0-143.71c0-12.71,7.51-20.13,20.31-20.17,3.24,0,6.48,0,9.73,0s6.45.48,8.5-3.08c.75-1.29,2.6-1.44,4.12-1.32,3,.23,3.85-1.24,3.82-4-.09-10.85,0-21.7,0-32.56,0-6.66,2.29-9,9-9q34.82-.06,69.61,0c6.91,0,9,2.29,9.06,9.28,0,10.61.12,21.21,0,31.82,0,3.4,1.05,4.86,4.51,4.49,2.75-.29,5.23.28,6.78,2.93.81,1.4,2.21,1.46,3.61,1.46q38.73,0,77.47,0c2.41,0,3.31-1,3.31-3.37,0-15.84-.07-31.68.05-47.52,0-3.53-1.94-3.69-4.57-3.69q-31.24.06-62.5,0c-6.36,0-12.72,0-19.08,0-5.46,0-7.24-1.76-7.29-7.54-.09-10.72-.24-21.46.1-32.18.12-3.82-1-4.56-4.54-4.55Q72,98.1,11.38,98a41.46,41.46,0,0,1-4.86-.14c-4-.49-5.94-2.56-6.39-6.59A29.12,29.12,0,0,1,0,87.91Q0,48.43,0,9C0,1.59,1.61,0,9.07,0H233.24c5.53,0,5.49,0,5.58,5.29C239.92,70.14,239.47,135,239.62,199.86ZM119.38,88.38q53.13,0,106.26,0c4.67,0,4.85-.19,4.86-4.87q0-12,0-24c0-6.36,0-6.36-6.49-6.37H14.84c-5.68,0-5.8.13-5.8,5.93q0,11.77,0,23.57c0,5.66,0,5.68,5.56,5.68Q67,88.4,119.38,88.38Zm.38,145.81v.05c35.28,0,70.57-.05,105.86.08,3.79,0,5.06-1.13,4.89-4.91-.27-6-.06-12-.07-17.95,0-5.52,0-5.53-5.6-5.53H62.49c-14,0-27.93-.05-41.9,0-6.82,0-10.62,3.89-10.75,10.7-.07,4.12,0,8.23,0,12.35,0,5.16,0,5.18,5.18,5.18ZM73.39,44.2c19.94,0,39.89-.05,59.83,0,3.33,0,4.7-1,4.63-4.49q-.25-13.26,0-26.54c.06-3.33-1.28-4.28-4.44-4.28q-60,.11-120,0c-3.54,0-4.49,1.35-4.43,4.64.17,8.6.06,17.2.09,25.8,0,4.61.24,4.82,4.91,4.83ZM188.69,98c-12.47,0-24.94.07-37.41,0-3.29,0-4.73.91-4.65,4.45.19,8.85.15,17.71,0,26.56,0,3,1,4.2,4.09,4.19q37.78-.12,75.57,0c3.36,0,4.27-1.28,4.22-4.44-.14-8.72-.18-17.46,0-26.18.1-3.73-1.41-4.65-4.85-4.61C213.38,98.11,201,98,188.69,98ZM189,44.2c12.46,0,24.92,0,37.38,0,1.82,0,4,.34,3.8-2.67-.73-9.33-.29-18.68-.3-28,0-3.36-1.07-4.59-4.52-4.57q-36.82.16-73.65,0c-3.21,0-4.44,1.07-4.38,4.33.14,8.72,0,17.44.05,26.17,0,4.5.28,4.75,5,4.76Q170.71,44.23,189,44.2ZM91,192.33c10.22,0,20.44-.08,30.66,0,3.07,0,4.18-1,4.13-4.13q-.19-13.83,0-27.66c0-3-1-4.22-4.08-4.21q-30.66.13-61.33,0c-3.07,0-4.19,1.06-4.14,4.14.14,9,.21,17.95,0,26.92-.09,3.7,1,5.07,4.84,5C71,192.18,81,192.34,91,192.33Z"/><path class="cls-1" d="M76.32,31.47c2.74.23,4.23,1.81,4.28,4.35a4,4,0,0,1-4.16,4.34c-2.82.05-4.43-1.75-4.42-4.51S73.8,31.71,76.32,31.47Z"/></g></g></svg>