<svg xmlns="http://www.w3.org/2000/svg" viewBox="0 0 368.48 300.93"><defs><style>.cls-1{fill:#fff;}</style></defs><g id="Layer_2" data-name="Layer 2"><g id="Layer_1-2" data-name="Layer 1"><path class="cls-1" d="M184.16,224.68H15c-5.82,0-5.83,0-5.83,5.66v62.87a23.11,23.11,0,0,1-.13,3.73c-.43,2.55-2,4-4.63,4A4.23,4.23,0,0,1,.14,297,19.73,19.73,0,0,1,0,293.61q0-86.05,0-172.13C0,114.3,2.07,108,6.94,102.67a22.76,22.76,0,0,1,18-7.66c9.64.09,9.64,0,9.65-9.76,0-21.33,0-42.66,0-64C34.65,10.5,40.34,3,50,.48A23.27,23.27,0,0,1,56,0H312.68c12.95,0,21.16,8.21,21.21,21.41.08,22.45,0,44.9.05,67.35,0,6.27,0,6.45,6.44,6.22,8.07-.28,15.31,1.16,21,7.51,4.4,4.86,6.95,10.48,7,16.9q.17,87.75.09,175.5c0,3.94-1.67,6-4.57,6s-4.58-2.09-4.58-6q0-32.55,0-65.11c0-5.1,0-5.12-5.25-5.12Zm.18-42.05H335.88c6.61,0,13.22-.06,19.83,0,2.47,0,3.63-.82,3.62-3.46-.05-19.45.16-38.91-.09-58.37-.14-10.79-6.6-16.63-17.39-16.67H28.3c-1.62,0-3.25-.05-4.86.09A14.15,14.15,0,0,0,11,113a23.53,23.53,0,0,0-1.83,9.84q0,27.13,0,54.26c0,5.48,0,5.49,5.67,5.49ZM184.24,9H57.76c-10.31,0-14.2,3.84-14.13,14.28.08,11.34.45,22.68.55,34q.16,16.65,0,33.3c0,3.08.79,4.53,4.2,4.5q23.21-.18,46.4,0c3.06,0,4.22-1,4.15-4.13-.14-7.23,0-14.47,0-21.7,0-15.4,11-27.15,26.42-27.24q58.94-.35,117.87,0c15.36.09,26.36,11.85,26.41,27.25,0,7.23.12,14.47,0,21.7-.06,3.11,1.11,4.13,4.16,4.12q23.2-.16,46.4,0c3.05,0,4.2-1,4.19-4.13-.07-22.69-.06-45.38.51-68.07C325.09,12.8,320.92,9,310.72,9Zm0,206.5H352.64c1.25,0,2.5-.05,3.74,0,2.05.06,2.93-.92,2.92-2.95,0-5.61-.06-11.23,0-16.84,0-2.39-1-3.45-3.36-3.34-1.12.05-2.24,0-3.36,0H15.85c-1.12,0-2.24.06-3.36,0-2.4-.11-3.35,1-3.31,3.39.07,4.73,0,9.47,0,14.21,0,5.53,0,5.54,5.58,5.54Zm0-120.45c23.81,0,47.62-.07,71.43.08,3.81,0,5-1.21,4.88-5-.25-6.23-.06-12.47-.06-18.7,0-13.33-7.16-20.47-20.59-20.5q-23.92,0-47.87,0c-21.57,0-43.13-.07-64.7,0-12,.06-19.35,7.52-19.4,19.41,0,6.6.19,13.22-.07,19.82-.15,3.81,1.2,4.91,4.94,4.88C136.65,95,160.46,95,184.28,95Z"/></g></g></svg>