<svg xmlns="http://www.w3.org/2000/svg" viewBox="0 0 305.77 368.43"><defs><style>.cls-1{fill:#fff;}</style></defs><g id="Layer_2" data-name="Layer 2"><g id="Layer_1-2" data-name="Layer 1"><path class="cls-1" d="M.27,171.44q0-74.84,0-149.67C.27,7.78,8.05,0,22.06,0H284c13.95,0,21.69,7.82,21.69,21.88q.06,148.73.1,297.47c0,14.49-6.49,21.63-20.88,22.74-2.43.19-3.21,1.24-3.26,3.51-.08,3.86-.25,7.72-.55,11.57a11.84,11.84,0,0,1-11.82,11.18q-5.43.15-10.85,0a12,12,0,0,1-12-11.9c-.1-3.61-.12-7.23,0-10.85.09-2.6-1-3.68-3.56-3.49-.74.06-1.49,0-2.24,0H65.16c-5.64,0-5.64,0-5.65,5.49,0,2.87,0,5.74,0,8.61A12,12,0,0,1,47.4,368.36c-3.49.08-7,.08-10.48,0-6.7-.15-11.58-4.71-12.08-11.32-.27-3.72-.47-7.46-.52-11.2,0-2.39-.72-3.81-3.41-3.72C8.77,342.52-.1,332.61,0,320c.4-49.51.16-99,.16-148.54Zm152.28,88.33q69.58,0,139.18.07c3.73,0,5-1.08,4.93-4.89q-.23-30.67,0-61.35c0-3.75-1.05-4.93-4.87-4.93q-138.8.15-277.6.08c-4.86,0-4.87,0-4.87,5.13q0,29.94,0,59.86c0,6,0,6,5.9,6Zm.4,9.73H14.87c-5.51,0-5.51,0-5.52,5.64q0,22.26,0,44.53c0,9,3.69,12.72,12.68,12.72H284c9,0,12.58-3.66,12.6-12.77q0-22.26,0-44.53c0-5.58,0-5.59-5.55-5.59Zm.42-151.92q-69.6,0-139.19-.07c-3.72,0-5,1-5,4.86q.28,26.19,0,52.38c0,3.75,1.08,4.92,4.88,4.92q138.81-.13,277.63,0c3.74,0,5-1,4.93-4.86-.17-17.21-.06-34.43-.05-51.64,0-5.57,0-5.58-5.58-5.58Zm-74.52-9.07H143.2c5.21,0,5.23,0,5.23-5.18q0-44.5,0-89c0-5.23-.06-5.3-5.15-5.3Q82.72,9,22.12,9C13.23,9,9.27,12.93,9.26,21.76c0,27.3.08,54.61,0,81.92,0,3.78,1.16,4.92,4.92,4.9C35.71,108.43,57.28,108.5,78.85,108.51Zm148.14,0h64c5.68,0,5.69,0,5.7-5.47q0-40.41,0-80.8c0-9.38-3.82-13.23-13.14-13.24H162.71c-5.19,0-5.24,0-5.24,5.21q0,44.51,0,89c0,5.25,0,5.27,5.15,5.27ZM34,350.24c0,8.95,0,8.95,7.63,9,8.68,0,8.72,0,8.67-8.76-.06-9.4,1.15-8.28-8.41-8.3C33,342.12,34.09,341.24,34,350.24Zm230-8.12c-9.51.1-8.25-1.06-8.36,8.38V352c0,6.74.47,7.19,7.24,7.2,9.07,0,9.1,0,9.06-9S272.88,342.19,264,342.12Z"/><path class="cls-1" d="M152.63,221.5c-3.87,0-7.74.1-11.6,0-3.05-.11-5.51-1.37-5.46-4.85s2.54-4.7,5.58-4.74q11.79-.12,23.57,0c3,0,5.44,1.21,5.67,4.68.2,2.9-2,4.81-5.79,4.92-4,.13-8,0-12,0Z"/><path class="cls-1" d="M152.89,299.45c-4,0-7.95,0-11.93,0-3,0-5.14-1.32-5.39-4.48s1.93-4.85,4.81-5a232.64,232.64,0,0,1,25.33,0c2.74.16,4.81,1.65,4.67,4.75s-2.17,4.62-5.19,4.67C161.09,299.5,157,299.44,152.89,299.45Z"/><path class="cls-1" d="M152.59,144.54c-4,0-8,0-11.93,0-2.88,0-4.88-1.26-4.9-4.38s1.84-4.59,4.73-4.62q12.48-.14,25,0c2.88,0,4.74,1.6,4.71,4.63s-2,4.35-4.91,4.37C161,144.57,156.81,144.54,152.59,144.54Z"/></g></g></svg>