<svg xmlns="http://www.w3.org/2000/svg" viewBox="0 0 257.08 368.22"><defs><style>.cls-1{fill:#fff;}</style></defs><g id="Layer_2" data-name="Layer 2"><g id="Layer_1-2" data-name="Layer 1"><path class="cls-1" d="M33.52,214c-1.21-24-2.46-48.28-3.64-72.55-.6-12.44-1-24.89-1.62-37.34-.92-19.65-1.93-39.3-2.84-59C24.82,32.41,24.33,19.71,23.79,7c0-.62,0-1.25,0-1.87C23.82,2.3,24.9.08,28,0s4.59,2.15,4.73,5.14c.3,6.09.61,12.19.79,18.29.16,5.3.31,5.55,5.49,5.55q89.81,0,179.61.06c3.53,0,4.87-.83,5.27-4.7.67-6.46,0-13,1.05-19.4.48-2.87,1.53-5.12,4.9-4.95,2.69.14,4.27,2.67,4.11,6.11q-1.06,22.4-2.1,44.79-1.87,40.88-3.76,81.75-1.46,31.35-3,62.71c-.36,7.34-.93,14.67-1.3,22-.08,1.56-.83,3.66.58,4.58s2.91-.84,4.2-1.67c5.26-3.39,10.23-7.13,13.94-12.29a24.92,24.92,0,0,0,5.11-12.66c.32-4,2.52-6.31,5.26-6,2.91.33,4.55,3.37,4.11,7.25-1.24,11-7.53,19-15.62,25.92a50.23,50.23,0,0,1-11,7.67c-15.34,7.15-27.68,18.59-41.05,28.53-16.82,12.49-33.38,25.32-50,38-3.32,2.54-3.32,2.58.18,5.23l72.36,55a40.55,40.55,0,0,1,4.05,3.31,4.32,4.32,0,0,1,.52,6.1,4.15,4.15,0,0,1-5.69,1.2,53.61,53.61,0,0,1-6.14-4.24q-36.93-28.09-73.78-56.25c-2.16-1.65-3.5-1.28-5.5.24q-38.19,29.19-76.52,58.21A19.2,19.2,0,0,1,46,367.45c-2.22,1.15-4.4,1.12-6-1s-1.36-4.5.63-6.35c1.64-1.52,3.48-2.83,5.27-4.19q35.42-27,70.85-53.92c3.41-2.6,3.41-2.85.12-5.36C90.21,276.37,63.74,256,36.94,236c-6.54-4.87-14.48-7.79-20.81-13.17-8.17-7-14.69-15-15.94-26.14a10,10,0,0,1-.14-2.6c.4-2.57,1.71-4.56,4.49-4.72a4.26,4.26,0,0,1,4.65,4c1.11,13.38,10,20.9,20.23,27.45,1,.65,2,1.91,3.31,1.25s.72-2.23.78-3.41C33.58,217.18,33.52,215.69,33.52,214Zm95.83-101.8q-42.82,0-85.67,0c-5.72,0-5.83,0-5.58,5.91.46,10.82,1,21.64,1.55,32.46,1.22,24.38,2.51,48.76,3.59,73.15.14,3.22,1.15,4.88,4.19,6.05C69.57,238.17,92.63,242,116.15,243a258.16,258.16,0,0,0,43.68-1.44c17.12-2.18,33.93-5.6,50.08-11.89,2.61-1,4-2.32,4.15-5.36.53-12.06,1.4-24.11,2-36.18,1.12-23.76,2-47.54,3.27-71.29.22-4-1-4.74-4.65-4.73C186.22,112.21,157.78,112.15,129.35,112.15ZM128.46,38H39.76c-5.42,0-5.7.45-5.39,5.74q1.53,26.67,2.86,53.35c.29,6,.11,6,6,6H213.92c6.05,0,6.24,0,6.56-6.23q1.35-26.7,2.41-53.4c.22-5.38,0-5.45-5.36-5.45ZM66.3,245.67c.54.85.63,1.11.81,1.24,19.53,14.9,39.09,29.74,58.57,44.71,2.31,1.78,3.72.82,5.52-.56q27.36-20.87,54.77-41.67c1.05-.8,2.33-1.43,3-3.26A276.76,276.76,0,0,1,66.3,245.67Z"/></g></g></svg>