<svg xmlns="http://www.w3.org/2000/svg" viewBox="0 0 368.36 245.34"><defs><style>.cls-1{fill:#fff;}</style></defs><g id="Layer_2" data-name="Layer 2"><g id="Layer_1-2" data-name="Layer 1"><path class="cls-1" d="M184.54,195.05a83.93,83.93,0,0,1-15.47,26.67c-24.09,27.46-63.48,32-92.22,8.18-17.27-14.32-25.87-33.18-28-55.19-.32-3.3-1.57-4.11-4.64-4.13-12.34-.09-24.68-.41-37-.66-6.23-.12-8.65-3.69-6.24-9.35C9.51,140.37,18.19,120.2,26.74,100c1.71-4,4.29-6,8.88-5.83,13.7.44,27.42.6,41.13.78,3.56,0,5.82,1.49,7.13,4.86,8.11,20.8,16.33,41.56,24.45,62.36,2.28,5.84-.12,9.3-6.37,9.25-12.84-.09-25.69.16-38.52-.64-4.9-.3-5.37.23-4.95,4.91,2.57,28.4,22.41,55.27,52.59,59.6,16.87,2.42,32-2.47,44.73-13.66C172,207.43,179.39,189,179.5,167.82c.26-50.77.13-101.54.15-152.31,0-5.89,0-5.9-6.08-5.9H78.14a19.18,19.18,0,0,1-5.94-.49A4.2,4.2,0,0,1,69,4.63,4,4,0,0,1,72.17.55,21.55,21.55,0,0,1,77,0Q186.08,0,295.16,0a14.9,14.9,0,0,1,5.18.63A4.3,4.3,0,0,1,300.42,9a17.39,17.39,0,0,1-6.29.66H195c-6.27,0-6.28,0-6.28,6.07,0,50.15-.32,100.3.23,150.45.31,27.57,12.12,49.12,37.7,61.5,19.75,9.56,45.32,5,61.38-9.93a69.07,69.07,0,0,0,21.63-40.85c.89-5.51.37-5.91-5-6.35-11.34-.94-22.69-.4-34-.69l-2.24,0c-9.38-.12-10.56-5.13-7.54-11.72,8.74-19,16.85-38.36,25-57.65,1.9-4.47,4.5-6.45,9.6-6.37,13.72.22,27.43.47,41.14.87,3.28.1,5.39,1.41,6.57,4.48,8.18,21.17,16.45,42.32,24.57,63.51,1.9,5-.62,8.56-5.93,8.5-12-.13-23.93-.49-35.9-.69-6.11-.11-6.1,0-6.85,5.92a76.52,76.52,0,0,1-23.73,47.15c-28,26.63-73.67,23.43-97.77-6.71A96.11,96.11,0,0,1,184.54,195.05Zm153.81-33.37v.1c5.36,0,10.73-.1,16.09.05,2.3.07,2.63-.74,1.88-2.62q-1.51-3.83-3-7.66-8.42-21.83-16.84-43.63c-.7-1.82-1.16-3.84-3.86-3.89-11.71-.19-23.43-.47-35.14-.73a3.63,3.63,0,0,0-3.72,2.52q-11,25.43-22,50.81c-1.13,2.59-.7,3.47,2.27,3.53C295.49,160.6,316.92,161.16,338.35,161.68ZM55.25,104.06v-.13c-5.48,0-11,.07-16.45,0A4.52,4.52,0,0,0,34,107c-7,16.65-14.17,33.24-21.22,49.88-1.56,3.68-1.4,3.83,2.79,3.88q34.58.43,69.15.87c3.23,0,6.47.17,9.69.47,2.75.25,3.75-.39,2.62-3.28q-10.16-25.72-20.16-51.53C75.94,105,74.58,104,72.08,104,66.47,104.14,60.86,104.06,55.25,104.06Z"/></g></g></svg>