<svg xmlns="http://www.w3.org/2000/svg" viewBox="0 0 284.63 368.46"><defs><style>.cls-1{fill:#fcfcfc;}</style></defs><g id="Layer_2" data-name="Layer 2"><g id="Layer_1-2" data-name="Layer 1"><path class="cls-1" d="M142.44,368.46h-128c-7.64,0-9.23-1.59-9.25-9.18,0-2.49-.06-5,0-7.48s0-4.86-2.68-6.43c-1.73-1-1.87-3.12-1.87-5.05,0-33.31-.07-66.62.07-99.93,0-10.42,8.86-18.53,20-18.7,10.48-.16,21,0,31.44-.05,4.45,0,4.48,0,2.45-3.81A35.43,35.43,0,0,1,50.19,198c.41-5.58,2.75-7.85,8.24-7.89,4.49,0,9,0,13.47,0,5.09,0,5.09,0,5.12-5.28,0-4.12-.15-8.25.12-12.35.5-7.25,6.54-12,14.35-11.56a12.67,12.67,0,0,1,12,12.51c0,2.9-1.12,5-4.09,5.3s-4.42-1.44-4.92-4.08-1.56-4.71-4.51-4.44c-3.17.3-3.79,2.76-3.77,5.5,0,3.49.12,7,0,10.47-.12,2.88.94,4.05,3.9,4,5.73-.14,11.47-.06,17.21,0,5.5,0,7.82,2.4,8.13,8a35.35,35.35,0,0,1-4.3,19.45c-2.2,4-2.14,4.07,2.38,4.07H232.85c10.1,0,20.21,0,30.31,0,13.3,0,21.43,8.22,21.43,21.52q0,47.34,0,94.68c0,3.5-.11,6.76-3.51,8.87-1.22.76-1.06,2.17-1.07,3.41,0,3,0,6,0,9,0,7.52-1.82,9.35-9.22,9.35Zm67.37-30.78c20.33,0,40.66-.08,61,.06,3.62,0,4.69-1.2,4.68-4.75-.12-29.8-.05-59.61-.08-89.42,0-8.27-3.94-12.19-12.15-12.2q-57.24,0-114.49,0c-4.85,0-5,.14-5,5.1q0,48.09,0,96.16c0,4.91.13,5,5,5Zm-138.11,0h56.86c5.47,0,5.49,0,5.49-5.34q0-47.88,0-95.76c0-5.12-.08-5.2-5.26-5.2H22.19c-8.65,0-12.33,3.64-12.33,12.22q0,44.5,0,89c0,5,.09,5.06,5,5.06ZM142,359.27H264c1.24,0,2.49,0,3.74,0,.88,0,1.93-.13,2.17-1.11a17,17,0,0,0,0-9.22c-.84-2.57-3.7-1.44-5.66-1.44q-122-.07-244,0c-1,0-2,0-3,0-2.05,0-3,1-2.89,3,0,1.12,0,2.24,0,3.37,0,5.46,0,5.47,5.63,5.47Zm-59-160c-6.73,0-13.46.07-20.19,0-2.88,0-3.65,1.09-3.24,3.88a27.77,27.77,0,0,0,3.91,11.2c3,4.58,6.51,8,12.74,7.39a56.92,56.92,0,0,1,12.31,0c7.54.85,11.5-3.51,14.65-9.27a30,30,0,0,0,2.8-8.87c.59-3-.21-4.42-3.54-4.34C96,199.4,89.48,199.29,83,199.29Z"/><path class="cls-1" d="M140.63,149.09H9.27C1.59,149.09,0,147.52,0,140q0-59.5.06-119C.07,8.2,8.16.09,20.88.08q120,0,239.9-.08c10.88,0,21.05,8,21,20.8-.28,32.67.27,65.34.47,98q.06,10.31,0,20.59c0,7.67-2.09,9.69-9.83,9.69ZM73.33,69.75H132.8c4.66,0,4.9-.23,4.91-4.83q0-25.42,0-50.86c0-4.85-.14-5-5.1-5q-55.35,0-110.71,0C13,9.08,9.06,13,9.05,21.82q0,21.33,0,42.64c0,5.18.1,5.28,5.19,5.28ZM72.93,140c19.82,0,39.64-.07,59.45.06,3.55,0,4.8-1.08,4.77-4.69-.14-17.08,0-34.16-.06-51.24,0-4.49-.29-4.75-5-4.75q-59.09,0-118.18,0c-4.67,0-4.85.19-4.85,4.85q0,25.43,0,50.86c0,4.86.06,4.9,5.12,4.91Zm136.4,0c19.45,0,38.89-.08,58.34.07,3.74,0,5-1.1,4.95-4.9-.16-17-.05-33.9-.06-50.86,0-4.67-.24-4.93-4.82-4.93q-58.16,0-116.31-.06c-3.55,0-4.79,1.14-4.76,4.73.14,17.08.18,34.16,0,51.24,0,3.93,1.46,4.8,5.06,4.78C170.93,139.92,190.13,140,209.33,140Zm.15-70.25c19.46,0,38.91-.06,58.36.06,3.54,0,4.83-1.1,4.79-4.72-.14-14.71,0-29.43-.06-44.14,0-7.85-4.08-11.86-12.06-11.87q-54.43,0-108.87,0c-4.7,0-4.91.21-4.92,4.81q0,25.44,0,50.88c0,4.8.19,5,5.14,5Q180.67,69.76,209.48,69.74Z"/><path class="cls-1" d="M206.79,247.21h-40a25.61,25.61,0,0,1-3.72-.15,4.09,4.09,0,0,1-3.87-3.9,4.37,4.37,0,0,1,3.34-4.79,11.94,11.94,0,0,1,3.69-.33q40.56,0,81.1,0c.37,0,.75,0,1.12,0,3.86.15,6,1.88,6,4.72s-2.18,4.43-6.15,4.44C234.44,247.23,220.62,247.21,206.79,247.21Z"/><path class="cls-1" d="M72.67,247.21H32.26a22,22,0,0,1-3.73-.17A4.09,4.09,0,0,1,24.85,243a4.35,4.35,0,0,1,3.49-4.69,14.3,14.3,0,0,1,3.34-.22q40.6,0,81.19,0a17.48,17.48,0,0,1,3,.12c2.53.45,4,1.95,4,4.6s-1.55,4.13-4.17,4.37c-1.23.12-2.49.09-3.74.09Z"/><path class="cls-1" d="M73.14,62.81c-2.61,0-5.24.16-7.83,0-2.75-.21-4.9-1.64-5-4.58s1.93-4,4.58-4.4A58.54,58.54,0,0,1,82,53.91c2.37.37,4,1.52,4,4.07a4.15,4.15,0,0,1-4,4.58c-3,.35-5.94.32-8.92.46Z"/><path class="cls-1" d="M73.47,124.31c2.73,0,5.47-.11,8.19,0s4.45,1.65,4.44,4.48-1.8,4.37-4.5,4.44c-5.58.12-11.17.12-16.74,0-2.84-.08-4.82-1.68-4.66-4.69.14-2.72,1.93-4.21,4.71-4.24s5.71,0,8.56,0Z"/><path class="cls-1" d="M212.42,124.3c2.73,0,5.46-.08,8.19,0,2.9.11,4.75,1.62,4.67,4.63-.07,2.82-1.92,4.27-4.63,4.32q-8.19.15-16.37,0c-2.82-.05-4.94-1.46-4.9-4.48s2.16-4.53,5.22-4.51c2.61,0,5.21,0,7.82,0Z"/><path class="cls-1" d="M212.34,62.76c-2.73,0-5.48.21-8.19-.06-2.5-.25-4.67-1.58-4.71-4.4s1.86-4.24,4.5-4.56a58.59,58.59,0,0,1,17.44.22c2.19.39,3.67,1.65,3.84,3.94.18,2.51-1.38,3.91-3.6,4.55C218.58,63.33,215.43,62.71,212.34,62.76Z"/></g></g></svg>