<svg xmlns="http://www.w3.org/2000/svg" viewBox="0 0 369.92 200.72"><defs><style>.cls-1{fill:#fff;}</style></defs><g id="Layer_2" data-name="Layer 2"><g id="Layer_1-2" data-name="Layer 1"><path class="cls-1" d="M185,165.47H62.64c-5.55,0-5.55,0-5.56,5.57,0,7.36.05,14.72,0,22.08-.05,5.31-2.24,7.54-7.54,7.56q-21,.09-41.91,0c-4.44,0-6.87-2.32-7.38-6.77a39.3,39.3,0,0,1-.12-4.48c0-30.56.3-61.12-.11-91.67C-.22,81.21,10.42,68.54,24.38,66.62c2.93-.41,2.71-2.42,2.71-4.43,0-11.6-.06-23.2.05-34.79C27.19,21.61,28,16,31.46,11,36.79,3.42,44.42.13,53.33.1Q108-.11,162.59.09c7.73,0,14.8,2.2,20.08,8.36,1.15,1.33,2.05,1.42,3.3,0C191.49,2.18,198.79.06,206.8.05Q260.5,0,314.2.06c16.4,0,26.48,10.39,26.5,26.81,0,11.72.09,23.45,0,35.17,0,3.08.79,4.33,4.13,4.61,13.72,1.14,24.84,13.19,25,27.7.26,32.68.13,65.36.07,98,0,5.92-2.61,8.3-8.55,8.31q-20,0-40,0c-6.27,0-8.3-2-8.33-8.3,0-7.36-.19-14.72.07-22.07.13-3.77-1.06-4.92-4.87-4.91q-61.56.18-123.11.08Zm-.19-9.19v0H307.93c4.95,0,5,0,5-5,0-13.22-.08-26.45.08-39.67,0-3.4-1-4.54-4.49-4.53q-123.49.11-247,0c-3.44,0-4.54,1.1-4.5,4.52.16,13.1.07,26.2.08,39.3,0,5.38,0,5.4,5.36,5.4ZM250.92,98c19.2,0,38.4,0,57.6,0,3.09,0,4.42-.77,4.49-4.17.22-11,5.47-19.23,15.21-24.36,2.4-1.27,3.47-2.7,3.45-5.47-.11-12.59,0-25.19-.05-37.78-.06-10.8-6-16.59-16.73-16.59q-54.61,0-109.21,0c-10.86,0-16.84,5.95-16.86,16.94,0,22.19.09,44.38,0,66.57,0,3.8,1.18,4.92,4.93,4.89C212.78,97.9,231.85,98,250.92,98ZM118.43,98c19,0,37.93,0,56.89,0,3.14,0,4.46-.82,4.44-4.2-.1-23.08,0-46.16-.06-69.24,0-8.7-6.27-14.89-14.9-14.9q-56.52-.07-113,0c-9,0-15,6.06-15,15.07-.05,12.6.08,25.2-.07,37.8,0,3.3.93,5.06,4.08,6.53C50.91,73.78,56.48,82,56.93,93.18c.15,3.78,1.25,4.9,5,4.86C80.76,97.88,99.59,98,118.43,98ZM9.82,140.08h0c0,15.57.09,31.15-.06,46.72,0,3.51,1,4.86,4.65,4.78,9.46-.21,18.94-.06,28.41-.07,5,0,5.05,0,5.05-4.94q0-35.5,0-71c0-7,.17-14-.06-20.93-.35-11-8.81-19.16-19.45-19-10.88.15-18.55,8.22-18.58,19.61C9.79,110.17,9.82,125.13,9.82,140.08Zm350.33.11h0q0-22.65,0-45.29A18.92,18.92,0,0,0,359,87.57a19.22,19.22,0,0,0-21.16-11.76c-9.1,1.65-15.72,9.67-15.75,19.6-.07,30.68,0,61.37-.05,92.06,0,3.12,1.09,4.13,4.14,4.09,9.86-.13,19.72-.18,29.57,0,3.54.07,4.47-1.3,4.44-4.61C360.08,171.38,360.15,155.78,360.15,140.19Z"/></g></g></svg>