<svg xmlns="http://www.w3.org/2000/svg" viewBox="0 0 368.38 326.55"><defs><style>.cls-1{fill:#fff;}</style></defs><g id="Layer_2" data-name="Layer 2"><g id="Layer_1-2" data-name="Layer 1"><path class="cls-1" d="M185,0H339.57c17.6,0,28.75,11.14,28.78,28.71,0,8.73,0,17.46,0,26.19a27.18,27.18,0,0,1-27.25,27.45c-6.73.1-13.47.15-20.2,0-3.3-.08-4.38,1.2-4.31,4.4.16,6.86,0,13.72.06,20.58.18,14.15-10.19,22-21.71,21.74-24.31-.48-48.64-.15-73-.14-5.35,0-5.45.13-5.47,5.44,0,3,0,6,0,9-.11,4.17-1.53,5.56-5.67,5.73-5.63.23-5.64.23-5.64,5.9,0,3,0,6,0,9,0,2,.93,2.95,3,2.94,5.86,0,11.72,0,17.58-.09a12.55,12.55,0,0,0,6.64-2.32c2.21-1.45,4.08-2.85,1.38-5.8-1.64-1.79-1.49-4.25.49-6a4.27,4.27,0,0,1,6.11-.07c3.8,3.23,7.58,6.49,11.2,9.92a4.49,4.49,0,0,1,.56,6.42,4,4,0,0,1-6.26.68c-2.17-1.81-3.47-1.27-5.35.46a21.9,21.9,0,0,1-15.65,6c-5.24-.08-10.48.09-15.72,0-2.84-.07-4.13.89-4,3.87.16,3.24.08,6.49,0,9.73-.08,4.15-1.63,5.9-5.77,6.33a62.69,62.69,0,0,1-6.72.16c-2.12,0-3.24.84-3.3,3.08-.12,4-.51,8-.52,11.95q-.1,50.51-.13,101c0,5.15,0,5.16,5.23,5.17,7.73,0,15.46,0,23.2,0,3.9,0,6,1.73,6,4.63s-2,4.53-6.05,4.54q-32.94,0-65.86,0c-3.92,0-6-1.71-6-4.62s2.15-4.5,6.12-4.54c7.73-.06,15.47-.12,23.2,0,3.11.06,4.4-.84,4.49-4.2,1.06-37.54.23-75.08.63-112.61,0-3.44-1.13-4.8-4.54-4.51a34.13,34.13,0,0,1-6-.09c-4.32-.41-6-2.17-6-6.52-.05-11.85-.14-23.7.06-35.55.07-3.76-1.08-5.08-4.89-4.92-5.15.21-6.44-1.27-6.5-6.33,0-2.87,0-5.74,0-8.61,0-5-.2-5.14-5.39-5.14H93c-6.74,0-13.47,0-20.21,0-12.58,0-20.64-7.78-21-20.39-.19-7.1,0-14.22,0-21.33,0-4.59-.2-4.67-4.92-4.81-7.84-.24-15.73.8-23.51-.66A28.27,28.27,0,0,1,.05,54q-.11-12.73,0-25.45A28.32,28.32,0,0,1,28.62,0Q106.83,0,185,0Zm0,9q-78,0-156,0c-11.5,0-19.87,8.31-20,19.77C9,36.89,9.08,45,9.07,53.1a19.65,19.65,0,0,0,1.83,8.34C15,70.28,22.33,73.33,31.56,73.33q153.41,0,306.81,0c.75,0,1.5,0,2.25,0,11.18-.39,18.61-8,18.69-19.15.06-8.36-.3-16.73.11-25.07.57-11.58-8.13-20.33-20.2-20.24C287.84,9.21,236.46,9,185.07,9Zm-.69,73.39h-116c-1.12,0-2.25.07-3.37,0-2.52-.14-3.62,1-3.6,3.52.08,8.11-.07,16.22.11,24.33.11,5.15,3.73,8.8,8.93,9.42a39.37,39.37,0,0,0,4.48.12q109.29,0,218.57,0c1,0,2,0,3,0,6.58-.26,10.4-4.07,10.47-10.65.09-7.11,0-14.22,0-21.33,0-5.36,0-5.38-5.46-5.38Zm11.11,85.26c0-5-.05-10,0-14.94,0-2.44-.82-3.69-3.46-3.65q-7.83.15-15.68,0c-2.61,0-3.5,1.15-3.48,3.62q.09,15.12,0,30.24c0,2.59,1.14,3.53,3.63,3.49,5.1-.08,10.21-.1,15.31,0,2.79.06,3.72-1.2,3.67-3.84C195.41,177.59,195.48,172.61,195.49,167.64Zm-11.58-27.71c6.34,0,12.69,0,19,0,4.4,0,4.44-.1,4.43-5.58,0-5.32-.05-5.41-4.59-5.42-11.57,0-23.14,0-34.71,0-7.26,0-7.15,0-7.09,7.09,0,2.85.93,4,3.89,4C171.21,139.82,177.56,139.92,183.91,139.93Z"/></g></g></svg>