<svg xmlns="http://www.w3.org/2000/svg" viewBox="0 0 368.49 282.75"><defs><style>.cls-1{fill:#fff;}</style></defs><g id="Layer_2" data-name="Layer 2"><g id="Layer_1-2" data-name="Layer 1"><path class="cls-1" d="M184.23,216.42H14.73c-5.53,0-5.53,0-5.54,5.59v53.13a25.88,25.88,0,0,1-.13,3.74,4.2,4.2,0,0,1-4.34,3.86,4.24,4.24,0,0,1-4.6-4A27.25,27.25,0,0,1,0,275q0-73.9,0-147.81c0-15.09,9.67-24.68,24.88-24.71,9.85,0,19.71,0,29.56,0,6.22,0,6.23,0,6.23-6.06q0-37.05,0-74.09C60.77,8.15,68.85,0,83,0H285.48c14.17,0,22.25,8.15,22.26,22.34q0,37.42.05,74.84c0,5.27,0,5.28,5.13,5.29,10.6,0,21.2,0,31.8,0,13.7.08,23.72,10,23.73,23.61q.06,74.83,0,149.67a17.06,17.06,0,0,1-.17,3.36,4.23,4.23,0,0,1-4.56,3.61,4.14,4.14,0,0,1-4.24-3.54,21.52,21.52,0,0,1-.2-4.1c0-18-.1-35.92.07-53.88,0-3.79-1.12-4.89-4.89-4.88Q269.37,216.52,184.23,216.42ZM184,178.79H320.2c11.73,0,23.45,0,35.17,0,2.5,0,4-.49,4-3.47-.08-16.46.07-32.93-.09-49.39-.06-5.93-2.8-10.58-8.46-13-2.9-1.25-6-1.37-9.18-1.37q-46.59,0-93.16,0H27c-12.71,0-17.79,5.06-17.79,17.64q0,21.88,0,43.77c0,5.76,0,5.77,5.74,5.77ZM184.49,9Q134.15,9,83.82,9c-10.1,0-14,4-14,14.14q0,34.05,0,68.11c0,11.54,0,11.44,11.57,11.27,3.21,0,4.08-1.32,4-4.27-.14-5.61.33-11.25-.1-16.83-1.07-14,10.17-25.59,25.2-25.34,13.72.22,27.44,0,41.17,0,15.07.05,25,10.07,25.09,25.21,0,5.86.08,11.72,0,17.59,0,2.54,1,3.65,3.55,3.55a74.85,74.85,0,0,1,7.49,0c2.88.17,4-1,4-3.91q-.2-9.34,0-18.71c.26-13.18,10-23.41,23.13-23.66q22.46-.43,44.91,0c13.76.25,23.24,10.26,23.32,24,0,6.24.07,12.48,0,18.71,0,2.56,1,3.66,3.55,3.55a60.22,60.22,0,0,1,7.48,0c3.38.28,4.59-1,4.58-4.45-.1-25.45,0-50.9,0-76.35,0-8.11-4-12.2-12-12.67-1.37-.08-2.75,0-4.12,0Zm-.43,198.22H352.85c1.25,0,2.5,0,3.74,0,1.89,0,2.7-.94,2.69-2.77,0-4.61,0-9.23,0-13.85a2.23,2.23,0,0,0-2.49-2.56c-1.25,0-2.49-.05-3.74-.05H15.46c-1,0-2,.07-3,0-2.42-.15-3.35,1-3.28,3.36.09,3.37,0,6.74,0,10.11,0,5.78,0,5.79,5.71,5.79Zm-53.5-104.75h31.38c5,0,5.13-.14,5.15-4.93,0-6,0-12,0-17.93-.08-8.43-5.36-13.78-13.75-13.81q-22.23-.09-44.46,0c-8.7,0-14.27,5.52-14.39,14.16-.09,6.1.13,12.21-.07,18.31-.11,3.33,1.21,4.3,4.39,4.25C109.38,102.39,120,102.48,130.56,102.48Zm107,0c10.83,0,21.67,0,32.5,0,2.2,0,4-.22,3.95-3.11-.07-7,.2-14-.11-20.92a13,13,0,0,0-13.2-12.62q-23.16-.16-46.32,0c-7.47,0-12.85,5.54-13,13.06-.1,6.23.15,12.46-.09,18.68-.14,3.69,1,5.07,4.86,5C216.66,102.34,227.12,102.48,237.58,102.48Z"/></g></g></svg>