<svg xmlns="http://www.w3.org/2000/svg" viewBox="0 0 368.33 319"><defs><style>.cls-1{fill:#fff;}</style></defs><g id="Layer_2" data-name="Layer 2"><g id="Layer_1-2" data-name="Layer 1"><path class="cls-1" d="M184.24,0H357.87c1.37,0,2.75,0,4.11,0,4.06.26,6.17,2.29,6.26,6.42.13,6.11.12,12.22,0,18.33-.07,4.1-1.66,6.06-5.69,6.55-2.69.32-3.33,1.65-3.21,4,.06,1.25,0,2.5,0,3.75l.12,269.05c0,1.5,0,3,0,4.49-.19,4.11-2.22,6.31-6.27,6.34-11.23.1-22.46,0-33.68,0-3.39,0-5.35-1.57-5.9-5-2.19-13.66-3.87-27.38-5.3-41.14-1.17-11.36.48-9.26-9.58-9.27q-115.26-.11-230.52,0c-6.14,0-6.07,0-6.86,6.24-1.85,14.59-4.24,29.1-7.38,43.49-1,4.64-2.27,5.67-7.23,5.68q-16.28,0-32.56,0C7.9,319,6,317,6,310.62q0-68.12,0-136.22,0-68.85.1-137.7c0-2.81-.21-5.05-3.28-6.31-2-.81-2.71-2.89-2.73-5C0,19-.06,12.66.08,6.31.17,2.24,2.35.27,6.49.05,7.86,0,9.23,0,10.6,0ZM132,53.22c-.13,2.14-.25,3.12-.25,4.1q0,96.33,0,192.67c0,3.54,1.26,4.44,4.58,4.43q47.32-.15,94.65,0c3.87,0,4.83-1.31,4.82-5q-.1-95,0-190c0-1.27.56-2.74-.9-3.93-13.48,15.8-30.68,23.29-51.32,23.19C162.69,78.56,145.7,70.35,132,53.22ZM15,89.87h.07q0,12.72,0,25.44c0,12.83-.11,25.67.5,38.5.14,3.08,1.16,4.2,4.21,4.1,8.55-.26,7.29,1.19,10.74-7.17.57-1.39,1.11-2.78,1.69-4.16C42.83,121.13,53.59,95.76,58.92,68.5c1.48-7.58,3.47-15.06,5.3-22.57.71-2.88,2.13-5.36,5.65-4.54s3.84,3.47,3.16,6.49c-6.51,29-12.78,58-25.23,85.18-3.21,7-5.91,14.29-8.74,21.48-.41,1-1.92,3,.45,3.16,4.12.27,8.31,1,12.06-2.26a159.58,159.58,0,0,0,23.16-24.33c21.85-28.69,36.08-61,45.69-95.58,1-3.73.7-4.05-3.68-4.05q-48.45,0-96.89,0c-4.65,0-4.81.17-4.81,4.89Q15,63.13,15,89.87Zm335.26,4.81h.06c0-19.46-.06-38.92.06-58.38,0-3.4-.82-4.91-4.58-4.89q-47.7.16-95.41,0c-3,0-4,.72-3.2,3.9,6.13,22.82,13.5,45.16,24.7,66.08,10.77,20.1,24.4,37.91,42,52.56,2.95,2.45,5.9,4.31,10.06,4,4.53-.35,4.61-.14,2.41-4.35a302.71,302.71,0,0,1-20.09-47.89,310.54,310.54,0,0,1-12.65-59.53c-.41-3.48,1.07-6.06,3.79-6.24,3.21-.23,4.74,1.65,5.15,4.68.57,4.2,1.13,8.4,1.78,12.58a295.11,295.11,0,0,0,31.7,95c2.24,4.17,4.53,6.12,9.4,5.84,3.73-.21,4.93-1.21,4.9-5C350.21,133.59,350.29,114.13,350.29,94.68ZM122.74,61.33c-1.11.25-1.12,1-1.32,1.5a309.45,309.45,0,0,1-19.78,44C90.07,127.52,76.35,146.54,58.08,162c-1.9,1.59-1.84,3.19-1.22,5.3,7.87,26.84,8.66,54.25,6.31,81.89-.4,4.74-.17,5.21,4.57,5.22h49.39c5.52,0,5.53,0,5.53-5.6q0-91.68.08-183.36Zm123,1.38c-1.51,8.49-.24,16.68-.25,24.89q-.12,71.47,0,142.94c0,6.74.06,13.47,0,20.21,0,2.48.86,3.64,3.48,3.63q27.32-.07,54.63,0c2.43,0,3.34-1,3.16-3.4a376.45,376.45,0,0,1-.73-41.82c.52-13.74,1.73-27.37,4.83-40.77.68-2.91.24-4.88-2.15-6.83A166.64,166.64,0,0,1,286.91,140C269.83,119.88,257.86,96.87,249,72.13,247.87,69,246.83,65.85,245.76,62.71ZM184,22.48q83,0,166.1,0c10.39,0,9.05,1.55,9.26-9.45.06-3.18-1.27-4.29-4.25-4-1.11.1-2.24,0-3.36,0H16.53C8.42,9,9,8.31,9,16.41c0,6.07,0,6.07,6.26,6.07ZM15.68,251.87q0,26.76,0,53.51c0,1.9-.51,4.17,2.6,4.42,2.78.21,3.67-1.26,4.12-3.68,4.7-25.74,5.82-51.49.49-77.29-1.06-5.15-.21-7.74,2.77-8.53s5.16,1.17,6.39,6.55c5.7,25.08,4.76,50.25.7,75.42-1.22,7.56-1.32,7.54,6.37,7.54,6,0,6,0,7.16-5.86A463.85,463.85,0,0,0,54,244.3a280.83,280.83,0,0,0-.67-46.67c-.31-2.94-1.54-3.74-4.28-3.71-9.48.1-19,0-28.44,0-4.82,0-4.93.12-4.93,5.14Q15.67,225.49,15.68,251.87Zm334.6.56q0-26.75,0-53.49c0-2.26,0-4.26-3.2-4.23-9.35.09-18.7,0-28,0-2,0-3,.81-3.05,2.86-.2,4.85-.61,9.7-.73,14.55-.66,26.59,1.47,53,4.6,79.4.6,5.07,1.49,10.1,2.12,15.17.47,3.81,3.27,3.09,5.67,3,3-.07,2-2.21,1.73-3.81-1.41-8.85-2.7-17.71-3.32-26.68-1.25-18.14-.55-36.11,3.8-53.83,1-4.05,3.21-6,6-5.11,3.56,1.13,3.8,4,3.12,7a172.79,172.79,0,0,0-3.64,46.77A243.66,243.66,0,0,0,339.09,306c.71,3.92,2.17,4.4,8.44,3.83,3.39-.3,2.71-2.67,2.72-4.66C350.29,287.58,350.27,270,350.28,252.43Zm-166.39-221H137.48c-4.89,0-5.25.45-3.57,5.15A46.08,46.08,0,0,0,153.42,61c15.37,9.52,31.93,11,48.94,5.8,14.95-4.58,26.12-13.8,31.48-29,2-5.76,1.65-6.26-4.3-6.27ZM33.65,184.77c4.85,0,9.7,0,14.55,0,2.19,0,3.38-.57,2.71-3-1.1-4.07-2.17-8.16-3.25-12.25-.49-1.86-1.73-2.51-3.6-2.51q-12.5.08-25,0c-2.34,0-3.44.92-3.4,3.31.06,3.6.1,7.21,0,10.81-.09,2.79,1.17,3.74,3.82,3.68C24.19,184.7,28.92,184.78,33.65,184.77Zm299.85.78c4.48,0,9-.06,13.45,0,2.37.05,3.39-.93,3.34-3.32-.08-3.86-.11-7.72,0-11.58.1-2.78-1.08-3.72-3.77-3.68-7.47.1-14.94.12-22.41,0-2.68,0-3.84,1.09-4.25,3.56-.64,3.8-1.32,7.6-2.12,11.38-.55,2.62.36,3.71,3,3.65C325,185.49,329.27,185.55,333.5,185.55Z"/><path class="cls-1" d="M189.26,123.85c-.19.58-.51,1.65-.92,2.68q-10.18,25.53-20.4,51c-2,4.95-4.18,6.51-7.08,5.34-3.06-1.24-3.53-4-1.5-9.05q10.32-25.66,20.7-51.31c1.84-4.51,5.69-5.33,8.27-2A4.53,4.53,0,0,1,189.26,123.85Z"/><path class="cls-1" d="M200.62,151.32c-.27.85-.55,2.06-1,3.2-3.29,7.95-6.63,15.87-9.95,23.8-1,2.45-2.39,4.5-5.46,4.12a4.41,4.41,0,0,1-3.59-6.2c3.66-9.27,7.61-18.42,11.59-27.56a3.77,3.77,0,0,1,5-2.15C199.29,147.22,200.48,148.67,200.62,151.32Z"/><path class="cls-1" d="M183.94,64.4c-13.83-.62-26.62-3.87-36.46-14.54a23.7,23.7,0,0,1-3.73-5.13c-1.3-2.53-.66-4.65,1.68-6.14s4.61-.89,5.84,1.33C161.4,58.26,197.18,60.13,213,44.86c2.19-2.1,4.54-2.77,6.87-.36s1.49,4.78-.65,6.86c-7.27,7-16.17,10.64-26,12.21A38.29,38.29,0,0,1,183.94,64.4Z"/></g></g></svg>