<svg xmlns="http://www.w3.org/2000/svg" viewBox="0 0 233.43 368.37"><defs><style>.cls-1{fill:#fff;}</style></defs><g id="Layer_2" data-name="Layer 2"><g id="Layer_1-2" data-name="Layer 1"><path class="cls-1" d="M42.7,215.2c0-45.9-.14-91.81.08-137.71A77.9,77.9,0,0,1,58.44,30.36C90.55-12.8,153.07-9.37,180.58,37A78.55,78.55,0,0,1,191,67.2c.81,6.2.87,6.73,7.06,6.08,8.78-.93,13.62,2.12,16.73,10.72,5.17,14.28,11.7,28.07,17.57,42.11,2.6,6.2.46,9.36-6.21,9.4-5.86,0-11.72.07-17.58,0a4.37,4.37,0,0,0-4.62,2.86c-3,6.46-8,10.54-15.39,10.61-7.63.08-13.1-3.61-16.27-10.46a4.58,4.58,0,0,0-4.89-3q-9.17.17-18.34,0c-5.49-.12-7.67-3.42-5.53-8.51,6.86-16.32,13.85-32.6,20.75-48.91,1.34-3.17,3.81-4.48,7.05-4.6,2.74-.09,5.49-.08,8.23-.07,2.29,0,2.93-1,2.71-3.3-3-32-27.4-57.45-59.34-60.83-17.39-1.84-33,3.53-46.44,14.92C59.73,38.43,51.87,57,51.83,78.6c-.2,91.93,0,183.86-.07,275.79,0,3.78,1.12,4.95,4.9,4.9,12.72-.18,25.44,0,38.17,0a15.25,15.25,0,0,1,3.71.26,4,4,0,0,1,3.24,4.07A4.08,4.08,0,0,1,98.49,368a14.85,14.85,0,0,1-3.72.25l-87.19.11c-5.37,0-7.54-1.31-7.58-4.53s2.2-4.65,7.46-4.66H37.4c5.2,0,5.22,0,5.22-5.15q0-69.42,0-138.83Zm145.19-88.77c10.21,0,20.43-.06,30.64,0,3,0,3.73-.83,2.49-3.71-5.22-12.12-10.33-24.3-15.42-36.48-.92-2.21-2.28-3.31-4.79-3.28-8.47.09-16.95.07-25.42,0a4.37,4.37,0,0,0-4.58,3q-7.63,18.27-15.46,36.46c-1.3,3-.6,4,2.64,4C168,126.37,177.92,126.43,187.89,126.43Z"/></g></g></svg>