<svg xmlns="http://www.w3.org/2000/svg" viewBox="0 0 368.46 172.34"><defs><style>.cls-1{fill:#fff;}</style></defs><g id="Layer_2" data-name="Layer 2"><g id="Layer_1-2" data-name="Layer 1"><path class="cls-1" d="M184,134.94H52.22c-5.61,0-5.62,0-5.62,5.5,0,8.11,0,16.22,0,24.33,0,5.4-2.12,7.5-7.49,7.53q-15.9.09-31.81,0c-5.14,0-7.27-2.18-7.27-7.36Q0,92,.08,19C.1,8.76,8.78.26,19,0c2.62-.06,5.24,0,7.86,0A19.46,19.46,0,0,1,46.53,19.77q.09,21.71,0,43.41c0,2.76.28,3.72,3.74,3.28a115.74,115.74,0,0,1,29.46-.1c9.49,1.23,14.93,10.11,12.89,19.8-.7,3.36.33,3.77,3.2,3.76q110.77-.06,221.55,0c3.76,0,4.59-1.45,4.56-4.86-.12-16.35-.06-32.69,0-49,0-11.92,8.35-20.25,20.22-20.32,2.25,0,4.49,0,6.74,0a19.44,19.44,0,0,1,19.53,19.5q.09,64.56.06,129.12c0,5.9-2,7.93-7.83,7.95q-15.54.06-31.07,0c-5.62,0-7.66-2.08-7.69-7.71-.05-8.23,0-16.46,0-24.7,0-4.93,0-5-5-5Zm.27-35.35h-131c-1.24,0-2.49,0-3.74,0-2,0-2.93,1-2.93,3q0,10.11,0,20.21c0,2,.9,3,2.94,2.94,1.24,0,2.49,0,3.74,0H315.19c1,0,2-.08,3,0,2.75.23,3.77-1,3.71-3.73-.12-5.61,0-11.22,0-16.83s0-5.61-5.57-5.61ZM37.41,89.82h.05q0-34.39,0-68.8c0-7.71-4.13-11.78-11.77-11.93-1.37,0-2.74,0-4.11,0-8.39.08-12.39,4-12.43,12.41s0,17,0,25.43c0,37.14.08,74.28,0,111.42,0,3.8,1.12,5,4.89,4.87,6.22-.27,12.47-.29,18.69,0,3.9.19,4.82-1.29,4.8-5C37.34,135.44,37.41,112.63,37.41,89.82ZM331,97.56h0c0,20.33.08,40.67-.07,61,0,3.66,1.2,4.77,4.74,4.64,6.11-.24,12.23-.06,18.34-.07,5.21,0,5.23,0,5.23-5.13q0-60.07,0-120.14a29.77,29.77,0,0,0-.07-3c-.54-5.64-4.26-9.42-9.89-10a50.61,50.61,0,0,0-5.23-.09c-9.36,0-13.13,3.81-13.13,13.23Q331,67.81,331,97.56ZM65.56,89.86c3.61,0,7.23.09,10.85,0,4.27-.13,7.1-2.87,7.38-6.91a7.16,7.16,0,0,0-6.31-7.61,138.78,138.78,0,0,0-24.63,0A7.29,7.29,0,0,0,54,89.83C57.83,90,61.69,89.86,65.56,89.86Z"/></g></g></svg>