<svg xmlns="http://www.w3.org/2000/svg" viewBox="0 0 368.11 275.86"><defs><style>.cls-1{fill:#fff;}</style></defs><g id="Layer_2" data-name="Layer 2"><g id="Layer_1-2" data-name="Layer 1"><path class="cls-1" d="M184.14,0Q264.23,0,344.3,0a23.32,23.32,0,0,1,23.16,18.14c3.55,15.49-7.76,29.59-24.08,29.74-15.72.15-31.43,0-47.15,0-4.89,0-4.91,0-3.69,4.83q25.05,99,50.11,198c2.47,9.75-1.12,18.48-9.51,22.86a19.19,19.19,0,0,1-23.71-4.88,20.25,20.25,0,0,1-3.95-8.38c-8.83-34-17.71-68.06-26.4-102.13a13.36,13.36,0,0,0-6.24-8.73c-26.46-16.7-55.11-25.71-86.56-26.09-32.38-.39-62,8.26-89.48,25.14a16.54,16.54,0,0,0-8,10.89c-8.51,33.73-17.35,67.38-26.12,101.05-2.15,8.23-8.21,14.13-15.39,15-8.4,1-15.33-1.59-19.87-9a18.93,18.93,0,0,1-2-15.13Q50.31,153.13,75.15,54.83C77,47.4,77.57,48,69.94,48,55,48,40,48,25,47.93,12.87,47.86,3.4,40.48.66,29.14-2.87,14.52,8.18.13,23.24.06,49.31,0,75.38,0,101.45,0ZM94.38,138.69c60.07-33.2,119.52-33.19,179.23-.13a16.23,16.23,0,0,0-.24-1.81C266,108.51,258.66,80.29,251.43,52c-.8-3.16-2.26-4.13-5.42-4.13q-61.9.14-123.81,0c-3.45,0-4.72,1.29-5.53,4.48C111,74.6,105.18,96.78,99.41,119,97.76,125.35,96.16,131.73,94.38,138.69ZM184.1,38.31H340.91c1.74,0,3.5,0,5.23-.07,8.05-.58,14.27-8.81,12.67-16.71C357.12,13.14,351.77,9,342.39,9H25.78c-1.12,0-2.25,0-3.36.06a14.73,14.73,0,0,0-13,17.62c1.69,7.45,7,11.58,15.22,11.58Q104.38,38.33,184.1,38.31ZM97.17,48H92.31c-5.87,0-5.87,0-7.34,5.84L52.66,182.21q-8.82,35-17.66,70c-.86,3.45-1.41,7,.91,10.06s5.51,4.74,9.46,4c4.36-.77,7-3.44,8.07-7.79q8-31.15,16.22-62.26,13.7-52.47,27.4-104.95c3.43-13.15,6.78-26.32,10.3-39.45.81-3,.1-4.18-3.08-3.94C101.92,48.11,99.54,48,97.17,48Zm174,0h-4.86c-6.42,0-6.45,0-4.81,6.3Q284.63,143.12,307.81,232c2.36,9.05,4.7,18.1,7.15,27.12A9.63,9.63,0,0,0,326,266.32,9.4,9.4,0,0,0,333.79,256a36,36,0,0,0-1.21-6.22Q308.48,154,284.35,58.28C281.75,48,281.77,48,271.15,48Z"/></g></g></svg>