<svg xmlns="http://www.w3.org/2000/svg" viewBox="0 0 286.04 368.46"><defs><style>.cls-1{fill:#fff;}</style></defs><g id="Layer_2" data-name="Layer 2"><g id="Layer_1-2" data-name="Layer 1"><path class="cls-1" d="M42.64,214.55c0-45.41-.08-90.82,0-136.23A79.5,79.5,0,0,1,64.46,22.91C84.16,1.55,115.86-6,142.77,5,171.3,16.68,186.58,38.82,190.84,69a62.88,62.88,0,0,1,.65,8.56c0,2,.8,2.51,2.65,2.65a93.16,93.16,0,0,1,53.32,21.33c21.82,17.95,34.4,41.17,37.73,69.16,3.64,30.66-4.3,58.23-24.23,81.86-16.58,19.69-37.85,31.37-63.62,34.29-52,5.88-98.66-32.27-107.48-84.16-5.65-33.24,2.27-63.18,24.34-88.92C131.2,93.89,153,82.85,179,80.24c2.75-.28,3.7-1.23,3.55-3.92-1-18.22-7-34.51-19.82-47.65C141.93,7.4,110.42,2.38,84.54,18.36c-19.47,12-29.71,29.93-32.32,52.49a97.69,97.69,0,0,0-.56,11.2q0,135.29.1,270.58a25.44,25.44,0,0,1,0,2.62c-.35,3.13,1.07,4.1,4.11,4.07,12.73-.12,25.45-.05,38.18-.05a33.37,33.37,0,0,1,3.74.1,4.13,4.13,0,0,1,4,4.49c0,2.66-1.45,4.17-4.06,4.49a22.93,22.93,0,0,1-3,.1H7.2c-.87,0-1.75,0-2.61,0C1.86,368.18,0,366.79,0,364c0-3,1.84-4.58,4.75-4.64,5.11-.11,10.23-.05,15.34-.06,6.36,0,12.73-.06,19.09,0,2.34,0,3.53-.83,3.38-3.27-.07-1.12,0-2.24,0-3.37V214.55ZM186.35,89.94c-1.89-.23-4.33.44-6.82.64-39.67,3.2-72.16,39-68.88,80.49,1.53,19.4,9.07,35.78,23,49.29,2.14,2.08,3.05,2.68,4.26-.92,7.45-22.12,26.87-35.73,49.32-35.75,23.91,0,42.76,14.77,49.39,36,.75,2.42,1.29,3.2,3.48,1.07,18.31-17.83,26.22-39.56,23-64.77C258.32,118.75,226.7,90.44,186.35,89.94Zm87.32,70.43c2.44,51.11-38.1,90.58-86.16,90.94-24.52.18-45.84-8.87-62.91-26.74s-24.52-39.63-23.8-64.3C98.06,167.07,97,180.13,98,191.7c2.16,25.34,12.26,46.86,31.33,63.8,22.36,19.85,48.54,27.05,77.51,19.95,34.79-8.53,56.15-31.75,66.25-65.61A90.1,90.1,0,0,0,273.67,160.37Zm-86.32,81.46a78.81,78.81,0,0,0,38.13-10.16c2.84-1.58,3.76-3.32,3-6.63-4.83-19.77-21.58-32.18-43.27-31.82-18.41.3-35.63,14.85-39.48,33.11-.63,3,.87,4,2.92,5.22A78,78,0,0,0,187.35,241.83Z"/></g></g></svg>