<svg xmlns="http://www.w3.org/2000/svg" viewBox="0 0 368.65 294.25"><defs><style>.cls-1{fill:#fff;}</style></defs><g id="Layer_2" data-name="Layer 2"><g id="Layer_1-2" data-name="Layer 1"><path class="cls-1" d="M184.26,259c-35.17,0-70.34.05-105.52-.07-3.61,0-5.37,1-6.11,4.68-1.49,7.58-3.47,15.06-5.22,22.59-1.49,6.43-3.41,8-10.11,8-4.61,0-9.23,0-13.84,0-6.56,0-8.23-1.35-9.79-7.85-1.82-7.64-3.7-15.27-5.31-23-.69-3.26-2.18-4.44-5.57-4.47-11.25-.1-19.32-5.63-22.06-14.6A21.18,21.18,0,0,1,0,238.07q0-55.38,0-110.76c0-10.83,7.33-19.11,18.08-20.26,8.82-1,17.67-1.7,26.17,1.91,1.44.62,2.14.16,2.17-1.37q0-1.5,0-3,0-42.84,0-85.68C46.55,7.21,53.7,0,65.49,0q118.8,0,237.6,0C314.92,0,322,7.11,322,18.81q0,43.21.07,86.44c0,4.38-.06,4.1,4.19,2.9a51,51,0,0,1,28.78,0c8.65,2.58,13.42,10,13.43,19.1,0,36.42-.27,72.84.2,109.25.16,12.73-8.62,21.87-21.79,22.49-5.67.27-5.68.29-7,5.85-1.72,7.28-3.38,14.58-5.13,21.85-1.48,6.13-3.26,7.48-9.68,7.52-5,0-10,0-15,0-5.31-.05-7.43-1.68-8.7-6.88-2-8-3.95-16-5.62-24-.7-3.38-2.3-4.35-5.62-4.34C254.86,259.07,219.56,259,184.26,259Zm-.07-73.31H307.28c5.61,0,5.63,0,5.63-5.55q0-80.25.08-160.5C313,12,310.1,9,302.41,9q-118,0-236.08,0c-7.81,0-10.79,3.08-10.79,10.94q0,80.07,0,160.13c0,5.63,0,5.65,5.53,5.65Zm-.06,63.59H343.54a50.66,50.66,0,0,0,5.23-.11c6.53-.68,10.49-4.87,10.5-11.41q.09-55,0-110c0-7.08-4.34-11.42-11.43-11.63-4.24-.13-8.48-.07-12.72,0-8.91.08-13.09,4.25-13.1,13.07q0,27.88,0,55.76c0,7.63-2.74,10.48-10.29,10.48q-127.61,0-255.2,0c-7.38,0-10.18-2.87-10.18-10.22,0-18.83,0-37.66,0-56.5,0-8.15-4.25-12.43-12.45-12.58-4-.08-8-.05-12,0-8.6.07-12.83,4.33-12.84,12.93q0,33.3,0,66.61c0,14,0,27.94,0,41.91,0,6.91,4.11,11.17,11,11.68,1.62.12,3.24.07,4.87.07ZM50.25,259c-3.36,0-6.73.06-10.09,0-2.35,0-3.16.82-2.55,3.17,1,3.74,1.69,7.54,2.68,11.27,3.55,13.38.05,10.75,14.45,11.05h.37c2.09.16,3.22-.79,3.68-2.84Q61,272,63.29,262.38c.64-2.64-.63-3.37-2.94-3.34C57,259.07,53.62,259.05,50.25,259ZM316.79,284.5c2.5,0,4.12-.05,5.74,0a3.27,3.27,0,0,0,3.71-2.87c1.53-6.56,3.07-13.11,4.67-19.64.53-2.16-.22-3-2.38-3-6.86.05-13.71,0-20.57,0-2.51,0-3.33,1.06-2.72,3.52,1.2,4.84,2.24,9.71,3.39,14.56C310.69,285.76,309.63,284.37,316.79,284.5Z"/></g></g></svg>