<svg xmlns="http://www.w3.org/2000/svg" viewBox="0 0 368.5 299.23"><defs><style>.cls-1{fill:#fff;}</style></defs><g id="Layer_2" data-name="Layer 2"><g id="Layer_1-2" data-name="Layer 1"><path class="cls-1" d="M94.38,299.23H7.56C1,299.23,0,298.18,0,291.59L0,123.93c0-6.37,1.09-7.45,7.35-7.48,1.62,0,3.24,0,4.86,0,3.09,0,6.48,1,5.21-4.59-.69-3.09,2.5-4.38,5.35-4.29,6.73.2,5.68-1.25,5.69-6.29,0-18.09,0-36.18.08-54.27a9.06,9.06,0,0,0-2.72-7,13.75,13.75,0,0,1-2-16.6,14.17,14.17,0,0,1,15.3-6.9,9.82,9.82,0,0,0,7.45-1.1C55,11,63.56,7,71.84,2.35c6.17-3.43,11.72-3,17.61.55,9.52,5.71,19.4,10.81,28.77,16.75,5,3.2,10.45,2.72,15.77,3.22s10.59,1.65,15,5c3.88,3,4.18,6.51,1,10.26-5,5.93-10.62,11.23-16.09,16.7-3.5,3.51-7.15,3.2-10.15-.8a24,24,0,0,1-4.7-13.59c-.07-1.37,0-2.74,0-4.11-.21-4.21-1.63-7.25-5.84-9.44-9.73-5.05-19.15-10.71-28.6-16.3-2.86-1.7-5.32-2-8.35-.37-7.9,4.27-15.91,8.34-23.94,12.34C50.1,23.7,49.68,25,50.21,27.35c1.68,7.45-1.9,14.09-9.16,16.61-2.82,1-3.53,2.44-3.52,5.17.1,18,.14,35.93,0,53.89,0,3.42,1.07,4.87,4.51,4.5a30.59,30.59,0,0,1,4.49,0c4.42.23,6.27,2.64,5,6.9-.49,1.69,0,1.88,1.41,2,5.33.63,6.2-.08,6.22-5.33,0-3.24-.08-6.49.05-9.73.21-5.31,2.86-8.25,8.19-8.84,2.26-.25,3-1.23,3-3.33,0-4-.05-8,0-12,.12-6,2.76-8.73,8.72-8.73q47.71,0,95.43,0c6,0,8.72,2.64,8.84,8.61q.17,7.66,0,15.34c-.11,5.71-2.5,8.4-8.25,9.07-2.3.26-3,1.33-2.94,3.39.21,14-1.94,11.46,10.89,11.48q88.34.15,176.65,0c8.05,0,8.64.6,8.64,8.8l0,165.42a29,29,0,0,1-.14,4.48c-.4,2.55-2,4-4.62,4a4.2,4.2,0,0,1-4.28-3.93,30.41,30.41,0,0,1-.14-4.48q0-79.53,0-159.06c0-6.06,0-6.06-6.21-6.06H194.43c-5.61,0-5.62,0-5.62,5.52q0,79.91,0,159.8c0,7.59-.75,8.33-8.37,8.33ZM94.12,290h80.42c5.08,0,5.1,0,5.1-4.88,0-27.43-.06-54.86.09-82.29,0-3.87-1.3-4.83-5-4.83q-80.41.15-160.83,0c-3.89,0-4.82,1.33-4.81,5q.2,41.15,0,82.28c0,3.9,1.3,4.82,5,4.8C40.76,290,67.44,290,94.12,290Zm.31-101.65q40.23,0,80.44,0c2.7,0,4.86,0,4.83-3.8-.11-18.46-.07-36.92,0-55.37,0-2.79-1.1-3.79-3.79-3.68-6.47.27-12.94.63-19.42.57-31.29-.27-62.58.55-93.87-.46-16.2-.52-32.43,0-48.64-.16-3.76-.05-5,1.09-4.91,4.89.18,17.58.09,35.16.1,52.75,0,5.21,0,5.23,5.19,5.23Zm32.7-110.81c-12.58,0-25.16-.07-37.74,0-11.42.08-9.73-1.66-9.85,9.89-.05,4.91.08,5,5,5,26.53,0,53.06.08,79.59,0,10.21,0,10.19,2.33,10.3-10.23,0-3.58-1.16-4.75-4.73-4.71C155.53,77.67,141.33,77.58,127.13,77.58Zm-23.57,38.87c8.73,0,17.45.07,26.17,0,11.07-.11,9.53,1.57,9.64-9.77,0-4.94-.13-5.08-5-5.08q-27.85,0-55.71,0c-10.55,0-10.41,0-10.44,10.52,0,3.59,1.41,4.42,4.67,4.37C83.12,116.36,93.34,116.45,103.56,116.45Zm59-7.46c0-7.4,0-7.42-6-7.4-8.41,0-7.53-.77-7.56,8,0,6.85,0,6.86,6.13,6.85C163.15,116.44,162.58,117.1,162.59,109Zm-34.5-69.61a25.58,25.58,0,0,0,.44,3c.26,1,.12,2.5,1.41,2.83,1.08.28,1.72-.87,2.38-1.57q3.72-3.93,7.35-8c.6-.66,1.89-1.63.3-2.32-2.75-1.19-5.66-2-8.66-.62C128.62,34.07,128.34,36.56,128.09,39.38Zm-86.8-8.81c.06-3.12-1.94-5.28-4.9-5.28a5.12,5.12,0,0,0-5.17,5.19,4.9,4.9,0,0,0,4.89,5.05C39.08,35.78,41.23,33.65,41.29,30.57Z"/><path class="cls-1" d="M208.24,195.11c0,2.36.12,4.73,0,7.09-.17,2.73-1.67,4.51-4.5,4.43a4.31,4.31,0,0,1-4.49-4.54c-.13-4.6-.15-9.21,0-13.8a4.17,4.17,0,0,1,4.54-4.41c2.83,0,4.3,1.79,4.46,4.51.13,2.23,0,4.48,0,6.72Z"/><path class="cls-1" d="M95.45,222a30.36,30.36,0,0,1,4.49.43,4.36,4.36,0,0,1,3.68,4.53,4.31,4.31,0,0,1-3.72,4.5,25.31,25.31,0,0,1-10,0,4.24,4.24,0,0,1-3.67-4.51,4.43,4.43,0,0,1,4.06-4.6A46.64,46.64,0,0,1,95.45,222Z"/><path class="cls-1" d="M94.57,149.38a20.81,20.81,0,0,1-5.94-.51,4.22,4.22,0,0,1-3.28-4.42c0-2.31,1.19-4,3.35-4.35a36.94,36.94,0,0,1,12.63,0,4,4,0,0,1,3.37,4,4.52,4.52,0,0,1-3.11,4.63C99.32,149.57,96.93,149.35,94.57,149.38Z"/></g></g></svg>