<svg xmlns="http://www.w3.org/2000/svg" viewBox="0 0 237.06 368.99"><defs><style>.cls-1{fill:#fff;}</style></defs><g id="Layer_2" data-name="Layer 2"><g id="Layer_1-2" data-name="Layer 1"><path class="cls-1" d="M118.39,229.67c-23.45,0-46.9.06-70.35-.07-3.63,0-5.25,1-6,4.77Q29.57,297.68,16.79,360.92c-.3,1.47-.57,2.95-1,4.38-.78,2.59-2.49,4.12-5.29,3.58-3-.57-4.22-2.69-3.72-5.53,1-6,2.29-12,3.48-18Q21.33,290,32.42,234.59c.94-4.73.79-4.89-4-4.92-4.49,0-9,.09-13.47,0-5.77-.17-8-2.58-8-8.39,0-1.5-.11-3,0-4.49.26-2.92-.28-5.07-3.68-5.77-1.83-.38-2.78-2-3-3.91-2.52-22.21,13.86-36.16,30.5-35.82,7.73.16,15.47-.06,23.2.07,2.95.05,4-1.09,3.89-4-.15-3.49-.11-7,0-10.48.07-2.55-1-3.61-3.55-3.57-5,.08-10,.05-15,0-7-.07-9.2-2.21-9.2-9.12,0-22.83,0-45.65.06-68.48C30.3,37.77,58.24,5.74,95.92,1.5c16.81-1.9,33.91-2.35,50.68.76,31.07,5.76,55.54,32.1,59.64,63.28a77,77,0,0,1,.66,10.06q0,34.43,0,68.85c0,6.46-2.21,8.73-8.73,8.83-5,.08-10,.11-15,0-2.81-.06-4.16.89-4,3.88.16,3.48.15,7,0,10.47-.11,2.8,1.11,3.71,3.79,3.68,7.73-.1,15.47.12,23.2-.06,16.58-.39,33.06,13.45,30.61,35.73a4.5,4.5,0,0,1-3.62,4.26c-2.7.59-3.2,2.3-3.06,4.67.11,2,0,4,0,6-.08,4.93-2.25,7.4-7.19,7.67-4.36.24-8.73.1-13.1.11-6.21,0-6.23,0-5,5.94q12.48,62.36,25,124.7a20.51,20.51,0,0,1,.58,3.69c0,2.55-1.14,4.37-3.72,4.87a4.11,4.11,0,0,1-5.19-3.15c-1.06-4-1.83-8-2.64-12.05q-12-59.6-23.79-119.22c-.73-3.68-2.2-4.88-5.92-4.85C165.54,229.74,142,229.67,118.39,229.67Zm.17-86c24.82,0,49.64-.07,74.45.07,3.8,0,4.92-1.19,4.9-4.94-.14-21.07,0-42.15,0-63.23A65.46,65.46,0,0,0,148,11.86c-17-4.13-34.53-3.11-51.71-1.34-31.74,3.26-57,32.08-57.09,64-.07,21.33,0,42.65,0,64,0,5.15,0,5.18,5.26,5.18Zm0,58.38H221.44c1.12,0,2.24,0,3.37,0,2,0,3-.77,2.63-3a23,23,0,0,0-3.48-9.38c-4.83-6.9-11.71-9.25-19.78-9.25q-71.44,0-142.91,0c-10,0-20-.08-29.93,0-10.75.12-19.1,6.54-21.22,16.05C9,201.75,9.15,202,14.55,202Zm-.4-30.74h2.62c15.09,0,30.18-.07,45.27,0,3.09,0,4.3-1.05,4.11-4.13-.18-2.86,0-5.73,0-8.6,0-5.19-.07-5.27-5.19-5.27H72.14c-.75,0-1.49,0-2.24,0-2,0-3,1-2.94,3,0,3.37.2,6.75-.07,10.1-.3,3.77,1.06,5,4.87,4.92C87.22,171.16,102.69,171.27,118.15,171.27Zm.38,48.68q48.84,0,97.66,0c4.6,0,4.85-.46,4.84-4.85,0-4.09-2.84-3.36-5.21-3.36q-94.66,0-189.33,0c-2.5,0-5,0-7.49,0-2,0-2.81,1-2.94,3-.29,4.57.19,5.22,4.81,5.22Q69.71,220,118.53,220Z"/></g></g></svg>