<svg xmlns="http://www.w3.org/2000/svg" viewBox="0 0 365.51 326.72"><defs><style>.cls-1{fill:#fff;}</style></defs><g id="Layer_2" data-name="Layer 2"><g id="Layer_1-2" data-name="Layer 1"><path class="cls-1" d="M182.58,326.55c-53.27,0-106.54-.26-159.81.17C8.41,326.84-.11,316.91,0,304c.33-37,.11-74.11.13-111.16C.13,177.92,8.08,170,23,170H342.57c14.88,0,22.83,8,22.83,22.91,0,37.18-.16,74.35.11,111.53.1,12.92-8.83,22.42-22.37,22.32C289.62,326.32,236.1,326.55,182.58,326.55Zm63.1-78q0-31.78,0-63.59c0-5.17-.14-5.31-5.19-5.31H124.9c-4.84,0-5.05.21-5.05,5.08q0,63.78,0,127.56c0,4.95.1,5.05,5,5.06,38.65,0,77.31-.05,116,.07,3.76,0,5-1.12,4.93-4.9C245.6,291.21,245.68,269.89,245.68,248.56ZM110.13,265.38c0-15.84-.06-31.67.05-47.5,0-3.13-.81-4.48-4.21-4.43-12.46.15-24.93.13-37.39,0-3.13,0-4.09,1.11-4.09,4.15q.12,47.88,0,95.75c0,3.15,1.18,4.07,4.2,4.05,12.34-.12,24.68-.16,37,0,3.48.05,4.5-1.18,4.47-4.55C110.05,297,110.13,281.21,110.13,265.38Zm-55.32.1c0-15.83-.07-31.66.06-47.5,0-3.39-1.06-4.59-4.52-4.54-11.84.17-23.69.06-35.53.07-4.89,0-5,.08-5,5.06q0,43.2,0,86.4c0,8.5,3.83,12.33,12.34,12.38,9.23,0,18.46,0,27.68,0,4.84,0,4.94-.1,4.94-5.11Q54.83,288.85,54.81,265.48Zm250.73-44c15.34,0,30.69-.05,46,.05,3.06,0,4.21-1,4.16-4.1-.13-9.11,0-18.22-.07-27.32-.07-6.68-3.83-10.47-10.46-10.48-28.45-.05-56.89,0-85.33-.08-3.43,0-4.58,1.17-4.53,4.57q.24,16.47,0,32.93c-.05,3.45,1.13,4.53,4.54,4.5C275.1,221.45,290.32,221.54,305.54,221.53Zm.11,57c-15.34,0-30.67,0-46,0-2.58,0-4.3.4-4.27,3.61.11,10.6.08,21.2,0,31.79,0,2.62,1.11,3.53,3.61,3.47,4-.1,8,0,12,0q36.46,0,72.94,0c7.64,0,11.7-4,11.77-11.42s0-14.72,0-22.07c0-5.23-.06-5.3-5.15-5.3Q328.09,278.52,305.65,278.54Zm.25-47.81c-15.46,0-30.93.06-46.4,0-3.06,0-4.19,1-4.14,4.1q.19,15,0,29.93c0,3.1,1.1,4.14,4.16,4.14q46-.12,92.05,0c3.06,0,4.2-1.07,4.16-4.14-.12-9.86-.16-19.71,0-29.56.06-3.48-1.19-4.51-4.57-4.47C336.09,230.8,321,230.73,305.9,230.73ZM59.75,204.32c15.33,0,30.65-.08,46,.07,3.49,0,4.6-1.18,4.47-4.55-.21-5.35-.17-10.72,0-16.07.09-3.07-1.09-4.16-4.15-4.15-28.78.07-57.55,0-86.33.08-5.71,0-9.56,3.87-9.8,9.57-.15,3.48.14,7-.11,10.46-.26,3.65,1.22,4.69,4.75,4.66C29.61,204.24,44.68,204.32,59.75,204.32Z"/><path class="cls-1" d="M70,.07c16.21,0,32.42,0,48.63,0,11.64,0,20,8.37,20,20.07q.07,38.36.06,76.69c0,13.42-7.9,21.42-21.42,21.45-26.56.08-53.12,0-79.68,0-5.36,0-10.72,0-16.09,0C8.82,118.17.22,109.75.18,97.15Q.06,59.56.21,22C.28,7.9,8.37.07,22.47.07Q46.22.05,70,.07ZM65.16,58.82h.06c0-15.08-.07-30.16,0-45.24,0-3.36-1-4.63-4.49-4.59-13.21.16-26.43,0-39.64.09-7.51,0-11.33,3.86-11.34,11.29q0,38.52,0,77c0,7.5,3.76,11.21,11.31,11.23,13.08.05,26.17-.11,39.26.09,3.89.06,4.86-1.37,4.82-5C65.06,88.74,65.16,73.78,65.16,58.82Zm64.44.3h0c0-12.85,0-25.69,0-38.53,0-7.18-4.24-11.48-11.33-11.51C105.08,9,91.86,9.15,78.65,9c-3.48,0-4.51,1.25-4.49,4.6q.15,45.26,0,90.51c0,3.72,1.42,4.64,4.86,4.61,12.83-.15,25.68,0,38.52-.07,8.41,0,12-3.62,12-12.12C129.62,84.05,129.6,71.58,129.6,59.12Z"/><path class="cls-1" d="M289.83.07q23.57,0,47.14,0c14,0,22,7.07,22.24,21,.41,25.81.33,51.63.05,77.43-.11,11.19-8.78,19.63-20,19.69q-49.2.28-98.39,0c-12.38-.09-20-8.47-20-20.89q0-38.34.06-76.69c0-12.41,8.21-20.54,20.65-20.56Q265.71.05,289.83.07Zm4.49,58.87h.06c0,15.08.08,30.16-.06,45.24,0,3.45,1.17,4.56,4.56,4.52,13.21-.14,26.42,0,39.64-.07,7.47,0,11.18-3.78,11.19-11.34q.06-38.33,0-76.66c0-7.73-3.74-11.52-11.45-11.56C325.2,9,312.11,9.15,299,9c-3.54,0-4.8,1.09-4.76,4.7C294.41,28.77,294.32,43.86,294.32,58.94Zm-9-.17h0c0-15.09-.08-30.17.06-45.26,0-3.45-1.19-4.55-4.57-4.51-13.22.14-26.44,0-39.65.08-6.9,0-11.23,4.33-11.24,11.22q-.06,38.54,0,77.06c0,7.54,3.8,11.25,11.31,11.27,13,.05,25.94,0,38.91,0,4.94,0,5.09-.13,5.09-5Q285.31,81.22,285.29,58.77Z"/><path class="cls-1" d="M179.77,97.44c-9.48,0-19,0-28.43,0-7,0-9.27-3.74-5.93-10q6.65-12.36,13.65-24.5a18.79,18.79,0,0,0,2.74-9.9c-.11-16.09,0-32.17-.08-48.26,0-3.51,1-4.89,4.67-4.81q13.85.3,27.69,0c3.53-.08,4.47,1.32,4.45,4.63-.11,16.46,0,32.92-.06,49.38a14.33,14.33,0,0,0,1.82,7.48c4.89,8.55,9.6,17.2,14.41,25.8,3.37,6,1.12,10.07-5.75,10.12C199.23,97.48,189.5,97.43,179.77,97.44Zm.62-9.09q10.47,0,21,0c1.67,0,3.25-.15,1.94-2.51q-5.55-10-11.07-20a4.14,4.14,0,0,0-4-2.16q-8.23.06-16.46,0A4,4,0,0,0,167.77,66c-3.42,6.23-7,12.39-10.37,18.63-1.77,3.25-1.45,3.71,2.4,3.73C166.66,88.39,173.52,88.36,180.39,88.35Zm9.07-56.52h0c0-6.36,0-12.72,0-19.08,0-2.43-.76-3.77-3.43-3.71-4,.1-8,.08-12,0-2.39,0-3.35,1-3.35,3.4q.08,19.46,0,38.92c0,2.4,1.05,3.37,3.4,3.32,3.86-.07,7.74-.11,11.6,0,2.77.09,3.75-1.1,3.71-3.79C189.39,44.56,189.46,38.2,189.46,31.83Z"/><path class="cls-1" d="M182.66,224.55h51.62c5.23,0,5.34.09,5.34,5.12q0,38.54,0,77.05c0,5.24-.23,5.47-5.51,5.47H131.25c-5,0-5.33-.28-5.34-5.26q0-38.71,0-77.42c0-4.81.17-4.95,5.14-5Q156.85,224.53,182.66,224.55Zm0,77.91c14.22,0,28.43-.1,42.64.07,3.63,0,4.71-1.22,4.69-4.76q-.19-29.73,0-59.47c0-3.29-.85-4.63-4.41-4.62q-42.82.18-85.65,0c-3.29,0-4.32,1.11-4.31,4.34q.16,29.93,0,59.85c0,3.67,1.3,4.68,4.8,4.64C154.45,302.37,168.54,302.46,182.63,302.46Z"/><path class="cls-1" d="M183.14,199.18h41.54a27.31,27.31,0,0,1,3.73.13c2.68.37,4.38,1.9,4.44,4.68s-1.72,4.05-4.12,4.59a17,17,0,0,1-3.71.3h-85c-5.09-.09-7.45-1.64-7.42-4.9s2.37-4.81,7.46-4.81Q161.62,199.16,183.14,199.18Z"/><path class="cls-1" d="M304.18,195.39c-1.74,0-3.49.11-5.22,0-2.52-.21-4.25-1.58-4.55-4.15s1.25-4.33,3.67-4.88a28,28,0,0,1,12.59,0,4.16,4.16,0,0,1,3.5,4.63,4.51,4.51,0,0,1-4,4.3,43.72,43.72,0,0,1-5.95.05Z"/><path class="cls-1" d="M304.63,285.17c1.74,0,3.48-.07,5.21,0,2.43.11,4.06,1.43,4.32,3.83a4.28,4.28,0,0,1-3.57,5A38.54,38.54,0,0,1,298,294a4.15,4.15,0,0,1-3.59-4.89c.24-2.42,1.88-3.74,4.27-3.9,2-.12,4,0,5.95,0Z"/><path class="cls-1" d="M304.45,238.05c1.86,0,3.73-.11,5.58,0a4.23,4.23,0,0,1,4.23,4.35,4,4,0,0,1-3.63,4.47A50.2,50.2,0,0,1,298,247a4,4,0,0,1-3.68-4.44,4.12,4.12,0,0,1,3.8-4.34,51,51,0,0,1,6.31,0Z"/><path class="cls-1" d="M61.14,195.48c-2.33,0-3.83,0-5.23-.61a4.69,4.69,0,0,1-1.51-7.45c2.37-2.37,9.55-2.13,11.71.4A4.51,4.51,0,0,1,63.94,195,11.35,11.35,0,0,1,61.14,195.48Z"/><path class="cls-1" d="M56.35,59.15A31,31,0,0,1,56,63.58c-.47,2.27-1.82,3.86-4.34,3.78a4.11,4.11,0,0,1-4.34-4.16,67.48,67.48,0,0,1,0-8.17c.12-2.54,1.52-4.32,4.15-4.33s4.31,1.71,4.67,4.37a30.67,30.67,0,0,1,0,4.07Z"/><path class="cls-1" d="M81.76,58.85a39.64,39.64,0,0,1,0-4.08c.23-2.39,1.58-4,4-4.08a4.22,4.22,0,0,1,4.65,3.91,40,40,0,0,1,0,8.88,4,4,0,0,1-4.59,3.88c-2.61-.21-4-1.87-4.14-4.42-.09-1.36,0-2.72,0-4.09Z"/><path class="cls-1" d="M301.83,59c0-1.36-.09-2.74,0-4.09.21-2.37,1.44-4,3.91-4.23a4.18,4.18,0,0,1,4.76,3.76,41.55,41.55,0,0,1,0,9.26c-.23,2.36-2,3.71-4.42,3.64a4.12,4.12,0,0,1-4.25-3.89,33,33,0,0,1,0-4.45Z"/><path class="cls-1" d="M276.32,59.22c0,1.25.09,2.5,0,3.73-.25,2.73-1.72,4.44-4.55,4.4a4.1,4.1,0,0,1-4.32-4.22,60.5,60.5,0,0,1,0-8.19,4.25,4.25,0,0,1,4.72-4.25c2.66.08,3.93,1.9,4.11,4.44.1,1.36,0,2.73,0,4.09Z"/></g></g></svg>