<svg xmlns="http://www.w3.org/2000/svg" viewBox="0 0 368.5 374.92"><defs><style>.cls-1{fill:#fff;}</style></defs><g id="Layer_2" data-name="Layer 2"><g id="Layer_1-2" data-name="Layer 1"><path class="cls-1" d="M107.72,205c18.33,0,36.67.05,55,0,7.36,0,13.75,2.16,18.85,7.56,1.49,1.58,2.38,1.86,4.1,0A23,23,0,0,1,203,205q56.33,0,112.64,0c13.74,0,24.09,11,24.25,25.6q.18,17.78,0,35.55c0,3.18.81,4.47,4.23,5,15.16,2.38,24.36,13.46,24.38,28.84q0,33.67,0,67.36c0,5.75-1.47,7.43-7.25,7.48q-21.33.18-42.66,0c-5.13,0-6.95-1.93-7-7.18,0-7.54,0-7-7.35-7q-108,0-215.93,0c-9,0-18-.23-26.92-.56-3.43-.13-4.9,1.1-4.49,4.52a13,13,0,0,1,0,1.87c-.1,6.76-1.67,8.38-8.47,8.4q-20,.06-40,0c-7.13,0-8.42-1.4-8.42-8.59Q0,333,0,299.66c0-14.46,8.31-25,22.48-28.12,3.51-.77,4.61-2.15,4.55-5.7-.22-12.1-.11-24.2-.07-36.3C27,215.38,37.36,205,51.58,205,70.29,204.9,89,205,107.72,205Zm142.06,97.37v0h55.77c5.81,0,5.88,0,6.48-5.9,1-10.1,6-17.57,14.89-22.33a5.51,5.51,0,0,0,3.32-5.59c-.09-13.1-.06-26.2,0-39.3a14.46,14.46,0,0,0-2.5-8.46c-3.56-5.17-8.78-6.65-14.67-6.65q-53.15,0-106.29,0c-12.65,0-18.58,5.9-18.6,18.55q-.06,32.39,0,64.75c0,4.88,0,4.91,5.12,4.91Zm-132.12,0c18.82,0,37.64-.09,56.47.08,3.79,0,4.91-1.18,4.88-4.93-.15-21.69-.07-43.38-.07-65.07,0-12.6-5.67-18.28-18.27-18.29q-40,0-80,0c-9.6,0-19.2-.11-28.8,0-9.12.15-15.51,6.29-15.64,15.22-.19,13.09,0,26.18-.07,39.27,0,1.94.55,3.23,2.51,4.06,11,4.65,17,13.05,17.92,25,.27,3.62,1.71,4.78,5.37,4.74C80.51,302.23,99.08,302.32,117.66,302.32ZM184,350.94v0q61,0,122,0c5.55,0,5.56,0,5.57-5.65q0-13.85,0-27.68c0-5.54,0-5.56-5.68-5.56H62.32c-5.31,0-5.37.06-5.38,5.49q0,14,0,28.06c0,5.31,0,5.32,5.5,5.32ZM47.22,329.69V300.54a6.26,6.26,0,0,0,0-.75,34,34,0,0,0-.5-5.18C44.52,285.7,35.58,279.23,27,280.19c-10.56,1.17-17.64,8.61-17.71,19.2-.15,20.56,0,41.12-.1,61.68,0,3.05,1,4.2,4.08,4.15,9.84-.14,19.69-.16,29.53,0,3.42.06,4.58-1.08,4.52-4.51C47.11,350.38,47.22,340,47.22,329.69Zm274.06-.39c0,10.59,0,21.18,0,31.77,0,2.36.24,4.15,3.33,4.12,10.47-.08,20.94-.06,31.4,0,2.39,0,3.33-.95,3.33-3.34-.05-21.06.15-42.12-.13-63.17a19,19,0,0,0-37.9.72C321.24,309.36,321.28,319.33,321.28,329.3Z"/><path class="cls-1" d="M184.23,181.91H64.51c-7,0-8.21-1.21-8.22-8.32,0-15.09-.06-30.18.06-45.26,0-3-.67-4.78-3.91-5.66-4.69-1.26-8-4.59-10-9-1-2.28-2.58-3-5-3-5.24.11-10.48,0-15.72,0-3.34,0-5.59-1.41-5.8-5C14.94,89.7,19.61,76,33,66.06c4.36-3.25,9.15-5.79,14.52-6.57,4.22-.61,5.1-2.68,5-6.54-.18-15.21-.07-30.43-.06-45.64a20.11,20.11,0,0,1,.18-3.73A4.08,4.08,0,0,1,56.83,0,3.86,3.86,0,0,1,61,3.07a17.31,17.31,0,0,1,.46,4.44c0,14.59,0,29.18,0,43.77,0,5.55,0,5.57,5.66,5.57h235c8.84,0,10,.93,10.06,9.79q.17,54.06.06,108.12c0,5.75-1.56,7.14-7.5,7.14ZM81.8,66.62C93.64,76.35,98.35,89,97.51,104c-.31,5.5-1.31,6.71-7,6.74-4.12,0-8.24.12-12.35,0-2.7-.11-4.4.69-5.47,3.37a12.3,12.3,0,0,1-4.36,5.51,5.6,5.6,0,0,0-2.43,5.12c0,14.71.08,29.43,0,44.14,0,2.89,1,4,3.94,4,7.1-.14,14.21-.07,21.32,0A6.56,6.56,0,0,0,95.93,171c16.67-15,33.4-29.94,50.06-45,5-4.48,6.64-4.52,11.55.27,12,11.68,24,23.3,35.84,35.05,2.15,2.13,3.6,2.54,6.22.46,9.86-7.83,20-15.37,30-23,4.65-3.54,5.68-3.58,10,.13,11,9.36,22.11,18.65,32.89,28.27,4.31,3.84,8.58,6.44,14.62,5.63,3.43-.46,7-.07,10.47-.09,4.85,0,4.93-.09,4.94-5.11q0-48.07,0-96.15c0-5.65,0-5.66-5.57-5.66q-105.51,0-211,0C84.69,65.87,83.27,65.41,81.8,66.62Zm109.37,106a12.61,12.61,0,0,0-1.15-1.73Q172,153.21,154,135.57c-1.72-1.68-3-1.55-4.77,0-9.67,8.79-19.42,17.49-29.12,26.25-3.74,3.38-7.74,6.5-11.33,10.75ZM56.79,101.7c9.09,0,18.19-.13,27.29.07,3.58.07,4.62-1.36,4.33-4.66-1-11.06-6-19.79-15.57-25.38-10.4-6-21.23-6.21-31.67-.16C31.49,77.17,26,85.63,25.46,97.1c-.17,3.7,1.3,4.73,4.79,4.66C39.09,101.58,47.94,101.7,56.79,101.7Zm206.47,70.58a1.65,1.65,0,0,0-.82-1.62Q249.26,159.32,236.05,148a2.26,2.26,0,0,0-3.3,0q-13.59,10.54-27.25,21c-.69.53-1.53,1.06-1.2,2.1a2.4,2.4,0,0,0,2.32,1.59c1,.09,2,.11,3,.11q25.06,0,50.14,0C260.93,172.75,262.23,173.17,263.26,172.28Z"/><path class="cls-1" d="M239,242.38a6.46,6.46,0,0,1-6.36,6.85,6.77,6.77,0,1,1-.16-13.53A6.44,6.44,0,0,1,239,242.38Z"/><path class="cls-1" d="M292.89,242.51a6.46,6.46,0,0,1-6.48,6.72,6.77,6.77,0,1,1,.09-13.53A6.45,6.45,0,0,1,292.89,242.51Z"/><path class="cls-1" d="M239,274.14a6.75,6.75,0,0,1-6.37,6.95,7.43,7.43,0,0,1-7.12-6.81c0-3.57,3.44-7,6.94-6.93A6.82,6.82,0,0,1,239,274.14Z"/><path class="cls-1" d="M292.9,273.94a6.75,6.75,0,0,1-6.54,7.15,7.47,7.47,0,0,1-6.94-6.61,7.23,7.23,0,0,1,6.74-7.13A6.81,6.81,0,0,1,292.9,273.94Z"/><path class="cls-1" d="M134.42,249.23a6.77,6.77,0,0,1,.08-13.53,6.77,6.77,0,1,1-.08,13.53Z"/><path class="cls-1" d="M87.5,242.3A7,7,0,0,1,81,249.22a6.76,6.76,0,1,1-.71-13.51A7,7,0,0,1,87.5,242.3Z"/><path class="cls-1" d="M141.41,274.21a7.13,7.13,0,0,1-7,6.78,6.82,6.82,0,0,1-6.6-7.12,7,7,0,0,1,6.93-6.45C138.11,267.54,141.47,271,141.41,274.21Z"/><path class="cls-1" d="M87.44,274.2a7,7,0,0,1-6.58,6.8,6.83,6.83,0,0,1-7-6.72,7,7,0,0,1,6.52-6.86A7.2,7.2,0,0,1,87.44,274.2Z"/><path class="cls-1" d="M177.44,118.64c.05-11.06,8.39-19.26,19.52-19.2,10.61.06,19.43,8.76,19.45,19.17a19.8,19.8,0,0,1-19.75,19.8C186.12,138.42,177.4,129.45,177.44,118.64Zm9.1.25a10.29,10.29,0,0,0,10.26,10.23,10.52,10.52,0,0,0,10.34-10.64,10.32,10.32,0,0,0-10.16-10A10.15,10.15,0,0,0,186.54,118.89Z"/><path class="cls-1" d="M37.34,94.26c-3.57.08-5.58-3.09-3.77-6.52a31.25,31.25,0,0,1,11-11.44c1.92-1.24,3.9-.61,5.38,1a3.73,3.73,0,0,1,.31,5.14c-3.23,3.75-6.7,7.3-10.12,10.89A3.73,3.73,0,0,1,37.34,94.26Z"/></g></g></svg>