<svg xmlns="http://www.w3.org/2000/svg" viewBox="0 0 368.51 228.76"><defs><style>.cls-1{fill:#fff;}</style></defs><g id="Layer_2" data-name="Layer 2"><g id="Layer_1-2" data-name="Layer 1"><path class="cls-1" d="M184.18,0H339.11a28.52,28.52,0,0,1,7.43.63c5.06,1.37,8.25,4.52,9.16,9.73a36,36,0,0,1,.59,5.94q.07,21.33,0,42.66c0,10.9-4.89,15.72-15.83,15.78-10.36.06-10.36.06-10.36,10.26v6.74c0,6.22,0,6.32,6.11,6.21s11.9.55,17.4,3.45a28.23,28.23,0,0,1,14.17,31,27.76,27.76,0,0,1-26.51,21.82c-10,.16-9.87.13-6.88,9.91,5.76,18.84,11.41,37.72,17.1,56.58.14.48.29,1,.39,1.45.64,2.9.06,5.41-3,6.31s-5-1.08-5.95-3.77c-1.13-3.16-2-6.43-3-9.65-5.71-19-11.47-38-17.08-57-.86-2.92-2.29-3.89-5.3-3.89q-131.34.1-262.7,0c-3,0-4.4,1.05-5.36,3.88C42.34,179.5,35,200.86,27.71,222.21a19.35,19.35,0,0,1-1.92,4.44c-1.2,1.81-3,2.67-5.2,1.72a4.45,4.45,0,0,1-3-5.06,25.41,25.41,0,0,1,1.18-3.94Q29,189.46,39.24,159.54c1.73-5,1.58-5.25-3.76-5.27-2.5,0-5,0-7.49,0C12.33,154.1.08,142,0,126.6A28.2,28.2,0,0,1,27.59,98c2.5-.06,5-.07,7.49,0,2.19,0,3.19-1,3.17-3.15,0-5.62,0-11.23,0-16.84,0-2.47-1.25-3.28-3.51-3.24-2.87.05-5.74.08-8.61,0C17.4,74.38,12.3,69.58,12.19,60.9,12,45.43,12,30,12.21,14.5,12.38,4.52,17.45,0,27.76,0Q106,0,184.18,0ZM184,145.09H319.86c7,0,14,.12,21-.06a18.87,18.87,0,0,0,8.42-35.45c-4.07-2.23-8.58-2.46-13.09-2.46q-151.93,0-303.85,0a47.74,47.74,0,0,0-8.18.72C14.63,109.51,7.76,119.57,9.53,129c1.87,10,9.3,16,20,16Q106.76,145.11,184,145.09Zm-.12-112.26H339.54c1.12,0,2.25-.07,3.36,0,2.69.19,3.86-.94,3.8-3.7-.1-5.11-.09-10.22,0-15.33.06-3.06-1.34-4.35-4.31-4.19-1.12.06-2.24,0-3.36,0H29.28c-1.13,0-2.25.06-3.37,0C22.84,9.47,21.67,11,21.74,14c.09,4.36,0,8.72,0,13.09,0,5.78,0,5.79,5.78,5.79Zm.69,9.06H28.92c-1.13,0-2.25.07-3.37,0-2.69-.2-3.87.92-3.81,3.69.11,5,.15,10,0,15-.1,3.45,1.43,4.8,4.73,4.54,1-.07,2,0,3,0H339c1,0,2-.08,3,0,3.63.33,4.89-1.43,4.76-4.89-.17-4.24,0-8.49,0-12.73,0-5.55,0-5.56-5.63-5.56ZM184.26,98H313.33c1.24,0,2.49-.06,3.74,0,2.35.11,3.41-.93,3.38-3.32q-.09-8.24,0-16.46c0-2.32-.9-3.52-3.31-3.44-1.24,0-2.49,0-3.74,0H54.9c-1.12,0-2.24.06-3.36,0-2.52-.12-3.65,1-3.61,3.55.08,4.61,0,9.23,0,13.84C48,98,48,98,53.69,98Z"/></g></g></svg>