<svg xmlns="http://www.w3.org/2000/svg" viewBox="0 0 277.86 368.57"><defs><style>.cls-1{fill:#fff;}</style></defs><g id="Layer_2" data-name="Layer 2"><g id="Layer_1-2" data-name="Layer 1"><path class="cls-1" d="M139,368.56c-12.22,0-24.44,0-36.67,0-6.09,0-7.93-2.6-5.76-8.34,6-16,17.74-24.85,34.59-26.93,2.26-.28,3.44-.88,3.4-3.33-.33-18.2.46-36.41-.57-54.6-.17-3.1-1.46-3.94-4.36-4.15C90.33,268.39,57.72,252.1,32,222.29A129.29,129.29,0,0,1,.78,149.93c-3.1-29.71,3-57.63,18.8-83.08C39.47,34.76,67.88,13.68,104.5,4.5c35.55-8.91,69.8-4.59,102.13,13A135.91,135.91,0,0,1,262.68,74a127.11,127.11,0,0,1,15,54c2.17,42.88-13.12,78.66-44.37,107.51-21.59,19.93-47.42,31.44-76.67,35-3.08.38-6.2.58-9.3.75-2.35.13-3.77,1-3.72,3.59.31,18.2-.48,36.41.55,54.61.15,2.65,1.13,3.5,3.76,3.88,16.34,2.33,27.69,11.14,33.6,26.66,2.27,6,.46,8.52-5.88,8.53C163.41,368.58,151.18,368.56,139,368.56ZM9.34,135.51a116.86,116.86,0,0,0,1.5,19.5,124.07,124.07,0,0,0,31.61,65c3.1,3.37,3,3.41,5.84-.26C59.76,205,73.7,193.46,90.84,185.83s35-10.52,53.59-9.83c20.63.76,39.83,6.23,57.35,17.21a108,108,0,0,1,28.73,26.47c1.93,2.55,3.29,3,5.32.17,1.75-2.41,4-4.47,5.81-6.83,22.12-28.45,30.82-60.58,25.54-96.21-4.13-27.84-16.82-51.4-37.06-71-24-23.14-52.77-35-85.77-36.55C119.54,8.16,95.93,13.54,74.4,26.19,32.71,50.67,11.08,87.26,9.34,135.51ZM137.73,262.26c33-.19,61.09-10.38,85.71-30.43,2.11-1.72,2.3-3.08.68-5.26a99.27,99.27,0,0,0-39.06-31.74c-18.13-8.24-37.14-11-56.93-9.05-30.35,3-54.77,16.44-73.27,40.69-1.91,2.5-1.84,4,.77,6.12C80,252.13,107.72,262,137.73,262.26Zm1.07,97.11c9.6,0,19.2,0,28.8,0,.92,0,2.19.45,2.64-.76.32-.87-.48-1.62-1-2.32a31.7,31.7,0,0,0-15-11.82c-7.12-2.58-14.49-2.42-21.82-1.85-9.6.73-17.3,5.22-23,13-.7.94-2,1.94-1.35,3.23.59,1.09,2,.56,3.12.56C120.35,359.39,129.58,359.37,138.8,359.37Z"/></g></g></svg>