<svg xmlns="http://www.w3.org/2000/svg" viewBox="0 0 286.27 368.24"><defs><style>.cls-1{fill:#fff;}</style></defs><g id="Layer_2" data-name="Layer 2"><g id="Layer_1-2" data-name="Layer 1"><path class="cls-1" d="M286.25,146.51c-.65,43.91-16.64,81.19-49.23,110.75a136.2,136.2,0,0,1-80.78,35.47c-8.5.78-8.59.77-8.48,9.21.13,9.91-1.86,9.27,9.36,10.2,27.9,2.31,53.76,10.62,75.92,28.42a84.31,84.31,0,0,1,17.38,19c1.38,2.06,2.45,4.22.93,6.59-1.64,2.53-4.19,2.31-6.73,1.82-21.56-4.11-43.08-8.39-64.67-12.28-29-5.21-57.8-3.79-86.53,2.28-17.08,3.6-34.27,6.63-51.41,9.93-2.66.51-5.37.92-7.08-1.78s-.16-5,1.38-7.2c13.46-19.11,32.2-30.91,53.84-38.56A141.66,141.66,0,0,1,133.68,312c3.61-.1,5.24-1.42,4.92-5.19a61,61,0,0,1,0-9c.2-3.1-.77-4.34-4.12-4.58A140.63,140.63,0,0,1,80,278.31c-26.29-13.46-46.55-33.18-61-58.84A144.93,144.93,0,0,1,.3,137.84c2-33,13.72-62.33,35.21-87.64a142.52,142.52,0,0,1,48.29-37A135.53,135.53,0,0,1,130.86.55C171.5-2.83,207.05,9.39,237.25,36.3c26.47,23.58,42,53.49,47.38,88.57A124.06,124.06,0,0,1,286.25,146.51ZM143.3,10.38a83.14,83.14,0,0,0-10.82.65C102.39,13.9,76.93,26.19,56.6,48.61c-20,22.1-29.51,48.12-28,78,1.57,32,15.43,57.79,39.46,78.49,1.81,1.56,2.64,1.88,3.36-.94A71.94,71.94,0,0,1,96.64,165c28.58-23.17,72.92-21.19,99,4.51,9.75,9.61,16.48,20.9,19.46,34.31.63,2.87,1.45,2.79,3.51,1a114.16,114.16,0,0,0,13.45-13.48c19.89-23.65,28.48-51,25.31-81.57C254.53,82.12,242.21,59,221.47,40.35,199.23,20.4,173,11,143.3,10.38Zm117.57,72.5c.26.92.5,1.86.79,2.78,5.13,16.27,7.08,32.88,4.85,49.84-3.78,28.84-16.37,53.2-37.86,72.77-27.05,24.65-59,35.54-95.47,32.78-31.89-2.42-59.32-14.89-81.16-38.42C20.83,169,11.77,130,24.52,85.9c.3-1,1.06-2,.63-3.26-1.27.69-1.48,2-2,3.06a135.59,135.59,0,0,0-13,76c4.44,38,21.27,69.63,51.34,93.56,27.92,22.23,60,31.7,95.48,28,33.2-3.5,61.3-18,83.61-42.87,30.49-34.07,41.39-74,34.09-118.95A108.11,108.11,0,0,0,260.87,82.88ZM143.14,232a116,116,0,0,0,60.61-16.53c2.6-1.53,3.59-3.12,3-6.27-2.33-13-8.11-24.19-17.64-33.09-14.81-13.85-32.59-19.59-52.85-17.59A64.21,64.21,0,0,0,80,208c-.91,3.94,0,6.13,3.59,8.16C102.13,226.69,121.89,232.19,143.14,232ZM50.56,356.34c1.64-.18,2.63-.21,3.59-.4,16.16-3.08,32.31-6.26,48.49-9.28a220.09,220.09,0,0,1,58.43-3c18.69,1.51,36.91,5.87,55.29,9.25,6.39,1.18,12.78,2.39,19.82,3.7C192.37,308.33,91.44,310.31,50.56,356.34Z"/></g></g></svg>