<svg xmlns="http://www.w3.org/2000/svg" viewBox="0 0 368.84 267.24"><defs><style>.cls-1{fill:#fff;}</style></defs><g id="Layer_2" data-name="Layer 2"><g id="Layer_1-2" data-name="Layer 1"><path class="cls-1" d="M56.52,107.2C51,102.09,46.83,97.1,43.89,91.07a45.54,45.54,0,0,1,8.26-51c2.28-2.32,5.11-3,8.19-3,6.24,0,12.48-.12,18.71,0,3.3.08,4.83-1.14,4.86-4.52,0-7.11.16-6.45-5.54-8.68-7-2.74-11.92-7.68-12.45-15.79-.19-2.87.43-5.53,3.76-5.86s4.77,2,5.11,4.82c.5,4.25,3.14,6.61,6.64,8.38,2.11,1.07,3.31.69,3.25-2s-.07-5.24.07-7.85c.18-3.48,2.19-5.84,4.76-5.6,3.36.31,4.18,2.69,4.18,5.59,0,3.49.1,7,0,10.48-.11,2.85.32,4.39,3.68,2.9,2.68-1.19,5.65-.86,8.51-.69,2.71.15,4.65,1.51,4.56,4.39-.09,2.73-1.9,4.25-4.62,4.5-2.1.18-4.23,0-6.28.72A10,10,0,0,0,94.88,31c-1.11,1.39-2.19,3-1.54,4.78.72,1.93,2.78,1.23,4.31,1.27,3.49.09,7,.16,10.47,0,4.94-.24,8.54,1.79,11.55,5.62,15.18,19.35,13.83,43.88-3.5,61.41-.77.77-1.47,1.62-2.87,3.17,6.84,0,12.85,0,18.87,0,1.38,0,1.76-1.22,1.79-2.43,0-1.63,0-3.25.07-4.87.13-6.75,3.71-10.43,10.44-10.49,9.73-.08,19.46-.11,29.19,0,3.07,0,4.1-.45,3.38-4-1.45-7,1.06-12.81,7-16.88a16.34,16.34,0,0,1,18.33.23c5.74,4.18,8.32,9.89,6.66,17-.72,3.13.49,3.67,3.18,3.62,5.23-.12,10.47-.07,15.71,0,7.17.06,10.9,3.72,11,10.78.07,7.62-.7,7.21,7.39,7.21q50.15,0,100.29,0c11.28,0,19.51,5.8,21.33,15.56a60,60,0,0,1,.09,20.49c-1.44,8.88-9.5,15.28-18.6,15.56q-6.91.23-13.84,0c-2.95-.09-4.06,1.08-3.85,4,.63,8.57,1.12,17.16,1.74,25.73.89,12.3,1.87,24.59,2.76,36.89.8,11.06,1.54,22.13,2.28,33.19.08,1.24.07,2.49,0,3.74-.08,2.79-1.51,4.58-4.3,4.67s-4.46-1.56-4.74-4.32q-.83-8.37-1.44-16.75c-.83-11.44-1.72-22.86-2.29-34.31-.17-3.33-1.37-4.22-4.51-4.2-20.45.1-40.91.05-61.37.05H49.55c-5.67,0-5.65,0-6.06,5.56-1.21,16.15-2.45,32.3-3.63,48.45-.24,3.17-1.64,5.29-4.92,5.53-2.69.19-4.45-2.12-4.24-5.84.75-13.06,1.61-26.11,2.51-39.16.86-12.3,1.84-24.6,2.74-36.9.53-7.33.95-14.67,1.56-22,.27-3.29-1-4.47-4.26-4.34-4.61.19-9.24.13-13.85,0A19.55,19.55,0,0,1,0,139.32c0-3.62,0-7.23,0-10.85,0-12.58,8.07-20.87,20.75-21.07,10.85-.17,21.7,0,32.56-.05C54.06,107.35,54.8,107.28,56.52,107.2Zm127.76,42.67H297.65c15.33,0,30.67,0,46,0a38.1,38.1,0,0,0,6.32-.47c5.8-1,8.79-4.2,9.24-10,.22-2.85.1-5.73.1-8.6,0-10.27-3.42-13.69-13.67-13.69H126.38q-52.56,0-105.13,0c-8,0-12,4-12.08,11.9,0,2.12,0,4.24,0,6.36,0,10.92,3.58,14.49,14.63,14.54,9.09,0,18.19,0,27.29,0Zm.34,48.09H318.2l3.74,0c1.8,0,2.71-.63,2.55-2.7-.76-10.18-1.28-20.39-2.15-30.56-.48-5.64-.7-5.63-6.26-5.63H53.42c-6.26,0-6.31,0-6.75,6.43-.62,9.08-1.11,18.16-1.71,27.23-.35,5.24-.41,5.25,5,5.25ZM84.67,78.21c-10.46,0-20.92,0-31.39,0-3,0-4,.87-3.05,4,4.52,14.47,18.27,25,33.21,25.16,16.64.23,30.37-9.14,35.37-24.12,1.5-4.5,1.17-5-3.49-5Q100,78.18,84.67,78.21Zm101.66,29.14c13.2,0,26.4-.07,39.6.05,3.32,0,3.95-1.54,3.9-4.37s-.37-4.75-3.79-4.55c-4.09.24-8.19.53-12.29.54-21.55.06-43.1,0-64.64,0-1.25,0-2.49,0-3.73.1a2.19,2.19,0,0,0-2.12,1.75c-1.3,4.23.22,6.45,4.58,6.45Q167.08,107.38,186.33,107.35ZM63.15,68.42c3.73,0,7.47-.09,11.2,0,2.39.07,3.66-1,4.3-3.21a115.46,115.46,0,0,0,3.26-15.31c.39-2.72-.76-3.28-3-3.25-3.36.06-6.72,0-10.08,0-11.84,0-13,.75-17.62,11.78-.81,1.94-1.17,4.06-1.81,6.07-.87,2.74,0,4,3,3.9C55.93,68.34,59.54,68.42,63.15,68.42Zm40.7,0c4.48,0,9,0,13.43,0,2.71,0,3.49-1.16,2.94-3.75a39.5,39.5,0,0,0-6.43-14.57,7.27,7.27,0,0,0-6.89-3.48c-4,.24-8,.12-11.94,0-2.25,0-3.33.8-3.7,3.13-.83,5.15-1.85,10.28-3,15.37-.53,2.37.21,3.25,2.52,3.24C95.14,68.39,99.5,68.41,103.85,68.41ZM200,82.09a6.68,6.68,0,0,0-7.13-6.9,7,7,0,0,0-7,7.18,7.07,7.07,0,0,0,7.25,6.95A6.86,6.86,0,0,0,200,82.09Z"/></g></g></svg>