<svg xmlns="http://www.w3.org/2000/svg" viewBox="0 0 368.55 247.69"><defs><style>.cls-1{fill:#fff;}</style></defs><g id="Layer_2" data-name="Layer 2"><g id="Layer_1-2" data-name="Layer 1"><path class="cls-1" d="M111.48,238.47c-10.31-3.7-20.5-7.37-30.35-11.93-26.59-12.31-49.89-28.67-66.28-53.69-20.76-31.67-19.67-71.67,2.76-102.3C34.4,47.62,56.82,32,82.33,20.55,107.26,9.32,133.58,3.18,160.73,1,204-2.47,246.15,2.88,286.16,20.61c24.38,10.81,46,25.51,62.41,47.05,26.55,34.91,26.67,77.05.22,112.06-16.14,21.36-37.57,35.89-61.62,46.88-9.84,4.5-20,8.16-30.29,11.87h68.29a30.92,30.92,0,0,1,3.73.09c2.57.3,4.19,1.76,4.23,4.39.05,2.83-1.64,4.34-4.37,4.65a31.54,31.54,0,0,1-3.37.07H42.86c-5.35,0-7.56-1.32-7.63-4.5s2.19-4.7,7.78-4.7h68.47ZM181.87,9c-4.81-.43-12,.43-19.21,1-23.36,1.94-46.13,6.68-68,15.33C70.32,35,48.38,48.19,31.14,68.33c-13.77,16.1-22,34.55-21.92,56,.12,19.32,7.2,36.37,19.15,51.36,15.79,19.81,36.14,33.54,59.18,43.4,33,14.11,67.48,19.78,103.27,18.89a247.67,247.67,0,0,0,58-7.92c33.11-8.84,63.24-23.1,86.71-49,13.93-15.4,22.61-33.28,23.58-54.22.81-17.38-4.44-33.28-13.9-47.8-13.36-20.48-32.15-34.68-53.54-45.59C258,16.21,221.84,9.47,181.87,9Z"/><path class="cls-1" d="M189.16,215c-44.31-.27-84.08-11-119.89-35a142.49,142.49,0,0,1-14.52-11.17c-2.58-2.26-3.09-5.15-1.37-7.23s4.51-2.29,7.27,0c30.56,25.63,66.21,39.18,105.46,42.8,51.18,4.73,98.62-6.34,140.88-36.68.51-.36,1-.73,1.55-1,2.44-1.43,4.89-1.6,6.63.89s1,4.85-1.26,6.61a158.14,158.14,0,0,1-18,12.12c-27.31,15.82-56.76,24.75-88.14,27.71C201.07,214.7,194.31,214.12,189.16,215Z"/><path class="cls-1" d="M181.26,33.73c23.81.62,44.89,4.74,64,16.43a31.94,31.94,0,0,1,4.27,3,4.17,4.17,0,0,1,.92,5.73c-1.22,2.06-3.21,2.27-5.26,1.73a11.19,11.19,0,0,1-3-1.55c-15.66-10-32.91-14.51-51.3-15.58-19.23-1.12-37.78,1.56-55.56,9.05-3.32,1.4-6.48,3.19-9.69,4.86s-5.79,1.26-7.24-1.14-.54-5.08,2.55-6.82A118.93,118.93,0,0,1,170,34.6C174.33,34.23,178.66,33.37,181.26,33.73Z"/></g></g></svg>