<svg xmlns="http://www.w3.org/2000/svg" viewBox="0 0 283.16 368.39"><defs><style>.cls-1{fill:#fff;}</style></defs><g id="Layer_2" data-name="Layer 2"><g id="Layer_1-2" data-name="Layer 1"><path class="cls-1" d="M283.16,184.31q0,81.38,0,162.77c0,9.07-3.83,15.81-12.14,19.78a17.25,17.25,0,0,1-7.64,1.53q-121.78,0-243.59,0A19.87,19.87,0,0,1,0,349.32C0,348,0,346.57,0,345.2q0-161.64.1-323.29C.11,8.05,8.09,0,21.84,0H261.32c13.75,0,21.73,8.05,21.73,21.92q0,81.19,0,162.39ZM9.09,183.77h.1q0,80.45,0,160.9c0,10.61,3.9,14.53,14.39,14.53H130.24c1,0,2-.05,3,0,2.23.1,3.2-1,3.13-3.16,0-1.12,0-2.24,0-3.37.37-86.55-.65-173.1.57-259.65.37-26.19.09-52.38.09-78.58C137,9,137,9,131.64,9H23.5C12.58,9,9.09,12.44,9.09,23.25Zm201-60.17H151c-4.75,0-4.9.15-4.9,4.79,0,34.91.06,69.83,0,104.75,0,3.74,1.09,4.94,4.89,4.93q59.1-.16,118.22,0c3.75,0,4.92-1.08,4.91-4.88q-.17-52.38,0-104.75c0-3.77-1.12-5-4.9-4.92C249.49,123.68,229.79,123.6,210.08,123.6Zm.15,124.12H151.52c-5.39,0-5.41,0-5.42,5.42V353.37c0,5.82,0,5.83,5.69,5.83H259.87c10,0,14.08-4,14.09-14.07q0-46.19,0-92.38c0-4.92-.1-5-5-5ZM206.56,9h-55C146.07,9,146,9,146,14.3q0,47.52,0,95c0,5.11.07,5.18,5.27,5.18H268.8c5.2,0,5.23,0,5.23-5.2q0-43.57,0-87.17c0-9.28-3.9-13.14-13.25-13.15Z"/><path class="cls-1" d="M122.1,197c0,4.37.08,8.74,0,13.1-.1,3.65-2.11,6.11-4.74,6.16s-4.81-2.43-4.85-6c-.11-8.73-.12-17.46,0-26.19.07-3.89,2-5.9,4.92-5.81s4.59,2.17,4.66,6.06C122.16,188.5,122.1,192.74,122.1,197Z"/><path class="cls-1" d="M210.05,156.42c-3.5,0-7,.08-10.48,0-3.66-.11-6.14-2.06-6.22-4.67s2.38-4.82,6-4.88q10.47-.18,20.95,0c3,.06,5.86.86,6.08,4.67.17,3-2.15,4.79-6.22,4.89C216.78,156.49,213.41,156.43,210.05,156.42Z"/><path class="cls-1" d="M210.07,279.22c-3.72,0-7.45,0-11.18,0-3.11-.06-5.5-1.38-5.51-4.76,0-3.17,2.34-4.72,5.18-4.78,7.57-.17,15.15-.13,22.73,0,2.87.06,5.21,1.51,5.17,4.73-.05,3.43-2.56,4.64-5.58,4.74C217.28,279.31,213.68,279.21,210.07,279.22Z"/><path class="cls-1" d="M210.07,40.4c-3.85,0-7.7.07-11.54,0-2.81-.06-5-1.32-5-4.36s2.08-4.45,4.89-4.49c7.57-.09,15.14-.1,22.71,0,2.72.05,5,1.22,5,4.38s-2.21,4.48-5.21,4.5c-3.6,0-7.2,0-10.8,0Z"/></g></g></svg>