<svg xmlns="http://www.w3.org/2000/svg" viewBox="0 0 354.97 371.45"><defs><style>.cls-1{fill:#fff;}</style></defs><g id="Layer_2" data-name="Layer 2"><g id="Layer_1-2" data-name="Layer 1"><path class="cls-1" d="M213.78,179.78H308.1c12.91,0,19.08,6.15,19.09,19,0,5.24.06,10.48,0,15.72-.06,4.34-1.55,5.83-5.94,5.84-12.85.06-25.7.1-38.54,0-3.2,0-4,.71-2.66,3.83Q298.25,268,316.23,312c1.22,3,2.42,3.24,4.76,1.12a197.68,197.68,0,0,0,23.29-24.77,30.79,30.79,0,0,1,2.68-3.12c2-1.91,4.26-2.15,6.37-.31A4.18,4.18,0,0,1,354,291c-2.68,3.61-5.39,7.21-8.36,10.56C311,340.41,268.2,364,216.38,370c-58,6.66-109.57-9.07-154.61-46.25a204.78,204.78,0,0,1-29.54-30.64,12.42,12.42,0,0,1-1.84-2.8c-1-2.31-.67-4.5,1.46-6a4.06,4.06,0,0,1,5.74.74c3.55,4,6.86,8.24,10.4,12.27a197.91,197.91,0,0,0,15.85,15.88c2.28,2,3.31,1.64,4.44-1.13,8.32-20.44,16.77-40.84,25.17-61.25Q98.73,238,104,225.17c1.91-4.69,1.8-4.82-3.11-4.84-4.61,0-9.23.06-13.84,0-3.89-.08-5.42-1.61-5.48-5.53-.09-6,0-12,0-18,.06-10,6.44-16.56,16.52-17,4.87-.22,5-.24,3.82-5.07q-11-47.19-22.1-94.36C76.23,65.19,72.58,50,69.18,34.82c-.79-3.54-2.24-4.91-6-4.86-15.85.2-31.69.14-47.53.05C7.18,30,.82,24.41.08,16.76-.78,7.9,5.46.42,14.49.22c12.47-.28,25-.31,37.43,0C62.69.51,72,8.81,74.82,20.16c3.06,12.35,5.93,24.75,8.87,37.12,2.88,12.14,5.83,24.26,8.53,36.43.76,3.45,2.34,4.61,5.87,4.6q53.32-.16,106.66,0c5.22,0,10.49.11,15.46,2.16,10.52,4.35,15.73,12.58,17,23.57.34,2.84.45,5.71.65,8.56.26,3.79-1.36,5.93-5.14,6.5a36.43,36.43,0,0,1-5.23.21H108.9c-5.68,0-5.7,0-4.4,5.62,2.38,10.2,4.92,20.37,7.11,30.61.73,3.39,2.31,4.33,5.62,4.32C149.41,179.74,181.6,179.78,213.78,179.78Zm-21.27,40.55q-35.92,0-71.85,0c-2.68,0-4.68.31-5.89,3.28q-19.39,47.44-39,94.78c-1.1,2.66-.74,4.13,1.65,5.86q65.34,47.2,145,35.55C253,355.25,280.85,343.4,306,325.25c3.52-2.54,3.8-4.56,2.26-8.26q-19.18-46.12-38-92.39c-1.37-3.4-3.2-4.36-6.66-4.34C239.91,220.39,216.21,220.33,192.51,220.33Zm11.87-9.18H311.73c1.12,0,2.25,0,3.37,0,2,.06,2.94-.94,2.92-2.95,0-3.74.12-7.49,0-11.22-.21-5.09-2.71-7.47-7.79-7.47q-105.84,0-211.7,0c-5.06,0-7.52,2.41-7.75,7.51-.14,3,0,6,0,9,0,5.15,0,5.17,5.21,5.17Zm-40-81.52q29.72,0,59.44,0c4.29,0,4.82-.66,4.22-4.81-1.66-11.41-8-16.92-19.43-16.92q-48.6,0-97.2,0c-3.87,0-7.73.1-11.59,0-3-.1-4.13.77-3.24,3.93a128.92,128.92,0,0,1,3.07,13.1c.63,3.62,2.31,4.86,6,4.83C125.24,129.54,144.8,129.63,164.37,129.63ZM52.17,21v0c3.11,0,6.21,0,9.31,0,1.18,0,2.74.57,3.42-.74s-.5-2.58-1.24-3.66c-4-5.92-9.87-7.83-16.8-7.57-8.43.32-8-1.55-7.93,8.86,0,2.2,1,3.15,3.19,3.13C45.47,21,48.82,21,52.17,21ZM20.86,9.1v0c-1.86,0-3.73-.08-5.58,0-3.74.22-6.06,2.38-6.21,5.64s2,5.79,5.77,6.08c4.07.32,8.18.13,12.28.15,1.81,0,2.58-.92,2.8-2.73C31,9.86,30.36,9.1,22,9.1Z"/></g></g></svg>