<svg xmlns="http://www.w3.org/2000/svg" viewBox="0 0 368.65 257.56"><defs><style>.cls-1{fill:#fff;}</style></defs><g id="Layer_2" data-name="Layer 2"><g id="Layer_1-2" data-name="Layer 1"><path class="cls-1" d="M183.84,222.32c-35.05,0-70.09.06-105.14-.07-3.64,0-5.33,1-6.08,4.7C71,235,69,243,67,251c-1.18,4.84-3.22,6.46-8.15,6.52-5.61.07-11.23.06-16.84,0-4.9,0-6.76-1.41-7.95-6.2-2-8.11-4-16.23-5.71-24.4-.71-3.43-2.14-4.77-5.76-4.68-7.76.21-14.43-2.4-19.19-8.89A16.68,16.68,0,0,1,0,203.26c0-38,0-76.09.08-114.13,0-9.38,8-17.92,17.73-18.65,6.58-.49,13.21-.16,19.82-.07,2.28,0,4.35,1,6.4,2,1.59.73,2.37.16,2.42-1.53,0-1,0-2,0-3q0-24.69,0-49.39A26.65,26.65,0,0,1,47.8,10C50,3.42,53.65.7,60.52.7q57.44,0,114.87,0c2.77,0,5.52,0,7.89,1.76a2,2,0,0,0,2.71,0C188.82.16,192.16,0,195.58,0Q250.77,0,306,0c10.47,0,15.9,5.21,16,15.78.14,17,.07,33.93.09,50.89,0,1,.06,2,0,3-.18,2.86.81,3.68,3.47,2.25,3.19-1.71,6.71-1.7,10.22-1.66,4.37,0,8.74-.07,13.1,0a19.86,19.86,0,0,1,19.6,20c.05,36.67-.27,73.35.22,110,.17,12.74-9.19,21.65-21.34,22-5.53.16-5.9-1.2-7.47,6.13-1.62,7.55-3.48,15.06-5.35,22.56-1.3,5.19-3.07,6.5-8.46,6.53q-7.86.06-15.72,0c-5.83,0-7.67-1.49-9.07-7.28-1.87-7.76-3.85-15.5-5.39-23.33-.74-3.72-2.5-4.67-6.11-4.66C254.44,222.37,219.14,222.32,183.84,222.32Zm.26-9.72H345.39c10.32,0,13.89-3.63,13.9-14q0-53.33,0-106.65c0-7.88-4.32-12.32-12.17-12.54-3.74-.1-7.48,0-11.22,0-9.83,0-13.87,4.06-13.88,13.92,0,18.33,0,36.67,0,55,0,7.67-2.7,10.41-10.31,10.41H56.53c-7.37,0-10.12-2.79-10.12-10.22,0-19,0-37.92,0-56.88,0-7.43-4.32-11.92-11.74-12.2-4.24-.15-8.49-.09-12.73,0q-12.81.18-12.81,13,0,38.18,0,76.34c0,10.73,0,21.46,0,32.19.05,7.16,4.2,11.33,11.36,11.62,1.62.07,3.25,0,4.87,0ZM180.43,80.9h.06q0-30.87,0-61.74c0-8.78-.69-9.47-9.21-9.47H63.5c-6.33,0-7.49,1.1-7.92,7.52,0,.74,0,1.49,0,2.24q0,62.31,0,124.61c0,3.67,1,5,4.82,5,38.42-.11,76.84-.06,115.26-.07,4.68,0,4.84-.17,4.84-4.87Q180.45,112.52,180.43,80.9Zm132.48-.06h0V71.11c0-18.07.06-36.15,0-54.23,0-6.41-1.54-7.86-7.54-7.86H196.94c-5.69,0-6.6.82-7.29,6.51a24.84,24.84,0,0,0-.13,3q0,62.82.08,125.66c0,4.65.18,4.83,4.87,4.83q56.67,0,113.33,0c5,0,5.1-.1,5.1-5.34Q312.92,112.25,312.91,80.84ZM50.61,222.33c-3.23,0-6.47.12-9.69,0-3-.15-4.13.72-3.21,3.86,1,3.57,1.73,7.25,2.61,10.87,2.78,11.39,2.79,11.34,14.57,10.83,2.2-.1,3.44-.82,4-3Q61,235.37,63.31,226c.66-2.69-.39-3.69-3-3.64C57.08,222.39,53.84,222.34,50.61,222.33Zm267.8,0c-3.24,0-6.47.1-9.7,0s-4.37,1-3.43,4.21,1.61,6.77,2.47,10.15c3.46,13.67.08,10.8,14.6,11.14l.75,0a3,3,0,0,0,3.14-2.59c1.54-6.66,3.07-13.32,4.68-20,.55-2.24-.36-2.93-2.45-2.9C325.12,222.38,321.76,222.34,318.41,222.33Z"/></g></g></svg>