<svg xmlns="http://www.w3.org/2000/svg" viewBox="0 0 353.32 245.85"><defs><style>.cls-1{fill:#fff;}</style></defs><g id="Layer_2" data-name="Layer 2"><g id="Layer_1-2" data-name="Layer 1"><path class="cls-1" d="M176.66,0H330.83c14.53,0,22.43,7.86,22.44,22.41q0,100.67.05,201.33c0,14-7.88,21.94-21.72,21.94-35.55,0-71.11-.29-106.65.17-12.53.16-21.73-9.11-21.64-21.66.41-53.26.21-106.53.23-159.79,0-5.89,0-5.9-6-5.9H15.65c-6,0-6,0-6,6q0,85.87,0,171.76a35.58,35.58,0,0,1-.15,4.85c-.36,2.62-1.72,4.44-4.62,4.47-3.08,0-4.44-1.86-4.84-4.65A21.16,21.16,0,0,1,0,238Q0,130,.07,22.05c0-14.07,8-22,22-22ZM343.6,144.5h0V64.41c0-5.89,0-5.9-5.69-5.91H218.18c-5.54,0-5.55,0-5.55,5.62q0,79.53.05,159.06c0,9.66,3.66,13.3,13.39,13.3H330.48c9.61,0,13.11-3.48,13.11-13Q343.61,184,343.6,144.5Zm-167-95.08h92c23.45,0,46.9,0,70.34,0,3.27,0,4.76-.85,4.68-4.42-.2-8.6,0-17.21-.1-25.81-.08-5.95-3.84-9.75-9.79-10.16C332.07,9,330.31,9,328.57,9H34.11C29.75,9,25.38,9,21,9c-7.57.11-11.28,3.8-11.32,11.29,0,7.73,0,15.46,0,23.19,0,5.9,0,5.91,6.07,5.91Z"/><path class="cls-1" d="M243.35,147.82c0,3,0,6,0,9s-1.45,5.2-4.63,5.17c-3,0-4.44-2.06-4.47-5,0-6.36-.05-12.72,0-19.08,0-2.86,1.34-4.93,4.42-5,3.29-.05,4.59,2.1,4.64,5.13C243.39,141.33,243.35,144.57,243.35,147.82Z"/><path class="cls-1" d="M176.43,28.4c-3.24,0-6.48.1-9.72,0-2.84-.11-4.87-1.55-4.88-4.57s2.11-4.33,5-4.35q9.92-.06,19.82,0c2.7,0,4.74,1.18,4.88,4.06s-1.72,4.67-4.59,4.82c-3.48.19-7,.05-10.47.05Z"/></g></g></svg>