<svg xmlns="http://www.w3.org/2000/svg" viewBox="0 0 346.05 368.39"><defs><style>.cls-1{fill:#fff;}</style></defs><g id="Layer_2" data-name="Layer 2"><g id="Layer_1-2" data-name="Layer 1"><path class="cls-1" d="M172.65,368.39H10.26C1.17,368.39,0,367.21,0,358c0-6.86,0-13.72,0-20.58,0-5.18,2.22-7.55,7.37-7.88,2.74-.18,5.49-.11,8.23-.1,2.17,0,3.25-1,3.2-3.15,0-1.37,0-2.74,0-4.12,0-85.56-.14-171.12.2-256.68.08-19.44.33-38.89.49-58.34.05-5,2-6.94,7.07-7.1C27.71,0,28.83,0,30,0H318.44c9.41,0,11,1.59,11,11.17q0,155.48.08,310.94c0,1.37,0,2.75,0,4.12-.06,2.19,1,3.2,3.16,3.18s4.25-.08,6.35.11c4.89.44,7,2.81,7,7.86q0,11.42,0,22.82c0,6.29-1.95,8.17-8.37,8.17q-68.28,0-136.57,0Zm75.7-196.91q33.12,0,66.24,0c5.06,0,5.14-.14,5.2-5.31.33-26.31-.22-52.62.47-78.93.64-24.56.11-49.15.22-73.72,0-3.35-1-4.67-4.5-4.59-8.35.19-16.71.06-25.07.06-35.68,0-71.35,0-107-.06-3.57,0-5.47,1-5.48,4.71,0,.87-.07,1.74-.07,2.62q-.42,60-.84,120.09c-.08,9.84.36,19.69-.53,29.53-.48,5.33,0,5.6,5.53,5.6Q215.42,171.5,248.35,171.48ZM98.84,9C76.89,9,54.93,9,33,9c-3.06,0-4.54.75-4.53,4.18q.14,77.07.06,154.16c0,3,1,4.23,4.09,4.23q65.49-.09,131,0c3.37,0,4.21-1.36,4.24-4.47.09-11.59.07-23.17.5-34.77.8-21.18,0-42.38.78-63.58.66-18.19.21-36.41.24-54.62,0-4.91-.16-5.09-5-5.09ZM28.55,255.14h0q0,34.61,0,69.2c0,4.91.17,5.08,5,5.08H161.15c4.89,0,5-.13,5-5,.3-19.19.06-38.38.56-57.58.69-26.79.08-53.6.93-80.39.16-5.21,0-5.24-5.15-5.24H33.86c-5.3,0-5.31,0-5.31,5.52Zm291.22,0h0q0-34.43,0-68.84c0-5-.13-5.16-4.93-5.16q-66.59,0-133.18-.08c-3.77,0-4.88,1.15-4.91,4.91-.12,18,0,35.89-.45,53.85-.67,28.16-.12,56.34-.92,84.51-.13,4.93.09,5.05,5,5.05h134.3c4.89,0,5.08-.19,5.08-5Q319.77,289.77,319.77,255.18ZM173,359.2H330.1c1.25,0,2.5-.05,3.74,0,2,.07,3-.77,3-2.85q0-7.11,0-14.22c0-2-.87-3-2.91-3-1.25,0-2.5,0-3.74,0H16c-1,0-2,.07-3,0-2.67-.22-3.89.84-3.78,3.65.14,3.61,0,7.23,0,10.85,0,5.55,0,5.56,5.54,5.56Z"/><path class="cls-1" d="M64.26,83.76A4.24,4.24,0,0,1,60,78,12.93,12.93,0,0,1,61.62,75Q77.47,52.33,93.35,29.67a11.33,11.33,0,0,1,2.2-2.52,4.06,4.06,0,0,1,5.2,0,3.87,3.87,0,0,1,1.46,5,16.77,16.77,0,0,1-1.87,3.22q-15.47,22.29-31,44.53C68.09,81.63,66.89,83.66,64.26,83.76Z"/><path class="cls-1" d="M91,89c-3.62-.12-5.24-3.87-3.06-7.63,2.37-4.1,5-8.06,7.52-12.06,3.34-5.27,6.71-10.51,10.06-15.77,1.59-2.49,3.69-4,6.55-2.26s2.89,4.15,1.24,6.78L95.54,86.24A5.19,5.19,0,0,1,91,89Z"/><path class="cls-1" d="M258.6,219.25a6.27,6.27,0,0,1-1.25,3.91q-16.56,23.73-33.15,47.44c-2,2.92-4.84,3.4-7,1.53-2.44-2.1-2.28-4.48-.54-7q11.34-16.22,22.66-32.45c3.57-5.1,7-10.28,10.8-15.22,2.46-3.21,6-3.16,7.76-.25A8.52,8.52,0,0,1,258.6,219.25Z"/><path class="cls-1" d="M242.59,274.63a7.79,7.79,0,0,1,1.43-4.72c5.65-8.94,11.27-17.89,17-26.81,2.27-3.54,4.85-4.45,7.34-2.81s2.72,4.44.53,7.91q-8.55,13.57-17.17,27.11c-1.37,2.17-3.18,3.62-5.88,2.89A4.06,4.06,0,0,1,242.59,274.63Z"/></g></g></svg>