<svg xmlns="http://www.w3.org/2000/svg" viewBox="0 0 368.45 200.29"><defs><style>.cls-1{fill:#fff;}</style></defs><g id="Layer_2" data-name="Layer 2"><g id="Layer_1-2" data-name="Layer 1"><path class="cls-1" d="M184.26,0q81.19,0,162.39,0C353.7,0,360,1.63,364.5,7.59s5.15,12.32,2.09,19S358,36.82,350.7,37.35c-8.52.63-8.53.53-8.53,9.07,0,36.92-.26,73.84.21,110.75.17,13.94-11,22.65-21.72,21.72-3.89-.34-5.07,1.28-4.82,5a100.7,100.7,0,0,1,0,10.85c-.13,3.05-1.52,5.57-4.87,5.52s-4.64-2.61-4.72-5.67c-.12-3.86-.2-7.74,0-11.6.14-3.14-1.17-4.36-4.19-4-.62.06-1.25,0-1.87,0h-232c-6,0-6,0-6,5.92,0,3.25.07,6.49-.06,9.73-.13,3-1.41,5.41-4.76,5.7-2.71.24-4.8-2.35-4.88-5.91-.08-3.86-.15-7.74,0-11.6.12-3-1.14-4-4-3.87s-5.73.05-8.6,0c-12.55-.12-21.1-8.68-21.1-21.29q0-56.88,0-113.76c0-5.71,0-5.71-5.33-7.23a18.55,18.55,0,0,1,1-35.91A36.79,36.79,0,0,1,22.61,0Q103.43,0,184.26,0Zm74.86,37.4H191c-6.05,0-6.06,0-6.06,5.87q0,60.42,0,120.86c0,5.57,0,5.58,5.55,5.58H317.4a37.48,37.48,0,0,0,4.86-.21c7.31-1,10.76-4.89,10.77-12.28q0-57.43.05-114.87c0-4.86-.08-4.93-5.11-4.93Zm-157,0c-23.07,0-46.13,0-69.2,0-3,0-4.56.69-4.55,4.14.1,39.15.06,78.3.12,117.45,0,5.39,2.92,8.87,8.2,10.11a24.72,24.72,0,0,0,5.55.62q64.33.06,128.68,0c4.68,0,4.88-.2,4.88-4.85,0-40.9,0-81.79.14-122.69,0-3.87-1.32-4.85-5-4.83C148,37.48,125.06,37.41,102.12,37.41ZM184.33,9.65H21.92c-1.49,0-3-.06-4.49.07A9.18,9.18,0,0,0,9.57,21.37c1.47,4.94,5,7,12.2,7H346.59a23.17,23.17,0,0,0,5.2-.41,9.2,9.2,0,0,0,7.1-7c1-3.52-.39-6.31-2.72-8.84s-5.27-2.47-8.31-2.47Z"/><path class="cls-1" d="M229.69,90.17c0,7.54-6.93,14.45-14.66,14.57-8,.12-15-6.55-15.09-14.45-.07-7.58,6.75-14.08,14.81-14.1S229.68,82.5,229.69,90.17Zm-10.41.41c-.1-3.27-2.29-5.39-5.08-5.14s-4.42,2-4.51,4.93,2.05,4.81,5.06,4.62S219.16,93.08,219.28,90.58Z"/><path class="cls-1" d="M145.8,76.19c8.17.06,14.45,6.13,14.45,14a14.82,14.82,0,0,1-15,14.55,14.63,14.63,0,0,1-14.33-14.68C131,81.9,137.19,76.12,145.8,76.19ZM145.26,95c3.42-.05,5.71-2.25,5.66-4.88a5.19,5.19,0,0,0-5.22-4.74A4.7,4.7,0,0,0,141,90.53C141.22,93.44,142.9,95,145.26,95Z"/></g></g></svg>