<svg xmlns="http://www.w3.org/2000/svg" viewBox="0 0 368.02 248.27"><defs><style>.cls-1{fill:#fff;}</style></defs><g id="Layer_2" data-name="Layer 2"><g id="Layer_1-2" data-name="Layer 1"><path class="cls-1" d="M184,0q87.2,0,174.38,0a26.58,26.58,0,0,1,5.58.33c2.35.52,4.12,2,4.08,4.65s-1.81,3.66-4,4.3a6.89,6.89,0,0,1-1.1.21c-6.72,1-6.72,1-6.71,8l.09,206.19c0,8-1,9-9,9s-7.4-.61-7.43,7.48c0,5.64-1.33,8-4.51,8.07s-4.68-2.37-4.69-8.26c0-1.37-.06-2.75,0-4.12.08-2.2-.94-3.23-3.14-3.16-1.12,0-2.24,0-3.37,0H47.6c-1.12,0-2.25,0-3.37,0-2.21-.06-3.17,1-3.13,3.19,0,2.37,0,4.74-.06,7.1-.12,2.87-1.65,4.86-4.5,5.09-3,.25-4.53-1.85-4.88-4.6a46.61,46.61,0,0,1-.27-7.09c.08-2.76-1.15-3.81-3.83-3.72-3.11.1-6.24.1-9.35,0-4.26-.18-6.09-2-6.33-6.26-.07-1.37,0-2.74,0-4.12q0-103.09,0-206.18c0-4.9,1.19-6.75-5.88-6.58-3.6.09-6.27-2.25-6-4.82C.39,1.34,2.89.29,5.86.07,7.35,0,8.85,0,10.35,0ZM347.11,116.3h.07v-101c0-5.61,0-5.62-5.6-5.62q-73.72,0-147.45,0c-5.59,0-5.6,0-5.6,5.63q0,101.23.08,202.47c0,5.23,0,5.25,5.15,5.25q74.1,0,148.2,0c5.12,0,5.14,0,5.14-5.25Q347.12,167,347.11,116.3Zm-167.69.43h.08q0-50.7,0-101.38c0-5.7,0-5.72-5.5-5.72q-73.52,0-147,0c-5.37,0-5.45.09-5.45,5.43q0,101.39,0,202.77c0,5.1.07,5.15,5.29,5.15q73.71,0,147.4,0c5.13,0,5.15,0,5.15-5.24Q179.44,167.24,179.42,116.73Z"/><path class="cls-1" d="M204.29,95.39v14.93c0,3.11-1,5.45-4.53,5.63-2.81.15-4.54-2-4.56-5.58,0-10,0-19.91,0-29.86,0-3.11,1-5.46,4.52-5.65,2.78-.16,4.5,2,4.55,5.59.07,5,0,10,0,14.94Z"/><path class="cls-1" d="M172.85,95.37c0,5,0,10,0,14.93,0,3.11-1,5.46-4.53,5.65-2.81.16-4.54-1.93-4.56-5.57,0-9.95,0-19.9,0-29.86,0-3.1,1-5.46,4.5-5.66,2.78-.17,4.51,2,4.57,5.58.07,5,0,10,0,14.93Z"/></g></g></svg>