<svg xmlns="http://www.w3.org/2000/svg" viewBox="0 0 368.14 162.14"><defs><style>.cls-1{fill:#fff;}</style></defs><g id="Layer_2" data-name="Layer 2"><g id="Layer_1-2" data-name="Layer 1"><path class="cls-1" d="M185.41,3c21.05.78,42.29,2.2,62.41,10.43a47.11,47.11,0,0,1,8.85,4.82c6,4.08,9.42,9.45,9,17-.18,3.36-.07,6.73,0,10.1.09,7.22-3,12.66-8.94,16.68-10.49,7.13-22.5,9.93-34.69,12.12-5.75,1-11.59,1.66-17.41,2.28-2.19.24-2.94.57-1.71,2.87q18.89,35.28,37.64,70.64c.88,1.65,1.75,3.3,2.59,5,1.41,2.81.88,5.25-1.91,6.68s-5,.1-6.49-2.53q-2.44-4.41-4.8-8.88c-12.07-22.81-24.19-45.6-36.13-68.48-1.73-3.32-3.78-5-7.57-4.48a21.73,21.73,0,0,1-4.49,0c-2.27-.16-3.66.77-4.73,2.81Q164.57,103.64,152,127.22q-8.44,15.85-16.92,31.67c-1.06,2-2.54,3.5-5,3.21a4.62,4.62,0,0,1-3.83-3.18c-.66-1.69,0-3.19.74-4.64l32-60.1c2.58-4.84,5.1-9.71,7.77-14.51,1.33-2.41.8-3.07-1.94-3.33-13.92-1.36-27.71-3.47-40.85-8.61a45,45,0,0,1-14.37-8.55,16.21,16.21,0,0,1-5.4-11.56c-.26-6-.42-12,.62-17.91a15.56,15.56,0,0,1,6.06-9.57c9.92-7.84,21.76-10.86,33.78-13.3C158,4.14,171.51,3.36,185.41,3Zm-1.53,9.77a164,164,0,0,0-41,3.9c-8.77,2-17.55,4.15-24.94,9.64-5.62,4.18-5.44,7.74.28,11.7,6,4.18,12.9,6.53,20,8.21a201.38,201.38,0,0,0,92.23.34c7.78-1.76,15.48-4.11,22-9.08,4.84-3.71,4.71-7.57-.26-11.15a44,44,0,0,0-11.68-5.82C222.44,14.31,203.81,12.37,183.88,12.74ZM186,67.93c9-.68,19.33-.6,29.58-2.24,11.37-1.83,22.59-4.13,32.89-9.57,2.74-1.45,5.49-3,7-6a2.21,2.21,0,0,0,.1-2.48c-.81-.93-1.59,0-2.3.37A83.24,83.24,0,0,1,233,55.55c-21.78,5.3-43.87,6.21-66.12,4.54-17.51-1.32-34.69-4-50.51-12.29-.66-.34-1.4-.89-2.07-.36-.82.64-.48,1.6-.2,2.43a7.05,7.05,0,0,0,2.49,3.2,41.85,41.85,0,0,0,12.51,6.61C147.06,66.14,165.83,67.35,186,67.93Z"/><path class="cls-1" d="M6.77,110.37c0-15-.32-29.95.09-44.9C7.28,50,6.57,34.59,3.66,19.35,2.86,15.2,1.6,11.13.44,7.06c-.85-3-.71-5.69,2.62-6.77s5.11.93,6.14,3.88c3.92,11.29,5.37,23,6.5,34.83,1.09,11.45.73,22.93.66,34.39,0,3.58,1.37,4.42,4.64,4.41,24-.09,47.91.26,71.85-.19,10.33-.19,18.38,7.1,18.48,17.74.2,20.08.08,40.16,0,60.25a11.5,11.5,0,0,1-.73,3.64,4.17,4.17,0,0,1-4,2.81,4.31,4.31,0,0,1-4.17-2.64c-.85-1.62-.72-3.39-.72-5.13,0-16.1-.1-32.19.08-48.28,0-3.79-1.16-4.91-4.92-4.89q-37.8.21-75.59,0c-3.77,0-5,1.1-4.92,4.89.19,16,.09,31.94.09,47.9a27.4,27.4,0,0,1-.11,3.74c-.35,2.5-1.8,4.2-4.36,4.38a4.29,4.29,0,0,1-4.8-3.79,27.38,27.38,0,0,1-.43-5.2c0-14.22,0-28.44,0-42.66ZM58.69,92h4.12c11.47,0,23,0,34.42,0,1.1,0,2.81.64,3.09-1.14.22-1.37-1.11-2.1-2.18-2.77a9.63,9.63,0,0,0-5.4-1.17H20.91a20.65,20.65,0,0,0-2.61.14c-1.41.18-1.79,1.19-1.79,2.43s.36,2.27,1.78,2.41a31.35,31.35,0,0,0,3.36.13Z"/><path class="cls-1" d="M309.1,101.18c-12.72,0-25.44.1-38.17-.06-3.38,0-4.58,1-4.55,4.48.14,16.22.08,32.43.06,48.65,0,5.27-1.68,7.91-4.87,7.83s-4.82-2.57-4.83-8q0-28.62,0-57.26c0-6.88,2.2-12.73,8.16-16.71,2.92-2,6.17-2.43,9.63-2.42q35.93.08,71.85,0c5.33,0,5.4,0,5.33-5.45-.21-18.47,0-36.91,3.71-55.12a100.94,100.94,0,0,1,3.53-13c1-2.94,2.77-4.81,6.14-3.94,2.66.69,3.74,3.31,2.59,6.77-5.62,16.81-6.94,34.29-6.63,51.71.56,31.3.06,62.6.35,93.9a29,29,0,0,1-.43,5.58,4.28,4.28,0,0,1-4.78,3.81c-2.56-.16-4-1.86-4.37-4.36a25.75,25.75,0,0,1-.11-3.73c0-16-.1-31.94.08-47.9,0-3.76-1.09-5-4.89-4.92C334.3,101.31,321.7,101.18,309.1,101.18Zm.36-9.15h9.73c9.73,0,19.46,0,29.18,0,1.22,0,2.62.15,3.12-1.42a2.92,2.92,0,0,0-.35-2.86c-.93-1.06-2.3-.8-3.52-.8H275a9.11,9.11,0,0,0-4.7,1c-1.19.69-2.75,1.44-2.48,2.95.34,1.92,2.24,1.13,3.45,1.14C284,92.05,296.74,92,309.46,92Z"/></g></g></svg>