<svg xmlns="http://www.w3.org/2000/svg" viewBox="0 0 369.06 338.24"><defs><style>.cls-1{fill:#fff;}</style></defs><g id="Layer_2" data-name="Layer 2"><g id="Layer_1-2" data-name="Layer 1"><path class="cls-1" d="M255.1,88.92c-7.65-6.15-12.92-13.45-14.56-22.83-2.16-12.37.49-23.52,9.13-33a9.7,9.7,0,0,1,7.61-3.33q6.92,0,13.84,0c1.74,0,3.78.19,4-2.31s.86-5-2.5-6.21c-4.35-1.52-8-4-10.22-8.27a14.88,14.88,0,0,1-1.75-6.44,4.41,4.41,0,0,1,3.83-4.81c2.44-.46,4,.93,4.75,3.24s1,4.69,3.22,6.13c.81.53,1.61,1.38,2.69.78.91-.49.78-1.49.82-2.34.06-1.62,0-3.25.11-4.87C276.24,2,277.54,0,280.39,0s4.27,1.89,4.45,4.57c.16,2.48.13,5,.07,7.48-.06,2.21.64,3.24,3.08,2.83a34.87,34.87,0,0,1,5.22-.16c2.77,0,4.71,1.29,4.9,4.07s-1.94,4.14-4.42,4.7c-1.93.43-4,.05-5.85,1-1.59.84-3.42,1.79-3.13,3.76.35,2.32,2.58,1.25,4,1.48a7,7,0,0,0,2.24,0c9.47-1.67,14.62,3.83,18.56,11.23a37.25,37.25,0,0,1-6.67,43.85c-1.31,1.32-2.6,2.66-4.07,4.17,1.17.93,2.55.54,3.79.54,13.47,0,27,.65,40.41-.14,16.11-1,27.45,6.89,25.91,26.17-.37,4.72-.9,9.13-3.66,13.09a18.69,18.69,0,0,1-14.47,8.13c-1,.08-2,0-3,0H21.46c-10.29,0-18.23-4.88-20-14C-.43,113.66-1.66,104,5.67,95.94a19.11,19.11,0,0,1,14.65-6.35c7.73,0,15.47-.11,23.2,0,3,.06,4.4-1,4.18-4.1-.15-2.24,0-4.49,0-6.74.08-6.64,2.58-9.89,9.08-10.54,3.69-.36,4.65-1.92,4.38-5.24a74.64,74.64,0,0,1,0-7.48c.14-6.06,2.68-8.58,8.79-8.59q49,0,98.05,0c2.24,0,4.49,0,6.73,0,4.94.18,7.56,2.78,7.68,7.75.1,4.49.06,9,0,13.47,0,5.73-2.42,8.87-8.06,9.17-4.15.22-4.9,2-4.8,5.61.19,6.62,0,6.63,6.52,6.63q37.05,0,74.1,0C251.62,89.55,253.14,89.89,255.1,88.92Zm-70.47,9.71H23.39c-2.5,0-5-.08-7.36,1-5.79,2.55-6.57,7.5-6.55,13.06,0,5.82.19,11.38,6.55,14.18,2.49,1.1,5.13.92,7.74.92H345.5c1.37,0,2.75,0,4.11-.07a10.43,10.43,0,0,0,10-9.8,46.32,46.32,0,0,0,.1-4.86c0-10.94-3.39-14.38-14.24-14.38ZM121.56,67.94h22.8c8.35,0,16.69-.06,25,0,2.82,0,4.26-.93,4-3.89-.08-.86,0-1.74,0-2.61,0-5.54,0-5.55-5.64-5.55q-45.23,0-90.46,0c-7.26,0-7.1,0-7.23,7.38C70,66.92,71.3,68,74.83,68,90.41,67.86,106,67.94,121.56,67.94ZM99.68,77.58H63c-6.31,0-6.31,0-6.29,6.43,0,5.55,0,5.56,5.63,5.56q36.11,0,72.21,0c7.55,0,7.4,0,7.48-7.52,0-3.45-1.2-4.57-4.58-4.53C124.87,77.65,112.28,77.57,99.68,77.58ZM277,64.87c-7.72,0-15.45,0-23.17,0-4,0-4.38.73-2.9,4.43A28.08,28.08,0,0,0,277.41,86.6a27.57,27.57,0,0,0,25.18-17.46c1.36-3.53,1-4.23-2.8-4.26C292.19,64.83,284.59,64.87,277,64.87Zm-17.41-9.72c11.54,0,11.54,0,13.63-11.46.14-.73.3-1.46.37-2.2.12-1.44-.43-2.57-2-2.6q-6.9-.09-13.79,0c-1.48,0-2.41,1.18-3.24,2.3a32.36,32.36,0,0,0-5,10.36c-.71,2.4-.05,3.59,2.54,3.56S257.1,55.15,259.58,55.15Zm32.12,0v0h9.7c2.31,0,3-1,2.57-3.3-1.74-9.53-5.93-13.13-15.5-13.09-.74,0-1.49,0-2.24,0-2.27-.06-3.31,1-3.63,3.29A94.71,94.71,0,0,1,280.67,52c-.67,2.67.41,3.34,2.81,3.24C286.22,55.09,289,55.17,291.7,55.17ZM160,83.68c0-4.92-.11-5.3-1.78-5.92-4.49-1.64-7.14.21-7.15,5,0,1.25,0,2.5,0,3.74,0,1.94.77,2.91,2.84,3.09C159.3,90.07,160,89.49,160,83.68Z"/><path class="cls-1" d="M188.5,279.7H63.15c-5.61,0-5.62,0-5.62,5.56q0,22.26,0,44.53c0,6.5-2,8.4-8.55,8.41q-20,0-40,0c-6.55,0-8.53-1.95-8.53-8.45q0-37.61,0-75.21C.41,240.62,10,230.77,24,230.34c2.24-.07,4.49-.1,6.73,0,2.56.1,3.57-1.07,3.57-3.59a73.49,73.49,0,0,1,.39-10.07c.73-5.39,3.61-8,9-8,3.24,0,4.12-1.39,4-4.31a89.66,89.66,0,0,1,0-9c.25-5.06,3.19-8,8.27-8.37,2.36-.16,4.74-.06,7.11-.06h95c8.86,0,11.51,2.68,11.54,11.66,0,3.37.08,6.74,0,10.11-.19,6-3.07,9-9.09,8.95-3.25,0-4.4,1-4.32,4.32.24,9.41-.88,8.34,8.1,8.35q89.43,0,178.86,0c8,0,15,2.16,20.32,8.47a20.76,20.76,0,0,1,5.35,13.64q.07,39.11,0,78.2c0,5.34-2.21,7.55-7.5,7.57q-17.21.1-34.42,0c-5.48,0-7.61-2.23-7.62-7.85-.05-15.22,0-30.43,0-45.65,0-4.89-.1-5-5.06-5Zm-3.79-39.65q-80.09,0-160.17,0c-9.44,0-14.91,5.37-14.93,14.85-.07,23.32,0,46.65-.09,70,0,3.39,1.26,4.25,4.41,4.2,9.85-.14,19.71-.2,29.56,0,3.76.09,5-1.07,4.92-4.87-.19-15.22-.1-30.44-.07-45.66,0-6.18,2.44-8.59,8.67-8.59q131.36,0,262.71,0c6.56,0,8.75,2.23,8.76,8.77,0,15.34.08,30.68-.05,46,0,3.27,1,4.4,4.31,4.31,7.23-.19,14.47,0,21.7-.06,5.23,0,5.25,0,5.25-5.12v-67c0-12-4.81-16.88-16.69-16.88ZM108.5,208.54q23.37,0,46.72,0c1.44,0,3.52.58,4.12-.94a14.65,14.65,0,0,0,.17-9.52c-.74-2.41-3.46-1.39-5.31-1.39q-45-.09-90.07,0c-6.85,0-6.67,0-6.86,7-.11,3.75,1.1,5,4.89,4.94C77.61,208.43,93.06,208.54,108.5,208.54Zm-22.3,9.17v0c-11.59,0-23.19,0-34.78,0-8.19,0-7.43-.75-7.45,7.43,0,5.11,0,5.14,5.29,5.14q35.71,0,71.44,0c8.45,0,7.68.86,7.94-7.85.11-3.9-1.39-4.87-5-4.81C111.14,217.82,98.67,217.71,86.2,217.71ZM147,224.78c0-1.89,0-3.25,0-4.61a2.23,2.23,0,0,0-1.86-2.38c-4.91-1.28-6.87.16-6.88,5.21,0,.74,0,1.49,0,2.23,0,5,.38,5.14,5.26,5.13S146.63,226.7,147,224.78Z"/></g></g></svg>