<svg xmlns="http://www.w3.org/2000/svg" viewBox="0 0 197.78 368.29"><defs><style>.cls-1{fill:#fff;}</style></defs><g id="Layer_2" data-name="Layer 2"><g id="Layer_1-2" data-name="Layer 1"><path class="cls-1" d="M48.48,122.71q-20,0-40,0c-6.6,0-8.38-1.84-8.42-8.49C0,99.87-.15,85.62,3.75,71.53,14.09,34.2,49.11,4.38,87.58.59c33.16-3.28,61.31,7.16,84,31.39,16.83,18,25.44,39.7,26.13,64.41.16,5.86.05,11.72,0,17.59,0,6.93-1.75,8.7-8.56,8.72-8,0-16,.11-24,0-3.09-.06-4.19,1.06-4.13,4.14q.43,21.49.56,43c0,2.58,1.4,3.66,3.26,4.89,5.12,3.37,7.67,8.28,6.91,14.35-.82,6.46-4.47,11-10.87,13A15.07,15.07,0,0,1,143.08,194a14.62,14.62,0,0,1,5.33-19.07c2.86-1.84,3.67-3.84,3.64-7-.12-13.35,0-26.7,0-40.05,0-5.1,0-5.14-5.29-5.14H108.18c-5.44,0-5.57,0-5.43,5.34,1,38.91.5,77.82.64,116.74q.15,40.61,0,81.21c0,4,1.08,5.56,5.14,6.38,15.44,3.14,27,11.81,34.42,25.77,3.1,5.82.42,10.1-6.27,10.11q-37.78.06-75.59,0c-6.69,0-9.37-4.28-6.27-10.11,7.41-14,19-22.61,34.42-25.77,4.06-.83,5.19-2.38,5.14-6.38-.23-17.59.17-35.19-.21-52.77-1-48.27-.21-96.54-.53-144.81,0-5.7,0-5.71-5.85-5.71ZM98.66,94.2q42.66,0,85.32,0c2.12,0,4.6.73,4.21-3.22-2.64-26.68-14.45-48.41-35.93-64.29-23.88-17.65-50.51-22-79.16-14C39.5,22,12.31,54.91,9.76,89.41c-.35,4.77-.35,4.78,4.69,4.79Zm.61,9.06H23c-3.49,0-7,0-10.47,0-1.55,0-2.92.13-3.35,2.15-1.35,6.34,0,8.19,6.3,8.19H182.27c1.25,0,2.5,0,3.74-.05.89,0,2-.1,2.21-1.06a12.8,12.8,0,0,0-.05-8.07c-.77-1.94-3.09-1.14-4.74-1.15Q141.35,103.23,99.27,103.26Zm-.78,255.83c10.08,0,20.17,0,30.26,0,.95,0,2.19.43,2.76-.58s-.52-1.79-1.1-2.54c-15.6-20.16-47.37-20.17-63,0-.58.75-1.69,1.45-1.13,2.53s1.79.6,2.73.61C78.8,359.11,88.65,359.09,98.49,359.09ZM156.92,193a5.59,5.59,0,1,0-.39-11.17,5.59,5.59,0,1,0,.39,11.17Z"/></g></g></svg>