<svg xmlns="http://www.w3.org/2000/svg" viewBox="0 0 367.93 244.53"><defs><style>.cls-1{fill:#fff;}</style></defs><g id="Layer_2" data-name="Layer 2"><g id="Layer_1-2" data-name="Layer 1"><path class="cls-1" d="M67.27,94.44a45.77,45.77,0,0,1-8.46-21.17A41.64,41.64,0,0,1,80.37,31.76c3.11-1.64,4.35-3.47,4.21-6.94-.24-6-.13-12,0-18C84.65,1.33,86,0,91.49,0q9.17,0,18.33,0c5.2,0,6.64,1.36,6.75,6.65.12,6.36.14,12.72,0,19.08a5.28,5.28,0,0,0,3.36,5.55c7.12,3.47,12.55,8.9,17.65,15.46v-6c0-3.46,1.63-5.42,5.18-5.46,4.24,0,8.48-.07,12.72,0,3.48.06,5.69,2,5.25,5.41-1.15,8.71,1.87,14.59,8.72,20.53,9,7.81,9.86,18.83,5.54,30-1.5,3.88-1.52,3.89,2.63,3.89H353.86c1.5,0,3,0,4.49,0,8.67.07,11.08,3.2,8.73,11.37-1.62,5.63-3.36,11.23-4.86,16.9s-5.28,9.16-10.77,10.91a42.9,42.9,0,0,1-12.87,2.08c-5.49,0-11,.12-16.46,0-3.07-.09-4.33,1-4.09,4.14.64,8.45,1.09,16.91,1.71,25.35.88,11.93,1.86,23.84,2.75,35.77q1.15,15.27,2.19,30.56c.16,2.36.12,4.74.18,7.11.08,2.86-1,5-4.07,5.27s-4.8-1.69-5.05-4.77c-.52-6.21-1-12.41-1.49-18.62q-1.81-24.78-3.58-49.57c-.71-9.94-1.2-19.9-2.05-29.83-.46-5.38-.7-5.37-6.11-5.37H81.37c-7,0-14,.14-21-.07-3.21-.09-4.51,1.08-4.71,4.19-.55,8.7-1.23,17.39-1.86,26.09Q52.08,190.79,50.32,215q-.84,11.55-1.67,23.11a16.44,16.44,0,0,1-.12,1.86c-.48,2.83-2.13,4.67-5,4.53s-4.16-2.14-4-4.89c.28-6.35.58-12.7,1-19,.86-12.18,1.83-24.35,2.73-36.52,1-13,1.78-26.1,2.89-39.13.73-8.56.89-8.58-7.64-8.58-6.48,0-12.95.21-19.35-1.34-7.17-1.74-12-5.6-13.73-13.1C4,116.1,2.08,110.42.45,104.66c-1.5-5.35.78-8.79,6.27-9.46a35.14,35.14,0,0,1,4.11-.11q26,0,52,0C64.17,95.06,65.57,95.39,67.27,94.44Zm117.16,9.78H17.19c-1.24,0-2.49,0-3.74,0-2.37-.08-3.13.92-2.43,3.24,1.27,4.17,2.52,8.36,3.57,12.59A7.31,7.31,0,0,0,20,125.6c3.9,1.22,7.89,1,11.87,1.05H336.83c3.86,0,7.75.16,11.48-1.18,2-.73,4-1.61,4.64-3.94,1.39-4.79,2.75-9.59,4.15-14.37.56-1.9,0-2.9-2.06-2.91-1.25,0-2.5,0-3.74,0Zm-81.88-9.14c6.11,0,12.23-.09,18.34,0,3.16.06,3.86-.61,2.56-3.83-4.59-11.36-2.85-21.8,5.71-30.72,2-2.1,2.18-3.78,1-6.23A31.64,31.64,0,0,0,112.47,38c-4-1.49-5.73-4-5.54-8.21s.07-8.23,0-12.34c-.08-9.21,1.24-8.29-8.83-8.41-2.86,0-4.07,1-4,3.92.12,5.61-.1,11.23.07,16.84C94.33,34,92.56,36.4,88.65,38c-23.09,9.44-28.13,38.09-9.79,54.94a7.34,7.34,0,0,0,5.36,2.16C90.33,95,96.44,95.08,102.55,95.08Zm46.51,0a51.7,51.7,0,0,1,6.35,0c5.19.67,8.19-2.11,10.36-6.25a18.61,18.61,0,0,0-9.13-26c-3.67-1.6-5.22-3.82-4.92-7.71.19-2.6,0-5.23,0-7.84,0-1.68-.45-3-2.48-3s-2.59,1.11-2.58,2.86c0,2.36-.19,4.74,0,7.09.37,4.27-1.12,7-5.29,8.69-6.61,2.64-10,8.05-11,14.91-.77,5.47,1.23,10.24,4.5,14.59,2.69,3.57,6.51,2.35,10,2.56C146.32,95.15,147.69,95.08,149.06,95.08Z"/></g></g></svg>