<svg xmlns="http://www.w3.org/2000/svg" viewBox="0 0 323.06 368.24"><defs><style>.cls-1{fill:#fff;}</style></defs><g id="Layer_2" data-name="Layer 2"><g id="Layer_1-2" data-name="Layer 1"><path class="cls-1" d="M20.09,175.86V14.94c0-5.95,0-5.94-6-6-3.12,0-6.24,0-9.36,0C2.15,8.89.27,7.72,0,5.06-.23,2.2,1.54.69,4.2.26A29,29,0,0,1,8.67,0H314.42a26,26,0,0,1,4.83.35c2.53.47,4,2.09,3.78,4.74-.24,2.46-1.94,3.73-4.34,3.81-3.61.11-7.24.22-10.85,0S303,10.13,303,13.72c.17,12.58.51,25.18.54,37.76.24,93.8.12,187.61.25,281.42,0,10.15-2.63,18.44-12.31,23.23-2,1-1.77,2.8-1.81,4.54-.13,5.44-1.39,7.54-4.54,7.57s-4.4-1.9-4.63-7.15c-.11-2.41-1-3.43-3.4-3.29-.87.05-1.75,0-2.62,0H52.21c-5.4,0-5.4,0-6.07,5.2-.37,2.87-1.49,5.22-4.78,5.18s-5-2.37-4.76-5.48c.25-3.72-1.28-5.3-4.69-6.77-7.82-3.39-11.64-10-11.85-18.41-.23-9.35-.06-18.71-.06-28.06V175.86Zm136.84,2.65H157q0-81.94,0-163.88C157,9,157,9,151.45,9h-116c-6.38,0-6.41,0-6.38,6.47.32,58.74-.21,117.48.51,176.22.6,47.76.22,95.53,0,143.3,0,7.72,3,13.32,12.91,13.23,36.29-.35,72.58-.13,108.88-.14,5.5,0,5.51,0,5.51-5.67Q156.95,260.46,156.93,178.51ZM230,231.13c19.71,0,39.41-.08,59.11.07,3.71,0,5-1,5-4.85-.12-33.67,0-67.34,0-101,0-4.68-.17-4.85-4.85-4.85-39.41,0-78.82,0-118.23-.07-3.7,0-5,1-5,4.86q.21,50.51,0,101c0,3.74,1,5,4.86,4.93C190.6,231,210.31,231.13,230,231.13Zm-2.81,117q27.3,0,54.61,0c8.69,0,12.19-3.51,12.19-12.3q0-45.27,0-90.52c0-4.87-.07-4.93-5.1-4.93H171.08c-4.93,0-5,0-5,5q0,48.81,0,97.62c0,5,.1,5.09,5,5.09ZM230,9H170.92c-4.72,0-4.89.18-4.89,4.82,0,30.93.08,61.85,0,92.78,0,3.82,1.22,4.89,4.94,4.88,39.41-.12,78.82-.07,118.23-.08,4.72,0,4.89-.16,4.89-4.81q0-46.39,0-92.78c0-4.59-.23-4.81-4.94-4.81Z"/><path class="cls-1" d="M142.12,191.22c0,4.47,0,8.95,0,13.42,0,3-1.21,5.15-4.43,5.43-2.77.24-4.64-1.94-4.67-5.48q-.09-13.05,0-26.09c0-3.62,1.77-5.74,4.55-5.59,3.48.2,4.55,2.53,4.55,5.64Z"/><path class="cls-1" d="M230.3,142.85h11.22c3.11,0,5.16,1.45,5.12,4.64,0,3-2.23,4.36-5,4.39-7.6.08-15.2.07-22.8,0-2.88,0-4.83-1.45-4.88-4.51s1.88-4.47,4.79-4.51c3.87-.05,7.73,0,11.59,0Z"/><path class="cls-1" d="M230.39,271c-3.6,0-7.21.05-10.82,0-3.84-.06-6-1.82-6-4.66s2.22-4.47,6.14-4.49c7.09-.05,14.18,0,21.28,0,3.16,0,5.42,1.09,5.7,4.5.24,2.88-2,4.62-5.87,4.68C237.36,271.05,233.88,271,230.39,271Z"/><path class="cls-1" d="M230.39,30.68c3.73,0,7.46-.08,11.19,0,2.8.07,5,1.33,5,4.38s-2.08,4.44-4.9,4.47q-11.56.14-23.12,0c-2.73,0-4.52-1.51-4.56-4.36s1.73-4.38,4.45-4.47C222.44,30.58,226.42,30.68,230.39,30.68Z"/></g></g></svg>