<svg xmlns="http://www.w3.org/2000/svg" viewBox="0 0 246.01 372.46"><defs><style>.cls-1{fill:#fff;}</style></defs><g id="Layer_2" data-name="Layer 2"><g id="Layer_1-2" data-name="Layer 1"><path class="cls-1" d="M229.39,114.3c0,35.43,0,70.86-.06,106.28,0,3.37.8,5.34,4.07,6.94a20.42,20.42,0,0,1,11.88,16.64,106,106,0,0,1,0,25,20.42,20.42,0,0,1-11.94,16.59c-3.35,1.61-4,3.67-4,7,.11,23.82.06,47.65,0,71.47a22.91,22.91,0,0,1-.23,4.47c-.46,2.34-2,3.85-4.43,3.78a4.26,4.26,0,0,1-4.44-4.17c-.12-1.24-.09-2.49-.09-3.74q0-35.37,0-70.73c0-4.94-.12-5.07-5-5.07H34.81c-5.2,0-5.27.07-5.27,5.18q0,35.18,0,70.36a20.92,20.92,0,0,1-.36,4.82,4.06,4.06,0,0,1-4.37,3.35,4.2,4.2,0,0,1-4.32-3.88,31.25,31.25,0,0,1-.13-4.11c0-23.57-.08-47.15.06-70.73,0-3.58-.73-5.45-4.52-6.7-8.46-2.8-13.9-8.83-15-17.86a94.79,94.79,0,0,1,0-25.35c1.3-9.15,6.89-15.1,15.55-17.86,3.14-1,4-2.48,4-5.57-.33-17.45-.28-34.92-.21-52.36q.12-29.72.13-59.43c0-14.82-.08-29.65,0-44.46,0-19.57-.09-39.14.2-58.71.05-2.95,1-5.37,4.33-5.38s4.56,2.26,4.6,5.24c.08,5.86.21,11.73,0,17.59-.14,3.58,1.15,4.76,4.73,4.74,22.58-.12,45.16-.06,67.74-.06h113c5.43,0,5.44,0,5.45-5.39s0-11,0-16.46c0-3.76,1.7-5.91,4.42-5.68,3.47.28,4.51,2.68,4.53,5.76q0,9.34,0,18.71V114.3ZM123,234.21q-49.38,0-98.78,0c-9,0-14.14,5.16-14.21,14.18,0,5,0,10,0,15,0,11,4.69,15.65,15.77,15.65H143.64q39.29,0,78.57,0c8.53,0,13.74-5.28,13.84-13.8.06-5.24,0-10.48,0-15.72,0-10.49-4.83-15.26-15.39-15.26Q171.85,234.2,123,234.21Zm2.28-61.46q-45.46,0-90.93,0c-4.69,0-4.84.15-4.84,4.84,0,14.1.07,28.19-.05,42.29,0,3.29.88,4.66,4.43,4.66q90.93-.12,181.86,0c3.45,0,4.54-1.17,4.5-4.56-.13-14,0-27.94,0-41.91,0-5.3,0-5.32-5.49-5.32Zm-.76-77.15c30.31,0,60.62,0,90.93.08,3.8,0,5.07-1.19,4.89-5-.26-5.48,0-11,0-16.46,0-6.2,0-6.21-6.26-6.21H76q-20.38,0-40.79,0c-5.69,0-5.7,0-5.71,5.51s0,11.22,0,16.83c0,5.16.05,5.2,5.26,5.2Q79.63,95.62,124.53,95.6Zm.43,67.46c30.19,0,60.38-.05,90.57.06,3.53,0,4.93-1,4.77-4.68-.24-5.35-.05-10.72-.05-16.09,0-6.15,0-6.16-6.27-6.16H69.52c-12,0-23.95.07-35.92,0-3.07,0-4.24,1-4.15,4.13.17,5.86,0,11.73.06,17.59,0,5.14,0,5.18,5.26,5.19Zm-.29-104H134c27.18,0,54.36,0,81.53.06,3.49,0,5-1,4.81-4.66-.23-4,0-8,0-12,0-5.92,0-5.93-6-5.93H35.53c-.75,0-1.5.07-2.25,0-3-.27-3.94,1.21-3.86,4,.12,4.36,0,8.72,0,13.09,0,5.34.06,5.39,5.47,5.39Zm.33,68.05c30.18,0,60.37,0,90.55.06,3.52,0,5-1,4.77-4.66-.25-3.85,0-7.73,0-11.6,0-6.22,0-6.22-6.09-6.22H35.7a16.67,16.67,0,0,1-1.87,0c-3.17-.35-4.56.91-4.4,4.24.21,4.1.05,8.23.06,12.34,0,5.84,0,5.85,5.71,5.85Z"/></g></g></svg>