<svg xmlns="http://www.w3.org/2000/svg" viewBox="0 0 347.44 368.43"><defs><style>.cls-1{fill:#fff;}</style></defs><g id="Layer_2" data-name="Layer 2"><g id="Layer_1-2" data-name="Layer 1"><path class="cls-1" d="M173.75,0q78.76,0,157.53,0c10.33,0,16.58,6.54,16.14,16.74-.3,7.06-5.94,12.63-13.94,13.75-5.56.78-5.57.78-5.56,6.55q0,156.78.11,313.56c0,4.21-.41,8.2-3.09,11.67a15,15,0,0,1-10.76,6,31.35,31.35,0,0,1-3.36.07q-137.15,0-274.28.05c-6.69,0-11.9-2.19-15.3-8.11-1.68-2.93-1.82-6.14-1.81-9.42q0-98.41.05-196.82,0-58.93.11-117.87c0-3.71-.57-5.52-5-5.77C5.07,29.88-.45,23.16,0,13.67.43,5.65,7.06,0,16.22,0Zm0,134.67v0H96.27c-21.07,0-42.15.07-63.23,0-3.43,0-4.65,1.13-4.51,4.55.21,5.35.25,10.73,0,16.08-.17,3.69,1,5.16,4.84,5,6.48-.26,13-.07,19.45,0,2.83,0,5.64.36,7.26,3,1.19,1.94,2.8,2.18,4.76,2.17,6-.05,12,0,18,0,6.81,0,8.63,1.84,8.64,8.68q0,32.35,0,64.72c0,5.18,0,5.2,5.21,5.2l217,0c5.11,0,5.13,0,5.13-5.25q0-49,.05-98c0-6,0-6-6-6Zm81.86-10.15c-.47-1.34-1.69-1.83-2.63-2.57-13.48-10.72-14.64-32.93-2.39-45a8.78,8.78,0,0,1,6.65-2.8c3.62.06,7.24,0,10.86,0,1.31,0,2.55-.26,2.8-1.86a2.75,2.75,0,0,0-1.56-3.1c-1-.51-2-1-3-1.55-4.05-2.48-6.67-6-7.18-10.79-.26-2.52.9-4.47,3.5-5s4.4.66,5.19,3.16c.53,1.65.72,4.18,2.62,4,2.41-.22,1-2.83,1.29-4.35.44-2.54,1.61-4.23,4.26-4.39s4.06,1.57,4.55,4a9.27,9.27,0,0,1,.16,3c-.48,3.79,1.09,5.23,4.87,4.88,3.05-.27,5.63.74,5.59,4.4s-2.71,4.37-5.68,4.55c-1.75.11-4.32.15-4.22,2.07s2.68.93,4.11,1c3.9.08,7.86-.24,10.72,3.15,7.76,9.2,9.94,19.58,6.44,31.13-2,6.7-6.67,11.49-12.62,16.37,2.1.13,3.29.26,4.47.27q9.74,0,19.46,0c4.91,0,5-.11,5-5.05q0-42.1.05-84.21c0-4.92-.16-5.09-5-5.09q-140.16,0-280.32,0c-4.91,0-5.07.15-5.08,5q0,26.58,0,53.14c0,5.45,0,5.47,5.35,5.47q35.55,0,71.11,0c5.52,0,8,2.43,8.06,8,.08,5.74,0,11.47,0,17.21,0,5.54,0,5.56,5.67,5.56q66.42,0,132.86,0C252.92,125,254.33,125.43,255.58,124.52ZM111.68,253.16v.55c-26.07,0-52.14.07-78.2-.07-3.78,0-5,1.15-4.92,4.92.18,16.22.07,32.43.08,48.65,0,6.4,0,6.41,6.24,6.41q38.53,0,77.08,0c6.43,0,9.4,3,9.46,9.38,0,4.86.08,9.73,0,14.59-.1,4.32-2.3,7.33-6.52,7.88-3.56.46-4.31,2.21-4,5.24.11,1.11,0,2.24,0,3.36,0,5.1,0,5.12,5.28,5.12H228c5.45,0,5.46,0,5.46-5.66q0-27.69,0-55.38c0-5.3,2.12-7.52,7.42-7.7,4.36-.14,8.73-.19,13.09,0,3.24.14,4.45-1.06,4.37-4.33-.17-6.23-.15-12.47,0-18.7.13-5.05,2.56-7.74,7.27-7.69,17.07.18,34.15-.81,51.2.53,1.34.11,1.72-.24,1.93-1.48.75-4.39-.23-5.64-4.72-5.64q-20.77,0-41.54,0ZM173.76,9H18.49a22.18,22.18,0,0,0-4.83.26C11,9.87,9.24,11.49,9,14.41s.67,5.13,3.47,6.42c2,.92,4.13.83,6.24.83H328.54a28.15,28.15,0,0,0,4.11-.16c3.92-.6,5.92-3,5.75-6.56S336,9.25,332,9c-1.36-.07-2.74,0-4.11,0Zm-122,198h0c0-11-.07-21.95,0-32.92,0-3.05-1-4.27-4.15-4.18-5.23.16-10.47.09-15.71,0-2.38,0-3.35,1-3.35,3.36q.07,33.68,0,67.35c0,2.68,1.24,3.44,3.67,3.4,5-.09,10-.18,15,0,3.42.15,4.6-1.09,4.55-4.52C51.64,228.67,51.74,217.82,51.74,207ZM293.45,314c0,13.7.06,27.41-.05,41.12,0,3.08,1.07,4.31,4.15,4.11,2.73-.17,5.48,0,8.22,0,5.63,0,5.64,0,5.64-5.5q0-34.2,0-68.41c0-4.36-.06-8.73,0-13.09.05-2.37-.93-3.42-3.33-3.34-2.73.08-5.48,0-8.22,0-6.42,0-6.43,0-6.43,6.25Q293.44,294.56,293.45,314ZM82.28,209.46h0c0-10.33-.07-20.67,0-31,0-2.86-.92-4.08-3.88-4-4.48.16-9,.11-13.45,0-2.52-.06-3.6.92-3.59,3.5q.09,31.2,0,62.4c0,2.85,1.26,3.68,3.87,3.61,4.24-.11,8.48-.18,12.71,0,3.26.16,4.37-1,4.32-4.31C82.18,229.64,82.28,219.55,82.28,209.46ZM268.07,313.6v35.12c0,10.52,0,10.52,10.37,10.48,5.26,0,5.28,0,5.28-5.48v-74c0-11,0-10.85-11.12-10.93-3.72,0-4.63,1.36-4.6,4.82C268.16,286.94,268.07,300.27,268.07,313.6ZM56.2,103.35c-8,0-15.94.06-23.92,0-2.72,0-3.82,1-3.75,3.74.13,4.86.09,9.72,0,14.58,0,2.32.89,3.43,3.3,3.42q23.93,0,47.84,0c2.39,0,3.38-1,3.35-3.39,0-4.73-.12-9.47,0-14.2.11-3-1-4.24-4.1-4.17C71.41,103.45,63.8,103.35,56.2,103.35ZM70.44,336.12h34.4c8.21,0,7.36.59,7.39-7.51,0-5.23,0-5.26-5.14-5.26q-35.16,0-70.3,0c-9.07,0-7.95-1-8.22,8.24-.11,3.76,1.43,4.62,4.85,4.58C45.76,336,58.1,336.12,70.44,336.12Zm187.9-6V311c0-11.07,0-11-11.19-11-3.39,0-4.56,1.07-4.53,4.52.15,14.46.06,28.93.06,43.39,0,11.46,0,11.34,11.5,11.28,3.4,0,4.26-1.36,4.2-4.47C258.24,346.57,258.34,338.34,258.34,330.11ZM57.81,345.85H35c-6.5,0-7.53,1.3-6.15,7.75.82,3.85,3.16,5.56,8.06,5.58,13.59.05,27.17.1,40.76,0,10.43-.08,8.91,1.76,9.14-9.45.06-3-1.08-4-4-3.91C74.52,345.93,66.16,345.86,57.81,345.85Zm215-225.68c9-.48,16-4.21,20.09-12.58,1-2.13,1.23-3.52-1.85-3.51q-17.71.06-35.43,0c-3,0-3.52,1.2-2.2,3.68C257.54,115.57,264.05,119.66,272.8,120.17Zm-168.77-6v-3c0-8.41,0-8.34-8.59-7.84-2.38.13-3.35,1.08-3.32,3.41.07,5,0,10,0,15,0,1.25,0,2.82,1.5,3.06,3.06.48,6.4,1.11,9.17-.27,2.3-1.15.93-4.08,1.16-6.22A40.19,40.19,0,0,0,104,114.14ZM259.47,95h0c1.49,0,3,0,4.47,0,1.69,0,3.4-.17,3.84-2.16.63-2.85,2.29-5.6,1.23-8.65-.32-.9-1.41-.93-2.28-.94-2.61,0-5.22-.13-7.82,0-2.84.2-7.48,6.16-6.94,9.55.65,4,4.23,1.41,6.39,2.14A3.42,3.42,0,0,0,259.47,95Zm26.29,0c2.12,0,4.24,0,6.35,0,1.19,0,2.15-.29,2.21-1.88.21-6.49-8.33-12.32-14-9.54a2.87,2.87,0,0,0-1.61,2.36C277.21,96.12,275.11,94.89,285.76,94.94Zm-184.69,258c0-1.62.06-3.24,0-4.86s-1.07-2.13-2.52-2.14-2.46.58-2.48,2.14q-.08,4.49,0,9c0,1.57,1,2.12,2.49,2.12s2.44-.58,2.52-2.13C101.13,355.66,101.07,354.29,101.07,352.92Z"/></g></g></svg>