<svg xmlns="http://www.w3.org/2000/svg" viewBox="0 0 311.49 361.67"><defs><style>.cls-1{fill:#fff;}</style></defs><g id="Layer_2" data-name="Layer 2"><g id="Layer_1-2" data-name="Layer 1"><path class="cls-1" d="M80.67,349.82c-5-3.33-10.18-6-14.86-9.4-32.53-23.87-50.37-56.2-55.33-95.92a107.86,107.86,0,0,1,3.59-44.79c.66-2.19.35-3.29-1.88-4.31C4,191.67,0,185.24,0,176.15Q.12,98.49.11,20.84C.12,8.12,8.19,0,20.89,0Q47.83,0,74.78,0c12,0,20.33,8.21,20.35,20.15q.09,78.21.09,156.43a23.21,23.21,0,0,1-1.56,8.4c-.39,1-1.67,2.47.58,2.84,1.57.27,3.5.4,3.76-1.91.23-2.09.08-4.23.17-6.35.3-6.7,2.23-12.71,7.3-17.46a19.52,19.52,0,0,1,13.79-5.73q81.77,0,163.53,0c11.62,0,20.54,9.55,21.17,22.32a50.69,50.69,0,0,1,0,5.23c-.12,2.4.15,4.3,2.9,5.31,2.08.77,2.75,2.8,2.3,5a3.85,3.85,0,0,1-3.92,3.37c-3.07,0-4,1.51-4.2,4.39-1.64,23.15-10.2,43.53-24.93,61.35q-25.6,31-65,39.15c-2.75.57-3.67,1.88-3.64,4.6.1,13.22.18,26.44,0,39.66,0,3.62,1.44,4.33,4.67,4.4,30.17.62,60.35.59,90.53.62a27,27,0,0,1,4.85.23c2.29.41,3.88,1.75,4,4.27a4.49,4.49,0,0,1-3.49,4.72c-2.68.86-5.47.65-8.18.43-11.34-.91-22.69-.45-34-.49-33.68-.14-67.37.29-101-.3-47.4-.82-94.79-.23-142.18-.67-4.61,0-9.21-.39-13.82-.51-3.11-.07-5.46-1.05-5.65-4.56-.15-2.81,2-4.59,5.58-4.61,9-.06,18,0,26.94,0,13.6,0,27.2.07,40.79.06C77.71,350.4,79.11,350.78,80.67,349.82Zm77.41-152v-.15c-42.78,0-85.56.07-128.34-.1-4.19,0-5.95,1.41-7,5.28A105.09,105.09,0,0,0,20.38,248c7.31,43.13,29.37,75.71,69.12,95.3,7.14,3.52,14.61,7.36,22.58,7.51,27.55.51,55.12.25,82.68.33,2.49,0,3.61-.84,3.62-3.47,0-13.21-.12-26.42-.61-39.63-.09-2.39-1.08-3.36-3.43-3.3a33.49,33.49,0,0,1-6.34-.24,4.09,4.09,0,0,1-3.72-4.43,4.23,4.23,0,0,1,3.87-4.34c2.34-.36,4.71-.56,7.07-.71,30.48-1.91,55.19-15.14,74.45-38.55a97,97,0,0,0,21.79-51.66c.81-7.05,1-7-6.17-7Zm-72-99.72h.09q0-38.34,0-76.67C86.13,13,82.08,9,73.73,9Q47.56,9,21.37,9C13,9,9.09,13,9.09,21.48q0,76.48.08,153c0,8.9,3.27,13,12.09,13.24,17.57.41,35.15.23,52.72.07,4.5,0,8.67-1.52,10.78-6.11a18.89,18.89,0,0,0,1.32-8.05Q86.07,135.83,86.07,98.05ZM201,165.52H187.52q-33.3,0-66.62,0c-7.89,0-12.8,4.9-13,12.79-.06,1.75.09,3.51,0,5.24-.25,3.15.91,4.45,4.24,4.46q25.82.12,51.62.37c40.67.46,81.34.21,122,.2,9.58,0,8.58,1.24,8.59-8.56,0-10-4.57-14.51-14.7-14.51Z"/></g></g></svg>