<svg xmlns="http://www.w3.org/2000/svg" viewBox="0 0 368.34 329.55"><defs><style>.cls-1{fill:#fff;}</style></defs><g id="Layer_2" data-name="Layer 2"><g id="Layer_1-2" data-name="Layer 1"><path class="cls-1" d="M219.23,277.66H108.83c-5.6,0-5.61,0-5.62,5.63,0,9.23.1,18.47,0,27.7C103,321.67,96.31,329.2,87,329.43c-10,.25-17.31-7.19-17.38-17.94-.12-15.59,0-31.19,0-46.78q0-28.26,0-56.51c0-14.48,8-22.52,22.45-22.55,7,0,14,0,21,0,5.87,0,5.87,0,5.87-6q0-26.76,0-53.52c0-12.38,8.24-20.57,20.68-20.57q79.53,0,159.06,0c12.61,0,20.84,8.18,20.9,20.86.08,18.08,0,36.17.05,54.26,0,4.9.12,5,5.06,5,7.6,0,15.22,0,22.82,0,12.68.11,20.84,8.31,20.84,20.91q0,53.15,0,106.29a16.35,16.35,0,0,1-12.46,16.19,16.69,16.69,0,0,1-18.79-8.26,16.43,16.43,0,0,1-1.9-8.28c0-9.73,0-19.46,0-29.2,0-5.63,0-5.64-5.54-5.64Zm.06-32.13h71.86c21.2,0,42.41,0,63.61,0,2.75,0,4.48-.4,4.44-3.82-.15-11.85.05-23.7-.11-35.55-.09-7-4.1-10.82-11.08-10.82q-128.73,0-257.47,0c-7.56,0-11.2,3.7-11.22,11.28,0,11.11,0,22.21,0,33.31,0,5.55,0,5.57,5.64,5.57Zm-.16-130.95h-8.24q-35.35,0-70.72,0c-7.49,0-12,3.91-12.09,10.8-.14,19,0,37.92-.06,56.87,0,2.36.92,3.5,3.32,3.38a25.11,25.11,0,0,1,3.36,0c2.77.21,3.79-1.08,3.71-3.77-.11-4.12-.06-8.24,0-12.35.15-11.54,8.4-19.83,19.88-19.88q17.78-.09,35.54,0c11.75.05,20,8.27,20.2,20,.06,4,.15,8,0,12-.14,3.14,1.18,4.36,4.2,4.06a12,12,0,0,1,2.24,0c2.85.26,4.11-.88,4-3.86-.15-4.35-.06-8.73,0-13.09.12-10.78,8.13-18.92,19-19,12.47-.12,24.94-.1,37.41,0A19.09,19.09,0,0,1,299.5,165.9c.87,5.21.4,10.45.57,15.68,0,1.22-.3,2.8.94,3.43,2.3,1.19,4.92.89,7.31.32,2.07-.49,1.54-2.61,1.54-4.15q.06-26.75,0-53.5c0-9.91-3.25-13.1-13.32-13.1Q257.85,114.57,219.13,114.58Zm.53,140.68h-134c-1.24,0-2.49,0-3.74.06-.89,0-2,.14-2.19,1.08-.77,3.44-1.12,7.08.08,10.31.86,2.31,3.8,1.19,5.79,1.19q133.22.08,266.43,0c7.73,0,7.07.58,7.08-7.05,0-5.61,0-5.63-5.52-5.63Zm-43.77-69.63c8.22,0,16.44,0,24.66,0,2.66,0,3.88-.95,3.81-3.71-.11-4.36.06-8.72-.05-13.08-.15-6-3.77-9.93-9.8-10q-18.3-.28-36.61,0c-5.54.08-8.91,3.37-9.93,8.86-.82,4.45-.14,9-.45,13.42-.23,3.37,1,4.66,4.46,4.57C159.94,185.5,167.92,185.64,175.89,185.63Zm85.86,0c8.23,0,16.46-.08,24.7,0,2.9,0,4-1.06,3.94-4-.15-4.11,0-8.23-.06-12.35-.14-6.12-4.13-10.41-10.34-10.52q-18-.3-35.93,0c-6.22.1-10.18,4.26-10.43,10.49-.17,4,.1,8-.1,12-.16,3.21.94,4.47,4.27,4.4C245.78,185.52,253.76,185.64,261.75,185.64Zm97.38,111.05h0c0-3,0-6,0-9-.21-11.66,1.93-9.81-10.45-10.1-3.19-.07-4.43,1-4.38,4.28.16,9.84,0,19.68.07,29.52,0,5.1,3,8.64,7.24,8.73s7.39-3.4,7.49-8.52S359.13,301.67,359.13,296.69Zm-279.8.24c0,5.23,0,10.46,0,15.7,0,2.36.58,4.46,2.59,5.9,2.27,1.62,4.65,2.23,7.36,1,3-1.39,4.16-3.81,4.18-6.91,0-8.34.13-16.69,0-25-.15-11.35,2.08-9.75-10.62-9.9-2.56,0-3.58,1-3.54,3.58C79.38,286.47,79.32,291.7,79.33,296.93Z"/><path class="cls-1" d="M219.3,85.32H134.38c-7.11,0-8.61-1.47-8.62-8.5q0-33.86,0-67.71a22.92,22.92,0,0,1,.53-5.17A4.68,4.68,0,0,1,131.16,0c1,0,2,0,3,0H303.61c7.53,0,8.48.93,8.48,8.32q0,34.61,0,69.21c0,6.62-1.18,7.78-7.9,7.78Zm0-76.33H140.75c-5.32,0-5.37.06-5.37,5.49q0,13.85,0,27.69c0,10,.08,19.95,0,29.93,0,3,1,4.37,4.11,4.19a57.41,57.41,0,0,1,8.6,0c4.11.38,7-1.23,9.87-4.12,10.83-11,21.85-21.9,32.84-32.78,3.8-3.76,6.65-3.58,10.08.39,1.46,1.7,3,3.37,4.51,5,6.35,6.69,12.79,13.3,19.06,20.06,3.7,4,3.54,4.07,7.76.46,6.35-5.42,12.8-10.72,19.14-16.16,2.77-2.38,5.28-2.34,7.92.14,7.09,6.64,14.62,12.89,21.21,20,5,5.41,10.39,7.91,17.73,7.07,4.77-.54,4.9-.2,4.9-5.26q0-28.42,0-56.87c0-5.18-.06-5.24-5.22-5.24Zm2.89,67c-8.51-9.07-16.31-17.27-24-25.6-2.09-2.28-3.54-2.33-5.73-.07C185,58,177.37,65.48,169.8,73.08c-.74.74-1.88,1.28-1.82,2.9Zm32,.27c5.61,0,11.22,0,16.83,0,.72,0,1.58.11,2-.69s-.18-1.15-.64-1.57q-7.83-7.22-15.65-14.43a2.43,2.43,0,0,0-3.65-.06c-5.48,4.69-11,9.36-16.46,14.08-.59.51-1.75,1-1.24,2,.44.9,1.54.66,2.38.66C243.26,76.27,248.74,76.25,254.22,76.25Z"/><path class="cls-1" d="M34.26,229.26q0-41,0-81.93c0-4.56-4.28-7-8.25-4.75-.48.28-1.07.93-1.06,1.39.14,4.48-1.46,9.09,1.91,13.27a8.06,8.06,0,0,1-1,11.16,8.22,8.22,0,0,1-10.95.23,7.92,7.92,0,0,1-1.32-11.37c3.4-4.19,1.73-8.79,1.84-13.25,0-1.59-1.54-1.73-2.82-1.76-2.12,0-4.25.05-6.36-.08-5.26-.3-7.55-3.62-5.44-8.37,5.68-12.75,11.55-25.42,17.39-38.1a6,6,0,0,1,6-3.68c9.73,0,19.45,0,29.18,0a6.22,6.22,0,0,1,6.15,4c5.48,12,11.07,24,16.49,36,3.15,7,1.07,10.1-6.58,10.12-7,0-14,0-21,0-4.92,0-5,.12-5,5q0,47.32,0,94.65,0,34.78,0,69.58c0,5.14,0,5.12,5.25,5.18a28.72,28.72,0,0,1,5.58.36,4.51,4.51,0,0,1,3.93,4.39c.06,2.45-1.56,3.86-3.74,4.55a9.81,9.81,0,0,1-3,.39c-8.6,0-17.21,0-25.81,0-1.91,0-3.77-.23-5.17-1.71a4.63,4.63,0,0,1,2.77-7.73,26.34,26.34,0,0,1,6.7-.24c3.34.25,4.32-1.19,4.28-4.38-.13-11.09-.05-22.19-.05-33.29V229.26Zm4.85-96.72c7.6,0,15.2-.07,22.79,0,3.09,0,3.76-.91,2.44-3.73q-5.69-12.18-11.12-24.48a4.9,4.9,0,0,0-5.17-3.31c-6.35.12-12.7.1-19,0A4.38,4.38,0,0,0,24.38,104q-5.55,12.45-11.32,24.8c-1.39,2.94-.39,3.79,2.51,3.77C23.42,132.5,31.27,132.54,39.11,132.54Z"/><path class="cls-1" d="M243.24,34.66c0,9-6.77,16.11-15.21,16.18-8,.06-15.24-7.76-15.25-16.38s7.53-16.58,15.68-16.39S243.29,25.6,243.24,34.66Zm-9-.38c-.06-3.89-3-7.25-6.19-7.12s-5.86,3.5-5.82,7.43,2.91,7.2,6.13,7.11S234.29,38.18,234.23,34.28Z"/></g></g></svg>