<svg xmlns="http://www.w3.org/2000/svg" viewBox="0 0 368.27 304.88"><defs><style>.cls-1{fill:#fff;}</style></defs><g id="Layer_2" data-name="Layer 2"><g id="Layer_1-2" data-name="Layer 1"><path class="cls-1" d="M187.66,270.45H91.84c-8,0-6.54-.09-8,6.26-1.61,6.92-3,13.89-4.57,20.83-1.24,5.64-3.21,7.23-9.07,7.31-1.62,0-3.24,0-4.87,0-8.92,0-10-.84-11.9-9.41-1.43-6.46-3-12.89-4.13-19.39-.68-3.86-2.29-5.57-6.37-6.23C30,267.74,21.09,259.1,19.61,247.41c-1.1-8.65-1.66-17.37-2.46-26q-2.49-27.17-5-54.34c-1.35-15-2.65-30-4-45.05Q6.1,98.9,4,75.83C2.86,63.54,1.8,51.26.72,39,.48,36.24.09,33.52,0,30.78A29.87,29.87,0,0,1,26.29.33C39.22-1.11,50.6,2,58.78,13a13.72,13.72,0,0,1,2.43,4.18C62.43,21.31,65.16,22,69.14,22q115.08-.16,230.17,0c3.78,0,5.93-.89,7.71-4.62C312.43,6.08,322,.84,334.31.11c8.29-.48,15.79,1.44,22.44,6.58,9,7,12.47,16.06,11.3,27.29-1.33,12.76-2.35,25.55-3.51,38.32q-2.09,22.89-4.18,45.78c-1.36,15.14-2.67,30.28-4,45.42s-2.78,30.52-4.18,45.78c-1.09,11.91-2.25,23.81-3.24,35.73-.95,11.38-6.89,19.06-17.3,23.17a7.33,7.33,0,0,0-5.08,6.1c-1.6,7.94-3.4,15.85-5.2,23.75-1.15,5.06-3.22,6.72-8.32,6.8-3,.05-6,.1-9,0-4.64-.21-6.7-2-7.71-6.61-1.72-7.79-3.61-15.55-5.07-23.39-.64-3.45-2.2-4.41-5.53-4.4C253,270.49,220.34,270.45,187.66,270.45Zm-3.91-9.73H317.36c1.87,0,3.75,0,5.61-.09,8.36-.58,14.94-6.26,16.16-14.54,1-7.14,1.47-14.37,2.13-21.57,1.35-14.64,2.66-29.28,4-43.92q2.1-22.69,4.22-45.4c1.36-14.76,2.64-29.53,4-44.29,1.63-17.49,3.43-35,4.91-52.46.35-4.18,1.31-8.35.57-12.66-1.51-8.7-10.89-17.65-25-16.74-10.9.7-19.37,7.94-21,18.83q-1,7-2.12,14.05Q304,86.47,297.06,131c-1.07,6.87-1.76,13.85-6.72,19.49-6.69,7.58-15.22,10.57-25,10.58q-49.59.06-99.18,0c-21.33,0-42.66.07-64,0-15.11-.07-28.85-8.9-30.4-26.37-.22-2.48-.72-4.94-1.11-7.4Q63.72,82.58,56.77,37.85A130.49,130.49,0,0,0,54.48,24.6C51.35,12.79,38.11,6.3,24.93,9.85,14.87,12.56,8.36,21,9.05,30.69c.41,5.84,1,11.66,1.57,17.49,1.93,20.34,3.92,40.67,5.8,61s3.62,40.7,5.47,61.05c2.19,24.2,4.52,48.38,6.61,72.58.63,7.32,3.47,12.88,10.3,16.1,3.37,1.59,6.93,1.82,10.59,1.82Q116.56,260.69,183.75,260.72Zm.78-229.81q-57.24,0-114.49,0c-5,0-5.08.12-4.3,5.09q7.65,49.14,15.35,98.26c.83,5.37,2.6,10.12,7.26,13.38,4.05,2.83,8.54,3.78,13.43,3.78q82.31-.07,164.61,0c1.25,0,2.5,0,3.74-.08,8.42-.67,15.2-6.54,16.45-14.41q8-50.4,15.92-100.82c.8-5.13.73-5.16-4.61-5.16ZM66.89,270.45c-1.86,0-3.73.1-5.59,0-3-.2-3.61,1-2.91,3.81,1.41,5.66,2.65,11.36,3.78,17.09.51,2.59,1.59,3.82,4.43,3.86s3.86-1.46,4.36-3.94c.82-4.14,1.78-8.25,2.7-12.37C75.56,270.45,75.56,270.45,66.89,270.45Zm242.53,0c-1.87,0-3.75.07-5.61,0-2.81-.14-3.84.86-3.12,3.79,1.42,5.81,2.69,11.67,3.83,17.54.46,2.41,1.6,3.37,4,3.38s4-.54,4.55-3.25c.84-4.41,1.88-8.78,2.88-13.15C317.87,270.44,317.88,270.45,309.42,270.45Z"/></g></g></svg>