<svg xmlns="http://www.w3.org/2000/svg" viewBox="0 0 351.2 367.62"><defs><style>.cls-1{fill:#fff;}</style></defs><g id="Layer_2" data-name="Layer 2"><g id="Layer_1-2" data-name="Layer 1"><path class="cls-1" d="M351.2,184.14V360.79c0,6.83,0,6.83-6.63,6.83H6.62c-6.62,0-6.62,0-6.62-6.46L.12,6c0-6,0-6,6-6H345.16c6,0,6,0,6,6V184.14ZM9.1,75.32h.05c0,20.44.09,40.89-.07,61.33,0,3.83,1.24,4.88,5,4.87q47.87-.18,95.73,0c3.69,0,5-1,5-4.85.18-25.42-.49-50.83.44-76.26.57-15.43.12-30.91.11-46.37,0-4.89-.15-5-5-5H14.19c-4.94,0-5.08.14-5.08,5Q9.09,44.65,9.1,75.32Zm.1,216.93c0,20.45.08,40.9-.08,61.35,0,3.77,1.1,4.91,4.89,4.9q47.88-.19,95.77,0c3.69,0,5-1,5-4.84q-.18-61.35,0-122.71c0-3.77-1.16-4.92-4.93-4.91q-47.88.18-95.76,0c-3.73,0-5,1-4.94,4.87C9.28,251.34,9.19,271.8,9.2,292.25ZM341.5,75.33h0q0-30.48,0-61c0-5.31-.06-5.37-5.48-5.37H242.54c-5.8,0-5.81,0-5.81,5.77,0,40.64-.15,81.27.63,121.91.08,4.57.23,4.77,4.94,4.77h93.89c5.29,0,5.31,0,5.31-5.52Q341.52,105.63,341.5,75.33ZM237.39,292.39c0,20.58.05,41.16,0,61.74,0,3.23,1,4.35,4.32,4.34q47.72-.12,95.41,0c3.53,0,4.46-1.26,4.45-4.59q-.12-61.56,0-123.11c0-3.55-1.08-4.75-4.7-4.74-31.55.11-63.11.06-94.66.07-4.61,0-4.78.18-4.78,4.92Q237.36,261.71,237.39,292.39Zm-9.69-217h0c0-20.57-.07-41.15.06-61.72,0-3.6-1.21-4.72-4.77-4.71C191.74,9,160.44,9,129.15,9c-4.6,0-4.81.22-4.81,4.92,0,40.9.06,81.79,0,122.69,0,3.76,1.15,4.93,4.92,4.92,31.17-.13,62.34-.07,93.51-.08,4.84,0,4.95-.11,4.95-5.11Q227.71,105.85,227.7,75.36ZM124.41,291.92q0,30.68,0,61.35c0,5.11,0,5.15,4.89,5.15,31.17,0,62.35-.05,93.52.08,3.77,0,4.92-1.12,4.91-4.9q-.18-61.35,0-122.71c0-3.82-1.24-4.87-4.95-4.86q-46.77.18-93.53,0c-3.77,0-5,1.14-4.92,4.91C124.49,251.27,124.41,271.59,124.41,291.92ZM176,150.56q-23.39,0-46.78,0c-4.73,0-4.87.13-4.87,4.81q0,28.07,0,56.13c0,4.67.19,4.87,4.85,4.87h93.55c4.67,0,4.84-.19,4.85-4.87q0-28.06,0-56.13c0-4.69-.12-4.81-4.87-4.81Q199.43,150.54,176,150.56Zm-114.11,0c-16,0-31.93.1-47.89-.07-3.72,0-5,1-4.95,4.87q.25,28.06,0,56.13c0,3.72,1.06,5,4.88,5,31.93-.13,63.86-.07,95.79-.08,4.67,0,4.88-.22,4.89-4.85q0-28.07,0-56.13c0-4.67-.17-4.83-4.87-4.83Q85.89,150.54,61.93,150.56Zm227.93,0c-15.95,0-31.91.09-47.86-.06-3.61,0-4.72,1.22-4.7,4.76q.21,28.23,0,56.46c0,3.6,1.23,4.73,4.77,4.72,31.53-.1,63.06-.05,94.6-.06,4.56,0,4.78-.24,4.78-4.94,0-18.69-.07-37.39.1-56.08,0-3.84-1.27-4.91-5-4.87C321,150.66,305.44,150.56,289.86,150.56Z"/><path class="cls-1" d="M14.25,183.75c0-3.61,0-7.22,0-10.83,0-2.73,1.22-4.76,4-4.89a4.43,4.43,0,0,1,4.93,4.54c.19,7.46.2,14.94,0,22.4a4.42,4.42,0,0,1-4.95,4.51c-2.82-.14-4-2.17-4-4.9,0-3.61,0-7.22,0-10.83Z"/><path class="cls-1" d="M333.2,184c0,3.36.1,6.73,0,10.09-.11,2.92-1.46,5.26-4.59,5.4s-4.74-2.26-4.82-5.11q-.27-10.63,0-21.3c.08-2.83,1.61-5.25,4.86-5s4.42,2.58,4.52,5.49C333.29,177,333.2,180.5,333.2,184Z"/></g></g></svg>