<svg xmlns="http://www.w3.org/2000/svg" viewBox="0 0 265.17 375.9"><defs><style>.cls-1{fill:#fff;}</style></defs><g id="Layer_2" data-name="Layer 2"><g id="Layer_1-2" data-name="Layer 1"><path class="cls-1" d="M51,92.16Q51,57,51,21.81C51,8,58.81.14,72.5.14c39.66,0,79.33.19,119-.14,10.55-.09,21.9,8,21.42,21.2-.67,18.44-.54,36.92-.06,55.37.76,29.43.37,58.86.49,88.28,0,2.81.6,4.63,3.78,4.68,2.22,0,4.54,2.84,6.16,1.4s.53-4.5.54-6.84c.07-12.1.35-24.21,0-36.3-.3-9.13,8.43-20.8,21-20.09,12,.68,20.3,8.21,20.32,20.2q.09,39.1,0,78.21c0,11.67-8.39,20.08-20,20.17-7.24.06-14.47.12-21.71,0-2.78-.06-4.08.86-4.32,3.73a67.93,67.93,0,0,1-2.19,13.64c-3.28,11.16-9.05,15.53-20.68,15.54-17.59,0-35.17.1-52.76-.08-3.84,0-5.28,1.24-4.8,5a17.14,17.14,0,0,1,0,3.36c-.16,2.47.75,3.57,3.41,3.66,5.47.18,6.89,1.61,7.76,7.05.45,2.83,1,5.65,1.35,8.49.27,2.08,1.24,3.1,3.4,3.08,6-.05,12,0,18-.08a14.3,14.3,0,0,0,6.45-1.76c3.86-2.05,4.15-3.08,2.05-6.91a4.38,4.38,0,0,1,.55-5.53,4.09,4.09,0,0,1,5.78-.55c4.17,3.36,8.23,6.87,12.09,10.58a4.36,4.36,0,0,1,.09,6.42,4.08,4.08,0,0,1-6,.55c-2.11-1.76-3.5-1.37-5.39.38a23.22,23.22,0,0,1-16.79,6.11c-4.49-.07-9,0-13.47,0-4.27,0-4.61.44-4,4.52.33,2.09.7,4.18,1,6.28.65,4.88-1.65,7.59-6.63,7.79-2.11.09-4.24.08-6.36,0s-3.3.82-3.21,3.08a18.66,18.66,0,0,1,0,3c-.37,3.28.74,4.75,4.31,5.42,15.12,2.84,25.24,13.83,27.08,28.91a7.69,7.69,0,0,0,1.95,3.91c3.09,4,2.77,8.47-.74,11.75A8.47,8.47,0,0,1,159,362a6.41,6.41,0,0,0,1.36-6.16c-1.93-8.71-10.08-16.38-18.89-17.68-1.76-.26-2.71.24-2.72,2q0,9.16,0,18.33c0,1.67,1.37,2.58,2.22,3.78,2.67,3.78,2.29,8.05-1,11.17a8.18,8.18,0,0,1-11.21.44c-3.16-2.51-4.3-7.29-1.77-10.76,2.27-3.11,2.57-6.3,2.48-9.83-.1-3.86-.07-7.73,0-11.6,0-2.28-.82-3.06-2.92-2-7.78,3.86-13.13,9.71-15.17,18.37-.51,2.13,1,3.2,1.84,4.64a8.22,8.22,0,0,1-.24,9.5,7.9,7.9,0,0,1-8.47,3.51A8.45,8.45,0,0,1,97.76,369a7.06,7.06,0,0,1,1.81-6.94,11.46,11.46,0,0,0,2.69-5.59c3.28-13,11-22.14,23.77-26.74,3.05-1.1,5.08-9,2.9-11.41-1.05-1.17-2.55-.79-3.89-.81-10.69-.19-11.83-1.61-10.06-12.26,1.44-8.61,2.75-17.24,4.09-25.86,1-6.53,1.58-7.18,8.18-8.44,1.28-.24,2.15-.73,2.18-2.08.06-2.49.13-5,0-7.48s-2.25-2.23-3.94-2.23c-8.61,0-17.21,0-25.82,0-11.35,0-22.7-.06-34,0-8.2.06-13.69-3.84-17-11.16A42.2,42.2,0,0,1,45,230.57c0-3.26-1.26-4.38-4.46-4.31-7,.15-14,.1-21,0A19.43,19.43,0,0,1,0,206.79Q0,166.94.08,127.08a19.11,19.11,0,0,1,19.27-19.23c14.1-.17,21.94,7.64,22,21.87,0,12.72.06,25.44,0,38.17,0,2.83.3,4.58,3.6,2.63a4.21,4.21,0,0,1,1.76-.61c3.77-.3,4.33-2.57,4.31-5.9-.12-23.95-.06-47.9-.06-71.85Zm152.72.07h.05q0-35.36,0-70.71c0-8.39-4-12.39-12.32-12.39q-59.29,0-118.6,0C64,9.13,60,13.1,60,21.88Q60,93,60,164.05c0,5.16,0,5.18,5.22,5.18H198.44c5.23,0,5.26,0,5.26-5.16Q203.72,128.15,203.7,92.23Zm-71.14,124.9H155c21.45,0,42.9-.06,64.35.06,3.39,0,4.62-1,4.53-4.48-.21-7.73,0-15.46-.1-23.19-.1-6.36-3.72-10.24-10-11a41.4,41.4,0,0,0-4.86-.15H90.71c-12.1,0-24.19,0-36.29,0-9.17,0-13.05,3.91-13.08,13,0,6.86,0,13.72,0,20.58,0,5.2,0,5.21,5.16,5.22Zm-.34,9.17H85.84c-9.36,0-18.71,0-28.06,0-2.35,0-4,.47-3.62,3.31.64,4.68.92,9.44,2.77,13.88,1.94,4.64,3.73,6,8.8,6q66.4,0,132.8.06c4.11,0,6.55-1.78,8.12-5.31a40.68,40.68,0,0,0,2.87-12.71c.48-4.75,0-5.16-4.72-5.16Zm-100-55.48h0c0-14.09.07-28.17,0-42.26,0-7.58-4.53-11.79-12-11.64-6.82.12-11,4.52-11,11.91-.05,20.2,0,40.4,0,60.59,0,5.37-.1,10.73.05,16.09C9.41,213,13.54,217,21,217.12c2.25,0,4.51-.16,6.73,0,3.4.31,4.58-1,4.54-4.44C32.09,198.75,32.18,184.79,32.18,170.82ZM233,170.37h0V207c0,10.19,0,10.19,10.37,10.11,8.46-.07,12.58-4.15,12.63-12.68.07-10.1,0-20.2,0-30.3,0-15.08.05-30.17,0-45.25,0-6.45-3.36-10.88-8.71-11.84-8.39-1.49-14.3,3.28-14.35,11.79C232.9,142.69,233,156.53,233,170.37Zm-98.13,137.4v0h5.6c4.47,0,4.64-.18,4-4.72-.76-4.91-1.59-9.82-2.43-14.73-1.49-8.69-1.51-8.69-10.27-8.12a2.29,2.29,0,0,1-.37,0c-2-.05-2.89.88-3.19,2.85-1.09,7.13-2.27,14.24-3.46,21.36-.38,2.21.38,3.35,2.7,3.33C129.84,307.75,132.33,307.77,134.82,307.77Z"/></g></g></svg>