<svg xmlns="http://www.w3.org/2000/svg" viewBox="0 0 368.55 308.83"><defs><style>.cls-1{fill:#fff;}</style></defs><g id="Layer_2" data-name="Layer 2"><g id="Layer_1-2" data-name="Layer 1"><path class="cls-1" d="M98.42,93.47c-3.82-4.41-7.77-8.13-10.7-12.84-9-14.52-6.82-34.76,5.16-46.68a8.2,8.2,0,0,1,6.3-2.62c5.36.1,10.73,0,16.09,0,2.31,0,3.84-.52,3.94-3.25.09-2.48,1.59-5.14-2.33-6.34a17.88,17.88,0,0,1-11.41-9.58,11.41,11.41,0,0,1-1.28-5.79c.19-2.52,1.35-4.39,4-4.67s4.32,1.27,4.74,3.77c.5,2.9,1.7,5.18,4.32,6.62,1.64.89,2.55.63,2.67-1.43.13-2.23.42-4.46.62-6.69.24-2.69,1.65-4.08,4.39-4a4.16,4.16,0,0,1,4.38,4.21,54,54,0,0,1-.41,7.81c-.23,3,.33,4.64,3.92,3.38A15.62,15.62,0,0,1,138,15c2.86,0,4.93,1.29,5,4.38s-1.89,4.41-4.79,4.56c-1,.06-2,0-3,.18a7.79,7.79,0,0,0-5.6,3.37c-1.63,2.42-1,3.71,1.89,3.82a71.65,71.65,0,0,0,9.72,0c4.25-.41,7.06,1.47,9.57,4.59a38.81,38.81,0,0,1-5.19,54.67c-.8.68-2.08,1-2.21,2.41,1.49,1,3.14.48,4.69.48,67.62,0,135.23.18,202.85-.13,11.69,0,18.54,7.86,17.55,17.79-.22,2.23,0,4.49,0,6.74-.07,9.26-6.31,15.75-15.66,16.06-5.36.18-10.73,0-16.09.05-4.84,0-5,.16-5,5.12q0,58.38,0,116.77,0,22.46,0,44.91a23.19,23.19,0,0,1-.13,3.73,4.7,4.7,0,0,1-4.46,4.33c-2.6.18-4.21-1.48-4.77-3.9a21.53,21.53,0,0,1-.34-4.83q0-41.35,0-82.71c0-5.55,0-5.57-5.67-5.57-26.32,0-52.64.05-79-.06-3.36,0-5.5.95-7.31,3.89Q220,232.05,209.43,248.2c-8.31,12.76-23,13.57-32.47,1.72-9.08-11.42-18-23-26.8-34.61a7.82,7.82,0,0,0-6.86-3.55c-30.69.09-61.38,0-92.07.06-4.55,0-4.77.23-4.77,5q0,41.55,0,83.09a26.07,26.07,0,0,1-.28,4.84c-.48,2.44-2,4.18-4.6,4.13s-4.34-1.8-4.71-4.48a33.39,33.39,0,0,1-.12-4.48q0-79.91,0-159.8c0-6.1,0-6.1-6.24-6.11-4.74,0-9.48.07-14.22,0-10-.21-16.24-6.6-16.28-16.58,0-2.87,0-5.74,0-8.61C.18,99.67,6.32,93.51,15.4,93.49q39.3-.06,78.59,0Zm85.28,9.11q-51.43,0-102.86,0c-1.1,0-2.58-.48-3.19.47-.8,1.27.64,2.25,1.31,3.2,5.05,7.27,9.92,14.68,15.32,21.68Q139,185.81,183.85,243.49c5.69,7.33,12.88,7.11,17.87-.69,10.29-16.06,20.47-32.19,30.69-48.3q27.83-43.89,55.62-87.83c.67-1.07,2.27-2.18,1.32-3.57-.7-1-2.33-.51-3.54-.51Q234.75,102.56,183.7,102.58Zm-90.79,99.5q21,0,41.9,0c1.21,0,2.85.53,3.51-.59.88-1.47-.83-2.44-1.6-3.43q-23.62-30.65-47.31-61.27a6.75,6.75,0,0,0-6-2.86c-10.73.1-21.45.14-32.18,0-3.48-.05-4.86,1-4.83,4.66q.19,29.55,0,59.11c0,3.5,1.28,4.5,4.62,4.47C65,202,78.94,202.08,92.91,202.08Zm187.1,0c12.58,0,25.17-.06,37.76,0,3,0,4.27-.87,4.26-4q-.13-30.11,0-60.2c0-2.9-1.11-4-4-3.95q-16.46.13-32.9,0a5.48,5.48,0,0,0-5.2,2.85q-19.4,30.85-38.89,61.66c-2.14,3.4-2,3.63,1.94,3.63C255.33,202.1,267.67,202.08,280,202.08ZM322,124.27c9.86,0,19.71,0,29.57,0,5.94,0,7.73-1.88,7.78-7.9,0-2.25.07-4.5,0-6.74-.21-5-2.18-7-7.19-7-15.6,0-31.19,0-46.78-.07a6.06,6.06,0,0,0-5.77,3.28c-3,4.91-6.12,9.7-9.14,14.58-.62,1-2,2-1.17,3.27.65,1,2.06.6,3.15.6Q307.17,124.29,322,124.27Zm-276,0c10.21,0,20.42,0,30.63,0,2.38,0,3.44-.43,1.71-2.87-4-5.57-7.88-11.2-11.78-16.83a4.59,4.59,0,0,0-4.14-2c-15.57,0-31.13,0-46.69,0-4.16,0-6.15,2-6.45,6.18-.19,2.6-.1,5.23-.07,7.84.06,5.71,1.92,7.59,7.66,7.62C26.51,124.3,36.22,124.27,45.93,124.27ZM121.27,66.7c-8.48,0-17,0-25.44,0-2.87,0-3.85.81-2.81,3.78,3.84,11,14.92,19.22,26.41,19.39,13.65.21,24.76-6.93,29.11-18.71,1.39-3.77,1-4.41-2.95-4.42C137.49,66.67,129.38,66.7,121.27,66.7Zm-18.52-9.16c12.91,0,13.62-.62,14.79-13.35,0-.25,0-.5.06-.75.43-2.3-.57-3.13-2.84-3.08-4.34.1-8.69.07-13,0A5.39,5.39,0,0,0,97,42.91,33.47,33.47,0,0,0,92,54c-.65,2.39,0,3.57,2.6,3.53C97.28,57.51,100,57.54,102.75,57.54Zm34.63,0v0c3.36,0,6.72,0,10.08,0,1.59,0,2.67-.56,2.41-2.44a26.66,26.66,0,0,0-6-13.1c-2.23-2.77-5.59-1.28-8.46-1.57-1.35-.14-2.74.07-4.1,0-2.92-.25-4.34,1-4.7,3.93A65.93,65.93,0,0,1,125,53.46c-.79,3-.08,4.24,3.08,4.12S134.27,57.55,137.38,57.55Z"/></g></g></svg>