<svg xmlns="http://www.w3.org/2000/svg" viewBox="0 0 368.5 284.55"><defs><style>.cls-1{fill:#fff;}</style></defs><g id="Layer_2" data-name="Layer 2"><g id="Layer_1-2" data-name="Layer 1"><path class="cls-1" d="M184.37,284.54H10.75c-1.37,0-2.75,0-4.12,0-4.24-.25-6.52-2.33-6.53-6.59Q0,245.54.09,213.17c0-4.26,2.29-6.36,6.53-6.61,1.11-.07,2.24,0,3.36,0H358.36c1,0,2,0,3,0,4.9.17,7.06,2.25,7.1,7.18.08,8.6,0,17.21,0,25.81q0,18,0,35.93c0,7.38-1.67,9.08-9,9.08Zm88.4-9.19h81.57c4.93,0,5,0,5-5,0-16.71-.07-33.42.07-50.13,0-3.42-1-4.52-4.49-4.52q-81.93.14-163.88,0c-3.47,0-4.49,1.15-4.46,4.54.14,16.71.06,33.42.07,50.14,0,5,0,5,5,5ZM93.68,215.72c-26.57,0-53.13.05-79.7-.06-3.53,0-4.83,1.07-4.8,4.7.14,16.71.05,33.43.07,50.14,0,4.62.23,4.84,4.9,4.84q79.32,0,158.64.07c3.61,0,4.72-1.12,4.68-4.7-.15-16.59-.06-33.18-.07-49.76,0-5.21,0-5.23-5.15-5.23Z"/><path class="cls-1" d="M220,73.33q45.27,0,90.55,0c7.66,0,9.2,1.54,9.2,9.19q0,55.2.05,110.38c0,7.07-2.05,9.17-9.1,9.17q-90.56,0-181.1,0c-7.94,0-9.84-2-9.84-10q0-54.81,0-109.63c0-7.57,1.59-9.13,9.27-9.13Q174.57,73.32,220,73.33Zm-.6,119h86.05c5.15,0,5.17,0,5.17-5.23q0-49.75.05-99.52c0-5.19,0-5.21-5.2-5.21H134.14c-5.21,0-5.23,0-5.23,5.19q0,49.76.05,99.52c0,5.22,0,5.24,5.16,5.25Z"/><path class="cls-1" d="M.1,100.75Q.1,54.91.1,9.08C.1,1.6,1.67,0,9,0h79.7c7.17,0,9.36,2.14,9.36,9.38q.06,91.88.08,183.73c0,6.53-2.26,8.92-8.71,8.94q-40.6.08-81.2,0c-6,0-8.25-2.42-8.25-8.51q0-46.4,0-92.8Zm9-.07h.09c0,28.94.06,57.88-.07,86.83,0,3.75,1.07,5,4.88,4.92,23.2-.15,46.4-.06,69.61-.08,4.68,0,4.83-.16,4.85-4.85C88.66,129.75,88,72,89.1,14.26,89.2,9.07,89,9,83.91,9H14.3c-5.16,0-5.21.06-5.21,5.24Q9.07,57.46,9.09,100.68Z"/><path class="cls-1" d="M276.48,226.76c2.86,0,5.73-.1,8.6,0s4.76,1.69,4.68,4.7c-.08,2.81-1.91,4.31-4.64,4.36-5.86.1-11.72.11-17.57,0-2.91-.06-4.76-1.68-4.68-4.69.07-2.82,1.91-4.26,4.64-4.36C270.49,226.67,273.49,226.76,276.48,226.76Z"/><path class="cls-1" d="M97.12,235.87c-2.87,0-5.74.1-8.6,0S84,234.21,84,231.39a4.18,4.18,0,0,1,4.41-4.57c6-.15,12-.14,17.94,0,2.72,0,4.52,1.62,4.54,4.45,0,3-1.88,4.5-4.77,4.6S100.11,235.87,97.12,235.87Z"/><path class="cls-1" d="M77.28,100.94c0,3.61,0,7.22,0,10.82,0,2.77-1.45,4.66-4.24,4.67A4.4,4.4,0,0,1,68.36,112q-.27-11.18,0-22.36a4.12,4.12,0,0,1,4.68-4.26c2.91.16,4.12,2,4.16,4.75.06,3.6,0,7.21,0,10.81Z"/></g></g></svg>