<svg xmlns="http://www.w3.org/2000/svg" viewBox="0 0 368.46 172.33"><defs><style>.cls-1{fill:#fff;}</style></defs><g id="Layer_2" data-name="Layer 2"><g id="Layer_1-2" data-name="Layer 1"><path class="cls-1" d="M46.54,38.5c5.8-6.2,12.54-8,20.35-7.89,18.71.22,37.42.06,56.14.08,12.29,0,20.18,7.42,20.78,19.69.14,2.84,1.32,3.61,3.92,3.61q39.66-.08,79.34,0a5.86,5.86,0,0,0,4.34-1.72,21.29,21.29,0,0,1,15.59-6c23.33.19,46.66,0,70,.14,3.66,0,5.39-.93,5-4.83a49.81,49.81,0,0,1,0-6.35,19.51,19.51,0,0,1,19.55-19.49c2.37,0,4.74,0,7.11,0,11.37.1,19.81,8.52,19.83,20q.07,64.18,0,128.37c0,6.33-1.92,8.22-8.3,8.24q-15,0-29.94,0c-6.53,0-8.34-1.88-8.36-8.56,0-7.86,0-15.72,0-23.58,0-5.22,0-5.23-5.14-5.24H52.12c-5.51,0-5.52,0-5.52,5.61,0,7.86,0,15.72,0,23.58,0,6.18-1.94,8.16-8,8.18q-15.33.06-30.68,0c-5.9,0-7.93-2-7.93-7.85Q0,92,.07,19.61A19.42,19.42,0,0,1,19.5,0C22,0,24.49,0,27,0A19.5,19.5,0,0,1,46.53,19.51C46.59,25.84,46.54,32.17,46.54,38.5Zm137.31,87.24H216q50.5,0,101,.06c3.37,0,5-.67,4.92-4.51-.1-3.51-1.93-3.69-4.57-3.69q-35.37.06-70.72,0c-9.37,0-17.11-5.13-19.74-13.74-1.15-3.74-3-4.34-6.41-4.34q-66.22.14-132.46.06c-12.47,0-24.94.07-37.41,0-3.09,0-4.21,1.08-4.12,4.16.17,5.48.05,11,.05,16.46s0,5.58,5.56,5.58ZM136.06,89.88c28.42,0,56.84,0,85.26.06,3.53,0,4.91-1,4.76-4.67-.23-5.72-.22-11.47,0-17.2.14-3.48-1.2-4.49-4.56-4.48q-82.08.1-164.15.07C50.69,63.66,47,67.2,46.64,74c-.19,3.48-.07,7-.06,10.47,0,5.42,0,5.44,5.35,5.44ZM282,55.46c-11.73,0-23.45,0-35.17,0-7.33,0-11.57,4.32-11.61,11.65,0,9.11,0,18.21,0,27.31,0,9.94,3.77,13.94,13.69,14,22.95.1,45.89,0,68.83.1,3.35,0,4.26-1.22,4.24-4.4Q321.75,82,322,60c0-3.36-1-4.62-4.47-4.57C305.64,55.56,293.79,55.46,282,55.46ZM37.41,89.87h.06c0-21.44-.33-42.89.12-64.31C37.88,11.45,32.82,8.39,20.5,9.05c-7,.38-11.33,4.28-11.34,11.25-.05,46.37,0,92.73,0,139.1,0,3.07,1.3,3.81,4.06,3.76,6.48-.12,13-.24,19.44,0,3.83.17,4.88-1.16,4.86-4.91C37.34,135.49,37.41,112.68,37.41,89.87ZM331,97.54h.05c0,20.34.07,40.68-.08,61,0,3.65,1.2,4.78,4.75,4.64,6.1-.23,12.22-.06,18.33-.07,5.21,0,5.23,0,5.23-5.13q0-60.08.05-120.14c0-1,0-2-.07-3-.55-5.65-4.26-9.42-9.89-10a50.81,50.81,0,0,0-5.24-.09C334.78,24.83,331,28.62,331,38Q331,67.79,331,97.54ZM93.69,54v0c12.33,0,24.66-.08,37,0,3.42,0,4.4-1.36,4-4.51-.72-5.84-4.91-9.62-11.3-9.7-9-.1-17.93,0-26.9,0-10.59,0-21.17-.07-31.76,0-7.06.07-11.28,4.15-11.53,10.59-.1,2.64.53,3.7,3.49,3.66C69,53.87,81.36,54,93.69,54Z"/></g></g></svg>