<svg xmlns="http://www.w3.org/2000/svg" viewBox="0 0 230.83 368.41"><defs><style>.cls-1{fill:#fff;}</style></defs><g id="Layer_2" data-name="Layer 2"><g id="Layer_1-2" data-name="Layer 1"><path class="cls-1" d="M115.41,368.4H10.25C2.18,368.4,0,366.25,0,358.23q0-84,0-168v-.37c0-5,1.41-7.16,4.56-7.16s4.57,2.2,4.59,7.14c0,2.75.06,5.49,0,8.24,0,2.1.7,3.3,3,3.28,4.74,0,9.48,0,14.22,0,2.07,0,2.91-1.06,2.86-3,0-1.24,0-2.49,0-3.74q0-90.75.07-181.51c0-1.5,0-3,0-4.49C29.7,3,32.68.1,38.22,0s11,0,16.47,0H189c8.77,0,11,2.22,11,11.11q0,92.25.08,184.51c0,5.69,0,5.69,5.83,5.69,4,0,8-.09,12,0,2.69.08,3.89-.91,3.78-3.69-.13-3.24,0-6.49,0-9.73.05-3,1.31-5.22,4.57-5.22s4.5,2.2,4.55,5.22c0,.87,0,1.75,0,2.62l0,167.29c0,.62,0,1.25,0,1.87-.13,6-2.7,8.66-8.74,8.67q-30.69,0-61.38,0Zm0-9.19H216.08c5.54,0,5.55,0,5.55-5.58q0-68.47,0-137c0-.75,0-1.5,0-2.24.13-2.37-1-3.42-3.33-3.38-4.12.05-8.24,0-12.35,0-5.85,0-5.86,0-5.86,5.71q0,53.33,0,106.66c0,8.57-2.53,11.16-11.14,11.17q-74.28,0-148.57,0c-8.45,0-11.11-2.76-11.11-11.28q0-51.09,0-102.17c0-2.49-.06-5,0-7.48.06-2.22-.94-3.18-3.14-3.15-4,.05-8,0-12,0-4.95,0-5,0-5,5q0,69.24,0,138.47c0,5.18,0,5.2,5.17,5.2Q64.89,359.23,115.41,359.21ZM190.91,167h.1V14.63C191,9,191,9,185.43,9H44.7c-6.35,0-6.37,0-6.35,6.36.29,76.84-.42,153.69.59,230.53.32,24.44.05,48.9.05,73.35,0,5.6,0,5.62,5.62,5.62H185.33c5.57,0,5.58,0,5.58-5.58Z"/><path class="cls-1" d="M184.34,166.61V305.78c0,8.17-1.92,10.09-10.19,10.09h-119c-8.21,0-10.15-2-10.15-10.15q0-139,.08-278c0-1,0-2,0-3,.35-5.1,2.72-7.44,7.86-7.48,9-.06,18,0,26.94,0h94.27c8.25,0,10,1.82,10,10.18V166.61Zm-9.2-.39h.13q0-67.53,0-135c0-4.73-.18-4.92-4.8-4.92q-55.54,0-111.11,0c-5,0-5.26.29-5.25,5.35,0,15.46.42,30.91.49,46.36.29,74.19.15,148.39.17,222.59,0,5.58,0,5.59,5.61,5.59H169.61c5.52,0,5.53,0,5.53-5.62Z"/><path class="cls-1" d="M89.94,117.79c-.08-1.79.93-3,2.09-4.21q19.1-19.44,38.18-38.9a12.85,12.85,0,0,1,2-1.72c2-1.36,4-1.33,5.75.43s1.91,4,.28,5.75c-13.49,14.3-27.11,28.47-41.22,42.18a4.27,4.27,0,0,1-7-3.53Z"/><path class="cls-1" d="M140.89,107.51c.06,1.78-.92,3-2.09,4.2-6.34,6.33-12.65,12.7-19,19-2.87,2.84-5.43,3.11-7.48,1s-1.62-5.18,1.11-7.83c6.6-6.41,13.14-12.87,19.69-19.32,1.54-1.52,3.16-2.42,5.33-1.32A4.24,4.24,0,0,1,140.89,107.51Z"/></g></g></svg>