<svg xmlns="http://www.w3.org/2000/svg" viewBox="0 0 368.38 288.97"><defs><style>.cls-1{fill:#fff;}</style></defs><g id="Layer_2" data-name="Layer 2"><g id="Layer_1-2" data-name="Layer 1"><path class="cls-1" d="M175.22,161.61c13.48,0,26.95,0,40.42,0a20,20,0,0,1,13.23,4.31c1.8,1.47,3.07,1.47,4.84,0,3.79-3.18,8.29-4.31,13.22-4.3,26.7.06,53.39,0,80.09,0,12,0,20.22,8.2,20.31,20.19.06,7.86.11,15.72,0,23.58-.06,3,.56,4.57,4,5.31,10.47,2.28,17,10.88,17.07,21.65q.06,24.71,0,49.4c0,5.68-1.45,7.17-7,7.19q-15,.06-29.94,0c-5.18,0-7.13-1.55-7.19-6.41,0-3.48-1.61-4.1-4.61-4.08-18.84.08-37.67,0-56.51,0l-117.89,0c-5.42,0-5.45,0-5.95,5.24-.31,3.26-2,5.15-5.27,5.17q-16.83.12-33.68,0c-3.44,0-5.26-2.08-5.26-5.51,0-17.72-.2-35.43.09-53.14.14-8.72,6.53-16.37,15.45-19.13,3.11-.95,4.11-2.41,4-5.54-.18-7.6-.13-15.21,0-22.82.16-13.34,8.06-21.12,21.35-21.13Q155.58,161.59,175.22,161.61Zm7.47,71.81h38.9c5.08,0,5.1,0,5.1-5.26q0-21.87,0-43.76c0-10.24-3.4-13.61-13.78-13.62q-37.41,0-74.81,0a28.29,28.29,0,0,0-5.21.36c-5.72,1.06-8.5,4.24-8.57,10-.11,8.85,0,17.7-.06,26.55a4.59,4.59,0,0,0,2.83,4.72,20.67,20.67,0,0,1,11.91,17c.39,3.34,1.78,4,4.79,4C156.75,233.35,169.72,233.42,182.69,233.42Zm97.29,0c13.35,0,26.69-.05,40,0,2.73,0,4.05-.75,4.35-3.67.79-7.44,4.71-13,11.05-16.87,1.93-1.17,2.22-2.79,2.22-4.75,0-8.72,0-17.45,0-26.18,0-7.44-3.48-11.12-11-11.15q-39.64-.16-79.3,0c-7.62,0-11.4,4.12-11.43,11.78-.06,15.46.07,30.92-.08,46.38,0,3.46,1.11,4.52,4.51,4.48C253.55,233.34,266.77,233.43,280,233.43Zm-48.12,9.18c-29.31,0-58.63,0-87.94-.06-3.57,0-4.89,1.06-4.72,4.68.25,5.23.06,10.48.06,15.72,0,5.78,0,5.79,5.79,5.79l173.26,0c.74,0,1.5,0,2.24,0,2.54.15,3.6-1,3.57-3.56-.08-5.86,0-11.73,0-17.59,0-4.92-.07-5-5.05-5ZM129.54,253.35h0c0-7.23.07-14.46,0-21.69-.07-5.42-2.73-9.23-7.76-11.25-8.83-3.55-17.27,2.65-17.46,13.22-.26,14,0,27.91-.12,41.87,0,2.73,1,3.8,3.75,3.75,5.85-.11,11.71-.14,17.57,0,3.13.08,4.15-1.23,4.1-4.23C129.45,267.81,129.54,260.58,129.54,253.35Zm204.3,0c0,7.35.06,14.71,0,22.06,0,2.69,1,3.85,3.72,3.81,6.11-.1,12.22-.06,18.33,0,2.06,0,3.32-.65,3.32-3,0-14.83.15-29.67-.13-44.5a12.71,12.71,0,0,0-13-12.31c-7,.15-12.08,5.53-12.16,13C333.78,239.42,333.84,246.4,333.84,253.38Z"/><path class="cls-1" d="M32.84,170.87c0-32.93-.09-65.86,0-98.8C33,42.22,51.14,15.14,79.06,4.75,105.19-5,129,.46,149.5,19.05c13.23,12,20.73,27.29,22.8,45.09.43,3.66,1.64,5.51,5.65,6.37,16.87,3.63,29.8,19.77,30.15,37,.06,2.49.1,5,0,7.48-.18,3.8-1.78,5.41-5.62,5.52-4.48.13-9,.14-13.47,0a4.65,4.65,0,0,0-4.95,3c-2.94,5.92-7.91,9.53-14.53,9.58a15.79,15.79,0,0,1-15-9.42c-1.19-2.45-2.71-3.19-5.24-3.12-5,.12-10,0-15,0-3,0-5.19-1.3-5.48-4.46-1.68-17.82,4.94-33.57,21.3-42.36A35.35,35.35,0,0,1,160.68,70c2.09-.37,2.83-1.3,2.62-3.57-2.69-29.48-26.57-55-56.48-56.91C73.67,7.44,47.16,32.74,42.7,63.32a84.41,84.41,0,0,0-.79,12.3q.06,98.81.06,197.6c0,6,0,6,5.94,6,7.73,0,15.47,0,23.2,0a16.84,16.84,0,0,1,4.08.34c2.37.6,4.12,2.06,4,4.7s-1.88,4.23-4.56,4.56a26.89,26.89,0,0,1-3.36.11H8c-.75,0-1.5,0-2.24,0-3.76-.19-6-2-5.79-4.94.2-3.51,2.68-4.62,5.67-4.67,7.48-.13,15-.23,22.45,0,3.63.1,4.7-1.21,4.69-4.75-.1-34.56-.06-69.11-.06-103.67ZM168.5,111.42c9,0,17.95,0,26.93,0,2.16,0,3.72-.44,3.51-3.09-.69-8.79-3.69-16.58-10.57-22.35-9.42-7.91-20.21-9.76-31.51-5.16-11.67,4.76-17.61,14.14-18.94,26.58-.32,2.9.63,4.09,3.65,4C150.54,111.35,159.52,111.42,168.5,111.42Z"/><path class="cls-1" d="M145.17,99.48a11,11,0,0,1,.86-2.24,31.44,31.44,0,0,1,9.83-10.08c2.15-1.41,4.33-1.38,6,.63s1.73,4.49-.4,6.3a72.75,72.75,0,0,0-8.74,9.16,4,4,0,0,1-5.1,1C145.94,103.45,145.1,102,145.17,99.48Z"/></g></g></svg>