<svg xmlns="http://www.w3.org/2000/svg" viewBox="0 0 368.85 329.98"><defs><style>.cls-1{fill:#fff;}</style></defs><g id="Layer_2" data-name="Layer 2"><g id="Layer_1-2" data-name="Layer 1"><path class="cls-1" d="M219.58,278.05H109.19c-5.49,0-5.5,0-5.5,5.63,0,9.48.11,19,0,28.44-.18,10.53-7.37,17.81-17.22,17.74-9.46-.06-16.49-7.38-16.6-17.55-.11-11.72,0-23.45,0-35.18q0-34.42,0-68.85c0-14.54,7.95-22.51,22.43-22.53,7.61,0,15.22-.13,22.83.05,3.13.07,4-1.06,4-4.12-.11-18.33-.08-36.67,0-55,0-13.26,7.87-21.14,21.17-21.15q79.33,0,158.67,0c13,0,21.19,8.24,21.22,21.31,0,18.09.09,36.18-.06,54.27,0,3.54.95,4.82,4.62,4.71,7.85-.24,15.71-.13,23.57-.06,12.36.12,20.6,8.42,20.61,20.73q0,53.32,0,106.65a16.52,16.52,0,0,1-13.47,16.54,17,17,0,0,1-18.9-10.14,17.28,17.28,0,0,1-1.11-7c0-10-.15-20,.07-29.94.08-3.63-1.11-4.67-4.68-4.66C293.68,278.09,256.63,278.05,219.58,278.05Zm0-32.4q67.53,0,135.06.06c3.46,0,4.83-.8,4.76-4.55-.23-11.22,0-22.44-.11-33.67-.05-7.92-3.88-11.71-11.73-11.71q-128.13,0-256.28,0c-7.94,0-11.45,3.48-11.48,11.35,0,11,0,22,0,32.92,0,5.59,0,5.6,5.47,5.6ZM219.77,115H182.35c-13.84,0-27.69,0-41.53,0-8.25,0-12.18,4-12.26,12.18,0,4.37,0,8.73,0,13.1,0,13.84.06,27.69-.06,41.53,0,2.92.89,4.21,3.85,3.88a12.08,12.08,0,0,1,2.62,0c2.82.3,3.73-1,3.63-3.71-.16-4.24-.08-8.49,0-12.73.15-11.13,8.28-19.47,19.33-19.58q18.53-.19,37,0c11.23.1,19.44,8.46,19.6,19.77.06,4.36.08,8.73,0,13.09,0,2.18.76,3.3,3,3.16a22.29,22.29,0,0,1,3.37,0c2.8.28,3.74-1,3.65-3.7-.16-4.49-.09-9,0-13.47a18.89,18.89,0,0,1,18.82-18.85q18.9-.23,37.79,0c9.57.09,17,6.63,18.82,16.1,1,5.32.56,10.71.42,16-.1,4.14,2.34,3.81,5.08,3.9,2.89.09,4.66-.3,4.63-4-.15-18.71-.09-37.42-.07-56.13a10,10,0,0,0-2.84-7.46c-2.69-2.69-6.06-3.2-9.65-3.2Zm-.34,153H352.66c7.46,0,6.63.65,6.67-6.57,0-5.79,0-5.8-6-5.8H86.9c-7.82,0-7.05-.8-7.08,7,0,5.39,0,5.4,5.26,5.4Zm42.87-82.3c7.85,0,15.71-.14,23.55.07,3.48.09,5-.81,4.75-4.56-.29-3.59,0-7.22-.08-10.83-.06-7-3.83-11-10.77-11.15q-17.38-.24-34.77,0c-6.9.09-10.69,4.14-10.86,11.15-.09,3.73.18,7.48-.08,11.2-.24,3.42,1.18,4.25,4.34,4.18C246.35,185.62,254.33,185.74,262.3,185.74Zm-86,0c8.23,0,16.46-.06,24.69,0,2.55,0,3.62-.88,3.55-3.48-.12-4.11,0-8.23-.05-12.34-.09-6.55-3.74-10.54-10.4-10.66q-17.76-.3-35.53,0c-6.3.11-9.87,4-10,10.22-.1,4.11.09,8.23-.07,12.34-.11,2.9,1,4,3.91,3.93C160.38,185.65,168.37,185.74,176.34,185.74ZM344.89,296.67c0,5.1-.06,10.2,0,15.29s3.07,8.32,7.24,8.26,7.07-3.23,7.13-8.05c.14-10.32,0-20.64.09-31,0-2.2-.79-3.22-3-3.16-2.74.07-5.48.09-8.21,0-2.42-.08-3.31,1-3.26,3.34C345,286.47,344.88,291.57,344.89,296.67Zm-251.21.38c0-3.1,0-6.21,0-9.32-.24-11.27,2-9.45-9.94-9.72-2.84-.06-4,.84-4,3.83.13,10.19,0,20.39.07,30.58,0,4.71,2.72,7.75,6.72,7.88s7-3.31,7.09-8C93.72,307.25,93.67,302.15,93.68,297.05Z"/><path class="cls-1" d="M219.6,0h85.7c6.38,0,7.42,1,7.42,7.38q0,35.55,0,71.11c0,6-1.33,7.3-7.22,7.3H133.34c-5.77,0-7.41-1.6-7.41-7.3q0-35.55,0-71.11c0-6,1.43-7.37,7.59-7.38Zm.4,9.51H177.35c-12.6,0-25.19,0-37.79,0-2.09,0-3.64.2-3.64,2.93q.08,30.12,0,60.24c0,2.21.89,3.17,3.11,3.13,3.74-.06,7.49-.13,11.22,0a8.2,8.2,0,0,0,6.61-2.72c11.21-11.19,22.52-22.27,33.8-33.39,4.51-4.44,6.37-4.45,10.8.23q12.35,13,24.58,26.18c1.71,1.84,2.94,2,4.92.31,6.2-5.42,12.55-10.65,18.86-15.94,5.33-4.47,6.69-4.45,11.69.25,6.36,6,13,11.72,19,18.06,5.08,5.37,10.61,8,18.1,7.13,3.43-.38,4.73-1,4.7-4.7q-.25-28.62,0-57.25c0-3.7-1.2-4.57-4.71-4.55C272.38,9.57,246.19,9.51,220,9.51Zm1.44,66.05c-8.37-9-16.14-17.2-23.82-25.53-1.74-1.89-2.73-.68-3.93.5-5.43,5.33-10.88,10.63-16.31,16-2.87,2.82-5.71,5.68-9.12,9.07Zm51.51,0c-3.39-4.35-7.36-7.32-10.9-10.71-6.46-6.2-6.49-6.18-13.24-.6-1.64,1.34-3.26,2.7-4.84,4.11-2.54,2.26-5.48,4.11-8,7.2Z"/><path class="cls-1" d="M43.94,229.86q0,41,0,81.95c0,4.93,0,4.93,5,4.95,1.62,0,3.26-.07,4.86.09,3,.31,5,1.93,4.93,5-.06,2.92-2,4.57-4.83,4.75-3.36.22-6.73.12-10.1.13-6,0-12,.06-18,0-4.12-.05-6.22-1.77-6.3-4.86s2.1-5,6.41-5.12c8-.26,8-.26,8-8.34Q34,228,34,147.52c0-2.89,0-5.09-4-5-3.27.1-4.47,1.14-4.3,4.38.22,4.05-.29,8,2.52,11.71,2.51,3.34,1.05,8-2.35,10.62a8.42,8.42,0,0,1-11-.42c-3.2-2.92-4.15-7.93-1.32-11.16,3.63-4.13,1.86-8.75,2.15-13.18.12-1.69-1.39-1.81-2.69-1.83-2.37,0-4.75.09-7.11-.08-4.65-.34-7.1-3.88-5.21-8.13,5.81-13.11,11.87-26.11,17.87-39.13A5.53,5.53,0,0,1,24,92.06q15.15,0,30.31,0a5.74,5.74,0,0,1,5.54,3.73c5.88,12.8,11.83,25.58,17.56,38.44,2.11,4.74-.48,8.31-5.93,8.4-7.36.13-14.72,0-22.08,0-5.41,0-5.41,0-5.41,5.61Q43.93,189.07,43.94,229.86Zm-5-97.21c7.86,0,15.72,0,23.58,0,2.2,0,3.39-.23,2.13-2.91-4-8.46-7.84-17-11.66-25.51a4.11,4.11,0,0,0-4.34-2.72c-6.36.11-12.73.13-19.09,0a4.32,4.32,0,0,0-4.55,3Q19.44,117,13.65,129.36c-1.17,2.48-.7,3.34,2.07,3.31C23.45,132.59,31.18,132.64,38.92,132.65Z"/><path class="cls-1" d="M228.61,51.37c-8.62,0-15.79-7.43-15.86-16.54s7-16.71,15.61-16.8,15.7,7.33,15.8,16.55S237.22,51.32,228.61,51.37Zm-5.82-16.49c.06,3.84,2.35,6.41,5.7,6.43s5.92-3,5.81-6.79-2.52-6.44-5.8-6.43C225,28.11,222.73,30.83,222.79,34.88Z"/></g></g></svg>