<svg xmlns="http://www.w3.org/2000/svg" viewBox="0 0 331.12 368.4"><defs><style>.cls-1{fill:#fff;}</style></defs><g id="Layer_2" data-name="Layer 2"><g id="Layer_1-2" data-name="Layer 1"><path class="cls-1" d="M155.77,148.14c-15.88-6.73-24.89-18.08-23.79-35.6,1-15.62,10.21-25.35,24.54-30.94H125.94c-1.75,0-3.49,0-5.24,0-8.36-.3-12.91-6.79-10.12-14.69,4-11.29,8.16-22.51,12.27-33.76C126,24.58,129.12,16,132.21,7.48,134.05,2.36,137.68,0,143.05,0Q165.51,0,188,0c5.39,0,9,2.31,10.86,7.42,7.1,19.58,14.36,39.1,21.33,58.72,3.22,9.11-1.43,15.41-11,15.45-11.46,0-22.93,0-34.54.21,16.73,6.52,25.58,18.28,24.65,36.53-.63,12.43-8.66,22.22-24.9,29.81h4.84q65.87,0,131.72,0c10.2,0,17.92,6,19.79,15.35a26.56,26.56,0,0,1,.38,5.2q0,89.44,0,178.87c0,12.83-8,20.81-20.75,20.81H20.74C7.86,368.39,0,360.55,0,347.66q0-89.43,0-178.87c0-12.88,7.82-20.64,20.76-20.64q65.49,0,131,0ZM165.53,259H14.38c-5.16,0-5.18,0-5.18,5.22q0,41.16,0,82.31c0,8.72,3.88,12.63,12.55,12.63q143.48,0,286.94,0c9.51,0,13.23-3.71,13.24-13.1q0-40.78,0-81.56c0-5.51,0-5.52-5.64-5.52Zm.06-9.71v0H316.4c5.52,0,5.53,0,5.53-5.65q0-36.67,0-73.35c0-9.2-3.79-13-12.92-13H22c-9,0-12.83,3.85-12.83,12.71q0,36.67,0,73.35c0,6,0,6,6,6Zm-.22-176.73q20.94,0,41.87,0c4.94,0,5.44-.79,3.71-5.54-6.53-17.91-13.14-35.79-19.53-53.74-1.16-3.28-2.89-4.39-6.28-4.35q-19.81.22-39.62,0c-3.12,0-4.75,1-5.79,3.93-6.49,18.19-13.14,36.32-19.66,54.49-1.64,4.55-1.1,5.2,3.81,5.21Q144.63,72.6,165.37,72.58Zm.17,66.73c14.12,0,24.74-10.54,24.7-24.53,0-13.68-10.76-24.24-24.62-24.25S141,101,140.91,114.69C140.82,128.63,151.49,139.29,165.54,139.31Z"/><path class="cls-1" d="M165.3,290.55c-6.35,0-12.69.05-19,0-3.95,0-6.15-1.69-6-4.6.23-3.46,2.61-4.55,5.7-4.56,13.06,0,26.13,0,39.19,0,3.58,0,5.83,1.91,5.62,4.61-.27,3.45-2.65,4.52-5.73,4.53Z"/><path class="cls-1" d="M165.6,188.64c-6,0-12,0-18,0a12.77,12.77,0,0,1-4-.56,4.4,4.4,0,0,1,0-8.54,13.05,13.05,0,0,1,4-.54c12,0,23.94,0,35.92,0a16.43,16.43,0,0,1,1.86.07c2.92.31,5.24,1.64,5.23,4.78s-2.35,4.66-5.26,4.73c-6.6.14-13.21,0-19.82,0Z"/></g></g></svg>