<svg xmlns="http://www.w3.org/2000/svg" viewBox="0 0 293.58 368.41"><defs><style>.cls-1{fill:#fff;}</style></defs><g id="Layer_2" data-name="Layer 2"><g id="Layer_1-2" data-name="Layer 1"><path class="cls-1" d="M59.21,90.06q0-26.94,0-53.89C59.24,14.73,74,0,95.51,0q51.84,0,103.67,0C216,0,230,11.24,233.1,27.64c1.08,5.71,1.13,11.66,1.15,17.5q.17,48.47.06,96.93c0,12.51-4.05,23.21-14.55,30.87a35.09,35.09,0,0,1-20.66,6.69c-9.72.13-19.46,0-29.19,0-5,0-5.11.13-5.1,5,0,4.65.15,4.79,5.28,4.79q39.85,0,79.71,0c4.08,0,7.71.62,10,4.43,1.22,2,2.56.91,3.74,0,5.47-4.35,8.75-10,8.83-17,.2-18.71,0-37.43.15-56.14,0-3-1.26-3.81-4.05-3.84-6.21-.07-7.91-1.94-7.95-8.17,0-2.74-.1-5.49.06-8.23.23-4,2.63-6.58,6.65-6.68,6.6-.18,13.22-.2,19.83,0,4.1.14,6.29,2.67,6.41,6.79.1,3.12.09,6.24,0,9.36-.13,4.73-2.17,6.73-6.93,6.94-4.95.23-5,.23-5,5.08,0,17.71-.12,35.43.06,53.14.14,13.2-6,22.61-17,29.12-2.94,1.75-4.13,3.55-4.13,7,0,19.81-15.26,35-35.13,35.11-18.59.1-37.17.12-55.76,0-3.78,0-4.68,1.19-5,4.9-1,13.06,3.36,25.34,5,38,1.36,10.25,3.2,20.44,4.92,30.65.49,2.9.27,5.49-2.18,7.45-1.48,1.19-1.06,1.94.35,2.76,5.94,3.43,11.85,6.91,17.77,10.38a11.55,11.55,0,0,0,4,1,12.33,12.33,0,0,1,9.65,15.2c-1.65,6.57-8.78,10.36-15.68,8.34a11.73,11.73,0,0,1-7.87-15.39c1.08-2.82.31-4-2-5.3-8.12-4.64-16.15-9.45-24.23-14.16-4.08-2.38-5.27-1.7-5.32,3,0,1.75.11,3.5,0,5.24-.29,3.77.37,6.64,3.86,9.27,5.17,3.9,4.94,12.25.33,17a12.5,12.5,0,0,1-17.79.2c-4.76-4.75-4.93-13.17.54-17.27,3.67-2.75,4.09-5.8,3.89-9.62-.09-1.74,0-3.49,0-5.23-.05-3.75-.39-4-3.4-2.07-8.1,5.16-16.13,10.43-24.25,15.57a4.49,4.49,0,0,0-2.35,5.22,12.11,12.11,0,0,1-10.79,14c-7.67.56-13.73-4.68-13.79-11.92a11.92,11.92,0,0,1,13.13-12.12,10.8,10.8,0,0,0,7.28-2c4.43-3,9-5.9,13.5-8.76,1.88-1.18,3-2.12.65-4.1-1.86-1.61-1.78-4-1.41-6.31q4-24.72,8.1-49.45a5.14,5.14,0,0,1,.77-2.47c5.14-5.88,2.06-12.9,2.76-19.38.21-2-1.25-2.49-3-2.48l-9,0q-24.51,0-49,0c-21.3,0-36.16-14.33-36.75-35.59a7.24,7.24,0,0,0-4-6.82c-10.6-6.53-16.63-15.78-16.51-28.66.16-17.84,0-35.68.14-53.52,0-3.71-1-5.1-4.86-5-5,.16-7-2.09-7.13-7-.07-3-.07-6,0-9,.11-4.34,2.31-6.88,6.6-7,6.6-.2,13.22-.19,19.82,0,3.81.11,6.23,2.66,6.46,6.48.19,3.23.14,6.48.05,9.72-.13,4.69-2.22,6.7-7,6.91-4.93.22-5,.22-5,5.11q0,26.76,0,53.51a22.61,22.61,0,0,0,8.42,18c1.62,1.36,2.92,2.06,4.42-.43,2-3.27,5.46-3.62,8.92-3.62h82c5.34,0,5.3-.14,5.44-5.42.09-3.22-1-4.43-4.29-4.38-10.35.15-20.71.1-31.06,0-20.59-.1-35.72-15.2-35.75-35.7,0-18,0-35.92,0-53.89Zm165.44-.56h0c0-18.34,0-36.67,0-55,0-14.58-10.93-25.42-25.62-25.49-14-.06-27.94,0-41.91,0-5.06,0-5.13.08-5.13,5.32,0,10.48,0,21,0,31.43a15.33,15.33,0,0,1-.37,4.07,4,4,0,0,1-4.39,3.28,4.12,4.12,0,0,1-4.06-3.71,23.09,23.09,0,0,1-.16-3.73c0-10.85-.07-21.7,0-32.54,0-3.06-1.06-4.19-4.14-4.17-15.22.11-30.43-.08-45.65.1A25.34,25.34,0,0,0,68.74,29.77c-.9,4.47-.51,9-.52,13.43,0,33.55.07,67.09,0,100.64,0,15.5,12.43,26.81,26.2,26.23,11.57-.49,23.19-.09,34.79-.1,4.93,0,5.12-.26,3.57-4.8-2.33-6.85-4.71-13.68-7.07-20.52a4.22,4.22,0,0,1,1-4.82,4.55,4.55,0,0,1,4.86-1c2,.67,2.76,2.36,3.39,4.18,2.68,7.78,5.45,15.53,8,23.34.81,2.43,1.9,3.76,4.73,3.73s3.63-1.46,4.37-3.67q4-11.88,8.2-23.69c1.24-3.5,3.79-5,6.5-3.84,3.29,1.41,3.22,4,2.23,6.91-2.21,6.37-4.43,12.72-6.61,19.09-1.68,4.91-1.54,5.12,3.49,5.13,11.1,0,22.2,0,33.3,0,15-.08,25.41-10.5,25.46-25.47C224.69,126.16,224.65,107.83,224.65,89.5ZM146.76,199.12H52.48c-10.49,0-10,0-10.58,10.45C41.11,225,53.66,237,69,236.77c35.41-.55,70.83-.17,106.25-.18,17.21,0,34.42,0,51.63,0,8.17,0,14.61-3.57,19.49-10.07s5.28-14.31,5.12-22.13c-.1-5.2,0-5.23-5.2-5.23Zm-.53,119.8c5,0,10,0,15,0,2.49,0,3.71-.76,3.24-3.55-2.14-12.64-4.25-25.29-6.21-37.95-.42-2.68-1.6-3.56-4.18-3.49-5,.13-10,.1-14.95,0-2.39-.05-3.7.87-4.08,3.3-2,12.78-4.07,25.57-6.21,38.33-.42,2.51.38,3.41,2.87,3.36C136.52,318.86,141.38,318.93,146.23,318.92Zm9.4-63.48V254c-.06-8.43.8-7.66-7.59-7.61-10.24.07-8.54-1.45-8.63,10.26-.07,8.32-.88,7.68,7.56,7.64C156.85,264.2,155.51,265.41,155.63,255.44Zm-8.12-66v0c1.86,0,3.73,0,5.59,0a2.3,2.3,0,0,0,2.44-1.83c1.59-5.45-.14-7.85-5.79-7.85h-5.22c-5.09,0-5.05.16-5.22,5.23-.12,3.37,1,4.91,4.47,4.53A35.67,35.67,0,0,1,147.51,189.41ZM16.38,107.66v0c1.74,0,3.49,0,5.23,0,1.28,0,2.15-.61,2.19-2s-.57-2.26-1.91-2.28q-5.41-.12-10.83,0c-1.35,0-1.89,1-1.82,2.35a1.82,1.82,0,0,0,1.91,1.88C12.89,107.71,14.63,107.66,16.38,107.66Zm260.5,0v0c1.74,0,3.48,0,5.23,0,1.26,0,2.16-.57,2.22-2s-.55-2.27-1.89-2.3c-3.61-.08-7.22-.09-10.82,0-1.35,0-1.92,1-1.85,2.33a1.81,1.81,0,0,0,1.88,1.91C273.4,107.71,275.14,107.66,276.88,107.66Z"/></g></g></svg>