<svg xmlns="http://www.w3.org/2000/svg" viewBox="0 0 368.61 194.7"><defs><style>.cls-1{fill:#fff;}</style></defs><g id="Layer_2" data-name="Layer 2"><g id="Layer_1-2" data-name="Layer 1"><path class="cls-1" d="M237.9,151.24q-47.71,0-95.41,0c-5.16,0-5.17,0-5.17,5.22,0,9.85,0,19.7,0,29.55,0,5.75-2.7,8.47-8.47,8.61q-6.54.15-13.09,0c-5.51-.13-8.46-2.9-8.47-8.31-.06-32.92-.11-65.85.06-98.77,0-10.06,7.76-17.17,17.9-17.25,6.73-.05,13.47-.15,20.2,0,3.4.1,4.58-1,4.55-4.5-.14-14.71-.07-29.43,0-44.15C150,8.26,158.22,0,171.68,0H304.13c13.81,0,21.74,8,21.76,21.91q0,21.71,0,43.4c0,4.92,0,4.94,5.07,5,6.61,0,13.22,0,19.83,0,10.34.1,17.72,7.37,17.74,17.7q.1,49,0,98c0,5.59-2.64,8.38-8.13,8.55-4.61.15-9.24.15-13.85,0-5.49-.18-8.1-3-8.13-8.55-.05-10-.16-20,.06-29.93.08-3.76-1.06-5-4.87-4.93C301.75,151.29,269.82,151.24,237.9,151.24Zm-.13-29.18H354.14c5.23,0,5.29-.06,5.3-5.15q0-12.72,0-25.44c0-9.47-2.56-12.07-11.91-12.07q-109.64,0-219.28,0c-8.8,0-11.8,3-11.85,12-.06,8.23,0,16.47,0,24.7,0,6,0,6,6.11,6Zm.38-113c-22,0-43.9,0-65.85,0-8.67,0-13.14,4.06-13.23,12.28-.16,15.09,0,30.18-.07,45.27,0,3.14,1.5,3.67,4.17,3.7,2.86,0,4.11-.93,4-3.89-.15-3.61-.12-7.24,0-10.85a17.11,17.11,0,0,1,17.11-16.76q16.28-.12,32.55,0c9.78.06,16.86,7.19,17,17.06.06,3.74.1,7.48,0,11.22-.07,2.85,1.6,3.22,3.87,3.19s4.31,0,4.23-3.21c-.09-3.86-.1-7.73,0-11.6a17.06,17.06,0,0,1,16.82-16.65c11.1-.1,22.2-.12,33.3,0a16.74,16.74,0,0,1,16.55,16.48c.1,3.86.14,7.73,0,11.59-.1,3.06,1.66,3.39,4.07,3.39s4.07-.36,4.06-3.4c-.08-15.72.05-31.43-.07-47.14,0-5.35-3.17-8.81-8.32-10.13a26.89,26.89,0,0,0-6.69-.59Zm-.32,132.47H353c1.38,0,2.75,0,4.12-.09a2.22,2.22,0,0,0,2.16-1.71c1.7-5.27-.18-7.95-5.67-7.95H122.86c-1,0-2,0-3,0-2.06,0-2.77,1.07-2.94,3-.51,6,0,6.7,6.07,6.7ZM200.29,70.27c7,0,14-.06,21,0,2.56,0,3.62-1,3.54-3.55-.11-3.49.08-7-.08-10.47-.23-5.28-3.31-8.31-8.57-8.35q-15.34-.12-30.68,0c-5.68,0-8.8,3-9.14,8.69-.2,3.23.05,6.49-.11,9.73-.14,2.86.93,4,3.89,4C186.82,70.18,193.56,70.27,200.29,70.27Zm74.81,0c7,0,14,0,20.94,0,2.52,0,3.67-.9,3.58-3.5-.11-3.36.07-6.73-.05-10.09-.19-5.62-3.3-8.72-9-8.77q-15.15-.15-30.28,0c-5.69,0-8.8,3-9.15,8.69-.19,3.1.09,6.23-.11,9.34s.92,4.47,4.25,4.37C261.89,70.14,268.5,70.28,275.1,70.27ZM347.66,168v9c0,8.26,0,8.16,8.12,7.94,2.75-.08,3.72-1.12,3.68-3.81-.1-7.34,0-14.69,0-22,0-8.4,0-8.33-8.49-7.9-2.39.13-3.34,1-3.29,3.39C347.73,159.07,347.67,163.55,347.66,168Zm-219.53.22V158.19c0-7.15,0-7-7.12-7-3.1,0-4.16,1.16-4.11,4.18.13,7.45,0,14.91,0,22.36s.09,7.57,7.76,7.23c2.59-.11,3.5-1.17,3.45-3.65C128.05,177,128.12,172.6,128.13,168.26Z"/><path class="cls-1" d="M39,82.72c-5.66-3.54-9.77-7.6-11.2-13.92-1.24-5.5,0-10.35,2.86-15,.61-1,2.15-2,1.33-3.19-.7-1.07-2.32-.52-3.53-.52a25,25,0,0,1-6.68-.71c-4.21-1.17-6.7-5.11-5.27-9.25,3.69-10.73,7.61-21.38,11.57-32,1.1-3,3.56-4.41,6.75-4.42q12,0,23.94,0a7.12,7.12,0,0,1,7.14,5c3.7,9.93,7.48,19.83,10.91,29.86C79,44.91,76,49.2,69.39,49.88a86.55,86.55,0,0,1-8.7,0C69.42,65.26,68.36,71.58,55,83c7.93,0,15.37.37,22.76-.08C90,82.18,94,90.05,93.91,99c-.33,23.32-.1,46.64-.1,70,0,11.18-4.7,15.85-16,15.87-20.83,0-41.66-.13-62.48.07C6.78,185-.2,180.46,0,169.47c.44-24.06.14-48.13.17-72.2C.18,87.53,4.65,83.05,14.34,83c7.73,0,15.46,0,23.19,0A11.72,11.72,0,0,0,39,82.72Zm8,54.18c-11.22,0-22.44,0-33.67,0-2.78,0-4.09.81-4.06,3.83.13,9.85.09,19.71.05,29.56,0,3.45,1.52,4.89,5,4.87q32.53-.1,65.08,0c3.7,0,4.73-1.58,4.69-5-.12-9.6-.15-19.2,0-28.8.06-3.46-1.21-4.57-4.59-4.53C68.71,137,57.86,136.9,47,136.9Zm-.59-9.71c11.08,0,22.17-.08,33.26,0,3.11,0,4.53-.84,4.46-4.21-.16-8.6,0-17.2-.06-25.79,0-4.23-.84-5.06-5.07-5.06q-32.15-.06-64.29,0c-4.41,0-5.38,1.07-5.4,5.66,0,8.22.13,16.45-.07,24.67-.09,3.53,1,4.81,4.65,4.75C24.74,127.06,35.58,127.19,46.42,127.19ZM47,40.4c5.74,0,11.47,0,17.21,0,2.65,0,3.3-.93,2.37-3.41q-4-10.66-7.83-21.42a3.85,3.85,0,0,0-4.2-2.88q-7.66.1-15.33,0A3.88,3.88,0,0,0,35,15.6c-2.51,7-5.06,14.08-7.7,21.08-1.13,3,0,3.79,2.85,3.75C35.76,40.34,41.37,40.4,47,40.4ZM36.87,64.54c.05,6,4.16,10.2,10.06,10.22A10.06,10.06,0,0,0,57.08,64.51a10.11,10.11,0,1,0-20.21,0Z"/><path class="cls-1" d="M46.65,153.35c-2.73,0-5.49.18-8.2,0-2.86-.25-5.19-1.67-5.12-4.85.06-3,2.32-4.47,5-4.57q8.58-.31,17.17,0c2.75.09,4.81,1.63,4.82,4.67,0,3.24-2.17,4.63-5.09,4.81s-5.73,0-8.59,0Z"/><path class="cls-1" d="M46.83,108.56c-3,0-6,.08-8.93,0-2.8-.09-4.48-1.71-4.53-4.43a4.15,4.15,0,0,1,4.38-4.56c6.07-.12,12.16-.13,18.23,0a4.17,4.17,0,0,1,4.38,4.57c-.07,2.74-1.85,4.29-4.6,4.39C52.79,108.63,49.81,108.55,46.83,108.56Z"/></g></g></svg>