<svg xmlns="http://www.w3.org/2000/svg" viewBox="0 0 368.4 316.8"><defs><style>.cls-1{fill:#fff;}</style></defs><g id="Layer_2" data-name="Layer 2"><g id="Layer_1-2" data-name="Layer 1"><path class="cls-1" d="M35.74,62.23C33,58.4,30,56.06,27.94,52.92A39.87,39.87,0,0,1,32.51,3.28,9.82,9.82,0,0,1,40.12,0C55,.11,69.81.15,84.66,0A10.72,10.72,0,0,1,93.4,4.1C108.05,20.89,107.48,43.2,92,59.15c-.68.7-1.3,1.47-2.43,2.75a70.8,70.8,0,0,0,13.38.14c1.84-.12,1.84-1.77,1.86-3.16,0-4.36,0-8.73.06-13.1.1-5.47,2.61-8.4,8-8.93,2.44-.24,3.24-1.29,3.22-3.55,0-4.49-.07-9,0-13.47.13-5,2.71-7.7,7.67-7.71q44-.09,88,0c4.95,0,7.59,2.73,7.68,7.71q.16,8.79,0,17.59c-.09,5.21-2.42,7.79-7.69,8.27-2.56.23-3.55,1.21-3.47,3.7.09,3,.14,6,0,9s1.15,3.91,4,3.89c12.35-.09,24.7,0,37.05,0h110c7.46,0,9.08,1.6,9.1,8.94,0,9.6,0,19.21,0,28.81,0,5.11-2.3,7.45-7.45,7.84-.37,0-.75,0-1.12,0-8.58.24-8.58.24-8.57,9,0,17.72-.34,35.44.11,53.14.8,31.06.24,62.11.44,93.17,0,5.67-.66,11.21-4.24,16-1.13,1.51-2.27,3.12-4,3.91-3.7,1.71-5,4.77-5.83,8.48-1.36,6.09-3.07,12.09-4.66,18.12-1.5,5.67-3.31,7-9.3,7.09-2.86,0-5.74.07-8.6,0-4.39-.14-6.58-1.89-7.74-6.17-1.77-6.5-3.62-13-5.13-19.54-.74-3.19-2.34-4.13-5.48-4.11-17.71.12-35.43.06-53.14.06H82.78c-5.59,0-5.58,0-7,5.41-1.53,5.92-3,11.84-4.64,17.74-1.37,5.05-3.27,6.51-8.53,6.62-3.12.06-6.24.11-9.35,0-4.49-.2-6.49-1.88-7.67-6.25C43.8,303.7,42,297,40.27,290.19a5.38,5.38,0,0,0-3.75-4.13c-9-3.35-13.38-9.76-13.38-19.47q0-76.35,0-152.7c0-6,0-6-5.93-6-3.24,0-6.49.1-9.73-.07C2.34,107.52,0,105.12,0,100q0-15.15,0-30.31c0-5.41,2.08-7.44,7.52-7.47C16.66,62.19,25.74,62.23,35.74,62.23ZM267.33,163.32c-23.69,0-47.38.05-71.06-.06-3.38,0-4.56,1-4.54,4.49q.15,52.74,0,105.47c0,3.69,1.3,4.61,4.78,4.61,44.38-.1,88.76-.05,133.14-.08,8.45,0,12.42-4,12.43-12.35q0-48.43,0-96.86c0-5.19,0-5.22-5.21-5.22Zm-159.87,0h-70c-5.14,0-5.16,0-5.16,5.26q0,48.09,0,96.18c0,9.16,3.82,13,13,13H177.4c5.19,0,5.21,0,5.21-5.17q0-52,0-104c0-5.21,0-5.23-5.19-5.23Zm79.57-9.7h150c4.9,0,5-.14,5.05-5q0-18,0-35.92c0-4.59-.21-4.79-4.92-4.79q-28.62,0-57.24,0h-242c-5.61,0-5.62,0-5.62,5.59q0,17.22,0,34.42c0,5.73,0,5.74,5.84,5.74ZM184.21,98.2h168c1.25,0,2.5-.06,3.74,0,2.39.11,3.36-1,3.34-3.37q-.09-10.09,0-20.21c0-2.38-1-3.45-3.36-3.33-1.24.06-2.49,0-3.74,0H16.16c-1.12,0-2.25.07-3.36,0-2.74-.21-3.8,1-3.75,3.73.12,5.74,0,11.48,0,17.21,0,6,0,6,6,6ZM62.47,27.77c-9.34,0-18.68,0-28,0-2.92,0-4.6,1-4.12,4.16s.7,6.17,1.8,9.14C37.71,56,52.8,63.46,65.43,61.88,82.58,59.75,93.68,48.31,95,32.33c.25-3.14-.79-4.63-4.13-4.6C81.41,27.83,71.94,27.77,62.47,27.77Zm105.3,9c12.83,0,25.66,0,38.48,0,3,0,4.38-1,4.18-4.11a75.93,75.93,0,0,1,0-7.84c.12-2.67-.94-3.82-3.7-3.81q-39,.08-78.09,0c-2.49,0-3.7.94-3.62,3.52A64.19,64.19,0,0,1,125,32c-.3,3.54,1.05,4.83,4.67,4.78C142.36,36.66,155.06,36.76,167.77,36.75Zm-5.65,25.46c6.22,0,12.44,0,18.66,0,2.34,0,3.45-.89,3.39-3.3-.07-3.11-.12-6.23,0-9.33s-1.22-3.87-4-3.85q-17.73.12-35.46,0c-2.83,0-4.15,1-4,3.9a81.85,81.85,0,0,1,0,8.58c-.19,3.17,1.28,4.11,4.24,4C150.67,62.12,156.4,62.22,162.12,62.21ZM63,18.77h8.22c5.85,0,11.69,0,17.54,0,1.19,0,3.12.5,2.61-1.93-.79-3.74-5.82-7.74-9.72-7.75C69.29,9,57,9.22,44.65,9c-4.13-.09-7,1.18-8.87,4.7-.68,1.26-2.17,2.45-1.23,4,.79,1.32,2.43,1.08,3.77,1.09C46.54,18.77,54.75,18.76,63,18.77Zm59.26,43.46c9.29-.12,8.93,1.18,8.88-7.14-.07-10.58,1.27-9.27-9.33-9.28-8.76,0-7.94-.87-7.92,8C113.87,63.25,112.86,62.14,122.22,62.23ZM58.64,287c-1.87,0-3.74.07-5.61,0-3-.15-3.75,1-2.91,3.86,1.22,4.06,2.31,8.16,3.23,12.3.59,2.69,1.73,4,4.75,4s4.71-.83,5.23-3.94c.44-2.57,1.23-5.09,1.89-7.62C67.48,287,67.48,287,58.64,287Zm261.44,20c2.84.45,4.36-.7,5-3.59.92-4.25,2.1-8.45,3.33-12.62.78-2.65.38-4-2.77-3.83-3.48.18-7,.13-10.45,0-3-.1-4.1,1-3.21,4,1.22,4.18,2.36,8.38,3.31,12.63C315.9,306.35,317.4,307.4,320.08,307ZM193.24,53.72c0,1.86,0,3.72,0,5.58s.92,2.91,3,2.9,3-.88,3-2.89c0-3.47,0-6.94,0-10.41,0-2.17-1-3.14-3.17-3.1s-2.81,1.19-2.79,3.09C193.24,50.5,193.22,52.11,193.24,53.72Z"/><path class="cls-1" d="M226.51,227.78c-2.25,0-4.5.12-6.73,0-4.27-.26-7-2.89-7.16-7.12s-.18-8.73,0-13.08a6.86,6.86,0,0,1,7-6.89c4.61-.18,9.23-.18,13.83,0,4.2.17,6.82,3,7,7.28q.22,6.17,0,12.34c-.16,4.66-2.88,7.28-7.58,7.5-2.11.1-4.24,0-6.35,0Zm0-9.24c3.53.69,4.8-.71,4.85-4.37,0-3.84-1.64-4.46-4.93-4.48s-4.87.81-4.85,4.56S223.11,219.17,226.55,218.54Z"/><path class="cls-1" d="M146.88,200.59h4.48c6.67,0,9.45,2.78,9.59,9.54.06,3.24.15,6.49-.09,9.71-.37,5.14-3.39,7.89-8.5,8-3.86.07-7.72.08-11.58,0-5.27-.11-8.05-2.79-8.24-8.08-.14-3.73-.14-7.48,0-11.21.21-5.15,2.9-7.75,8-7.91,2.12-.07,4.24,0,6.36,0Zm-.7,17.95c3.24.47,5.23-.12,5.17-4.13,0-3.51-1.1-4.84-4.7-4.72-3.08.11-5.2.26-5.06,4.31C141.71,217.4,142.44,219.34,146.18,218.54Z"/></g></g></svg>