<svg xmlns="http://www.w3.org/2000/svg" viewBox="0 0 272.64 368.33"><defs><style>.cls-1{fill:#fff;}</style></defs><g id="Layer_2" data-name="Layer 2"><g id="Layer_1-2" data-name="Layer 1"><path class="cls-1" d="M136.11,307.63H44.43c-5.34,0-5.37,0-5.38,5.47q0,23.58,0,47.15a21.36,21.36,0,0,1-.31,4.46,4.21,4.21,0,0,1-4.18,3.62A4.48,4.48,0,0,1,30,365.2c-.77-1.91-.62-3.93-.62-5.92,0-36,0-72.1.07-108.15,0-3.92-.81-5.89-5.09-6.9A32,32,0,0,1,0,213.4C-.12,197.53,9.28,184.92,24.68,181c3.64-.94,4.72-2.44,4.73-6.06.07-27.81.38-55.62.52-83.43.1-19.2,0-38.42.08-57.62A33.93,33.93,0,0,1,63.57.08q72.78-.16,145.57,0c18.42.05,33.43,15.36,33.5,33.82.07,18.83,0,37.67.06,56.5.14,28.31.44,56.61.54,84.92,0,3.35,1.06,4.74,4.43,5.52,14.9,3.43,25,16.49,25,31.86a32.12,32.12,0,0,1-25.07,31.77c-3.47.79-4.31,2.34-4.31,5.59q.13,54.63.05,109.27c0,2,.15,4-.64,5.91a4.46,4.46,0,0,1-4.63,3.08,4.2,4.2,0,0,1-4.14-3.66,22.06,22.06,0,0,1-.3-4.46c0-16-.09-31.93.05-47.9,0-3.59-1.16-4.74-4.74-4.73C198,307.67,167,307.63,136.11,307.63Zm.11-214h-92c-5.13,0-5.2.08-5.2,5.26,0,25.31.08,50.62,0,75.93,0,3.74,1.08,5,4.89,5q92.39-.15,184.78-.07c4.88,0,5-.11,5-5.08q0-37.78,0-75.56c0-5.4,0-5.43-5.41-5.43Zm-.3-9q46.2,0,92.4,0c5.25,0,5.32-.07,5.33-5.13,0-15,0-29.92,0-44.89,0-14.42-10.9-25.46-25.29-25.48q-72-.09-144,0C49.93,9.07,39,20.09,39,34.48c-.05,15,0,29.93,0,44.89,0,5.11.07,5.18,5.28,5.18Q90.1,84.57,135.92,84.55Zm.39,151.34v0c34.91,0,69.82.07,104.73-.05,11.89,0,21.35-9.55,22.37-21.91.9-11-7.7-22.3-18.68-24.21a65.21,65.21,0,0,0-11.17-.85q-97.24-.07-194.5,0a79.12,79.12,0,0,0-10.43.72c-11.95,1.6-21.21,14.37-19.13,26.19,2.25,12.71,11,20.1,24,20.12Q84.89,235.94,136.31,235.89Zm-.38,62c30.93,0,61.86-.06,92.79.07,3.73,0,5-1.05,4.95-4.87-.2-14.34-.16-28.69,0-43,0-3.42-1.09-4.53-4.52-4.52q-92.79.12-185.58,0c-3.38,0-4.6,1-4.56,4.48.15,14.22,0,28.43.06,42.65,0,5.19,0,5.21,5.2,5.21Z"/><path class="cls-1" d="M136.09,60.67c-3.62,0-7.23.09-10.84,0-7.32-.23-12-5.11-12.16-12.41-.09-4.17,0-8.23,3.24-11.47a11.75,11.75,0,0,1,8.61-3.83c7.61.05,15.21-.06,22.81,0a11.73,11.73,0,0,1,11.77,11.58c0,1.49.07,3,0,4.49-.36,6.53-4.92,11.23-11.46,11.56-4,.19-8,0-12,0Zm.23-9c3.24,0,6.49,0,9.73,0,3.43,0,4.55-1.8,4.53-5,0-3-1.1-4.77-4.34-4.75q-9.92,0-19.84,0c-3.24,0-4.31,1.74-4.34,4.75,0,3.18,1.1,5,4.53,5C129.83,51.63,133.08,51.66,136.32,51.66Z"/></g></g></svg>