<svg xmlns="http://www.w3.org/2000/svg" viewBox="0 0 368.48 181.32"><defs><style>.cls-1{fill:#fff;}</style></defs><g id="Layer_2" data-name="Layer 2"><g id="Layer_1-2" data-name="Layer 1"><path class="cls-1" d="M0,109.7C0,99.85,0,90,0,80.14.07,72.25,5,67.4,13,67.34c6.11,0,12.23-.18,18.33.06,3.56.13,4.79-1,4.75-4.66-.17-14.09-.07-28.19,0-42.28C36,8.31,44.3,0,56.44,0H312c12.15,0,20.45,8.29,20.48,20.42,0,14.09.12,28.19,0,42.28,0,3.59,1.12,4.83,4.72,4.69,6.1-.24,12.22-.1,18.33-.06,8,0,12.92,4.89,12.94,12.76q.07,29.57,0,59.12c0,11.19-8.5,19.48-19.78,19.59-4.74.05-9.48.09-14.22,0a3.65,3.65,0,0,0-4.09,2.93c-1.52,4.88-3.29,9.68-4.79,14.57-1.06,3.46-3.09,5.3-6.82,5-1-.08-2,0-3,0-5.59,0-6.32-.54-8.09-5.78-1.39-4.14-3-8.22-4.07-12.44-.88-3.48-2.76-4.7-6.16-4.27a35.38,35.38,0,0,1-4.49,0H72.18c-5.81,0-5.81,0-7.7,5.66-1.38,4.14-2.81,8.27-4.14,12.42-1,3-2.89,4.56-6.1,4.38-.25,0-.5,0-.75,0-8.85.11-8.85.11-11.61-8.17-1.26-3.78-2.59-7.55-3.76-11.36a3.64,3.64,0,0,0-4.07-2.95c-5,.1-10,.09-15,0A19.42,19.42,0,0,1,0,139.63c0-.25,0-.5,0-.75V109.7Zm184.35,39.94h65.5q48.27,0,96.56,0c8.54,0,12.75-3.7,12.81-11.64.14-18.84,0-37.68.08-56.51,0-3.43-1.51-5.06-5-5-5.49.06-11,0-16.47,0-4.29,0-5.3,1-5.34,5.34-.06,6.49,0,13,0,19.46-.07,11.72-8.35,20.09-20,20.09q-128.19,0-256.37,0C44.18,121.37,36,113,36,101c0-6.49-.05-13,0-19.46,0-3.39-1.39-5.13-4.9-5.1-5.73.06-11.47,0-17.21,0-3,0-4.68,1.4-4.67,4.52,0,19.21-.1,38.43.09,57.64.06,6.81,4,10.5,10.8,11,1.49.09,3,0,4.49,0Zm-69.18-38.27c1.58,1.16,2.74.84,3.81.84q27.87,0,55.74,0c4.89,0,4.91,0,4.91-5.09q0-46.38,0-92.78c0-5.27,0-5.3-5.12-5.3q-58.35,0-116.72,0C49,9.06,45.06,13,45.06,21.85q0,38.73,0,77.44c0,9.12,3.85,12.92,13,12.93q23.58,0,47.14,0c1.27,0,2.72.53,4-.8-1-1-1.89-2-2.84-3q-12.94-13-25.9-25.95c-3.62-3.64-3.63-5.52,0-9.12Q94.13,59.7,107.78,46.12c3.65-3.63,5.52-3.65,9.12-.08q12.19,12.14,24.35,24.32c7.53,7.53,7.54,7.54.11,15C132.72,93.94,124.06,102.54,115.19,111.37Zm142.53.67c1.32.07,2.3.18,3.28.18q25.06,0,50.13,0c8.16,0,12.22-4.06,12.23-12.22q.08-39.27.05-78.56c0-8.35-4.06-12.36-12.48-12.37-39.16,0-78.31,0-117.47-.07-3.52,0-4.78,1-4.76,4.66q.2,47,.05,93.9c0,3.53,1,4.77,4.65,4.74,18.2-.15,36.41-.06,54.61-.08,1.07,0,2.23.35,3.56-.75-.93-1-1.81-2-2.74-2.88q-13.08-13.11-26.17-26.22c-3.44-3.47-3.47-5.44-.08-8.85Q236.29,59.72,250.1,46c3.49-3.47,5.43-3.51,8.84-.12q13.8,13.71,27.52,27.5c3.56,3.56,3.53,5.47-.11,9.12-8.62,8.66-17.28,17.29-25.89,25.95C259.52,109.41,258.29,110.16,257.72,112ZM112,55.19a14.22,14.22,0,0,0-1.6,1.22c-6.53,6.51-13,13.06-19.59,19.55-1.57,1.55-1.17,2.69.21,4.06q9.7,9.6,19.31,19.3c1.45,1.46,2.58,1.55,4.06.05q9.6-9.7,19.32-19.3c1.59-1.56,1.67-2.74,0-4.34-6.49-6.38-12.89-12.85-19.33-19.28A3,3,0,0,0,112,55.19Zm142.48,0a4.56,4.56,0,0,0-2.24,1.6C246,63,239.77,69.33,233.43,75.5c-1.94,1.88-1.67,3.14.12,4.89q9.38,9.15,18.52,18.5c1.75,1.79,3,2.08,4.89.14q9.26-9.52,18.78-18.77c2-1.9,1.63-3.15-.15-4.89-6.24-6.1-12.36-12.32-18.53-18.49A4.61,4.61,0,0,0,254.47,55.15ZM52,172.3c1.33-3.91,2.22-6.88,3.34-9.76s.18-3.95-2.76-3.72c-1.11.09-2.24,0-3.35.1-1.26.1-1.82.87-1.43,2.05C48.92,164.46,49.73,168.09,52,172.3Zm265-.13c1.21-3.49,2.2-6.23,3.11-9,1.36-4.12,1.18-4.34-3.32-4.33-.75,0-1.5,0-2.24,0-1.38.07-2.19.73-1.71,2.16C313.93,164.51,314.68,168.14,316.93,172.17Z"/></g></g></svg>