<svg xmlns="http://www.w3.org/2000/svg" viewBox="0 0 368.64 340.71"><defs><style>.cls-1{fill:#fff;}</style></defs><g id="Layer_2" data-name="Layer 2"><g id="Layer_1-2" data-name="Layer 1"><path class="cls-1" d="M.08,216.24q0-50.71,0-101.41c0-13.15,8.06-21.2,21.19-21.23,5.86,0,11.73-.09,17.59,0,2.64.05,4.48-.62,5.64-3.24a11.73,11.73,0,0,1,6.89-6.53c3-1,3.63-3,3.36-5.77-.55-5.7-1.11-11.41-1.46-17.12C53,55.85,54.91,51.68,59.45,49c2.83-1.66,2.24-4.29,1.84-6.66S58.61,40.6,57,40.57c-4.49-.09-9,.06-13.47-.07-6.21-.19-9.26-4.76-7-10.49,3.32-8.34,6.8-16.62,10.12-25,1.43-3.61,3.9-5.13,7.8-5,7.23.17,14.47.16,21.7,0a7.33,7.33,0,0,1,7.58,4.92c3.45,8.28,6.94,16.56,10.12,25,2.3,6-.9,10.49-7.32,10.62-3.86.08-7.73,0-11.6.05-1.53,0-3.62-.56-4.11,1.57S69.65,47,72,48.32c6.44,3.74,7.42,9.53,6.78,16.13-.43,4.46-.71,8.94-1.29,13.38-.36,2.7.06,4.51,3,5.5A15.12,15.12,0,0,1,89,91.27c.66,1.32,1.41,2.46,3.1,2.1,1.85-.39,1.63-2,1.65-3.31,0-3.87-.07-7.74.07-11.6.24-6.79,2.07-9,8.73-10.3,2.24-.44,2.35-1.87,2.35-3.55,0-4.49,0-9,0-13.48.08-5.87,2.58-8.39,8.53-8.4q41.91,0,83.82,0c5.4,0,7.93,2.58,8,8.1.08,5.86.06,11.73,0,17.59,0,5.34-1.74,7.69-6.95,8.5-3,.46-3.7,1.83-3.58,4.47.13,3,.08,6,0,9,0,2.17.87,3.27,3.1,3.21,1.24,0,2.49,0,3.74,0,48.27,0,96.55.27,144.82-.17a21.57,21.57,0,0,1,22.19,22.1c-.35,71.6-.14,143.2-.13,214.8a27,27,0,0,1-.22,4.85,4.42,4.42,0,0,1-8.76-.08,30.09,30.09,0,0,1-.2-4.85l0-172.14c0-6,0-6-5.92-6H161.84c-5.89,0-5.89,0-5.89,6,0,52.89-.24,105.78.2,158.66.13,14.9-10.81,22.54-22.69,22.47-37.05-.19-74.1,0-111.14-.08-8.09,0-14.92-2.63-19.48-9.74A19.68,19.68,0,0,1,0,318.4q.08-51.09,0-102.16Zm184-73.24H354.37c4.94,0,5-.05,5-5q0-10.29,0-20.58a41.43,41.43,0,0,0-.13-5.23c-.82-6.27-5.24-9.49-13-9.49H179q-78.59,0-157.15,0c-8.64,0-12.64,4-12.67,12.56,0,7.36,0,14.72,0,22.08,0,5.68,0,5.68,5.84,5.68ZM78.36,243.38c-21.46,0-42.92.06-64.37-.06-3.43,0-4.87.83-4.84,4.58.14,23.2,0,46.4.08,69.61,0,7.84,4.17,11.94,12.11,11.95q56.69,0,113.39,0c7.92,0,12-4.14,12-12,0-23.08-.06-46.15.08-69.23,0-3.73-1.06-5-4.88-5C120.77,243.46,99.56,243.38,78.36,243.38ZM78,233.65c21.32,0,42.65-.08,64,.07,3.82,0,4.9-1.21,4.88-4.95q-.19-35.91,0-71.83c0-3.8-1.17-4.89-4.92-4.88q-64,.16-128,0c-3.78,0-4.91,1.14-4.89,4.91q.24,35.91,0,71.83c0,3.75,1.08,5,4.88,4.93C35.35,233.57,56.67,233.65,78,233.65ZM155.1,51.72c-12.35,0-24.7.06-37,0-3,0-4.38,1-4.18,4.13.16,2.48,0,5,0,7.48,0,4.65.2,4.84,4.87,4.84q30.67,0,61.37,0c4.24,0,8.48,0,12.72,0,2.32,0,3.47-.92,3.41-3.33-.07-2.86-.16-5.75,0-8.6.25-3.44-1.15-4.59-4.55-4.55C179.55,51.8,167.32,51.72,155.1,51.72ZM136.74,93.59c10,0,20-.08,29.93,0,3.05,0,4.36-1,4.17-4.12a68.48,68.48,0,0,1,0-8.23c.19-3.1-1.13-4.18-4.17-4.14-9.23.12-18.46,0-27.69,0-10.48,0-21,.09-31.44,0-3,0-4.37,1-4.19,4.12a68.48,68.48,0,0,1,0,8.23c-.19,3.13,1.18,4.15,4.2,4.11C117.28,93.52,127,93.59,136.74,93.59ZM65,31.54c5.48,0,11,0,16.43,0,2.42,0,3.16-.79,2.15-3.15-2.33-5.5-4.57-11-6.77-16.59A3.8,3.8,0,0,0,72.91,9q-7.65.06-15.3,0a3.86,3.86,0,0,0-4,2.66c-2.19,5.55-4.36,11.12-6.69,16.62-1.16,2.75.06,3.26,2.45,3.24C54.57,31.51,59.79,31.54,65,31.54ZM69.73,63c.11-5-1-6.79-3.78-6.6S62,58.81,62.39,63c.26,2.59.48,5.18.72,7.77.28,3,.52,5.93.86,8.88.15,1.28.61,2.51,2.19,2.57s1.91-1.23,2-2.53C68.71,74,69.24,68.32,69.73,63Zm116,22.48h0c0-1.86,0-3.72,0-5.57s-1-2.65-2.79-2.67-3,.57-3,2.48c0,3.71,0,7.42,0,11.13,0,2.07,1.32,2.74,3.21,2.71s2.56-1.15,2.55-2.89S185.71,87.19,185.71,85.46Zm-107,7.8C75,90.73,57.3,90.85,55,93.26Z"/><path class="cls-1" d="M258.08,340.7q-22.26,0-44.51,0c-14.75,0-22.64-7.92-22.64-22.61,0-20.45,0-40.9,0-61.35,0-2.73-.57-4.44-3.33-5.85-8.18-4.16-10.35-14.19-5.21-23,4.22-7.24,10.68-11.33,19-11.36q55.37-.24,110.73,0c13.49.08,24,12.54,21.54,24.56a13.29,13.29,0,0,1-5.29,8.32c-2.18,1.61-2.72,3.55-2.71,6.11q.09,31,0,62.09c0,15.12-8,23.11-23.13,23.12Zm0-88.23c-18,0-35.92,0-53.88,0-2.69,0-4.15.54-4.14,3.69.1,21.07,0,42.15.1,63.23,0,7.8,4.14,11.59,12,11.6q46.22,0,92.41,0c7.77,0,11.42-3.7,11.43-11.5,0-20.7-.06-41.41.08-62.11,0-3.7-1-5-4.85-5C293.52,252.57,275.81,252.47,258.1,252.47Zm-1.62-9.19H292c8.85,0,17.7.07,26.55,0,4.6-.06,6.51-2.56,5.76-7.07-1-6.08-5.54-9.95-12.07-10-11.47-.09-22.94,0-34.41,0-25.18,0-50.36,0-75.54,0-5.05,0-9,1.68-11.55,6.14-3.73,6.5-1.17,11,6.27,11Z"/><path class="cls-1" d="M184.64,112.48c3.23,0,6.47-.15,9.69,0,3,.18,5.55,1.52,5.44,4.91-.11,3.13-2.61,4.47-5.44,4.53-6.7.15-13.42.17-20.12,0-3-.08-5.55-1.51-5.44-4.9.11-3.13,2.61-4.41,5.44-4.55C177.68,112.35,181.17,112.48,184.64,112.48Z"/><path class="cls-1" d="M132,286.91a31.48,31.48,0,0,1-.53,4.79,4.11,4.11,0,0,1-4.35,3.36,4.31,4.31,0,0,1-4.45-3.27,20,20,0,0,1-.24-8.88c.45-2.56,1.91-4.43,4.78-4.28s4.36,2.09,4.58,4.92c.09,1.11,0,2.23,0,3.35Z"/><path class="cls-1" d="M131.9,187.94c0,6.57-1.4,8.91-4.66,9s-5.06-2.76-5-8.08a25.28,25.28,0,0,1,.34-4.43,4.36,4.36,0,0,1,4.65-3.92c2.7,0,4.06,1.66,4.49,4.09A20.47,20.47,0,0,1,131.9,187.94Z"/></g></g></svg>