<svg xmlns="http://www.w3.org/2000/svg" viewBox="0 0 369.73 194.74"><defs><style>.cls-1{fill:#fff;}</style></defs><g id="Layer_2" data-name="Layer 2"><g id="Layer_1-2" data-name="Layer 1"><path class="cls-1" d="M183.74,0q68.47,0,137,0a67.43,67.43,0,0,1,10.05.8c8.77,1.34,15.68,9.47,15.77,18.75q.18,18.33,0,36.67c0,3.16.71,4.83,4,5.94,12.08,4.09,18.95,14,19,28.36.24,31.93.12,63.86.06,95.8,0,6-2.58,8.37-8.52,8.39q-20.22.06-40.42,0c-5.83,0-7.93-2.11-8-7.88-.05-7.48-.19-15,.06-22.45.13-3.75-1-5-4.85-4.94-24.69.14-49.39.07-74.09.07H62.47c-5.49,0-5.5,0-5.5,5.62,0,7.36,0,14.72,0,22.07,0,5.3-2.23,7.48-7.58,7.51-13,.06-25.94,0-38.92,0C1.87,194.72,0,192.83,0,184.08q0-44.71,0-89.44c0-2.85.24-5.72.51-8.57,1-11.25,7-19,17.23-23.39,2.9-1.25,3.93-2.75,3.89-5.82-.13-11.47,0-23,0-34.43C21.64,8.48,28.71,1,42.66.08c1.49-.09,3,0,4.49,0Zm.86,150.28h0q61.53,0,123.06,0c5,0,5.06,0,5.07-4.92q0-19.27,0-38.53c0-5.09-.07-5.14-5.29-5.16-25.92-.06-51.84-.26-77.76-.43-56.11-.38-112.22-.1-168.33-.19-3.43,0-4.53,1.1-4.49,4.52.16,13.09.07,26.18.08,39.28,0,5.4,0,5.42,5.33,5.42ZM83.77,9.66q-20.56,0-41.14,0c-8,0-11.91,3.9-11.94,11.91,0,11.1.16,22.19-.07,33.28-.08,3.87.86,5.63,5,6.55,12.67,2.83,21,13.37,21.26,26.4.07,3.3,1.21,4.28,4.41,4.26q32.16-.15,64.32,0c3.56,0,4.76-1.13,4.75-4.72-.13-24.31-.07-48.61-.09-72.92,0-4.53-.26-4.76-5-4.77Q104.53,9.63,83.77,9.66Zm201.37,0c-14.08,0-28.16.05-42.24,0-3,0-4.22,1-4.21,4.1q.15,37.2.07,74.4c0,2.91,1.05,3.95,3.94,3.94q33.09-.12,66.18,0c2.91,0,3.85-1.07,3.94-4,.41-13.38,8.07-23.17,20.94-26.7,2.83-.77,3.79-2.09,3.77-4.94-.11-11.59,0-23.18,0-34.77,0-8-4.06-12-12-12C312.06,9.63,298.6,9.66,285.14,9.66Zm-100.3,0h-40c-4.68,0-4.91.23-4.91,4.83,0,24.2.1,48.4,0,72.6,0,3.69,1,5,4.85,5q40.05-.19,80.08,0c3.76,0,4.95-1.11,4.93-4.9-.14-24.19-.06-48.39-.07-72.59,0-4.81-.13-4.92-5.16-4.93ZM360,134.39h0c0-15.22,0-30.43,0-45.65,0-10.92-8.05-19-18.84-19.08A18.9,18.9,0,0,0,322,88.55c-.11,31.05,0,62.11-.07,93.16,0,3,1.15,3.89,4,3.85,9.73-.1,19.46,0,29.18,0,4.87,0,4.91-.05,4.92-5.11Q360,157.4,360,134.39ZM9.7,134.26h0c0,15.71,0,31.42-.05,47.14,0,3,.93,4.22,4.08,4.17q15-.21,29.92,0c3.06.05,4.15-1,4.14-4.09-.08-30.92,0-61.85-.07-92.78a19.09,19.09,0,0,0-19.08-19C17.73,69.7,9.74,77.8,9.71,89,9.67,104.08,9.7,119.17,9.7,134.26Z"/></g></g></svg>