<svg xmlns="http://www.w3.org/2000/svg" viewBox="0 0 368.52 320.58"><defs><style>.cls-1{fill:#fff;}</style></defs><g id="Layer_2" data-name="Layer 2"><g id="Layer_1-2" data-name="Layer 1"><path class="cls-1" d="M.06,209.08q0-27.32,0-54.64C.07,143.3,5.74,136,16.6,133.62c2.74-.6,3.56-1.73,3.95-4.33,5-33.37,20.42-61.34,45-84.07C92.74,20.15,125.13,6.1,161.72,1.53c30.42-3.81,60.14-.65,88.45,11.05,50.82,21,85.09,56.78,96.92,111.8a5.36,5.36,0,0,1,.22,1.1c.05,5,1.73,7.77,7.34,9.07,8.9,2.07,13.83,9.72,13.84,19q0,55.39,0,110.77c0,12.17-8.39,20.7-20.59,21a19,19,0,0,1-2.61,0c-2.82-.27-4.25.76-4.87,3.73-1.72,8.18-3.79,16.27-5.68,24.41-1.28,5.54-3.07,7-8.79,7.07-5.24,0-10.47,0-15.71,0-6,0-7.49-1.11-8.87-6.85-2-8.13-3.94-16.24-5.68-24.41-.65-3-2-4-5.09-4q-106.27.1-212.55,0c-3.28,0-4.61,1.14-5.27,4.23C71,297.81,69,306.05,67,314.29c-1.19,4.9-2.87,6.21-7.83,6.25-5.74,0-11.47.06-17.21,0-5,0-6.91-1.67-8.07-6.55-1.77-7.53-3.51-15.06-5.32-22.58-1.48-6.16-.28-6-7.44-6.08a21.44,21.44,0,0,1-16.31-7.12,18.5,18.5,0,0,1-4.83-13c.09-18.71,0-37.42,0-56.13Zm166.14,3.45c-4.3-5.8-7.94-10.68-11.56-15.58-2.29-3.11-4.65-6.18-6.81-9.38a4.09,4.09,0,0,1,1-6c2.07-1.61,4.2-1.39,6.06.46a27.38,27.38,0,0,1,2.43,2.84c5.18,6.87,10.8,13.47,15.34,20.74,3.61,5.77,8,7.81,14.5,7,2.39-.31,4.13-.8,5.62-2.87,5-7,10.25-13.82,15.42-20.7,1.8-2.38,3.63-4.75,5.58-7a3.76,3.76,0,0,1,4.41-1.18,5,5,0,0,1,3.22,3.85c.38,1.92-.82,3.33-1.85,4.72-4.66,6.33-9.38,12.61-14,19-.76,1-2.34,2-1.61,3.47.62,1.24,2.27.66,3.46.66,33.67,0,67.35,0,101,.09,3.68,0,4.65-1.27,4.62-4.77-.13-18-.07-35.92,0-53.88,0-11.93,8.47-20.47,20.42-20.69,5.79-.11,5.79-.11,4.82-5.91-.06-.37-.15-.73-.23-1.09-9.14-44.91-35.56-76.78-75.25-98C231.6,11.59,198.1,6.06,163.1,10.49c-40.21,5.1-74.67,21.64-101.76,52.29A128.59,128.59,0,0,0,30.25,127.7c-.92,5.43-.87,5.43,4.8,5.54,12.15.21,20.52,8.73,20.54,21,0,17.71,0,35.42,0,53.13,0,5.18,0,5.2,5.17,5.2H166.2Zm17.69,63.63q79.16,0,158.29,0a41.72,41.72,0,0,0,6.71-.43c7.21-1.2,10.42-5,10.43-12.26q0-54.43,0-108.89c0-7.42-4.34-11.89-11.77-12.16-4-.14-8-.06-12,0-9.16.06-13.49,4.41-13.49,13.61q0,27.89,0,55.76c0,7.29-2.63,10-9.85,10h-256c-7.24,0-9.87-2.7-9.88-10,0-19,0-37.92,0-56.88,0-7.74-4.61-12.32-12.33-12.49-3.87-.08-7.74,0-11.6,0-9.08.07-13.3,4.28-13.3,13.29q0,53.33,0,106.65c0,9,3.71,13,12.64,13.76,1.61.14,3.24.08,4.86.08Zm-133,9.2c-3.23,0-6.47.14-9.69-.05s-4.36.68-3.38,4c1.09,3.69,1.81,7.49,2.71,11.24,2.74,11.33,2.74,11.33,14.47,10.81a2.29,2.29,0,0,1,.37,0c1.93.14,2.91-.73,3.35-2.66q2.31-10.18,4.85-20.31c.6-2.41-.31-3.13-2.61-3.06C57.57,285.44,54.21,285.36,50.85,285.36Zm267.32,0c-3.6,0-7.21.07-10.81,0-2.25-.06-2.87.84-2.35,3,1,4.1,1.94,8.23,2.92,12.34,2.72,11.37,2.72,11.31,14.52,10.78,2.26-.1,3.39-1,3.87-3.12,1.5-6.67,3-13.33,4.64-20,.51-2.14-.14-3-2.34-3C325.14,285.42,321.65,285.37,318.17,285.36Z"/></g></g></svg>