<svg xmlns="http://www.w3.org/2000/svg" viewBox="0 0 295.45 368.36"><defs><style>.cls-1{fill:#fff;}</style></defs><g id="Layer_2" data-name="Layer 2"><g id="Layer_1-2" data-name="Layer 1"><path class="cls-1" d="M147.79.05q62.86,0,125.75,0c9,0,16.12,3.15,19.64,11.52,3.65,8.67,3.12,17.47-3.17,25a17.38,17.38,0,0,1-13.19,6.17c-3.87.11-7.74.14-11.6,0-3-.09-4.06,1.1-3.77,4q2.9,29.19,5.7,58.38c1.4,14.76,2.64,29.53,4,44.29,1.62,17.37,3.32,34.73,4.95,52.09,1.37,14.64,2.67,29.28,4,43.92q2.08,22.52,4.19,45,2,22.14,4,44.29c.81,9.06,1.62,18.12,2.38,27.18.33,3.95-1.08,6.1-4,6.41s-4.85-1.69-5.24-5.85q-3.75-40.58-7.46-81.14c-.22-2.52-1.23-3.63-3.72-3.48-.87,0-1.75,0-2.62,0H28.55c-6.36,0-6.15,0-6.7,6.44-1.26,14.89-2.74,29.77-4.14,44.65-1.05,11.29-2,22.58-3.19,33.86-.41,4-2.31,5.93-5.14,5.5-3.72-.57-4.33-3.34-4.06-6.45,1-12.29,2.18-24.57,3.26-36.86,1.51-17.12,3.17-34.22,4.58-51.36,1-12.4,2.42-24.78,3.58-37.19,1.37-14.63,2.86-29.26,4.22-43.89,1.39-14.89,2.64-29.79,4-44.67q4.05-43.71,8.17-87.4c.43-4.58.92-9.17,1.4-13.75.31-2.86-.85-4.14-3.81-4-3.62.14-7.24,0-10.86,0C8.36,42.62.58,34.36,0,22.81-.6,9.44,7.65,1.87,16.08.41a34.83,34.83,0,0,1,6-.35Q84.91,0,147.79.05Zm.11,268.6q59.88,0,119.76,0c4.72,0,5.17-.43,4.78-4.73q-1.49-16.38-3-32.75c-2.41-25.67-5-51.33-7.15-77-.55-6.47-.7-5.84-6.66-5.85H43.79c-9,0-9.23,0-10.11,8.69-1.81,17.84-3.39,35.71-5,53.58-1.6,17.49-3.1,35-4.74,52.48-.53,5.61-.68,5.6,5,5.6Q88.4,268.67,147.9,268.65Zm-.2-129.46H255.11c5.55,0,5.92-.47,5.36-6q-1.46-14.32-2.79-28.64c-1.74-18.85-3.59-37.7-5.06-56.57-.49-6.2-1.83-5.21-6.22-5.21q-97.5,0-195,0c-6.65,0-8.28-1.25-8,7.26a16.83,16.83,0,0,1-.27,1.85q-2,22.14-4,44.28C38,108.55,36.91,121,35.66,133.35c-.56,5.44-.42,5.84,5,5.84Zm-.12-105.45q63.22,0,126.44,0c4.83,0,8.76-1.42,10.78-5.87,2.15-4.75,2.24-9.76-.71-14.3C281.61,9.79,277.69,9,273.3,9Q147.6,9.08,21.91,9c-1,0-2,0-3,.05-4.56.37-8.72,3.78-9.52,8.22C7.65,27.07,11.76,34,22.27,33.87,64,33.56,105.81,33.74,147.58,33.74Z"/></g></g></svg>