<svg xmlns="http://www.w3.org/2000/svg" viewBox="0 0 368.43 319.24"><defs><style>.cls-1{fill:#fff;}</style></defs><g id="Layer_2" data-name="Layer 2"><g id="Layer_1-2" data-name="Layer 1"><path class="cls-1" d="M74.64,85.42c-3.26-4.55-6.12-8.19-7.47-12.66-.71-2.39-1.77-4.81-1.79-7.23,0-3.81-1-6-5.08-7.17S54.63,52,56.35,47.29c3.86-10.54,7.88-21,11.86-31.52C69.58,12.16,71,8.55,72.45,5a7.55,7.55,0,0,1,7.6-5q17,0,34.06,0a7.9,7.9,0,0,1,8,5.51c5.29,13.87,10.62,27.72,15.71,41.66,2.13,5.85,0,9.92-6,12a3.26,3.26,0,0,0-2.44,3.24c-.82,7.46-3.14,14.35-7.91,20.28-1.75,2.18-.68,2.77,1.53,2.75,1.12,0,2.25,0,3.37,0q115.46,0,230.92,0a32.39,32.39,0,0,1,5.22.18c3.48.57,5.72,2.58,5.75,6.27.08,9,.13,18,0,26.95-.07,4.25-2.33,6.3-6.68,6.33-12,.06-23.95,0-35.93,0-8.17,0-7.56-.69-7.56,7.38q0,87.57,0,175.15a27.23,27.23,0,0,1-.38,5.57,4.14,4.14,0,0,1-4.28,3.47,4.24,4.24,0,0,1-4.66-3.48,20.93,20.93,0,0,1-.38-4.82q0-35.55,0-71.11c0-5-.07-5.07-5-5.07q-119.58,0-239.15,0c-5.07,0-5.08,0-5.08,5.31q0,36.67,0,73.35a27.4,27.4,0,0,1-.09,3.74c-.37,2.84-2,4.69-4.93,4.56s-4.12-2-4.15-4.79c0-1.37,0-2.74,0-4.12q0-89.44,0-178.89c0-6.24,0-6.25-6.16-6.25-12.1,0-24.2,0-36.3,0-5.67,0-7.58-1.94-7.62-7.7,0-7.73,0-15.47,0-23.2,0-6.8,2.06-8.83,9-8.84q30.14,0,60.26,0Zm109.58,30.64h168c1.24,0,2.49-.07,3.74,0,2.4.12,3.36-1,3.32-3.36q-.1-7.11,0-14.22c0-2.36-.95-3.49-3.33-3.39-1.12,0-2.25,0-3.37,0H15.79c-1.12,0-2.24.05-3.36,0-2.4-.1-3.37,1-3.33,3.39.07,3.87,0,7.74,0,11.61,0,6,0,6,5.94,6Zm-.35,107H303.22c5.22,0,5.25,0,5.25-5.18q0-43.78,0-87.55c0-5.1-.05-5.15-5.3-5.15q-119.35,0-238.71,0c-5.22,0-5.24,0-5.24,5.17q0,43.79,0,87.56c0,5.13,0,5.15,5.24,5.15ZM97.24,50.23c9.48,0,19-.06,28.43,0,2.84,0,3.49-.75,2.44-3.48q-6.57-17.1-12.84-34.33c-1-2.69-2.61-3.54-5.34-3.51-8.48.12-17,.14-25.44,0-2.93,0-4.52.93-5.54,3.76-4.11,11.37-8.38,22.68-12.68,34-1,2.73-.23,3.6,2.54,3.58C78.29,50.19,87.77,50.23,97.24,50.23ZM96.9,85.4c12.13,0,22.77-10.6,23.06-22.91.06-2.26-.61-3.21-2.89-3.2q-19.81,0-39.65,0c-2.43,0-3.25,1.12-3.2,3.47C74.46,74.67,85.12,85.35,96.9,85.4Z"/><path class="cls-1" d="M182.4,134.76H283.79c8.64,0,11.22,2.57,11.23,11.12q0,26.94,0,53.87c0,8.1-4.08,12.17-12.05,12.17H82.08c-8,0-12.25-4-12.3-12q-.18-27.31,0-54.62c0-7.72,3.09-10.49,10.85-10.49Zm.19,9.14h-98c-5.14,0-5.16,0-5.16,5.27,0,16.08.11,32.17-.06,48.25-.05,3.87,1.35,4.87,5,4.84,21.2-.13,42.4-.06,63.59-.06H280c5.08,0,5.14-.19,5.34-4.81.69-15.95.49-31.9.51-47.85,0-5.57-.05-5.63-5.65-5.63Z"/><path class="cls-1" d="M194.68,169.63c0,5.46-4.77,10.46-10.13,10.56a10.8,10.8,0,0,1-10.79-10.28c-.15-5.5,4.86-10.49,10.5-10.46A10.71,10.71,0,0,1,194.68,169.63Z"/></g></g></svg>