<svg xmlns="http://www.w3.org/2000/svg" viewBox="0 0 368.49 273.91"><defs><style>.cls-1{fill:#fff;}</style></defs><g id="Layer_2" data-name="Layer 2"><g id="Layer_1-2" data-name="Layer 1"><path class="cls-1" d="M184.33,178.85H356.84c1.37,0,2.75,0,4.12,0,5.08.23,7.49,2.66,7.5,7.77q.06,26,0,52c0,9.11,0,18.21,0,27.32,0,5.4-2.31,7.71-7.7,7.92-1.12,0-2.24,0-3.36,0q-173.27,0-346.52,0a42,42,0,0,1-4.49-.09C2.32,273.37,0,271,0,266.91Q0,226.31,0,185.71c0-3.81,2.38-6.28,6.17-6.74a39.34,39.34,0,0,1,4.86-.12ZM94.8,230.59c-27,0-54.11,0-81.16-.06-3.4,0-4.61,1-4.52,4.47.2,8.35.16,16.71,0,25.06-.06,3.06,1,4.16,4.1,4.16q81.16-.11,162.33,0c3.07,0,4.18-1.05,4.12-4.14-.15-8.1,0-16.2-.05-24.31,0-5.16,0-5.18-5.17-5.18Zm179.3,33.59h80c5.13,0,5.14,0,5.15-5.25,0-8.11-.11-16.21,0-24.31.07-3.14-1.11-4.07-4.15-4.07q-81.17.11-162.33,0c-3.11,0-4.13,1.07-4.08,4.13.15,8.1.05,16.21.06,24.31,0,5.17,0,5.19,5.21,5.19Zm-90-75.61c-18.2,0-36.41,0-54.62,0-2.92,0-4.34.74-4.28,4,.16,8.35.14,16.71,0,25.06,0,3,1.12,3.86,4,3.86q55-.1,110,0c3.12,0,4.15-1.08,4.09-4.14-.14-8-.22-16,0-23.94.12-3.83-1.22-4.9-5-4.87C220.27,188.66,202.19,188.57,184.1,188.57ZM62.62,221.4c16.46,0,32.91-.06,49.36,0,3.09,0,4.17-1,4.12-4.12q-.22-12.33,0-24.68c.05-3.09-1.08-4.13-4.14-4.12q-49.36.1-98.73,0c-3.1,0-4.15,1.09-4.09,4.15.14,8.1.19,16.21,0,24.31-.09,3.46,1.12,4.5,4.52,4.47C30,221.32,46.29,221.4,62.62,221.4Zm243.24-32.83c-16.33,0-32.66.08-49-.06-3.43,0-4.58,1.13-4.5,4.54.19,8.1.16,16.21,0,24.31-.06,3.11,1.08,4.09,4.14,4.08q49.35-.1,98.72,0c3.09,0,4.16-1,4.1-4.11-.15-8-.22-16,0-23.93.12-3.79-1.13-4.95-4.9-4.91C338.27,188.67,322.06,188.57,305.86,188.57Z"/><path class="cls-1" d="M184.29,168.29H58.58a36.29,36.29,0,0,1-5.22-.21c-4-.57-5.91-2.79-6.15-6.77-.07-1.12,0-2.24,0-3.37q0-73.89.07-147.78C47.25,1.93,49.15,0,57.36,0H311c8.3,0,10.21,1.89,10.21,10q0,74.09.07,148.16c0,8.17-1.89,10.07-10.18,10.07Zm-.1-158.68H61.82c-5.55,0-5.56,0-5.56,5.67q0,68.86.08,137.72c0,5.57,0,5.58,5.57,5.58H306.66c5.46,0,5.48,0,5.48-5.3q0-69,.07-138.09c0-5.56,0-5.58-5.64-5.58Z"/><path class="cls-1" d="M97.72,245.52c-2.48,0-5,.07-7.44,0-3-.11-5.1-1.61-5.12-4.72s2.1-4.34,4.94-4.38q7.44-.09,14.88,0c3,0,5.14,1.43,5.08,4.64s-2.29,4.45-5.27,4.49c-2.36,0-4.72,0-7.07,0Z"/><path class="cls-1" d="M269.05,245.93a67.42,67.42,0,0,1-7.79-.08c-2.55-.3-4.46-1.81-4.36-4.67s2-4.56,4.82-4.64c5.08-.14,10.18-.17,15.25,0,2.77.11,4.67,1.67,4.67,4.74,0,2.91-1.81,4.33-4.42,4.56S271.78,245.93,269.05,245.93Z"/></g></g></svg>