<svg xmlns="http://www.w3.org/2000/svg" viewBox="0 0 213.26 368.18"><defs><style>.cls-1{fill:#fff;}</style></defs><g id="Layer_2" data-name="Layer 2"><g id="Layer_1-2" data-name="Layer 1"><path class="cls-1" d="M100,278.5c-20.58,0-41.16.06-61.74-.07-3.5,0-5,.9-5.59,4.6-3.49,23.42-7.23,46.81-10.89,70.2-.09.62-.18,1.24-.29,1.85-.83,4.72-4.7,6.37-8.78,3.76-1.74-1.11-.89-2.73-.69-4.08,1.81-12,3.7-23.9,5.57-35.84q2.94-18.85,5.87-37.69c.17-1.11.65-2.43-.37-3.17-4-2.94-3.78-7.42-4.14-11.54-1.2-13.9-2.14-27.82-3.26-41.73-1.38-17.26-2.86-34.51-4.23-51.77-1.12-14-2.1-28.07-3.22-42.1C6.89,113.54,5.4,96.17,4,78.79,2.91,64.52,2,50.22.79,36A122.46,122.46,0,0,1,.11,18.41C.48,12,3.19,6.47,8.58,2.89c9.35-6.2,20.66-2.05,25,8.8,1.56,3.9,1.91,8,2.25,12.09,1.44,16.87,2.62,33.77,4,50.65s2.88,33.5,4.26,50.25c1.13,13.78,2.15,27.57,3.22,41.35.25,3.23.71,6.46.71,9.69,0,3,1.34,3.82,4.12,3.8,12.72-.09,25.45,0,38.17,0,15.22,0,30.46.52,45.65-.13,18.52-.79,30.74,11.64,36.3,24.49a56.64,56.64,0,0,1,4.52,22.58c0,3.25.13,6.49,0,9.73-.14,2.94,1.06,4,3.95,3.92,7.86-.12,15.72,0,23.57,0,8.82,0,9.78,1.12,8.58,9.84a37.13,37.13,0,0,1-8,19.06c-5,6.1-11.32,9.54-19.4,9.58-9.79.05-8.63-1.38-8.65,8.84q-.06,36.48,0,73c0,5.46-1.45,7.82-4.77,7.86s-4.93-2.55-4.94-7.81q0-38.36,0-76.72c0-5.13,0-5.15-5.28-5.15Zm-2.32-9.2h64.36c4.86,0,5-.11,5-5.08q0-4.66,0-9.35c0-5.61,0-5.63-5.57-5.63H53.72c-1.37,0-2.74,0-4.11,0-3.23-.14-5.1-1.78-5.37-5.05q-1.17-14.16-2.3-28.31-1.62-20.49-3.23-41c-1.14-14.4-2.32-28.8-3.46-43.2C34.15,117.88,33.1,104.1,32,90.32q-1.72-22-3.48-43.94c-.75-9.31-1.44-18.63-2.41-27.91C25.58,13.3,21.29,8.89,17.5,9c-4.28.12-8.11,4.83-8.44,10.39,0,.37,0,.75,0,1.12-.33,6.5.56,13,1,19.4,1.26,16.76,2.85,33.5,4.22,50.25s2.59,33.77,4,50.65c1.62,19.86,3.38,39.71,5,59.57,1.78,21.47,3.57,42.95,5.13,64.44.26,3.6,1.49,4.57,5,4.55C54.81,269.23,76.26,269.3,97.71,269.3ZM109.87,240H163c1.89,0,4,.16,4-2.63-.12-8.2.95-16.49-1.46-24.54C161.24,198.51,152,188,134.14,188.51c-20.18.57-40.4.13-60.59.13-6.74,0-13.47.1-20.2,0-2.94-.06-4.11,1.08-3.84,4,.33,3.47.51,7,.79,10.43.9,10.92,1.92,21.83,2.67,32.76.23,3.43,1.66,4.33,4.91,4.31C75.21,240,92.54,240,109.87,240Zm80.39,9.21h0c-3.49,0-7,0-10.48,0-2,0-3,.86-3,2.91,0,4.73,0,9.47,0,14.21,0,1.74.66,2.67,2.58,2.93,11.58,1.57,21.2-5.36,23.51-16.92.48-2.37-.17-3.22-2.54-3.16C197,249.31,193.62,249.24,190.26,249.24Z"/></g></g></svg>