<svg xmlns="http://www.w3.org/2000/svg" viewBox="0 0 171 368.71"><defs><style>.cls-1{fill:#fff;}</style></defs><g id="Layer_2" data-name="Layer 2"><g id="Layer_1-2" data-name="Layer 1"><path class="cls-1" d="M119.34,261.94q0,46.21,0,92.44c0,5.18,0,5.24,5.21,5.24H161.6a21,21,0,0,1,3.73.18c2.29.42,4,1.64,4,4.2,0,2.74-1.71,4-4.16,4.44a19.81,19.81,0,0,1-3.36.15L11,368.71H9.14c-3,0-5.13-1.28-5.41-4.47-.23-2.74,2-4.66,5.56-4.67,12.6-.06,25.2,0,37.8,0,5.55,0,5.56,0,5.56-5.59q0-91.5.08-183c0-4-1.36-5.92-4.86-7.65A86.13,86.13,0,0,1,77.89.38C123-4,165,29.78,170.32,74.7c4.5,37.61-13.57,71.69-47.21,88.73-2.75,1.4-3.72,3-3.71,6.07.09,30.81,0,61.63,0,92.44ZM85.69,162.73a76,76,0,0,0,76-76.71c-.1-43.07-34-76.15-76-76.53S9.09,44.13,9.44,86.5C9.81,130.14,45.35,163.13,85.69,162.73Zm24.63,101.63h-.07q0-45.65,0-91.29c0-4.2-.22-4.39-4.24-3.35a81.12,81.12,0,0,1-39.59.3c-3.27-.77-4.1-.1-4.1,3.2q.11,90.92,0,181.82c0,3.36,1,4.63,4.49,4.58,12.72-.14,25.44,0,38.16,0,5.36,0,5.37,0,5.37-5.45Z"/><path class="cls-1" d="M150.05,103.81a34.17,34.17,0,0,1-.83,8.56c-1.44,7.8-8.22,11-15.06,7C123.05,112.94,112,106.47,101,99.85c-2.73-1.65-4-1.66-6.74.85-3.75,3.5-3.6,6.72-2.95,11.15,1.47,10,.33,19.72-6.12,28.09-5.54,7.18-12.61,10.8-21.88,8.87-14.78-3.07-27.32-10.1-37-21.76-5.8-7-3.26-13.93,5.49-16.57C43.37,107,54.9,103.34,66.5,99.9c2.89-.85,3.53-1.82,3.15-5.16-.51-4.54-2.61-6.15-6.45-7.68-9-3.59-16.56-9.22-20.87-18.31-4.73-10-3.24-19.45,4.73-27,10.48-9.94,22.82-16.42,37.26-18.47C92.89,22,98.13,28.08,95.86,36.45,92.54,48.72,89.19,61,86,73.29c-.39,1.46-1.69,3.25,1.06,4.3,2.38.92,3.64.64,5.18-1.6,4.73-6.87,10.46-12.81,18.42-15.91,8.82-3.43,17.54-4,25.38,2.55,3.43,2.84,5.56,6.73,7.38,10.71C147.79,83,149.69,93.25,150.05,103.81Zm-9.69-1.27a58.12,58.12,0,0,0-7.45-28.82c-3.4-6-8.16-7.86-14.88-6.18-8.79,2.19-14.6,8.14-19.37,15.47-1.68,2.58-1.34,4,1.39,5.55,10.71,6.12,21.27,12.52,32,18.65,2.39,1.37,5,4.74,7.35,3.3S140,105.17,140.36,102.54ZM49.07,58.4c.12.57.33,2.05.72,3.48C52.29,71,63,78.09,71.94,80.12c2,.46,2.59-1.06,3-2.56,3.79-14,7.54-27.93,11.35-41.89.78-2.83-.51-3.42-2.87-2.88-12.07,2.76-22.76,8.08-31.27,17.27A11,11,0,0,0,49.07,58.4Zm18.12,81.37c4.55-.13,5.91-.73,9-3.9,6.52-6.68,7.63-18.57,4.67-27.85-.58-1.81-1.81-2.2-3.52-1.66q-4.09,1.29-8.21,2.55Q52.68,114,36.24,119c-1.74.54-3.78,1.21-1.64,3.48C43.51,132,54.23,138,67.19,139.77ZM88.4,91.65a5.22,5.22,0,0,0-4.89-5.08,5.36,5.36,0,0,0-5.14,4.89,5.16,5.16,0,0,0,4.93,5A5.09,5.09,0,0,0,88.4,91.65Z"/><path class="cls-1" d="M86,194.12a5.32,5.32,0,1,1,.27,10.64A5.33,5.33,0,1,1,86,194.12Z"/></g></g></svg>