<svg xmlns="http://www.w3.org/2000/svg" viewBox="0 0 368.42 359.07"><defs><style>.cls-1{fill:#fff;}</style></defs><g id="Layer_2" data-name="Layer 2"><g id="Layer_1-2" data-name="Layer 1"><path class="cls-1" d="M325.64,359c-2.37,0-4.74,0-7.11,0-7.24-.16-11.12-3.74-11.54-11-.25-4.22-.21-8.48-.07-12.71.09-2.95-1.13-3.9-4-3.9q-60,.09-120.09,0c-2.85,0-4.1.89-4,3.87.16,4.36.12,8.73,0,13.09-.18,6.29-4.35,10.45-10.69,10.6-5,.12-10,.1-15,0-7.13-.12-11.07-4.1-11.08-11.23,0-25.31-.07-50.62,0-75.94,0-3.49-.88-5.2-4.47-6.38-14.51-4.78-23.1-20.81-19.32-35.26,4.08-15.58,19.32-25.51,34.78-22.66,6.92,1.27,6.92,1.27,6.92-5.86,0-6.11,0-12.22,0-18.34.06-9.68,6.17-15.87,15.92-16,11.22-.1,22.45,0,33.67,0,32.92,0,65.85.2,98.76-.13,9.52-.09,18.05,6,17.32,17.32-.43,6.71-.08,13.47-.06,20.2,0,4.44,0,4.44,4.44,3.36,17.2-4.22,33.79,6,37.6,23.1,3.19,14.31-5.11,29.21-19.48,34.21-3.65,1.27-4.68,3-4.66,6.71.14,24.81.08,49.63.07,74.45,0,9-3.42,12.4-12.42,12.45Zm-82.4-182.53q-32.36,0-64.72,0c-7.3,0-9.27,2-9.29,9.4,0,8.23.09,16.47,0,24.69a10.58,10.58,0,0,0,2.58,7.51,30.13,30.13,0,0,1,7.15,20.73c-.08,6,0,12,0,17.95,0,5.82,0,5.82,5.48,4.46a207.9,207.9,0,0,1,30.9-5.49c3.25-.31,4-1.31,2.47-4.13-.93-1.77-1.7-3.61-2.53-5.43-1.87-4.07-3.83-8.12-5.58-12.24-1.14-2.69-.37-5,2.34-6.24,2.55-1.13,4.64-.07,6,2.29.8,1.41,1.42,2.91,2.11,4.38,2.58,5.54,5.23,11,7.7,16.63,1,2.4,2.6,3.27,5.21,3.23q11-.21,22.07,0c2.81.07,4.3-.88,5.21-3.59,2.17-6.51,4.57-12.93,6.94-19.36,1.46-3.94,3.79-5.44,6.58-4.39s3.68,3.74,2.32,7.57c-2.05,5.75-4.08,11.52-6.3,17.21-1,2.55-.94,3.76,2.28,4.11a217.47,217.47,0,0,1,31.22,5.79c2.67.69,3.64,0,3.6-2.8-.11-6.6-.06-13.21,0-19.82,0-8.15,2.37-15.48,7.92-21.6a5.74,5.74,0,0,0,1.72-4c0-10.23,0-20.45,0-30.68a5.51,5.51,0,0,0-4.82-5.78,25.77,25.77,0,0,0-5.2-.42Q274.86,176.46,243.24,176.49Zm-.52,128.64c19.82,0,39.63-.07,59.45.06,3.54,0,4.87-1.09,4.77-4.71-.21-7.72-.25-15.46,0-23.17.13-3.82-1.17-5.5-4.92-6.39-22.64-5.42-45.48-8.21-68.84-7.11a250.16,250.16,0,0,0-50.51,7.57c-2.8.71-3.88,2-3.83,4.89.14,8,0,16,.05,23.93,0,4.83.1,4.92,5.13,4.92Zm82.79,44.16h1.87c7.09,0,7.09,0,7.09-7.07q0-37.79,0-75.56c0-3.16.45-6.12,3.48-7.71a28.84,28.84,0,0,1,5.67-1.8c13.92-3.93,19.92-20.3,11.62-31.73a21.35,21.35,0,0,0-24.3-7.78c-8.89,2.89-14.32,10.45-14.32,20.13q0,51.24,0,102.49C316.65,350.48,315.35,349.18,325.51,349.29ZM169.16,291c.36-15.38-.15-33.7.31-52,.49-19.06-17.39-26.14-30.46-20.42-8.4,3.67-12.6,11.75-11.76,21.38.72,8.17,7.17,15.17,16.17,17.55,7.32,1.94,7.87,2.65,7.87,10.26q0,30.32,0,60.61c0,5.73.08,11.47,0,17.21,0,2.68.91,3.91,3.69,3.79,3.12-.13,6.24,0,9.35,0,4.65,0,4.85-.21,4.85-4.88C169.17,327.57,169.16,310.74,169.16,291Zm73.68,31.29q29.94,0,59.88,0c3.78,0,4.56-1.06,4.14-4.76-.38-3.32-2.86-2.59-4.83-2.6q-57.64,0-115.27,0c-1.5,0-3,.06-4.49,0-2.35-.1-3.26.92-3.43,3.31-.24,3.5,1.45,4.14,4.49,4.13C203.17,322.21,223,322.26,242.84,322.25Z"/><path class="cls-1" d="M27,207.83V343.66c0,5.61,0,5.62,5.53,5.63,3.74,0,7.49-.08,11.22,0s5.84,2,5.67,5c-.21,3.55-2.66,4.61-5.67,4.62q-19.09.09-38.17,0c-3.1,0-5.49-1.3-5.58-4.73s2.43-4.69,5.45-4.86,6-.15,9-.09c2.33,0,3.52-.87,3.39-3.3-.07-1.37,0-2.75,0-4.12,0-89.55-.24-179.11.25-268.67C18.22,43,32.6,20.27,59.79,6.57,84-5.6,115.3-.39,134.93,18.31c13.82,13.17,22,29.12,23.73,48.21.2,2.22,1,3.35,3.3,3.72a42,42,0,0,1,11.64,4c3.55,1.74,3.69,1.71,3.7-2.19,0-13.85,0-27.69,0-41.54,0-1.24,0-2.5.06-3.74a4.42,4.42,0,0,1,4.48-4.56c1-.08,2-.05,3-.05q60.26,0,120.49,0c7.18,0,8.21,1,8.21,8.23q0,46,0,92.05c0,7.17-1.08,8.26-8.21,8.26q-60.06,0-120.11,0c-6.62,0-7.25-.53-8-6.88-.16-1.34-.42-2.51-2-2.66s-3.31-.23-4.13,1.68a18.22,18.22,0,0,1-3.71,5.57c-8.16,8.41-20.94,6.87-26.43-3.53-1.63-3.08-3.49-4-6.7-3.87-4.73.2-9.48,0-14.22,0-3.56,0-5.19-1.82-5.53-5.21-2.1-21.51,10-39.39,30.94-45.11,3.59-1,4.51-2.57,4.09-6C146.12,37.18,125.35,14.46,98.13,10c-18.87-3.09-35.84,2-50,15.23C33.46,38.9,26.88,55.89,26.9,75.74q.08,66,0,132.09Zm277.08-92.22a28.86,28.86,0,0,0,.43-3.06c0-25.81,0-51.61.11-77.42,0-3.18-1.33-4-4.28-4q-55,.09-109.95,0c-3.11,0-4.13,1.17-4.11,4.19.1,15.59.07,31.17.05,46.75a8.83,8.83,0,0,0,1.52,5.27,34.13,34.13,0,0,1,5.38,11.85c.6,2.74,1.63,2.53,3.35.77q7.47-7.61,15.09-15.05c4.61-4.53,6.41-4.55,10.8.07,8,8.39,15.87,16.88,23.85,25.28,3.6,3.79,3.71,3.7,7.8.22q8.82-7.51,17.75-14.89c5.11-4.22,6.41-4,11.34.61C289.89,102.48,296.66,108.71,304.08,115.61ZM154.85,112c8.6,0,17.21,0,25.81,0,4.8,0,5.34-.68,4.63-5.54C182.6,88,168.92,77.35,150.22,79.11c-13.91,1.31-26.17,14.92-26.11,28.78,0,3.09,1.13,4.18,4.17,4.13C137.14,111.9,146,112,154.85,112Zm37.65,9.63h4.05q20.55,0,41.09,0a25.1,25.1,0,0,0,3.36-.12c1.6-.21,1.9-1.1.81-2.27q-11.59-12.4-23.25-24.76c-1.08-1.15-2.25-1-3.25.13C207.51,103.16,196.48,109,192.5,121.61Zm64.15-1.18.32.77h39c-4.2-4.64-8.41-8.3-12.5-12.08-6.35-5.85-6.32-6-13-.49C265.8,112.47,261.26,116.49,256.65,120.43Z"/><path class="cls-1" d="M231.66,70.51c.18-8.83,7.65-16.28,16-16s15.75,7.79,15.69,16c-.07,8.54-7.62,16-16.12,15.91S231.49,78.84,231.66,70.51Zm22.51,0a6.6,6.6,0,0,0-6.37-6.5c-4.08-.11-6.75,2.34-6.82,6.25a6.64,6.64,0,0,0,6.34,7A7.31,7.31,0,0,0,254.17,70.56Z"/><path class="cls-1" d="M136,105.21c-3.71,0-5.95-3.37-4.36-6.35a32.24,32.24,0,0,1,11-11.52c2-1.31,3.87-.55,5.39,1s1.91,4,.34,5.4c-3.66,3.39-7,7.07-10.4,10.67C137.4,105,136.37,105.06,136,105.21Z"/></g></g></svg>