<svg xmlns="http://www.w3.org/2000/svg" viewBox="0 0 247.04 363.85"><defs><style>.cls-1{fill:#fff;}</style></defs><g id="Layer_2" data-name="Layer 2"><g id="Layer_1-2" data-name="Layer 1"><path class="cls-1" d="M.08,182.76q0-79.14,0-158.29c0-6.78.63-13.39,6.14-18.58C10.75,1.64,16,0,21.91,0Q55.58,0,89.27,0,157,0,224.74,0c6.82,0,12.63,2,17.34,7.23,3.83,4.26,4.27,9.4,4.83,14.61A31.35,31.35,0,0,1,247,25.2q0,157.94.08,315.85c0,7.76-2,14.55-8.63,19.28a19,19,0,0,1-11.24,3.52q-103.65,0-207.32,0c-11.18,0-19.14-8.13-19.8-19.76-.08-1.49,0-3,0-4.49V182.76ZM125,181.82h.07V14.58c0-5.56,0-5.58-5.67-5.58H24C13,9,9.67,12.29,9.67,23.18q0,158.82.07,317.64c0,1.38,0,2.75.06,4.12a9.38,9.38,0,0,0,4.5,7.78c2.7,1.83,5.84,1.94,9,1.94h96.15c5.55,0,5.56,0,5.56-5.6Zm112.3.05h0V153.81q0-66.42,0-132.84C237.35,13.45,233.6,9.53,226,9c-.74,0-1.49,0-2.24,0h-84.2c-5.28,0-5.54.25-5.52,5.46,0,18.45.42,36.91.48,55.35.29,93.05.16,186.1.18,279.15,0,5.68,0,5.7,5.48,5.7q41.72,0,83.44,0c10.23,0,13.64-3.47,13.64-13.74Q237.31,261.4,237.3,181.87Z"/><path class="cls-1" d="M110.76,182c0,4.11.08,8.23,0,12.35-.08,3-1.18,5.49-4.73,5.54s-4.82-2.35-4.85-5.4q-.15-12.54,0-25.07c0-3.64,2.21-6,4.9-6s4.59,2.48,4.68,6.19C110.84,173.75,110.76,177.87,110.76,182Z"/><path class="cls-1" d="M158,182.23c0,4.12,0,8.24,0,12.35,0,3-1.26,5.19-4.54,5.26s-4.57-2.09-4.58-5.12q0-13.11,0-26.2c0-2.91,1.29-5,4.33-5,2.86,0,4.61,2,4.7,4.86.14,4.61,0,9.23,0,13.84Z"/></g></g></svg>