<svg xmlns="http://www.w3.org/2000/svg" viewBox="0 0 316.09 368.39"><defs><style>.cls-1{fill:#fff;}</style></defs><g id="Layer_2" data-name="Layer 2"><g id="Layer_1-2" data-name="Layer 1"><path class="cls-1" d="M.1,198.34V38.56c0-7.94,1.44-9.38,9.37-9.38H74.2c5.14,0,5.2-.07,5.21-5.26,0-5.61,0-11.22,0-16.83.07-5,2.13-7,7.14-7.06q71.1,0,142.2,0c5,0,7,2.13,7.08,7.12.08,5.86.18,11.73,0,17.59-.13,3.49,1.24,4.5,4.59,4.49,22.2-.11,44.41-.06,66.61-.05,7.38,0,8.94,1.58,8.95,9q0,160.35.1,320.7c0,7.92-1.52,9.45-9.34,9.46s-15.47,0-23.2,0c-6.56,0-8.71-2.13-8.72-8.77q0-50.52,0-101c0-6.29,0-6.29-6.41-6.29H47.63c-6.36,0-6.36,0-6.36,6.34v99.91c0,8.11-1.77,9.85-9.9,9.85H10c-8.71,0-10-1.3-10-9.88V198.34ZM88.4,78h0q0,32,0,64c0,5.49,0,5.53,5.31,5.53q64,0,127.94,0c5.08,0,5.15-.08,5.15-5.3q0-64,.06-127.93c0-5.22-.07-5.29-5.16-5.29H93.44c-4.89,0-5,.15-5,5Q88.4,46,88.4,78ZM158,174.48H14.33c-5.15,0-5.17,0-5.17,5.22l0,123.11q0,25.63,0,51.27c0,5.1,0,5.1,5.25,5.11H26c5.49,0,5.5,0,5.5-5.65q0-76.53,0-153c0-1.5-.05-3,.06-4.49.32-4.33,2.07-6.3,6.36-7a28.87,28.87,0,0,1,4.84-.27q115.25,0,230.5,0a23.83,23.83,0,0,1,5.95.5,6.25,6.25,0,0,1,5.09,5.73,45.63,45.63,0,0,1,.18,5.23q0,76,0,151.93c0,1.12.08,2.25,0,3.36-.2,2.69.89,3.87,3.68,3.78,4.36-.13,8.73,0,13.1,0,5.57,0,5.58,0,5.58-5.52l0-173.63c0-5.55,0-5.56-5.59-5.56ZM97.39,242.55v0c17.09,0,34.18-.09,51.27.08,3.82,0,4.93-1.22,4.87-5-.2-11.6-.17-23.21,0-34.8.05-3.43-1.08-4.54-4.51-4.53q-51.65.13-103.29,0c-3.42,0-4.57,1.13-4.53,4.54.16,11.6,0,23.2.07,34.8,0,4.69.19,4.87,4.85,4.87Q71.76,242.57,97.39,242.55Zm121.49,0v0c17.21,0,34.43-.05,51.64.05,3.25,0,4.39-1.1,4.35-4.35q-.19-17.78,0-35.55c0-3.24-1.09-4.35-4.34-4.34q-51.83.12-103.66,0c-3.27,0-4.35,1.09-4.31,4.34.15,11.6.05,23.2.07,34.8,0,5,.08,5.07,5,5.08Zm52.48-95c10.48,0,21-.07,31.44,0,3,0,4.21-1,4.19-4.11q-.15-22.45,0-44.91c0-3.35-1.27-4.27-4.42-4.25q-31.25.14-62.5,0c-3,0-4.24.91-4.22,4.07q.18,22.44,0,44.91c0,3.31,1.22,4.33,4.4,4.29C250.65,147.43,261,147.51,271.36,147.51Zm-227.47,0c10.22,0,20.45-.1,30.68.06,3.46.06,4.88-.93,4.84-4.63q-.22-22.07,0-44.14c0-3.42-1.11-4.55-4.53-4.53q-30.69.18-61.36,0c-3.48,0-4.51,1.21-4.48,4.58q.21,22.07,0,44.14c0,3.38,1,4.64,4.5,4.58C23.68,147.4,33.79,147.51,43.89,147.51ZM271.74,38.16c-10.36,0-20.71.11-31.06-.06-3.46-.05-4.9.92-4.85,4.63q.27,19.08,0,38.17c0,3.54,1.32,4.46,4.63,4.44q31.07-.16,62.12,0c3.14,0,4.47-.87,4.44-4.24q-.21-19.26,0-38.54c.05-3.54-1.34-4.49-4.64-4.44C292.19,38.25,282,38.16,271.74,38.16Zm-227.36,0c-10.35,0-20.7.07-31.05,0-2.93,0-4.32.81-4.29,4q.2,19.63,0,39.28c0,2.94,1.14,3.91,4,3.9q31.23-.1,62.47,0c3,0,3.9-1.18,3.88-4-.07-13-.09-25.94,0-38.91,0-3.3-1.22-4.33-4.41-4.29C64.83,38.25,54.6,38.16,44.38,38.16ZM158,157.19q-72,0-144.06,0c-3,0-5,.27-4.92,4.15,0,3.5,1.55,4.1,4.57,4.1q144.44-.08,288.88,0c3.43,0,4.52-1.09,4.52-4.51,0-4.23-2.69-3.71-5.3-3.71Z"/><path class="cls-1" d="M167.78,38a6.91,6.91,0,0,1-1.06,3.54Q155.35,60.88,144,80.21c-.91,1.54-2,2.88-3.93,3.15a4.38,4.38,0,0,1-4.19-1.93c-1.38-1.72-1-3.46,0-5.21q7.31-12.39,14.58-24.81c3-5.16,6-10.33,9.09-15.46A4.44,4.44,0,0,1,165,33.7C167.1,34.31,167.84,35.92,167.78,38Z"/><path class="cls-1" d="M158.08,82.32c-3,0-5.43-2.81-4.13-5.55,3.55-7.52,8.21-14.44,12.84-21.34,1.25-1.87,3.43-1.91,5.36-.72s2.9,3.09,1.86,5.1a199.42,199.42,0,0,1-12.65,21A3.74,3.74,0,0,1,158.08,82.32Z"/><path class="cls-1" d="M98.92,212.61a7,7,0,0,1,6.75,7,6.8,6.8,0,1,1-6.75-7Z"/><path class="cls-1" d="M220.41,212.61c3.72.08,7.07,3.35,7.05,6.89a7.37,7.37,0,0,1-6.94,7,7.46,7.46,0,0,1-7-7A7,7,0,0,1,220.41,212.61Z"/><path class="cls-1" d="M271.53,124.19c-2.84-.35-4.8-1.56-5-4.62a4.86,4.86,0,0,1,4.64-5.25,4.8,4.8,0,0,1,5,4.91C276,122.13,274.18,123.61,271.53,124.19Z"/><path class="cls-1" d="M39.85,118.37a4.84,4.84,0,0,1,9.66.38c-.12,3-1.7,4.6-4.67,4.75S39.84,121.48,39.85,118.37Z"/><path class="cls-1" d="M275.53,61.74c-.19,2.45-1.82,4.13-4.58,4.51-2.46.34-5.12-2.38-4.9-5,.24-2.81,1.86-4.6,4.73-4.8C273.13,56.34,275.47,58.87,275.53,61.74Z"/><path class="cls-1" d="M44.88,56.21a4.85,4.85,0,0,1,4.28,4.84c.16,2.51-2.66,5-5.2,4.72a4.63,4.63,0,0,1-4.47-4.63C39.32,58.46,41.82,56.1,44.88,56.21Z"/></g></g></svg>