<svg xmlns="http://www.w3.org/2000/svg" viewBox="0 0 368.48 324.2"><defs><style>.cls-1{fill:#fff;}</style></defs><g id="Layer_2" data-name="Layer 2"><g id="Layer_1-2" data-name="Layer 1"><path class="cls-1" d="M.05,193.54q0-39.48,0-78.95c0-12.63,8.17-20.86,20.8-21,8.23-.06,16.47-.07,24.7,0,2.35,0,4-.61,5.07-2.89a14,14,0,0,1,7.82-7.17c2.25-.84,3-2,2.66-4.5Q60,70.21,59.4,61.24a12.91,12.91,0,0,1,6.13-12.09,5.48,5.48,0,0,0,2.64-5.29c0-2.35-1-3.41-3.36-3.38-5,.07-10,.09-15,0-6.23-.13-9.3-4.61-7-10.44,3.31-8.48,6.84-16.88,10.24-25.32A6.88,6.88,0,0,1,60,0c7.73,0,15.46,0,23.2,0a6.65,6.65,0,0,1,6.69,4.45c3.53,8.66,7.17,17.28,10.51,26,2.07,5.42-1.06,9.82-6.85,10-4,.11-8,0-12,0-1.42,0-3.3-.49-4,1.27-.75,2-1.29,4.92.4,6,10.41,6.71,7,16.49,6.19,25.72-.05.63-.1,1.25-.18,1.87-.52,4.07-.82,7.69,4.72,9,2.69.62,4.57,3.32,6,5.94.85,1.62,1.5,3.78,4,3.13s1.6-3,1.68-4.75c.15-3.12,0-6.24.07-9.36.1-5.27,2.38-8,7.66-8.85,2.31-.36,2.87-1.51,2.86-3.52,0-3.61-.07-7.23,0-10.85.19-6,3.16-8.88,9.17-8.89q41.35,0,82.7,0c6.33,0,9,2.81,9.11,9.2,0,4.74.07,9.48,0,14.22-.08,5.09-2.4,8-7.4,8.7-2.45.35-3.15,1.47-3.12,3.68.14,12.61-1.45,10.58,10,10.6q67.92.1,135.84,0c9.61,0,16.56,4.43,19.91,12.48a18.75,18.75,0,0,1,1.33,7.3q0,80.44,0,160.9c0,11.17-8.26,19.47-19.61,19.91a46.56,46.56,0,0,1-7.47,0c-4.21-.52-6,1.28-6.85,5.3-1.22,5.85-3,11.59-4.49,17.38s-3.45,7.25-9.54,7.29c-2.75,0-5.49.06-8.23,0-5-.14-6.91-1.64-8.24-6.51-1.63-6-3.4-12-4.63-18.12-.82-4.07-2.62-5.37-6.81-5.36q-75.21.21-150.42.09c-22.33,0-44.66.07-67-.07-3.54,0-5.13,1.13-5.88,4.57-1.33,6.09-3.07,12.08-4.66,18.11s-3.31,7.25-9.5,7.31c-2.87,0-5.74.07-8.61,0-4.4-.14-6.6-1.89-7.76-6.15-1.8-6.62-3.66-13.22-5.24-19.9-.71-3-2.27-4-5.25-3.91-4.22.08-8.47.45-12.67-.52C6.19,291.5,0,284,0,274.37Q0,234,0,193.54Zm184.2-4.21H292.4c20.84,0,41.67,0,62.5,0,2.7,0,4.48-.27,4.47-3.75-.1-23.82,0-47.65-.06-71.47,0-6.19-3.11-9.82-9.13-11a33.32,33.32,0,0,0-6.32-.45q-81.41,0-162.79,0-79,0-157.93,0c-10.19,0-14,3.87-14,14l0,67c0,5.57,0,5.58,5.54,5.58Zm.05,9.17q-85.13,0-170.24-.07c-3.7,0-5,1-5,4.83.16,22.82.07,45.64.09,68.47,0,9.19,3.68,12.79,13,12.79h324c9.51,0,13.08-3.55,13.09-13.07q0-33.67,0-67.35c0-5.59,0-5.6-5.52-5.6ZM161.41,56.2c-11,0-21.95,0-32.92,0-9.52,0-8.49-1.16-8.52,8.64,0,5.3.19,5.49,5.45,5.49,22.7,0,45.39.06,68.09,0,10.75,0,9.16,1.58,9.44-9.63.09-3.4-1.06-4.59-4.51-4.55C186.1,56.3,173.75,56.2,161.41,56.2ZM143.06,93.62c8.35,0,16.7.06,25.05,0,10.59-.09,9.06,1.48,9.38-9.34.11-3.77-1.13-5-4.91-4.93-17.82.17-35.64,0-53.46.12-11.12.09-9.49-1.9-9.72,10.06-.06,3.07,1,4.19,4.12,4.15C123.37,93.53,133.22,93.61,143.06,93.62ZM71.22,31.48h0c5.48,0,11,0,16.42,0,2.4,0,3.15-.94,2.18-3.25C87.47,22.61,85.19,17,82.9,11.31A3.35,3.35,0,0,0,79.47,9q-8,0-16,0a3.37,3.37,0,0,0-3.37,2.41c-2.27,5.66-4.51,11.32-6.91,16.92-1.18,2.75,0,3.21,2.4,3.17C60.78,31.43,66,31.48,71.22,31.48ZM51.43,294.25c-1.86,0-3.73.12-5.58,0-2.83-.21-3.5.93-2.74,3.54,1.27,4.41,2.5,8.84,3.5,13.32.62,2.8,2.26,3.41,4.83,3.41S56,314,56.54,311c.44-2.56,1.25-5.05,1.89-7.58C60.75,294.25,60.75,294.25,51.43,294.25Zm265.86,0c-2.11,0-4.22,0-6.33,0s-3.2.7-2.5,3.15c1.3,4.53,2.56,9.08,3.53,13.7.66,3.13,2.66,3.32,5.21,3.39s4.19-.83,4.71-3.56,1.3-5.3,2-7.93C326.38,294.25,326.39,294.25,317.29,294.26ZM68.77,63.21c.55,5.31,1.09,10.62,1.66,15.93.14,1.32,0,3,2,3s1.91-1.77,2-3c.55-5.19.87-10.4,1.46-15.58.27-2.4.8-4.75-1.47-6.49a3.24,3.24,0,0,0-3.85-.21C68,58.39,68.7,60.86,68.77,63.21ZM191.69,86.43h0c0-1.61.07-3.23,0-4.83s-1.09-2.12-2.53-2.12-2.49.56-2.52,2.1c-.08,3.22-.07,6.44,0,9.66a2.13,2.13,0,0,0,2.35,2.29c1.6.06,2.68-.55,2.75-2.27S191.69,88,191.69,86.43ZM61.16,92l.1,1.23h23V92.09A95.72,95.72,0,0,0,61.16,92Z"/><path class="cls-1" d="M184.35,122.84c5.24,0,10.48-.07,15.71,0,3.81.06,6.15,1.88,6.23,4.57.08,2.84-2,4.89-5.87,4.95-10.85.14-21.7.11-32.55,0-3,0-5.44-1.3-5.64-4.77-.16-2.72,2.27-4.66,6-4.73C173.62,122.77,179,122.84,184.35,122.84Z"/><path class="cls-1" d="M184.25,227.64c-5.35,0-10.7.05-16.05,0-3.63,0-6.15-2-6.07-4.67.09-3.47,2.56-4.83,5.52-4.86q16.59-.21,33.2,0c3,0,5.43,1.39,5.52,4.86.07,2.72-2.45,4.63-6.08,4.67C195,227.69,189.6,227.64,184.25,227.64Z"/></g></g></svg>