<svg xmlns="http://www.w3.org/2000/svg" viewBox="0 0 368.22 352.75"><defs><style>.cls-1{fill:#fff;}</style></defs><g id="Layer_2" data-name="Layer 2"><g id="Layer_1-2" data-name="Layer 1"><path class="cls-1" d="M119.7,149.74c37.29,0,74.59,0,111.88.07,3.68,0,5.84-.75,7.27-4.55,2.6-6.91,7.58-11.72,15.05-13.25,2.76-.57,2.94-2.27,2.75-4.39-.81-9.43-1.43-18.89-2.55-28.28-1.41-11.75.9-16.92,11-22.89,2.24-1.32,3.11-14.59,1-16-1.09-.74-2.42-.51-3.65-.51-8.11,0-16.22,0-24.32,0a22.23,22.23,0,0,1-4.47-.35c-6.22-1.31-9.17-6.52-6.84-12.41,5.46-13.8,11-27.55,16.63-41.3A8.62,8.62,0,0,1,252.17,0q18,.11,35.92,0c4.48,0,7.29,2.11,8.9,6.09,5.37,13.29,10.77,26.58,16.08,39.9,3.16,7.93-.63,13.68-9.24,13.86-7.6.17-15.22,0-22.82.06-4.63,0-4.79.2-4.82,4.9a29.8,29.8,0,0,1,0,3c-.51,4.75.47,8.06,5.38,10.77,7,3.88,8.68,11,7.88,18.82-1.08,10.4-1.9,20.83-2.82,31.25-.13,1.54-.28,3,2,3.15,9.08.77,14.29,6.49,17.42,14.37,1.12,2.85,2.63,3.66,5.52,3.64,16.34-.12,32.68-.06,49-.05,5.27,0,7.6,1.42,7.62,4.55s-2.18,4.58-7.5,4.59c-5.49,0-11,.05-16.47,0-2.52,0-3.69,1.05-3.58,3.58.06,1.37,0,2.75,0,4.12q0,88.3,0,176.62c0,8.19-1.35,9.53-9.58,9.54-11.35,0-22.7,0-34.05,0-5.82,0-8.13-2.29-8.16-8.2-.05-14.34,0-28.69,0-43,0-4.88-.11-5-5.07-5H84.34c-4.91,0-5,.12-5,5,0,14.09,0,28.19,0,42.28,0,6.83-2.13,8.9-9,8.91H35.15c-8.92,0-10.5-1.55-10.5-10.38q0-87.55,0-175.12c0-9.38,1-8.27-8.44-8.35-3.74,0-7.48,0-11.22,0-2.89,0-4.9-1.37-5-4.41s2.05-4.33,4.82-4.61a40.41,40.41,0,0,1,4.12-.08Zm64.26,137H292.85c5.57,0,5.74.17,5.74,5.61q0,23,0,46c0,5.12,0,5.13,5.28,5.14,7.73,0,15.47-.15,23.2.07,3.5.09,4.5-1.18,4.46-4.55-.16-11.85-.06-23.7-.06-35.55q0-69.78,0-139.57c0-5-.05-5-5-5.06H304.44c-5.84,0-5.85,0-5.85,5.71q0,44.16,0,88.31c0,8.92-1.78,10.67-10.77,10.67H80.15a33.38,33.38,0,0,1-4.48-.13A6.18,6.18,0,0,1,70,258.29a29.54,29.54,0,0,1-.4-5.57q0-44.53,0-89.06c0-3.45-.88-4.93-4.61-4.84-8.72.22-17.46.19-26.19,0-3.42-.07-4.54,1.1-4.53,4.53q.12,87.93,0,175.87c0,3.19.94,4.45,4.27,4.38,8.73-.18,17.46-.23,26.19,0,3.86.11,4.89-1.27,4.85-5-.16-15.34-.07-30.68-.06-46,0-5.75.11-5.86,5.86-5.86Zm-.11-32.91c33.42,0,66.84,0,100.25,0,3.46,0,4.88-.93,4.84-4.63q-.24-22.44,0-44.89c0-3.43-1.15-4.52-4.55-4.52q-100.24.1-200.5,0c-3.67,0-4.68,1.33-4.64,4.82.14,14.58.06,29.17.07,43.76,0,5.39,0,5.41,5.42,5.41Zm.25-63.66q50,0,99.9,0c4.71,0,4.86-.16,4.87-4.83,0-7.36-.13-14.72.08-22.07.1-3.52-1.25-4.54-4.6-4.47-8.1.18-16.21.06-24.32.06H84.55c-5.24,0-5.25,0-5.26,5.18q0,10.47,0,21c0,5.12.06,5.18,5.27,5.18Q134.32,190.22,184.1,190.2ZM270.17,50.27c10.21,0,20.42-.05,30.63,0,3.19,0,3.95-1,2.69-4-4.59-11.17-9.1-22.38-13.43-33.65C289,9.82,287.35,8.92,284.46,9c-9.46.13-18.93.16-28.39,0-3.14-.06-4.68,1.13-5.79,4-4.27,11-8.74,22-13.12,33-1.6,4-1.36,4.37,3.12,4.38Q255.22,50.3,270.17,50.27Zm2.26,81.49c3.2,1,4.6-1,4.91-4.69.94-11,2.13-22,3-33.07a8.43,8.43,0,0,0-8.89-9.33,8.64,8.64,0,0,0-8.58,9.68c.92,10.78,1.94,21.55,3,32.32C266.34,131.59,266.62,131.76,272.43,131.76Zm-.46,18c7.23,0,14.46,0,21.7,0,1,0,2.14.26,2.75-.72.76-1.2-.27-2.12-.86-3-2.08-3-4.82-5.07-8.66-5.09-9.72,0-19.45,0-29.17,0a10.33,10.33,0,0,0-9,5.19c-.58.9-1.64,1.84-.88,3,.61.93,1.83.61,2.79.61C257.76,149.75,264.87,149.74,272,149.74Z"/><path class="cls-1" d="M183.63,229.91c-4.86,0-9.72,0-14.57,0-3.21,0-5.77-.92-6.23-4.48-.37-2.84,1.83-5,5.63-5.11,9.95-.17,19.92-.14,29.87,0,3,0,5.79,1.19,5.9,4.91.09,3-2.23,4.6-6.41,4.65C193.09,230,188.36,229.91,183.63,229.91Z"/></g></g></svg>