<svg xmlns="http://www.w3.org/2000/svg" viewBox="0 0 183.68 368.45"><defs><style>.cls-1{fill:#fff;}</style></defs><g id="Layer_2" data-name="Layer 2"><g id="Layer_1-2" data-name="Layer 1"><path class="cls-1" d="M91.51,0h65.86C162.69,0,165,1.4,165,4.49S162.69,9,157.37,9c-4.36,0-8.73.09-13.1,0-2.69-.06-4,1-3.78,3.72.08,1.12,0,2.25,0,3.37q0,56,0,111.89c0,5.65,0,5.65,5.21,3.8.23-.09.46-.18.7-.25,2.77-.86,5.44-1,7.59,1.38s1.82,5.09.41,7.65a28.48,28.48,0,0,0-3.14,19.21c1.79,9.84,7.79,16.48,16.84,20.48,1.14.5,2.34.86,3.52,1.27,2.82,1,4.77,2.62,4.84,5.89s-1.76,5-4.44,6.28c-9.48,4.34-19.19,5.2-29.1,1.66-21.84-7.81-29-33.41-14.28-51.4a11.6,11.6,0,0,0,2.81-7.82q-.08-61,0-122c0-5-.12-5.09-5-5.1-8.73,0-17.47.13-26.19-.07-3.59-.08-4.76,1.15-4.75,4.73.12,30.19-.4,60.39.24,90.56.75,35.3.18,70.59.38,105.88,0,3.89,1,5.44,5,5.86a90.65,90.65,0,0,1,50.55,21.39c18.47,15.77,29.15,35.8,31.45,60.06,2.45,25.77-5.63,48.13-22.29,67.64-4,4.65-8.4,4.58-12-.45a82.91,82.91,0,0,0-18.45-18.94c-2.3-1.67-3.39-1.54-4.66,1.22a35.08,35.08,0,0,1-65.95-5.48c-.89-3.21-2-3.7-4.87-2.25-9.5,4.74-17.89,10.82-24.67,19.06-4.85,5.9-8.94,5.69-13.51-.51-25.31-34.36-21.71-83.53,8.21-114A91.69,91.69,0,0,1,80.94,216.1c5.64-.69,5.64-.73,5.64-6.38q0-97.3.07-194.6C86.65,9,86.64,9,80.43,9c-6.61,0-13.23.08-19.84,0-2.85-.05-3.92,1-4,3.91-.87,26.68-.65,53.37-.6,80.05,0,5.33,3.62,9.45,6,13.87,1,1.8,3.9,1.21,5.95,1.6,4,.77,8.72.65,9.94,5.69,1.11,4.56-2.47,7-5.59,9.3-3.35,2.43-4.46,5.39-3.39,9.36a30,30,0,0,1,.85,5.16c.5,5.36-4,8.71-9,6.67a17.57,17.57,0,0,1-4.64-2.39c-3.67-3-7.18-2.7-10.89-.17a22.12,22.12,0,0,1-4,2c-5.33,2.22-9.66-.88-9.17-6.68A52.73,52.73,0,0,1,33.33,130a5.19,5.19,0,0,0-1.74-5.67c-1.89-1.62-3.55-3.5-5.32-5.26a6.16,6.16,0,0,1,3.64-10.47,10.46,10.46,0,0,0,1.49-.19c3.28-1,7.73.41,9.81-2.63C44.38,101.12,47.12,96.27,47,90c-.33-20.82-.1-41.66,0-62.49,0-4.86.34-9.71.62-14.56.16-2.88-1-4-3.92-4C37.48,9.08,31.24,9,25,9c-4.42,0-6.45-1.44-6.49-4.43S20.56,0,24.89,0Q58.21,0,91.51,0Zm-82,305.74a78.06,78.06,0,0,0,11.3,40.92c2.81,4.76,2.86,4.79,6.65.91,15.57-16,34.7-24.2,56.77-24.89,27.82-.88,50.69,9.84,68.53,31.25,2.75,3.31,2.81,3.29,5.49-.32a78.46,78.46,0,0,0,15.89-52.22c-1.08-20.87-9.23-38.84-24.22-53.16-18.35-17.52-40.51-25-66-23C42.17,228.58,9.49,263.76,9.48,305.74Zm84.2,52.1c10.75,0,19.82-5.75,23.88-14.92,1.3-2.95.81-4.41-2.31-5.59a78.6,78.6,0,0,0-42.9-3.95c-3.8.71-4.22,2.43-3.5,5.64C71.3,349.87,81.69,357.81,93.68,357.84ZM161,187.29c-9.1-5.5-15.2-12.57-18.08-22.24a34.82,34.82,0,0,1-.57-18.42c.17-.72.45-1.55-.26-2.07s-1.14.12-1.66.45c-6.46,4.18-11.3,15.32-10,22.93C133,182,145.34,190.14,161,187.29ZM37.89,117.74c4.29,3.37,6.48,7.56,4.78,13.23-.53,1.75,1.1,1.67,2.15,1,4.12-2.6,8-2.73,12.16.16,1.93,1.36,2.82.23,2.26-1.84-1.17-4.37.14-7.75,3.65-10.53,1.81-1.43,1.79-2.74-.89-3-4.39-.35-7.5-2.35-9-6.61-.31-.86-.55-2.22-1.75-2.14s-1.35,1.38-1.72,2.25a9.1,9.1,0,0,1-8.22,6.06A4.09,4.09,0,0,0,37.89,117.74Z"/></g></g></svg>