<svg xmlns="http://www.w3.org/2000/svg" viewBox="0 0 368.48 238.65"><defs><style>.cls-1{fill:#fff;}</style></defs><g id="Layer_2" data-name="Layer 2"><g id="Layer_1-2" data-name="Layer 1"><path class="cls-1" d="M184.59,213.75q-51.65,0-103.29,0c-9.66,0-7.72-1.18-10.74,7.7a29.64,29.64,0,0,1-5.64,10.44c-8,9.14-31.15,9.42-36.31-7.2-2.33-7.49-5.21-11.41-13.69-12.21C6,211.65,0,203,0,194Q0,106.81.09,19.62A19.67,19.67,0,0,1,19.7.05C24.07,0,28.43,0,32.8,0,45.24.12,53.81,8.48,53.9,21,54,38.33,54,55.71,54,73.08c0,6.47,0,6.47,6.64,6.47,11.85,0,23.71,0,35.56,0,5.67,0,10.87,1.38,14.92,5.71,2.76,2.94,4.48,6.31,4.33,10.44-.18,4.6.58,9.25-.62,13.81-.37,1.44.17,2.15,1.65,2.16l3.74,0H315.92c9.51,0,16.78,4.79,19.94,13a15.31,15.31,0,0,1,1.12,5.47c0,6,.06,12,0,18a17.7,17.7,0,0,1-.84,4.77c-1.34,4.54-1.39,4.52,3.2,4.53,3.12,0,6.24-.08,9.35,0,11.41.41,19.73,8.94,19.8,20.26,0,5.25.05,10.5,0,15.75-.1,9.95-6.48,18.11-16.33,19.37-5.38.7-8,2.84-8.74,8a18.47,18.47,0,0,1-1.15,3.56c-3.07,8.63-10.1,13.94-18.76,14.18-11.8.33-18.64-3.57-22.55-13a35.64,35.64,0,0,1-2.27-6.74c-.83-4.27-3.22-5.3-7.39-5.28C255.7,213.82,220.15,213.75,184.59,213.75Zm-.54-9.75H344.22c1.5,0,3,0,4.49-.05,6.16-.38,10.29-4.4,10.5-10.53.18-5.25.2-10.51,0-15.75-.24-6.11-4.49-10.14-10.6-10.39-1.74-.07-3.49,0-5.24,0q-138.65,0-277.3,0a48,48,0,0,1-6.35-.25c-10.09-1.35-15.37-7.11-15.39-17.36q-.1-58.49,0-117c0-4.47,1-8.94.18-13.44-1.1-6.3-5.09-9.89-11.5-10.1-3.37-.11-6.74,0-10.11,0-10,0-13.85,3.84-13.85,13.79q0,72.18.07,144.36c0,8.25,0,16.5,0,24.74.05,7.88,4.14,11.92,12.08,12,1.37,0,2.74,0,4.11,0Zm3.06-83.13H58c-2.13,0-4.06,0-4,3,.06,9.25,0,18.5.08,27.74,0,3.55,2.19,5.45,5.65,5.8a35.92,35.92,0,0,0,3.74.09H313.77c1.25,0,2.5,0,3.74-.07,6-.48,10-4.43,10.26-10.4.21-5,.2-10,0-15-.24-6.6-4.23-10.58-10.85-11.12-1.36-.11-2.74-.06-4.11-.06ZM78.26,89.25c-6.84,0-13.69.06-20.53,0-2.7,0-3.84,1-3.78,3.76.11,4.61.23,9.23,0,13.83-.21,3.71,1,5.06,4.83,5,11.32-.22,22.65-.08,34-.08,12.37,0,13.7-1.33,13.57-13.72-.06-6.08-2.46-8.61-8.62-8.71C91.21,89.18,84.74,89.26,78.26,89.25ZM321.18,213.76c-3.74,0-7.47,0-11.2,0-1.09,0-2.3-.07-2.44,1.6-.42,5,4.61,12.13,9.57,13.46,9.24,2.48,17.26-3.32,17.88-12.86.14-2.12-1.21-2.18-2.61-2.2C328.64,213.74,324.91,213.76,321.18,213.76Zm-272.08,0c-3.74,0-7.48,0-11.22,0-1.18,0-2.58-.27-2.55,1.78A13.55,13.55,0,0,0,47.5,228.64c7.62.64,12-2.82,14.42-11.07.82-2.79.37-4-2.72-3.85C55.84,213.86,52.47,213.75,49.1,213.75Z"/></g></g></svg>