<svg xmlns="http://www.w3.org/2000/svg" viewBox="0 0 351.29 367.81"><defs><style>.cls-1{fill:#fff;}</style></defs><g id="Layer_2" data-name="Layer 2"><g id="Layer_1-2" data-name="Layer 1"><path class="cls-1" d="M.19,184.2C.19,130.32.46,76.44,0,22.56-.12,9,9.61,0,22.45,0,124.59.29,226.74.16,328.9.16c13.84,0,21.47,7.25,22.27,21.15.05,1,0,2,0,3q0,160.34.09,320.67c0,7.33-1.74,13.84-7.72,18.62-4.1,3.28-8.85,4.22-14,4.22q-103.46-.07-206.92,0H21.23c-13.16,0-21.15-8-21.15-21.18Q0,265.4.07,184.2ZM341.57,88h0V40.47c0-5.86,0-5.87-5.74-5.87h-93.5c-5.56,0-5.56,0-5.57,5.64q-.12,48.42.56,96.84c0,3.73,1.48,4.6,4.89,4.59q47.31-.15,94.63,0c3.55,0,4.79-1.09,4.76-4.7C341.49,120.64,341.57,104.3,341.57,88ZM62.17,36.82c-16.21,0-32.41,0-48.62,0-3.16,0-4.43,1-4.42,4.28q.15,48.24,0,96.48c0,3.08,1.08,4.13,4.15,4.12q48.62-.1,97.23,0c3,0,4.27-.86,4.26-4-.11-32.15-.12-64.3.65-96.45.08-3.58-1.43-4.41-4.69-4.39C94.58,36.88,78.37,36.82,62.17,36.82ZM62,291.28c16,0,31.93-.1,47.89.07,3.73,0,5-1.07,5-4.88-.17-18.46-.07-36.92-.08-55.37,0-4.69-.16-4.84-4.86-4.84-31.93,0-63.86.05-95.78-.08-3.76,0-5,1.1-4.92,4.9q.26,27.67,0,55.37c0,3.77,1.11,4.95,4.9,4.9C30.05,291.17,46,291.28,62,291.28ZM176.16,150.72q-23.4,0-46.78,0c-4.77,0-4.92.14-4.92,4.76q0,28.06,0,56.13c0,4.7.2,4.91,4.81,4.91h93.55c4.7,0,4.89-.18,4.89-4.82q0-28.07,0-56.13c0-4.71-.14-4.85-4.83-4.85Q199.55,150.7,176.16,150.72ZM289.3,291.28c15.95,0,31.9-.06,47.85.05,3.13,0,4.47-.83,4.45-4.21q-.18-28.41,0-56.83c0-3.13-1.19-4.08-4.2-4.08q-47.86.1-95.71,0c-3.32,0-4.29,1.26-4.27,4.42.1,18.69.13,37.38,0,56.07,0,3.67,1.3,4.68,4.8,4.65C257.89,291.2,273.6,291.28,289.3,291.28ZM175.72,141.61c15.71,0,31.41-.09,47.11.07,3.67,0,5-1,5-4.83q-.24-27.67,0-55.34c0-3.68-1-5-4.85-5q-46.93.14-93.85-.08c-3.52,0-4.83,1.06-4.8,4.69q.21,27.86,0,55.71c0,3.84,1.3,4.9,5,4.86C144.81,141.52,160.27,141.61,175.72,141.61ZM62,216.54q23.94,0,47.89,0c4.6,0,4.82-.22,4.82-4.91,0-18.71,0-37.42.08-56.13,0-3.47-.93-4.85-4.62-4.83q-48.27.17-96.54,0c-3.46,0-4.52,1.16-4.49,4.55q.2,28.26,0,56.51c0,3.81,1.23,4.93,5,4.89C30.1,216.44,46.07,216.54,62,216.54Zm227.31,0q23.55,0,47.11,0c4.91,0,5.08-.16,5.08-5q0-27.86,0-55.7c0-5-.1-5.09-5-5.09H242.37c-4.74,0-4.92.17-4.93,4.77q0,28,0,56.08c0,4.78.19,4.95,5.15,4.95Q266,216.56,289.35,216.54ZM175.74,291.28c15.84,0,31.68-.08,47.52.06,3.41,0,4.55-1.07,4.53-4.51q-.19-28.06,0-56.12c0-3.44-1.14-4.52-4.54-4.51q-47.15.15-94.29,0c-3.4,0-4.56,1.08-4.54,4.51q.19,28.06,0,56.13c0,3.44,1.15,4.53,4.55,4.5C144.56,291.2,160.15,291.28,175.74,291.28ZM62,300.48c-16.08,0-32.16.08-48.23-.06-3.41,0-4.56,1.05-4.51,4.5.15,13.46,0,26.92.06,40.38,0,9.45,3.72,13.25,13.08,13.26,29.16,0,58.33,0,87.49.08,3.68,0,5-1,5-4.83q-.28-24.3,0-48.6c0-3.91-1.39-4.83-5-4.8C93.85,300.57,77.9,300.48,62,300.48Zm227.76,0c-15.84,0-31.68.08-47.52-.06-3.49,0-4.83,1-4.8,4.64q.24,24.51,0,49c0,3.38,1,4.59,4.5,4.56,14.6-.15,29.19-.06,43.78-.06s29.19.06,43.78,0c8.17-.06,12.05-4,12.07-11.9,0-13.84-.09-27.69.08-41.53,0-3.63-1.2-4.73-4.75-4.69C321.15,300.57,305.43,300.48,289.71,300.48ZM176.12,358.57c15.84,0,31.68-.05,47.52.05,3.08,0,4.16-1,4.14-4.12q-.17-24.88,0-49.77c0-3.28-1.11-4.31-4.35-4.3q-47.34.13-94.68,0c-3.24,0-4.36,1-4.33,4.32q.18,24.69,0,49.39c0,3.46,1.15,4.53,4.55,4.5C144.68,358.5,160.4,358.57,176.12,358.57Zm51.69-320.3c0-8.34-.09-16.69,0-25,.05-3.08-1.13-4.15-4.18-4.13-13.45.1-26.9.12-40.35,0-3.36,0-4.25,1.33-4.23,4.45q.15,24.84,0,49.69c0,3.25,1.13,4.35,4.36,4.33,13.33-.12,26.66-.13,40,0,3.58,0,4.47-1.43,4.41-4.68C227.7,54.71,227.8,46.49,227.81,38.27ZM124.42,38.2c0,8.34.07,16.69,0,25,0,3,.89,4.29,4.05,4.27q18.87-.15,37.73,0c2.84,0,4-.94,4-3.89q-.12-25.22,0-50.44c0-3.12-1.19-4.12-4.2-4.09-12.46.1-24.91.12-37.37,0-3.34,0-4.31,1.3-4.26,4.44C124.5,21.76,124.41,30,124.42,38.2ZM62,27.83c16.22,0,32.43-.07,48.65.05,3.51,0,5.08-1.11,4.85-4.74-.19-3,0-6,0-9,0-4.87-.15-5-5.08-5H22.77c-10,0-13.68,3.74-13.59,13.84,0,4.65.18,4.83,4.88,4.83Q38,27.85,62,27.83Zm227.17-2.22c16.07,0,32.15-.05,48.23,0,2.94,0,4.27-.84,4.3-4,.09-8.49-3.59-12.45-12.13-12.46q-40.57,0-81.14,0c-11.71,0-11.71,0-11.59,11.58,0,4.69.19,4.87,4.84,4.87Q265.39,25.63,289.13,25.61Z"/><path class="cls-1" d="M62.52,157.31c2.73,0,5.47,0,8.21,0s4.92,1.37,5,4.4c.06,3.24-2.07,4.63-5.1,4.65-5.47,0-11,.07-16.42,0-2.82,0-5-1.36-5-4.38-.07-3.23,2.16-4.55,5.15-4.64C57,157.26,59.78,157.32,62.52,157.31Z"/><path class="cls-1" d="M285.34,166.37c-2.86,0-5.72.07-8.57,0s-4.73-1.77-4.63-4.7c.09-2.72,1.86-4.29,4.65-4.31,5.71-.05,11.42-.08,17.13,0,2.68.05,4.62,1.49,4.71,4.29.1,3-1.89,4.5-4.73,4.65s-5.71,0-8.56,0Z"/><path class="cls-1" d="M173.12,240.54c-2.87,0-5.74.06-8.6,0s-4.66-1.42-4.74-4.25,1.8-4.69,4.67-4.77q8.6-.23,17.2,0c2.85.07,4.86,1.68,4.73,4.69s-2.1,4.37-5,4.37h-8.23Z"/><path class="cls-1" d="M173.19,306.42c2.72,0,5.47-.19,8.18.06s5.15,1.71,5,4.88c-.1,2.94-2.34,4.44-5,4.53-5.57.2-11.16.2-16.73,0-2.69-.11-4.86-1.71-4.88-4.66s2.16-4.44,4.86-4.69,5.7-.06,8.55-.06Z"/><path class="cls-1" d="M186.56,39.47c0-.74,0-1.49,0-2.23.08-2.52,1.18-4.41,3.8-4.69s4,1.56,4.78,3.83a12.06,12.06,0,0,1,.12,5.88c-.47,2.62-1.9,4.33-4.75,4.19s-4-2-4-4.76c0-.74,0-1.48,0-2.22Z"/><path class="cls-1" d="M163.48,39.73a23,23,0,0,1-.26,3.33,4.08,4.08,0,0,1-3.89,3.43,3.87,3.87,0,0,1-4.33-2.8,13.5,13.5,0,0,1-.11-8.08,4.09,4.09,0,0,1,4.54-3.09,4,4,0,0,1,3.87,3.86,24.79,24.79,0,0,1,0,3.34Z"/></g></g></svg>