<svg xmlns="http://www.w3.org/2000/svg" viewBox="0 0 368.6 333.26"><defs><style>.cls-1{fill:#fff;}</style></defs><g id="Layer_2" data-name="Layer 2"><g id="Layer_1-2" data-name="Layer 1"><path class="cls-1" d="M183.88,321.19H91.46c-4.91,0-4.91,0-5.14,4.94-.21,4.44-2.2,6.89-6.62,7q-18.15.29-36.29,0c-4.92-.08-6.75-2.64-6.76-8.34q0-63.43,0-126.85c0-6.31,0-6.31-5.85-8.08C11.32,183.94-1.37,165.05.12,144.14c1.36-19.12,16.92-36,36.18-39a41.81,41.81,0,0,1,20.31,1.57c2.56.88,3.34.17,3.32-2.44-.08-8.1,0-16.21,0-24.32.3-39.49,30-73.71,69-79.53a53.75,53.75,0,0,1,7.83-.31c31.68,0,63.37-.16,95,0,22.56.14,40.92,9.7,55.69,26.36,14.62,16.5,21.54,35.9,21.15,58-.12,6.61.05,13.22,0,19.83,0,2.62.75,3.24,3.33,2.44C340,98,364.13,117.34,368.09,141.53c3.41,20.87-10.56,43-31.51,48.52-3.81,1-4.83,2.61-4.82,6.37q.19,63.6.09,127.22c0,7.85-1.75,9.56-9.75,9.57-10.23,0-20.46-.12-30.68.05-6.36.1-10-2.58-9.29-8.63.43-3.69-2.28-3.44-4.71-3.44Zm-.27-129.51h93.16c4.68,0,4.85-.17,4.85-4.85,0-11.72,0-23.45,0-35.17-.05-14.29,4.23-26.75,15.3-36.32a7.44,7.44,0,0,0,2.63-6.24c-.1-8.36-.15-16.71,0-25.07.24-13.66-2.7-26.58-9.51-38.38C276.72,22.58,257.2,9.22,229.93,9.07c-30.68-.16-61.36-.05-92,0a55.74,55.74,0,0,0-8.58.38C96.67,14.56,74.08,40.88,69.75,71.69c-1.66,11.79-.32,23.66-.82,35.49a10.92,10.92,0,0,0,3.93,9.46c8.39,7.49,12.66,17.06,13.51,28.27,1,14,.26,27.91.47,41.87.08,4.89,0,4.9,4.73,4.9Zm.55,62.87c31.18,0,62.35-.05,93.53.06,3.41,0,4.56-1.05,4.52-4.49q-.21-22.26,0-44.52c0-3.53-1.1-4.8-4.72-4.79q-93.15.12-186.3.06c-4.61,0-4.83.23-4.83,4.92q0,21.89,0,43.77c0,5,0,5,5,5Zm-.3,56.91q46.57,0,93.16,0c5.11,0,5.14,0,5.14-4.88,0-12.72-.1-25.44.06-38.16,0-3.61-1.24-4.73-4.78-4.72q-93.16.1-186.33.06c-4.53,0-4.75.25-4.76,5q0,18.88,0,37.79c0,4.89,0,4.92,5.1,4.92Q137.64,311.48,183.86,311.46Zm-106.73-79h.05c0-28.56.13-57.13,0-85.69C77,126.58,57.47,110.66,37.6,114.25a34.44,34.44,0,0,0-28.41,33c-.54,16,10.83,30.41,26.94,34.2,8.5,2,9.7,3.51,9.7,12.22q0,62.49,0,125c0,3.78,1.14,5.05,4.91,4.91,6.73-.25,13.47-.07,20.21-.07,6.23,0,6.23,0,6.23-6.07Q77.15,275,77.13,232.48Zm214.18-.11h.06c0,28.81.05,57.62-.06,86.43,0,3.56,1.06,4.87,4.68,4.75,7.11-.22,14.22-.05,21.33-.07,5.32,0,5.33,0,5.34-5.46V209.88c0-6.49-.05-13,0-19.46.07-4.59,2.52-7.4,7-8.43,2.06-.48,4.16-.87,6.17-1.52C349.9,176,360,161.54,359.3,147c-.75-16.06-11.92-29.4-27.2-32.47a33.93,33.93,0,0,0-40.77,33.28C291.25,176,291.31,204.18,291.31,232.37Z"/><path class="cls-1" d="M144.66,101.14c-8.21,0-15.69-7.59-15.73-16s7.76-16.14,16.13-16S160.89,76.69,161,85C161.07,93.65,153.51,101.14,144.66,101.14Zm6.69-15.87c.07-4-2.4-6.55-6.37-6.56s-6.42,2.55-6.41,6.58a6.39,6.39,0,1,0,12.78,0Z"/><path class="cls-1" d="M224.06,101.14A16.15,16.15,0,0,1,208.23,85.4a16.59,16.59,0,0,1,15.86-16.25c8.36-.17,15.89,7.34,16.08,16C240.35,93.46,232.66,101.08,224.06,101.14Zm6.59-15.9c.07-3.95-2.49-6.52-6.51-6.54a6.57,6.57,0,0,0-6.65,6.19,7.23,7.23,0,0,0,6.52,7A6.57,6.57,0,0,0,230.65,85.24Z"/></g></g></svg>