<svg xmlns="http://www.w3.org/2000/svg" viewBox="0 0 265.07 368.49"><defs><style>.cls-1{fill:#fff;}</style></defs><g id="Layer_2" data-name="Layer 2"><g id="Layer_1-2" data-name="Layer 1"><path class="cls-1" d="M134.83.11c9.21.51,20.59-1,31.88.73C196.07,5.25,216.07,32.45,212.26,62c-1.44,11.09-1.76,22.34-2.61,33.51-1.16,15.4-2.37,30.79-3.52,46.19-.42,5.72-.63,11.45-1.16,17.16-.26,2.84.78,2.65,2.66,1.62,14.16-7.74,26.85-17.2,36.25-30.59,5-7.15,13.4-7.81,18.77-1.64a10.83,10.83,0,0,1,2.42,7.64c-.13,16.89-6,31.77-16.4,44.81-17.43,21.79-40.84,34.2-67.15,41.84-13,3.78-26.33,5.55-39.79,6.42-3.06.2-4,1.46-4,4.42q.12,41.91,0,83.82c0,3.09,1.13,4.27,4.13,5,14.64,3.41,24,13.72,25.9,28.37a7.91,7.91,0,0,0,2,3.89,8.62,8.62,0,0,1-1,11.84,8.14,8.14,0,0,1-11.2-.06,8.43,8.43,0,0,1-.8-11.8c1.62-1.91,1.67-3.65,1.2-5.84-1.65-7.82-9.41-15.46-17.18-17-2.26-.46-3,.32-3,2.41,0,5.36,0,10.72,0,16.08,0,1.8.95,3,2,4.24,3.18,3.74,3.06,8.12-.18,11.46a8.32,8.32,0,0,1-11.22.9,8,8,0,0,1-2.07-11c1.8-2.76,1.72-5.63,1.72-8.6,0-4.24-.07-8.49,0-12.72,0-2.55-1.11-3.07-3.26-2.32-8.38,2.94-14,8.41-15.92,17.3a13.16,13.16,0,0,0,.71,7.32c1.66,4.69-.21,9.16-4.3,11.09a8.46,8.46,0,0,1-10.76-3.38c-2.42-3.85-1.47-8.36,2.55-11.52a5.4,5.4,0,0,0,2.38-3.57c2.17-14.17,10.87-22.65,24.15-26.54,3.74-1.1,4.5-2.8,4.49-6.25q-.16-41,0-81.95c0-3.58-.64-5.37-4.79-5.59a176.23,176.23,0,0,1-47.65-8.8C54.56,213,35.6,202.23,20.47,185.56,7.81,171.62.27,155.41,0,136.27c-.08-5.67,2.74-10.05,7.17-11.54,5.17-1.74,10.4,0,13.78,4.85,9.26,13.34,21.79,22.8,35.79,30.58,2.54,1.41,3.59,1.57,3.3-2.06-1.86-22.83-3.56-45.69-5.24-68.54-.87-11.92-2.14-23.85-2.27-35.78C52.21,24.69,76.72.25,105.77.12,114.75.08,123.74.11,134.83.11Zm68.79,54.25c.08-24.73-20.13-45.13-44.68-45.25-16.46-.07-32.93,0-49.39,0a66.38,66.38,0,0,0-11.18.8C75.78,13.64,58.71,36.29,61.62,58.55c.68,5.18.91,10.42,1.31,15.63C63.76,85.11,64.55,96,65.41,107c1.41,18.13,3,36.25,4.19,54.39.25,3.72,1.55,5.57,5,6.75a166.81,166.81,0,0,0,32.64,8c1.07.14,2.35,1,3.19,0s-.26-2.1-.68-3.07c-3.92-9.17-7.91-18.31-11.85-27.48-1.6-3.72-1-6.26,1.53-7.43,2.82-1.28,5.36,0,7,3.68,3.46,7.88,6.74,15.84,10.31,23.67,6.21,13.64,2,12.48,19.51,12.67,4.86.06,7.72-1.63,9.58-6.36,4.07-10.32,8.66-20.43,13.14-30.59,1.4-3.18,4-4.35,6.59-3.07,3,1.47,3.09,3.93,1.94,6.68-.29.69-.61,1.37-.9,2q-5.79,13.41-11.55,26.81c-.52,1.23-1.93,3.11,1.25,2.7a163.43,163.43,0,0,0,35.84-9,4.38,4.38,0,0,0,3.19-4.13q1.5-21.24,3.1-42.49c.85-11,1.85-22.09,2.72-33.14S202.8,65.32,203.62,54.36ZM132.3,219.53c6-.18,12-.16,17.94-.77C180.37,215.65,208,206.27,231,186c14.27-12.55,23.27-28.18,24.82-47.52.13-1.65.77-3.81-1.29-4.65s-3,1.31-4,2.62C236.94,154.66,218.9,167,198,175.23c-33.67,13.2-68.37,15.63-103.64,8.16-32.13-6.82-60.24-20.81-80.51-47.82-.8-1.07-1.62-2.46-3.3-1.81S9,136,9.14,137.31A67,67,0,0,0,13.36,157c6.54,16.7,18.33,29,33,38.6C72.44,212.63,101.44,219.51,132.3,219.53Z"/></g></g></svg>