<svg xmlns="http://www.w3.org/2000/svg" viewBox="0 0 368.52 270.41"><defs><style>.cls-1{fill:#fff;}</style></defs><g id="Layer_2" data-name="Layer 2"><g id="Layer_1-2" data-name="Layer 1"><path class="cls-1" d="M184.73,270.36c-25.19,0-50.39,0-75.59,0a28.77,28.77,0,0,1-13-2.76c-33.22-16.27-59.77-39.56-76.21-73.24A126.11,126.11,0,0,1,6.8,142.55c-.07-2-.45-3.69-2-5-6-4.88-5.79-18.34-2.29-23.78,2.24-3.48,5.18-5.47,9.58-5.39,9.22.16,18.46.06,27.69,0,5,0,5.2-.19,5.2-5.34Q45,66,45,29c0-12.56,6.87-22.32,18.8-27.06A29.6,29.6,0,0,1,95.53,9a25.44,25.44,0,0,1,6.53,10.78c.74,2.76,2.12,3.29,4.61,2.57,2.15-.62,4.37-1,6.54-1.58,3-.78,5.42.28,6.27,3.16s-1,4.81-3.75,5.48C105.19,32,94.63,34.52,84.06,37a4.38,4.38,0,0,1-5.53-3.25c-.88-2.79.76-4.63,3.23-5.47s5.31-1.31,8-2c4.19-1.07,4.61-2,2.76-6C88.89,12.45,79.2,7.64,70.63,9.36c-9.79,2-16.52,9.46-16.56,19-.11,20.46,0,40.92,0,61.38,0,5,.09,10,0,15-.06,2.7.93,4,3.7,3.78,1.24-.09,2.49,0,3.74,0H354.12c9.37,0,14,4.62,14.37,14.15.21,5.93-.58,11.48-5.37,15.68-1.25,1.11-1.28,2.6-1.37,4.12-1.82,33.36-14.79,62-36.95,86.66a170,170,0,0,1-49.74,37.82,31.3,31.3,0,0,1-14.73,3.54C235.13,270.3,209.93,270.36,184.73,270.36Zm0-9.19q37.23,0,74.46,0a22.06,22.06,0,0,0,9.82-1.87,156.2,156.2,0,0,0,39.66-27.18c25-23.66,40.55-52.13,43.6-86.89.32-3.63-.57-4.65-4-4.61-9.85.14-19.71.05-29.56.05-5.6,0-5.61,0-5.61,5.61,0,19.45.05,38.91,0,58.37,0,12.49-9.87,23.58-23.24,23.1-14.44-.51-28.93-.14-43.39-.1a18.47,18.47,0,0,1-8.71-1.78c-8.58-4.4-13-11.58-13.05-21.08-.17-19.33,0-38.67,0-58,0-6.11,0-6.12-6.2-6.12H22c-.87,0-1.75.05-2.62,0-2.61-.14-3.58,1.08-3.36,3.64a127.81,127.81,0,0,0,11.34,43.95c15,32,39.64,54.17,70.73,69.88a28,28,0,0,0,13,3C135.6,261.13,160.17,261.17,184.74,261.17Zm84.17-143.6c-10.35,0-20.7.08-31,0-3,0-4.17,1-4.16,4.1q.15,36.09,0,72.17c0,2.72,1,3.76,3.7,3.76q31-.11,62.07,0c3,0,3.93-1.21,3.88-4-.12-6,.31-11.95.39-17.92.26-17.94,0-35.89.18-53.84,0-3.33-1.23-4.3-4.4-4.25C289.35,117.66,279.13,117.57,268.91,117.57ZM117.29,131H217.2c8.18,0,7.39.67,7.42-7.48,0-5.94,0-6-6-6H16.6c-1.12,0-2.24,0-3.36,0a2.81,2.81,0,0,0-2.63,1.15,11.35,11.35,0,0,0-.53,10.09c1.09,2.87,3.67,2.12,5.8,2.13Q66.59,131,117.29,131Zm151.62,75.71c-10.2,0-20.41,0-30.61,0-3.92,0-4.36.86-2.71,4.48,2.06,4.55,5.7,7.08,10.53,7.14,15.05.18,30.11.15,45.17,0,4.83-.05,8.5-2.54,10.66-7,1.82-3.75,1.32-4.62-2.79-4.63C289.08,206.69,279,206.71,268.91,206.71ZM335.27,131c6.11,0,12.22,0,18.33,0,4.41,0,5.73-1.59,5.74-6.68s-1.32-6.71-5.69-6.72c-10.47,0-20.95-.08-31.42,0s-9-1.62-9.2,9.47c0,2.88,1,4,3.92,4C323.05,130.89,329.16,131,335.27,131Z"/></g></g></svg>