<svg xmlns="http://www.w3.org/2000/svg" viewBox="0 0 368.21 297.7"><defs><style>.cls-1{fill:#fff;}</style></defs><g id="Layer_2" data-name="Layer 2"><g id="Layer_1-2" data-name="Layer 1"><path class="cls-1" d="M128.84,122.45H250.08c5.88,0,5.89,0,5.89-6,0-14.09,0-28.18,0-42.28,0-5,.7-9.69,5.78-12C266.45,60,271,60.72,275.05,64a11.36,11.36,0,0,0,4.38,2c2.79.77,4.83.11,5.95-2.85a88.87,88.87,0,0,0,4.54-18.1c.27-1.77-.39-2.49-2.05-2.82-12.34-2.42-18.71-15.49-18.48-25.08.09-3.81,1.56-6.09,4.21-5.87,3.35.29,4.61,2.66,4.75,5.71a20.92,20.92,0,0,0,2.88,10,12.64,12.64,0,0,0,6.29,5.62c2.83,1.11,4.22.37,4.35-2.81.32-7.35,1.05-14.67.81-22a19.36,19.36,0,0,1,.17-3.73c.41-2.52,1.89-4.19,4.54-4a4.09,4.09,0,0,1,4.21,4.36c0,6.61.2,13.24-.26,19.82-.8,11.68-1.88,23.36-4.95,34.73-.52,1.93.1,2.27,2,2.26,8.85,0,12.23,3.35,12.25,12.13,0,14.84.12,29.68,0,44.52,0,3.63,1.19,4.72,4.74,4.68,15.1-.15,30.19-.07,45.28-.05a20,20,0,0,1,4.1.21,4.43,4.43,0,0,1,.15,8.62,16.79,16.79,0,0,1-4.08.27c-11.48,0-22.95.08-34.43,0-2.85,0-4.16.91-4.79,3.84-5,23-10.28,46-15.05,69.07-2.43,11.74-8,20.29-19.94,23.74-2,.57-2,1.8-1.44,3.48q7.13,20.9,14.19,41.8c1.76,5.2,3.58,10.38,5.3,15.59,1.51,4.57.76,7.32-2.13,8.36s-5.27-.74-6.8-5.23c-6.62-19.48-13.28-39-19.71-58.5-1.16-3.53-2.76-4.82-6.58-4.81q-85.3.19-170.63,0c-3.8,0-5.42,1.27-6.58,4.81-6.37,19.44-13,38.79-19.52,58.17-.28.83-.53,1.67-.88,2.47-1.06,2.46-2.85,3.91-5.59,3.19-2.93-.78-4-3.12-3.26-5.83,1.28-4.69,2.89-9.29,4.44-13.89,5.05-15,10.09-30,15.25-45,1-2.74.82-4.09-2.39-5.12-9.41-3-15.3-9.61-17.47-19.27-4.05-18-8-36-11.94-54-1.36-6.22-2.83-12.41-4-18.66-.6-3.26-2.22-4.2-5.38-4.16-11.47.14-22.95.06-34.42,0a14.77,14.77,0,0,1-3.71-.26A4.16,4.16,0,0,1,0,126.92a4.11,4.11,0,0,1,3.51-4.24A22.91,22.91,0,0,1,8,122.45ZM251,131.58q-28.62,0-57.23,0c-5,0-5,0-5,5q0,39.08,0,78.17c0,5,0,5,5,5h83.78c11.38,0,17-4.57,19.44-15.6q7.47-34,15-67.91c1-4.56,1-4.65-3.68-4.65Q279.58,131.57,251,131.58ZM122.89,178H72c-6.4,0-6.39,0-5,6q2.42,10.77,4.79,21.54c2,9.12,8,14.16,17.48,14.18,28.67.06,57.34,0,86,.09,3.27,0,4.34-1.07,4.29-4.33-.15-11-.18-21.94,0-32.9.06-3.62-1.15-4.72-4.72-4.69C157.55,178.05,140.22,178,122.89,178Zm-5.45-46.38c-19.33,0-38.66,0-58-.05-3.08,0-4,.87-3.25,3.92,2.25,9.59,4.41,19.2,6.4,28.84.63,3.06,2.17,4,5.16,4q53.7-.11,107.38,0c3.52,0,4.5-1.3,4.44-4.62-.16-9.1-.21-18.22,0-27.31.1-3.82-1.18-4.91-4.93-4.88C155.61,131.66,136.53,131.58,117.44,131.58Zm184.09-35.4h0c0-7.48.05-15,0-22.44,0-3.63-.86-4.07-3.92-2.08-9.26,6-18.47,5.79-27.74,0-3.31-2.06-4.19-1.63-4.21,2.16,0,15,0,29.91,0,44.87,0,2.71,1,3.78,3.76,3.75,9.35-.08,18.69-.1,28,0,3.11,0,4.18-1.25,4.14-4.24C301.45,110.88,301.53,103.53,301.53,96.18Z"/><path class="cls-1" d="M244.62,154c-5,0-10,.07-14.94,0-3.76-.08-6.08-2-5.8-4.87.34-3.52,2.87-4.27,5.91-4.26,10,0,19.92,0,29.89,0,3.75,0,5.82,1.64,5.57,4.48-.29,3.35-2.55,4.62-5.68,4.63C254.58,154,249.6,154,244.62,154Z"/></g></g></svg>