<svg xmlns="http://www.w3.org/2000/svg" viewBox="0 0 369.27 358.71"><defs><style>.cls-1{fill:#fff;}</style></defs><g id="Layer_2" data-name="Layer 2"><g id="Layer_1-2" data-name="Layer 1"><path class="cls-1" d="M184.89,358.61q-81,0-162,0c-6.75,0-12.5-1.91-17-7.1A17.16,17.16,0,0,1,1.29,340q0-66.24.06-132.48c0-8.84,6.81-16.5,15.6-18a46.79,46.79,0,0,1,8.18-.75q160,0,320,0a51.26,51.26,0,0,1,7.82.66,18.8,18.8,0,0,1,16.13,18.72c.1,17.34.05,34.68.06,52,0,25.82-.37,51.65.16,77.46.25,12.07-9.87,21.17-21.21,21.13C293.67,358.48,239.28,358.6,184.89,358.61Zm-63.76-85.05h0c0-23.44-.07-46.88.07-70.32,0-3.76-1.12-4.93-4.9-4.92-31.29.13-62.59.06-93.89.08-8,0-12,4-12,12q0,63.21,0,126.43c0,8.51,3.54,12.05,12.05,12.06q46.76,0,93.51,0c4.94,0,5.08-.14,5.08-5Q121.14,308.73,121.13,273.56Zm130.27,0q0,34.79,0,69.58c0,5.71,0,5.74,5.51,5.74q45.27,0,90.54,0c9,0,12.45-3.41,12.45-12.41q0-62.87,0-125.71c0-8.47-3.87-12.35-12.34-12.36q-45.45,0-90.91,0c-5.19,0-5.27.07-5.27,5.19Q251.38,238.57,251.4,273.56Zm-65.09,12.51c-17.09,0-34.18.07-51.26-.07-3.57,0-4.8,1.14-4.78,4.73q.21,26.76,0,53.51c0,3.61,1.19,4.72,4.75,4.71,33.93-.11,67.86-.06,101.79-.07,4.67,0,4.85-.18,4.85-4.86,0-17.71-.09-35.43.09-53.14,0-3.79-1.15-4.93-4.92-4.89C220,286.16,203.15,286.06,186.31,286.07Zm-.42-9.2c17.2,0,34.41-.05,51.61.05,3,0,4.26-.86,4.22-4q-.21-15,0-29.91c0-3.1-1.08-4.12-4.14-4.11q-51.44.1-102.85,0c-3.56,0-4.49,1.39-4.44,4.66.13,9.6.18,19.2,0,28.8-.08,3.67,1.25,4.66,4.77,4.63C152,276.79,168.94,276.87,185.89,276.87Zm.05-47.15c17.19,0,34.39-.05,51.59,0,3,0,4.25-.9,4.19-4q-.22-11.6,0-23.18c.06-3-1-4.19-4.09-4.18q-51.58.1-103.18,0c-3,0-4.25.94-4.18,4.08.15,7.47.22,14.95,0,22.42-.12,3.72,1,5,4.84,5C152,229.61,169,229.72,185.94,229.72Z"/><path class="cls-1" d="M184.54,0h174c8.25,0,9.66,1.38,9.66,9.48q0,39.1,0,78.21c0,7-1.81,8.88-8.83,8.89h-110c-6.37,0-7.62-1.28-7.64-7.69,0-5.74-.1-11.48.05-17.22.07-3-.92-4.32-4.07-4.25-6.48.15-13,.12-19.46,0-3,0-4.27,1.17-4.2,4.22.13,5.61-.06,11.22.09,16.83.13,4.61,2.65,8.53,4.2,12.72,2.8,7.6,6,15.06,8.92,22.62,2.78,7.12.25,10.93-7.28,10.93q-35.53,0-71.09,0c-7.49,0-10-3.46-7.32-10.58C145,115,148.46,106,152.24,97a31.61,31.61,0,0,0,2.59-14.17c-.19-3.86-.08-7.73,0-11.6,0-2.4-.85-3.78-3.46-3.77q-10.66.06-21.33,0c-2.84,0-3.6,1.52-3.57,4,.06,6.23,0,12.47,0,18.71,0,4.79-1.45,6.33-6.24,6.34q-56.32.06-112.64,0c-4.74,0-7.43-2.33-7.46-7C0,75.56-.2,61.6.36,47.63.87,34.93.57,22.2.6,9.48.63,1.19,1.81,0,10.17,0ZM305.35,87.53c16.45,0,32.9-.07,49.35.06,3.41,0,4.56-1.08,4.55-4.52q-.17-34.77,0-69.55c0-3.34-1-4.6-4.48-4.59q-49.73.15-99.46,0c-3.68,0-4.67,1.34-4.65,4.82.12,22.93.07,45.87.1,68.8,0,4.71.3,5,5.21,5Q280.66,87.55,305.35,87.53ZM63.77,9C47.19,9,30.61,9,14,8.94c-3.1,0-4.51.84-4.49,4.22q.15,35.15,0,70.3c0,3.1,1.16,4.12,4.19,4.11q49.72-.1,99.46,0c3.33,0,4.27-1.25,4.26-4.41q-.12-34.77,0-69.55c0-3.61-1.22-4.72-4.76-4.69C96.42,9.07,80.1,9,63.77,9ZM183.9,58.43c17.82,0,35.65,0,53.48,0,3.17,0,4.44-1,4.41-4.3q-.18-20.38,0-40.77c0-3.49-1.28-4.48-4.62-4.47q-53.1.12-106.21,0c-3.33,0-4.64,1-4.6,4.47q.23,20.19,0,40.39c0,3.63,1.26,4.72,4.79,4.7C148.74,58.36,166.32,58.44,183.9,58.43Zm.54,67.22c9.86,0,19.71-.06,29.57,0,3.1,0,3.7-1,2.59-3.8q-4.47-11.11-8.72-22.31a4,4,0,0,0-4.16-3q-19.28.06-38.55,0a3.82,3.82,0,0,0-4,2.66c-2.92,7.56-5.84,15.13-8.86,22.65-1.12,2.76-.52,3.83,2.58,3.8C164.73,125.59,174.58,125.65,184.44,125.65Zm-.08-38.12c5.61,0,11.21-.07,16.82,0,2.6,0,4-.79,3.89-3.63-.12-4.36-.08-8.72,0-13.08,0-2.36-1-3.41-3.34-3.4q-17.21,0-34.39,0c-2.58,0-3.57,1.11-3.52,3.62.09,4.23.11,8.48,0,12.71-.07,2.7,1,3.84,3.73,3.79C173.14,87.45,178.75,87.53,184.36,87.53Z"/><path class="cls-1" d="M68.82,216.36q-14,0-28,0a24.27,24.27,0,0,1-3.72-.16A4.44,4.44,0,0,1,33,212a4.19,4.19,0,0,1,3.39-4.71,19.39,19.39,0,0,1,5.15-.64q27.65-.06,55.28,0c5.68,0,8,1.56,8,5.09-.05,3.27-2.32,4.6-7.93,4.61Z"/><path class="cls-1" d="M307.57,216.36H278.82a10.55,10.55,0,0,1-4.42-.55,4.18,4.18,0,0,1-2.79-4,4.37,4.37,0,0,1,2.78-4.43,13.23,13.23,0,0,1,5.15-.7q27.63,0,55.27,0a19.5,19.5,0,0,1,5.16.63A4.22,4.22,0,0,1,343.4,212a4.43,4.43,0,0,1-4.09,4.19,31.71,31.71,0,0,1-4.47.17Q321.21,216.38,307.57,216.36Z"/><path class="cls-1" d="M309.78,71.05c6.36,0,12.71,0,19.06,0,2.83,0,5.15.94,5.28,4s-2.14,4.84-5,4.87q-19.62.19-39.23,0c-2.91,0-5.22-1.69-5.1-4.84s2.67-4.09,5.6-4.07C296.83,71.07,303.31,71,309.78,71.05Z"/><path class="cls-1" d="M64,71.05c6.35,0,12.7,0,19,0,3,0,5.36.93,5.43,4.23S86.19,79.93,83.33,80q-19.43.17-38.83,0c-2.91,0-5.27-1.54-5.29-4.67C39.2,72,41.64,71,44.62,71,51.1,71.07,57.57,71.05,64,71.05Z"/></g></g></svg>