<svg xmlns="http://www.w3.org/2000/svg" viewBox="0 0 354.73 344.2"><defs><style>.cls-1{fill:#fff;}</style></defs><g id="Layer_2" data-name="Layer 2"><g id="Layer_1-2" data-name="Layer 1"><path class="cls-1" d="M266.69,127h4.65c21,0,41.91,0,62.87,0,11.91,0,19.76,8,19.94,20,.88,57.37.47,114.74.56,172.1a38.38,38.38,0,0,1-1.15,10.75c-2.4,8.34-9.6,13.66-19,14.28-1.25.08-2.5.05-3.74.05H23.94c-4.79,0-9.49-.35-13.73-2.86C2.45,336.75,0,329.49,0,321q0-13.28,0-26.57C0,264,0,233.56.05,203.13.11,184.05.37,165,.61,145.9a18.75,18.75,0,0,1,19.15-18.84c23.07-.07,46.15,0,69.22,0q47.91,0,95.8,0c1.28,0,3.13.7,3.69-.85.44-1.2-1.2-2-2-2.89C175.72,112,169.91,98.77,169.85,83.18c0-3.68-1.57-7-1.59-10.7-.09-16.47,15.87-26.55,30.57-19.2,4.19,2.1,10.43-.28,12-4.69a21.81,21.81,0,0,1,4.26-7.41c1.53-1.65,1.3-2.58-.51-3.77-8.9-5.85-13.08-14.4-13.91-24.81-.36-4.43.62-5.48,4.94-5.11,7.65.66,14.72,2.79,20.29,8.4,2,2,2.78.91,3.77-.93,4-7.42,10.28-12,18.2-14.58,2.44-.8,3.61-.43,4.36,2.14,3.31,11.23,1.82,21.55-6,30.44-2.34,2.67-3.24,4.17.13,6.62a15.73,15.73,0,0,1,5.12,7.25c2.14,5.52,2.92,5.92,8.58,4.61a20.93,20.93,0,0,1,24.75,13.12,12,12,0,0,1,1.06,5.09c-.53,8.07-.27,16.21-1.85,24.18a61.12,61.12,0,0,1-15.88,30.44A3.66,3.66,0,0,0,266.69,127Zm-105,108.63h0q0-47.16,0-94.31c0-5.15-.06-5.21-5.25-5.21H22.06c-8.43,0-12.34,3.92-12.34,12.37q0,86.84,0,173.66c0,8.63,3.66,12.28,12.31,12.28q67.17,0,134.36,0c5.17,0,5.22-.06,5.22-5.23Q161.66,282.45,161.65,235.66Zm96.84,3H176.58c-5.16,0-5.2,0-5.2,5.24q0,42.65,0,85.28c0,5.2.05,5.26,5.19,5.26q78,0,156,0c8.86,0,12.44-3.6,12.44-12.51q0-38.9,0-77.8c0-5.44,0-5.46-5.33-5.46Zm-.37-9.73q40.78,0,81.58,0c5.23,0,5.28,0,5.29-5.17q0-37.6,0-75.22c0-8.49-3.88-12.42-12.3-12.42H176.65c-5.22,0-5.3.07-5.3,5.15q0,41.18,0,82.34c0,5.3,0,5.32,5.52,5.32Q217.51,229,258.12,229ZM227.35,86Q205.66,86,184,86c-5.22,0-5.34.12-4.25,5.33,2.93,14,10.12,25,22.14,32.88a16.35,16.35,0,0,0,9.48,2.84c11-.14,21.94-.16,32.91,0a16.57,16.57,0,0,0,10.12-3.17c11.81-8.22,18.38-19.67,21-33.63.65-3.42-.6-4.34-3.89-4.32C256.78,86.1,242.06,86,227.35,86ZM188.71,77c2.73,0,5.46,0,8.19,0,2.3,0,3.34-1.18,3.62-3.36a11.59,11.59,0,0,0-5.34-11.87,10.56,10.56,0,0,0-12.28-.07,11.58,11.58,0,0,0-5.5,11.79c.27,2.38,1.41,3.58,3.87,3.52S186.23,77,188.71,77Zm76.59,0c2.61,0,5.22,0,7.82,0s3.52-1.29,3.78-3.62a11.62,11.62,0,0,0-5.59-11.76,10.49,10.49,0,0,0-11.65-.2,11.56,11.56,0,0,0-6,11.56c.21,2.69,1.29,4.14,4.16,4C260.33,76.9,262.82,77,265.3,77Zm-47.23,0c1.37,0,2.74,0,4.1,0,4-.08,5.32-1.49,5.23-5.46-.17-7.4-7.68-13.16-14.8-11.36-4.08,1-4.57,1.89-3.55,6a18.46,18.46,0,0,1,.51,2.94C210.18,77,210.17,77,218.07,77ZM243,50c-.15-.29-.39-.86-.69-1.4-4.17-7.56-16.65-7.84-21.14-.5-1,1.7-1.12,2.94,1,3.79A22.52,22.52,0,0,1,231.39,58c1.22,1.45,2.21,1.15,3.25-.29a17.25,17.25,0,0,1,6.4-5C242,52.18,243.15,51.77,243,50Zm1.8-34.69c0-1.88-.27-3.57-2.21-1.9A20.17,20.17,0,0,0,235,27.88c0,.71-.09,1.57.77,1.92.66.28,1.18-.17,1.65-.58A21.14,21.14,0,0,0,244.75,15.31ZM225.92,32.55c-2.18-6.84-5.95-11.17-11.65-13.85-.77-.36-1.64-.92-2.45-.28s-.36,1.62,0,2.38A20.76,20.76,0,0,0,225.92,32.55Zm21.51,28.12c-6.45,1-10.41,9.8-7.14,14.91a2.39,2.39,0,0,0,2.85,1.17c1.41-.34,1.56-1.51,1.5-2.65A23.66,23.66,0,0,1,247.43,60.67Z"/><path class="cls-1" d="M151.17,235.6c0,4.61.06,9.23,0,13.84-.05,3-1,5.47-4.55,5.73-3,.22-4.95-1.67-5-5.63-.16-9.46-.13-18.94,0-28.41,0-2.95,1.27-5.45,4.76-5.62,2.9-.14,4.74,2.1,4.81,5.89C151.25,226.13,151.18,230.87,151.17,235.6Z"/><path class="cls-1" d="M263,252.89c-1.49,0-3,.07-4.49,0-2.87-.16-4.72-1.54-4.89-4.57s1.53-4.4,4.19-4.8a36.27,36.27,0,0,1,10.81,0c2.71.42,4.69,2,4.44,5.07-.23,2.78-2.15,4.12-4.82,4.29-1.74.12-3.49,0-5.24,0Z"/><path class="cls-1" d="M263.11,167.38a37.7,37.7,0,0,1-5.21,0c-2.64-.37-4.29-1.89-4.24-4.77a4.2,4.2,0,0,1,4.13-4.47,67,67,0,0,1,10.79,0c2.7.24,4.73,1.86,4.48,4.94s-2.3,4.25-5.1,4.41c-1.61.09-3.23,0-4.85,0Z"/></g></g></svg>