<svg xmlns="http://www.w3.org/2000/svg" viewBox="0 0 369.12 360.07"><defs><style>.cls-1{fill:#fff;}</style></defs><g id="Layer_2" data-name="Layer 2"><g id="Layer_1-2" data-name="Layer 1"><path class="cls-1" d="M184.29,0h174c8.57,0,9.93,1.36,9.93,10q0,38.55,0,77.09c0,7.17-2.11,9.41-9.34,9.45-14.84.09-29.69,0-44.53,0h-302C1.26,96.57,0,95.3,0,84.14Q0,47.09,0,10.05A29.19,29.19,0,0,1,.37,4.84,5.4,5.4,0,0,1,5.79.08C7.29,0,8.79,0,10.28,0Zm-.19,9c-17.7,0-35.41.06-53.11-.06-3.39,0-4.59,1.11-4.57,4.54q.17,34.43,0,68.83c0,3.63,1.25,4.7,4.78,4.7q52.93-.15,105.86,0c3.58,0,4.76-1.16,4.74-4.74-.11-22.82,0-45.63,0-68.45,0-4.59-.23-4.81-4.92-4.82Zm120.78,78c16.7,0,33.39,0,50.09,0,2.95,0,4.31-.86,4.27-4q-.18-14.2,0-28.41c0-3.31-1.4-4.3-4.51-4.29q-49.9.09-99.81,0c-3.35,0-4.28,1.32-4.23,4.46.15,9.21.2,18.44,0,27.66C250.65,86,252,87,255.54,87,272,86.86,288.43,86.94,304.88,86.94ZM63.23,9C46.64,9,30.05,9,13.46,8.94c-3.1,0-4.56.84-4.5,4.23.16,8.72.13,17.46,0,26.19-.05,3.06,1.06,4.17,4.15,4.16q50.15-.1,100.29,0c3.11,0,4.16-1.16,4.12-4.19-.13-8.48,0-17,0-25.45,0-4.68-.21-4.88-4.85-4.89Zm.38,43.48c-16.71,0-33.42.08-50.13-.06C10,52.38,8.9,53.59,9,57c.17,8.6.15,17.21,0,25.81,0,3,1,4.19,4.13,4.19q50.13-.11,100.27,0c3.12,0,4.14-1.2,4.09-4.21-.11-8.48,0-17,0-25.44,0-4.7-.16-4.85-4.85-4.85Q88.13,52.45,63.61,52.47Zm241-11.19c16.7,0,33.4-.07,50.09,0,3.37,0,4.67-1,4.59-4.5-.18-8-.13-15.95,0-23.93,0-2.9-1.12-4-4-3.94Q305,9,254.73,9c-3.21,0-4,1.4-4,4.31.11,7.72,0,15.45,0,23.17,0,4.64.2,4.84,4.88,4.84Q280.13,41.3,304.61,41.28Z"/><path class="cls-1" d="M185.1,242.54H347.87c9.84,0,16.71,4.46,20,12.8a21.41,21.41,0,0,1,1.22,8.08q0,37.05,0,74.09c0,14.24-7.43,22-21.67,22.53-1,0-2,0-3,0H25.26c-4.51,0-9.06-.12-13.15-2.24C4.54,353.89.83,347.38.8,339c-.1-25.32-.17-50.64,0-76,.1-12.2,8.83-20.45,21.13-20.45Q103.54,242.52,185.1,242.54Zm.87,9.72q-25.26,0-50.51,0c-5,0-5.12.1-5.12,4.93,0,29.44,0,58.87-.08,88.31,0,3.76,1.09,4.92,4.88,4.91q50.9-.19,101.78,0c3.85,0,4.85-1.28,4.83-5-.13-29.44-.07-58.87-.08-88.31,0-4.71-.15-4.87-4.81-4.87Q211.42,252.24,186,252.26Zm-117.11,0c-15.71,0-31.43,0-47.14,0-7.53,0-11.21,3.75-11.22,11.32q0,37.42,0,74.83c0,8.13,3.78,11.89,11.94,11.9,31.3,0,62.61-.05,93.91.09,3.81,0,4.89-1.17,4.88-4.92-.14-29.44-.07-58.87-.08-88.31,0-4.83-.11-4.92-5.13-4.93Q92.43,252.25,68.86,252.27ZM302,350.34q22.83,0,45.66,0c8.17,0,12.19-3.91,12.21-12.19q.11-37,0-74.1c0-7.92-3.91-11.76-11.72-11.77q-46.21,0-92.44,0c-4.7,0-4.85.15-4.86,4.83q0,44.16,0,88.32c0,4.89,0,4.92,5.11,4.92Q279,350.36,302,350.34Z"/><path class="cls-1" d="M188.35,219.48c-9.1,0-18.2,0-27.3,0-11.64,0-20-8.23-20.31-19.94-.11-4-.08-8,0-12,0-2.36-1-3.41-3.34-3.39-3.57,0-7.29-.79-8.17,4.52-.38,2.28-2.92,2.92-5.15,2.93-9,0-18,.21-26.93-.08-7.15-.22-12.61-5.91-12.52-12.34s5.1-11.8,12.35-12.06c9.09-.33,18.2-.14,27.3-.08a5.33,5.33,0,0,1,5.62,4.49c1.22,5,5.25,2.5,8.08,2.8,3,.32,2.68-2.21,2.78-4.19.26-5.13,2-6.88,7.23-6.89q40.2,0,80.41,0c5.53,0,7.32,1.87,7.35,7.51.05,9.23.12,18.46,0,27.68-.17,12.86-8.44,21-21.19,21Q201.45,219.5,188.35,219.48ZM188.24,173c-11.22,0-22.45.06-33.67-.05-3,0-4.26,1-4.2,4.12.14,7.36,0,14.71.07,22.07,0,6.84,4,11.09,10.82,11.14q26.93.21,53.86,0c6.78-.05,10.82-4.35,10.89-11.14.08-7.23-.11-14.47.09-21.7.1-3.46-1.19-4.56-4.57-4.51C210.43,173.05,199.34,173,188.24,173Zm-80.84,9c3.23,0,6.46,0,9.69,0,1.75,0,3.28-.25,3.32-2.53s-1.31-2.71-3.15-2.71c-6.46,0-12.92,0-19.38,0-1.72,0-3.39.34-3.43,2.52,0,2.44,1.79,2.68,3.63,2.69C101.19,182,104.29,182,107.4,182Z"/><path class="cls-1" d="M144.36,231.84a17,17,0,0,1,4.27-8.57c1.6-1.83,3.74-1.79,5.74-.32a10.75,10.75,0,0,1,2.68,3.55c.48.84.65,2.23,1.7,2.28,1.35.06,1.45-1.51,1.95-2.42,1.16-2.13,2.29-4.37,5.08-4.4s4.06,2,5.28,4.17c1.85,3.22,2.14,3.21,3.95.09,3.38-5.83,6.92-5.88,10.27.1,1.6,2.86,2.47,2.35,3.92,0,3.65-6,6.76-6,10.45.3,1.36,2.31,2.29,2.33,3.5.07.18-.33.36-.66.56-1,3-5,6.63-5,9.62-.16,2.26,3.66,2.26,3.66,4.49.16,3.27-5.11,6.66-5.07,9.81.19,1.41,2.34,3,4.73,2.6,7.63a7.63,7.63,0,0,1-4.75,6.27,6.9,6.9,0,0,1-7.93-1.62c-1.49-1.51-2.3-1.49-3.87-.06-3.52,3.18-6.94,3.1-10.62-.22-1.37-1.23-2-1.15-3.32,0-3.93,3.4-7.1,3.42-10.9,0-1.38-1.23-2-1.14-3.32,0-3.92,3.4-7.09,3.42-10.9,0-1.38-1.24-2-1.11-3.31,0-3.68,3.19-7,3.45-10.34.4-1.9-1.72-2.83-1.48-4.47.14-2.26,2.24-5.05,2.48-7.95,1.09S144.29,235.87,144.36,231.84Z"/><path class="cls-1" d="M187.88,148.7c0,2.49.13,5,0,7.47a4,4,0,0,1-4.38,4.11c-2.65,0-4.37-1.52-4.48-4.07-.2-5.09-.2-10.21,0-15.3.11-2.68,1.79-4.51,4.61-4.37s4.26,1.88,4.31,4.69c.05,2.49,0,5,0,7.47Z"/><path class="cls-1" d="M217.83,148.65c0,2.49.11,5,0,7.47a4,4,0,0,1-4.34,4.16c-2.65,0-4.42-1.48-4.52-4-.2-5.22-.18-10.46.06-15.68a4,4,0,0,1,4.5-4.05,4.17,4.17,0,0,1,4.31,4.28C217.93,143.42,217.84,146,217.83,148.65Z"/><path class="cls-1" d="M172.92,144.84c0,1.25.08,2.5,0,3.73-.2,2.61-1.62,4.16-4.29,4.22a4.1,4.1,0,0,1-4.57-4,43.94,43.94,0,0,1,0-8.19,4.13,4.13,0,0,1,4.47-4.11c2.73.1,4.28,1.77,4.4,4.58.06,1.24,0,2.49,0,3.73Z"/><path class="cls-1" d="M202.84,144.74a40.05,40.05,0,0,1,0,4.1,4,4,0,0,1-4.15,3.95c-2.64.1-4.39-1.31-4.66-3.86a43.93,43.93,0,0,1,0-8.19c.21-2.51,1.76-4.24,4.38-4.21s4.35,1.66,4.51,4.48c.07,1.24,0,2.48,0,3.73Z"/><path class="cls-1" d="M184.18,260.51q14.2,0,28.4,0a17.63,17.63,0,0,1,3.71.24c2.29.51,3.81,1.87,3.81,4.39a4.27,4.27,0,0,1-3.54,4.61,24.27,24.27,0,0,1-4.81.45q-27.28,0-54.56,0a25.39,25.39,0,0,1-4.09-.26c-2.68-.44-4.88-1.69-4.8-4.75s2.27-4.5,5.24-4.65c1-.06,2,0,3,0Z"/><path class="cls-1" d="M69.24,260.51H96.89a24.27,24.27,0,0,1,3.72.17,4.47,4.47,0,0,1,4.1,4.19c.25,2.47-1.19,4.05-3.37,4.77a14.48,14.48,0,0,1-4.41.56q-28,.06-56,0c-5.52,0-8.08-1.69-8-5.12.07-3.26,2.35-4.59,8-4.59Z"/><path class="cls-1" d="M307.42,260.51H335.8a21,21,0,0,1,3.72.22,4.3,4.3,0,0,1,3.83,4,4.53,4.53,0,0,1-3.29,4.87,15.63,15.63,0,0,1-5.53.63q-27.27,0-54.53,0a23.75,23.75,0,0,1-4.46-.35c-2.6-.49-4.45-2-4.21-4.82a4.66,4.66,0,0,1,4.72-4.44c2.35-.17,4.72-.09,7.09-.09Z"/><path class="cls-1" d="M157.34,190.22a70.63,70.63,0,0,1,.07-7.84c.29-2.7,1.79-4.85,4.81-4.75,2.78.09,4.35,2.17,4.46,4.71.23,5.47.24,11,0,16.44-.13,2.65-1.91,4.28-4.79,4.21a4.25,4.25,0,0,1-4.45-4.18c-.27-2.84-.07-5.73-.07-8.59Z"/></g></g></svg>