<svg xmlns="http://www.w3.org/2000/svg" viewBox="0 0 368.23 331.03"><defs><style>.cls-1{fill:#fff;}</style></defs><g id="Layer_2" data-name="Layer 2"><g id="Layer_1-2" data-name="Layer 1"><path class="cls-1" d="M32.23,218.56c0-32.43,0-64.87.07-97.3,0-3.61-.92-5.4-4.53-6.85-9.43-3.82-15-11.12-15.71-21.39-.69-10.1,3.67-18,12.31-23.16,8.8-5.23,17.84-4.91,26.52.59a23.06,23.06,0,0,1,5,4.5c1.82,2.14,3.54,2.16,5.86.84q31.69-18.06,63.46-36c6.51-3.69,13-7.48,19.55-11a5.8,5.8,0,0,0,3.5-5.52C148.79,9.65,160.06-.32,174.3,0c12.86.29,23.85,11.23,23.14,24.37-.35,6.54,1.91,9.51,7.33,12.53,26.91,15,53.57,30.41,80.26,45.78,2.89,1.66,4.93,1.55,7.7-.5a53.66,53.66,0,0,1,72.9,8.43c3.73,4.35,3.5,6.75-1,10.2-6.54,5-13.05,10-19.68,14.92a4.39,4.39,0,0,0-2,5.06c1.43,6.63-.89,12.1-6,16.28a15.62,15.62,0,0,1-17.22,2.24c-2.84-1.28-4.71-.89-7,1-7.45,5.86-15,11.52-22.63,17.21-4.66,3.5-6.7,3.12-10.09-1.67-11.73-16.59-12.39-40.8-1.58-58.07a34.45,34.45,0,0,1,2.28-3.42c1.66-2,.91-3.14-1.15-4.32q-42-24.06-84-48.25c-2-1.17-3.31-.81-4.88.74-12,11.88-30.69,8.81-38.5-4-1.27-2.08-2.57-2.23-4.6-1.08q-33.45,19.11-67,38.12c-5.09,2.9-10.16,5.84-15.33,8.61a5.32,5.32,0,0,0-3.13,5.38c.3,12.61-5.71,21.08-17.32,25.63-2.06.81-3,2-2.9,4.18,0,.87,0,1.74,0,2.62q0,96.92,0,193.84c0,6,0,6,5.89,6H76.27c1.77,0,3.5.08,4.86,1.46a4.73,4.73,0,0,1,1.08,4.86,3.61,3.61,0,0,1-3.59,2.77c-2.74.12-5.48.1-8.23.1H7.9a31,31,0,0,1-3.74-.1C1.58,330.6.06,329.1,0,326.48a4.11,4.11,0,0,1,3.8-4.38,46.84,46.84,0,0,1,6.71-.27c5.62,0,11.24-.21,16.84.06,3.79.18,4.93-1.15,4.92-4.92-.13-32.8-.07-65.61-.07-98.41ZM324.45,80.86c-32.93,0-54.53,34.77-40,64.31,1.58,3.22,3,2.73,5.35,1q32.25-24.57,64.6-49c2.38-1.8,2.32-3.05.15-4.89C345.82,84.9,335.93,80.8,324.45,80.86ZM188.68,25c0-9.17-6.6-15.95-15.59-16a15.72,15.72,0,0,0-15.93,16.2,15.76,15.76,0,0,0,16.09,15.69A15.58,15.58,0,0,0,188.68,25ZM37.45,75.59c-9.2,0-16.43,6.93-16.36,15.81a16,16,0,0,0,32,0A15.73,15.73,0,0,0,37.45,75.59Z"/><path class="cls-1" d="M286.7,123.05a35.88,35.88,0,0,1,2.65-10.7c1-2.39,2.78-3.48,5.33-2.89s3.61,2.66,3.21,5.1c-.69,4.14-1.87,8.19-2.47,12.37-.33,2.31-2.29,3.59-4.73,3.14C287.3,129.45,286.61,126.87,286.7,123.05Z"/><path class="cls-1" d="M172.8,37.45a12.72,12.72,0,0,1-12.55-12.64c.14-6.84,6-12.72,12.71-12.71a12.91,12.91,0,0,1,12.65,12.64A12.49,12.49,0,0,1,172.8,37.45Z"/><path class="cls-1" d="M37.09,104.07A12.93,12.93,0,0,1,24.27,91.21c-.1-6.82,5.95-12.69,13-12.61a12.74,12.74,0,1,1-.16,25.47Z"/></g></g></svg>