<svg xmlns="http://www.w3.org/2000/svg" viewBox="0 0 282.29 368.31"><defs><style>.cls-1{fill:#fff;}</style></defs><g id="Layer_2" data-name="Layer 2"><g id="Layer_1-2" data-name="Layer 1"><path class="cls-1" d="M141.65,0h62.12c14.38,0,22.87,9.73,21.07,24.09q-7.07,56.19-14.11,112.38c-.79,6.28-3.51,8.8-9.79,8.81-16.84,0-33.68.09-50.52-.06-3.58,0-4.83,1.08-4.72,4.7.31,11.07-1.31,9.45,9.58,9.51,14.85.08,29.69,0,44.54,0a13.43,13.43,0,0,0,6.77-1.61c7.19-3.92,15-4.47,22.92-3.36,2.66.37,3.63-.39,4-2.87,1-7,2.61-14,3.19-21.06,1.29-15.64,11.14-20.63,24-21.22A46.33,46.33,0,0,1,278,112.11c3.47,1.2,4.95,3.34,4,6-1.2,3.34-3.92,3.68-6.76,2.71-5.31-1.82-10.75-2-16.26-1.83-8.25.25-11.5,2.95-12.77,11.14-3.58,23.16-7,46.34-10.61,69.5-.6,3.81.91,6.74,2.8,9.76,3,4.82,2.15,8.57-2.56,11.73-4,2.66-8.46,3.53-13.17,3.53l-71.1,0c-5.76,0-5.77,0-5.77,5.86,0,29.06.07,58.13-.08,87.19,0,3.78,1.09,5.35,4.85,6.39,13,3.6,21.73,11.76,24.67,25.34a10.51,10.51,0,0,0,2.21,4.64,8.51,8.51,0,0,1-.62,11.83,8.34,8.34,0,0,1-11,.48,8.46,8.46,0,0,1-1.57-11.74,6.78,6.78,0,0,0,.75-7c-2.75-7.34-8.22-11.69-15.45-14.11-2.51-.84-3.83-.07-3.8,2.73.06,4.49,0,9,0,13.48a6.71,6.71,0,0,0,1.8,4.35c3.25,4.13,3,8.43-.52,11.73a8.4,8.4,0,0,1-12.53-11.11,11.07,11.07,0,0,0,2.07-7.32c-.09-4-.07-8,0-12,0-2.05-.82-2.56-2.78-2.2-7.82,1.44-16.28,10.39-17.24,18.33a11.42,11.42,0,0,0,.79,5.1c1.55,4.54-.2,8.77-4.26,10.72a8.27,8.27,0,0,1-10.81-3.05c-2.5-4-1.9-8.19,2-11.28a9.46,9.46,0,0,0,3.48-5.42c3.45-12.75,12.07-20.38,24.59-23.64,3.29-.86,4.28-2.27,4.26-5.61-.12-29.57-.06-59.13-.07-88.69,0-5,0-5-5-5q-35.37,0-70.73,0a27.56,27.56,0,0,1-12-2.43c-6.67-3.17-8.15-7.76-4-13.73,2-3,1.67-5.78,1.22-8.89-3.48-24.06-6.88-48.12-10.36-72.17-.78-5.35-3.23-7.71-8.51-9-6.15-1.55-12.13-.57-18.11.88a26,26,0,0,1-3.62.93A4.61,4.61,0,0,1,.16,116.6c-.63-2.43.68-4.22,2.89-5,9.26-3.21,18.73-4.55,28.27-1.55,7.46,2.35,12.33,7.4,13.55,15.39s2.41,16,3.46,24c.36,2.69,1.09,4,4.25,3.56a34.59,34.59,0,0,1,21.7,4,20.79,20.79,0,0,0,10.36,2.45c15.72-.12,31.44-.15,47.15,0,3.8.05,5-1.18,4.91-4.94-.32-10.79,1.28-9.21-9.43-9.27-15.22-.08-30.44,0-45.66,0-6.34,0-8.62-1.88-9.42-8.11q-5.28-41.34-10.45-82.7c-1.32-10.51-2.5-21-4-31.52C56,10.56,64.71.08,77.28,0,98.74,0,120.19,0,141.65,0Zm-.29,9H119.29c-13.72,0-27.44-.06-41.15,0-8.08.05-12.58,5.32-11.41,13.05.37,2.47.66,4.94,1,7.41q6.49,51.17,13,102.33c.39,3.12,1.58,4.46,5,4.45q55.75-.17,111.49,0c3,0,4.37-.86,4.74-4.15,1.41-12.62,3.16-25.21,4.79-37.81,3.08-23.85,6.25-47.68,9.22-71.54C217,13.92,212.37,9,203.47,9Q172.42,9,141.36,9Zm-.13,206.53H219a36.41,36.41,0,0,0,7.43-.65c2.79-.57,3.56-1.42,1.84-4.17q-11.64-18.51-22.92-37.25c-1.89-3.16-4.09-4.4-7.81-4.38-27.3.15-54.59.08-81.89.08H83.88c-1.87,0-3.73-.13-4.95,1.84Q66.5,191.23,54,211.39c-1.09,1.76-.6,2.8,1.34,3.26a34.86,34.86,0,0,0,8.15.89Q102.35,215.5,141.23,215.53ZM54.38,191.22l.92.23,14.5-23.39c1.19-1.92.29-3-1.5-3.72-4.85-2.06-9.93-2.13-15.07-1.85-2.15.12-2.79,1.41-2.53,3.28C51.9,174.26,53.15,182.74,54.38,191.22Zm172.2-1.05,1.08-.33c1.17-7.71,2.32-15.42,3.52-23.12.28-1.78-.59-2.42-2.17-2.79a26.71,26.71,0,0,0-9.63-.5c-8,1.08-8.29,1.78-4.17,8.5C219,178,222.79,184.09,226.58,190.17Z"/></g></g></svg>