<svg xmlns="http://www.w3.org/2000/svg" viewBox="0 0 362.4 242.56"><defs><style>.cls-1{fill:#fff;}</style></defs><g id="Layer_2" data-name="Layer 2"><g id="Layer_1-2" data-name="Layer 1"><path class="cls-1" d="M280.09,99.6c-7-5-12.19-10.88-15.65-18.33-6.83-14.73-3.59-33.58,7.9-45A8.53,8.53,0,0,1,279,33.49c5.61.11,11.23,0,16.84,0,1.95,0,4.56.36,4.26-2.66-.27-2.72,2.73-6.37-2.54-8-7.86-2.37-13.07-9-13.09-15.56,0-2.59.45-4.82,3.58-5.15s4.8,1.25,5.25,4.1a9.28,9.28,0,0,0,4,6.5c2.48,1.71,3.56,1.2,3.74-1.79.13-2,0-4,.19-6,.29-2.9,1.56-5.06,4.89-5,2.68.06,4.56,2.57,4.45,5.89-.1,3-.33,6-.47,9-.09,1.95.64,2.81,2.72,2.07,2.52-.9,5.17-.67,7.78-.54s4.23,1.46,4.36,4.17-1.51,4.13-4,4.59c-1.46.27-3,.15-4.46.37a8.39,8.39,0,0,0-4.64,2.27c-1.3,1.25-2.41,2.91-1.91,4.64s2.57,1,3.95,1.07a37.38,37.38,0,0,0,7.48,0c6.24-1,10.06,2.28,13.37,6.89a41.45,41.45,0,0,1-8.4,57.18c-.83.65-2.07.93-2.34,2.24,1.14.83,2.42.44,3.6.45,8.86,0,17.71,0,26.57,0a16.36,16.36,0,0,1,4.43.47c2.19.64,3.8,2.12,3.63,4.59a4.72,4.72,0,0,1-4,4.37,18.61,18.61,0,0,1-4.1.22H8.37C3,109.92.09,108.17.16,105s2.94-4.75,8.08-4.75c10.72,0,21.45-.1,32.17,0,3.35,0,4.82-1,4.59-4.49a97.22,97.22,0,0,1,0-10.1c.24-6.15,3.55-9.34,9.69-9.51C59.85,76,59.85,76,59.87,71c0-3.62-.06-7.24,0-10.85.13-4.7,2.68-7.35,7.37-7.78,1.11-.11,2.24-.07,3.36-.07H183.26c8.35,0,10.7,2.34,10.72,10.62,0,4.49.05,9,0,13.47-.08,5.93-2.83,8.72-8.66,8.91-5.64.19-5.68.19-5.64,5.94.07,10.17-1.14,9,8.94,9q43.21,0,86.43,0C276.5,100.22,278,100.54,280.09,99.6ZM127,76.16c16.08,0,32.16.06,48.23,0,11.26-.06,9.55,1.61,9.68-9.67.06-5.12,0-5.13-5.26-5.14H79c-10.16,0-10,0-10.15,10.07-.06,3.86,1.3,4.87,5,4.84C91.57,76.07,109.27,76.16,127,76.16Zm-24.77,9.1v0c-14.45,0-28.9.07-43.35,0-3.4,0-5.32.55-4.36,4.56A23.85,23.85,0,0,1,54.63,95c0,5.07.16,5.22,5.28,5.22,26.54,0,53.07.06,79.6,0,11.85,0,10,1.73,10.35-10.26.09-3.54-1.07-4.79-4.69-4.75C130.85,85.36,116.52,85.26,102.2,85.26ZM301.93,71c-9,0-17.94,0-26.91,0-3.93,0-4.37.74-3,4.46a31.61,31.61,0,0,0,59.46.06c1.38-3.85.93-4.51-3.35-4.53C319.37,71,310.65,71,301.93,71ZM283,61.26c3.11,0,6.21,0,9.32,0a3.31,3.31,0,0,0,3.52-2.65,91,91,0,0,0,2.71-12.73c.37-2.17-.53-3.31-2.81-3.3q-7.46,0-14.9,0a4.57,4.57,0,0,0-3.81,2A34.65,34.65,0,0,0,270.75,58c-.52,2.3.26,3.3,2.56,3.29Zm35.72,0c3.74,0,7.48,0,11.21,0,1.37,0,3.17,0,2.88-2a27.83,27.83,0,0,0-7.69-15.85,3.76,3.76,0,0,0-2.42-.76c-3.86-.08-7.72,0-11.58,0a2.92,2.92,0,0,0-3.25,2.88,85.89,85.89,0,0,1-2.38,12.84c-.59,2.17.25,3,2.39,3C311.49,61.24,315.11,61.27,318.72,61.27ZM170,92.61h-.06c0-1.61,0-3.22,0-4.83a2.3,2.3,0,0,0-1.86-2.41c-6-1.71-8.58.13-8.58,6.17a37.19,37.19,0,0,1,0,4.09c-.39,3.61,1.23,4.77,4.73,4.67,5.68-.17,5.78-.1,5.8-5.83Z"/><path class="cls-1" d="M181.31,242.55H11.41c-1.24,0-2.49,0-3.74,0C2.1,242.44,0,240.42,0,234.76c0-15.47,0-30.93,0-46.4q0-24,0-47.9c0-7.19,1.72-8.94,8.74-8.94h345c6.79,0,8.58,1.83,8.58,8.72q0,46.79,0,93.56c0,7-1.78,8.75-8.94,8.75Zm-52.51-9.2c38.29,0,76.58,0,114.88.08,3.79,0,4.9-1.13,4.89-4.9-.14-27.57-.07-55.14-.07-82.71,0-5.12,0-5.14-5.25-5.14H15c-5.18,0-5.25.07-5.25,5.2q0,41.16,0,82.33c0,5.07.08,5.14,5.31,5.14Q71.92,233.37,128.8,233.35Zm176.35,0c14.34,0,28.68-.08,43,.06,3.39,0,4.58-1.06,4.56-4.5q-.14-41.9,0-83.79c0-3.44-1.19-4.51-4.57-4.5q-43,.15-86,0c-3.42,0-4.53,1.06-4.52,4.5q.18,41.9,0,83.79c0,3.42,1.06,4.54,4.5,4.51C276.47,233.26,290.81,233.35,305.15,233.35Z"/></g></g></svg>