<svg xmlns="http://www.w3.org/2000/svg" viewBox="0 0 369.77 194.73"><defs><style>.cls-1{fill:#fff;}</style></defs><g id="Layer_2" data-name="Layer 2"><g id="Layer_1-2" data-name="Layer 1"><path class="cls-1" d="M184.5,0q70,0,140,0c8,0,14.69,2.48,19.25,9.41a18.75,18.75,0,0,1,3,10.64c0,12.23.1,24.46,0,36.68,0,3,.94,4.34,3.82,5.32,11.73,4,18.68,14,18.75,26.48,0,7.61,0,15.22,0,22.83q.24,35.92.51,71.84a28,28,0,0,1-.41,5.57c-.8,4-2.88,5.87-7,5.89q-21.33.11-42.67,0c-4.58,0-6.78-2.37-6.84-7.07-.1-7.36,0-14.72,0-22.08,0-6,0-6-5.87-6H62.19c-5,0-5.06,0-5.07,4.93,0,7.24,0,14.47,0,21.71,0,6.71-1.93,8.57-8.79,8.58q-19.45,0-38.92,0c-6.63,0-9.11-2.28-9.2-8.92-.14-10.85-.41-21.72.08-32.55.42-9.24.29-18.46.37-27.68.11-12.22,0-24.45,0-36.68,0-12.62,6.07-21.31,17.41-26.32,2.75-1.21,3.71-2.66,3.68-5.57-.13-11.85-.06-23.71,0-35.56C21.79,8.4,29.94.1,43,.05,66,0,88.94,0,111.89,0Zm-.38,9.63H43.82c-9.38,0-13,3.66-13,13.18,0,10.6.16,21.21-.07,31.8-.08,4,.85,5.86,5.14,6.8C47.62,64,56.48,74.55,57,85.66c.31,6.24.31,6.25,6.59,6.25H254.79c17.83,0,35.67-.06,53.5,0,3.35,0,4.57-1.08,4.65-4.52a26.94,26.94,0,0,1,20.45-25.91c3.33-.88,4.33-2.4,4.29-5.69-.16-11.09-.05-22.19-.05-33.29,0-9.28-3.61-12.9-12.83-12.9Zm.73,140.65v0c41,0,82.08,0,123.11.07,3.73,0,5-1,5-4.84q-.32-19.83,0-39.67c.06-3.78-1.14-4.9-4.91-4.89q-123.1.14-246.22,0c-3.52,0-4.82,1-4.77,4.64.18,13.1.08,26.2.09,39.29,0,5.36,0,5.37,5.38,5.37Zm-136.94-16h0c0-15.34.09-30.69,0-46a18.76,18.76,0,0,0-19-18.65c-10.62,0-19,8-19,18.56-.09,31.06,0,62.12-.07,93.18,0,3.4,1.32,4.24,4.44,4.19,9.6-.14,19.21-.2,28.81,0,3.76.09,5-1.05,4.93-4.87C47.8,165.26,47.91,149.79,47.91,134.32ZM322,134.7h0c0,15.47.08,30.93-.06,46.4,0,3.47,1.14,4.54,4.54,4.48,9.72-.18,19.46-.15,29.18,0,3.13,0,4.45-.8,4.44-4.2-.09-31.06,0-62.12,0-93.17a17.75,17.75,0,0,0-2.33-9,19.19,19.19,0,0,0-21.16-9c-8.76,2.2-14.51,9.19-14.56,18.06C321.94,103.76,322,119.23,322,134.7Z"/></g></g></svg>