<svg xmlns="http://www.w3.org/2000/svg" viewBox="0 0 181.64 368.43"><defs><style>.cls-1{fill:#fff;}</style></defs><g id="Layer_2" data-name="Layer 2"><g id="Layer_1-2" data-name="Layer 1"><path class="cls-1" d="M.19,283.22c0-24.7.5-49.41-.18-74.09C-.41,193.7,9.4,185.38,19.67,182c3.62-1.17,4.46-2.93,4.46-6.4C24.07,126,24.4,76.35,24,26.7A26.15,26.15,0,0,1,50.82,0c26.8.51,53.63.14,80.45.14,17.37,0,27.61,10.26,27.62,27.76q.06,73.71,0,147.44c0,3.87.85,6,4.91,7.3a25.82,25.82,0,0,1,17.85,25.23c-.38,50.77-.15,101.54-.15,152.3a25.69,25.69,0,0,1-.17,4.48,4.48,4.48,0,0,1-8.84,0,25.69,25.69,0,0,1-.17-4.48V228.09c0-5.53,0-5.54-5.59-5.54H14.79c-5.4,0-5.41,0-5.41,5.35V360a40.21,40.21,0,0,1-.09,4.11c-.24,2.58-1.69,4.18-4.31,4.31s-4.14-1.55-4.59-4a24.74,24.74,0,0,1-.2-4.48q0-38.35,0-76.71Zm91.24-170c18,0,35.91-.06,53.86,0,3.32,0,4.85-1,4.61-4.47-.21-3.22,0-6.48,0-9.72q0-35.52,0-71.05c0-12.75-6.18-18.9-18.79-18.9q-40.58,0-81.15,0c-10.33,0-16.79,6.47-16.8,16.85q0,41.13,0,82.27c0,4.8.17,5,5.15,5Q64.88,113.25,91.43,113.23Zm-.38,66.53c18,0,35.93,0,53.89,0,2.86,0,4.36-.66,4.38-3.94q.1-24.12.58-48.24c.07-3.53-1-4.8-4.68-4.79q-53.7.15-107.41,0c-3.64,0-4.71,1.27-4.68,4.79q.21,23.76,0,47.53c0,3.63,1.22,4.71,4.76,4.68C55.62,179.68,73.33,179.76,91.05,179.76Zm-.61,33.62h58.72c6.48,0,13-.08,19.45,0,2.72.05,3.69-.95,3.76-3.7.24-10-3.49-15.57-13-18.89a38.84,38.84,0,0,0-12.88-1.9q-55.35,0-110.71,0a54,54,0,0,0-9.66.92c-11,2-16.63,8.33-16.73,18.27,0,5.13,0,5.24,5.14,5.24Z"/></g></g></svg>