<svg xmlns="http://www.w3.org/2000/svg" viewBox="0 0 378.85 179.78"><defs><style>.cls-1{fill:#fff;}</style></defs><g id="Layer_2" data-name="Layer 2"><g id="Layer_1-2" data-name="Layer 1"><path class="cls-1" d="M189.74,0H356.63c14.21,0,22.17,8,22.18,22.3q0,53.13,0,106.26c0,10.51-5.7,18.3-15,20.75a25.73,25.73,0,0,1-8.56.45c-3.48-.27-5.17.9-5.91,4.46-1.35,6.47-3.11,12.85-4.85,19.22-1.41,5.17-3,6.27-8.21,6.31q-4.31,0-8.61,0c-5.25,0-6.81-1.15-8.22-6.3-1.78-6.49-3.51-13-4.95-19.58-.71-3.2-2.25-4.12-5.42-4.12q-119.55.12-239.1,0c-3.14,0-4.72.9-5.43,4.11-1.45,6.57-3.24,13.07-5,19.58-1.35,5-3,6.24-8.24,6.29-3,0-6,.05-9,0-4.63-.08-6.56-1.54-7.75-6-1.8-6.75-3.6-13.5-5.19-20.3-.63-2.67-1.92-3.86-4.66-3.63-1.48.13-3,0-4.48,0C8.85,149.73.16,141.65.11,130.18Q-.11,74.82.16,19.43C.22,8.05,9,0,20.62,0Q105.17,0,189.74,0Zm-85,75h.07c0-20.46-.06-40.92.06-61.37,0-3.37-1-4.59-4.49-4.57C74.15,9.12,48,9,21.76,9.09c-8.18,0-12,4-12,12.27q0,53.33,0,106.65c0,8.78,3.73,12.6,12.43,12.61q38.73,0,77.46,0c4.86,0,5-.19,5.06-5.07Q104.71,105.25,104.7,75Zm169.41-.41h.07q0,30.51,0,61c0,4.89.19,5.08,5,5.08q38.73,0,77.47,0c8.7,0,12.43-3.82,12.43-12.6q0-53.15,0-106.28c0-9-3.66-12.65-12.74-12.66q-38.73,0-77.46,0c-4.72,0-4.83.12-4.83,4.85Q274.11,44.24,274.11,74.54ZM189.43,57.71c-23.69,0-47.39,0-71.08-.06-3.41,0-4.6,1.06-4.54,4.5.18,10.6.15,21.21,0,31.8,0,3.11,1.09,4.11,4.15,4.11q71.46-.11,142.92,0c3.07,0,4.17-1,4.13-4.12-.12-10.47-.18-21,0-31.43.08-3.81-1.21-4.9-4.95-4.88C236.57,57.77,213,57.7,189.43,57.71Zm0-48.64c-23.69,0-47.38,0-71.07-.06-3.36,0-4.63,1-4.57,4.49.18,10.22.15,20.45,0,30.67,0,3.11.78,4.47,4.19,4.47q71.44-.12,142.89,0c3,0,4.2-1,4.17-4.1-.13-10.23-.19-20.45,0-30.67.09-3.86-1.29-4.88-5-4.86C236.56,9.13,213,9.07,189.43,9.07Zm0,98.11c-23.68,0-47.36,0-71-.05-3.3,0-4.71.85-4.62,4.41.22,8.34.18,16.7,0,25-.06,3.11,1.09,4.09,4.15,4.08q71.4-.09,142.82,0c3.37,0,4.28-1.26,4.22-4.41-.16-8.1-.23-16.21,0-24.3.12-3.83-1.2-4.89-4.93-4.87C236.58,107.25,213,107.18,189.47,107.18ZM46.85,149.82c-1.49,0-3,.11-4.48,0-3-.26-4.14.63-3.19,3.82,1.32,4.41,2.44,8.88,3.4,13.39.58,2.71,2,3.62,4.66,3.62s3.83-1,4.39-3.47c1-4.62,2.17-9.22,3.48-13.76.87-3-.22-3.83-3-3.6C50.35,149.93,48.59,149.82,46.85,149.82Zm285.2,0c-1.74,0-3.49.06-5.23,0-2.74-.12-3.52,1-2.75,3.64,1.38,4.78,2.6,9.61,3.74,14.46.57,2.43,2.21,2.66,4.21,2.66s3.7-.18,4.23-2.63c.72-3.28,1.65-6.52,2.48-9.78C340.85,149.82,340.85,149.82,332.05,149.83Z"/><path class="cls-1" d="M83.84,74.83c0-2-.11-4,0-6,.17-2.57,1.57-4.26,4.21-4.37a4.09,4.09,0,0,1,4.54,3.62,48.06,48.06,0,0,1,0,13.76,4,4,0,0,1-4.62,3.45,4.16,4.16,0,0,1-4-4.14c-.16-2.1,0-4.23,0-6.35Z"/><path class="cls-1" d="M288.37,74.7c0-2-.15-4,0-6a4.39,4.39,0,0,1,4-4.23,4.14,4.14,0,0,1,4.82,3.25,30.92,30.92,0,0,1,0,14.41c-.56,2.31-2.47,3.39-4.88,3.15a4.14,4.14,0,0,1-3.9-3.91,55.57,55.57,0,0,1-.06-6.71Z"/></g></g></svg>