<svg xmlns="http://www.w3.org/2000/svg" viewBox="0 0 368.51 341.47"><defs><style>.cls-1{fill:#fff;}</style></defs><g id="Layer_2" data-name="Layer 2"><g id="Layer_1-2" data-name="Layer 1"><path class="cls-1" d="M184.17,0H306.53c9.22,0,16.55,4.53,19.61,12.38,1.74,4.47,1.76,9.29,1.77,14q.09,42.84.06,85.69c0,6.39,0,6.39,6.08,7.59,30.82,6.12,44.72,41.82,25.95,66.91-5.93,7.92-13.72,13.55-23.48,15.67-4,.88-4.72,2.8-4.71,6.44q.17,61.56.08,123.11c0,8.24-1.36,9.62-9.51,9.62-10.72,0-21.45,0-32.18,0-6.12,0-8-1.93-8-8.12,0-9.85-.11-19.71,0-29.56.05-3.26-1.05-4.32-4.31-4.32q-93.74.12-187.47,0c-3.07,0-4.19,1-4.15,4.1.14,10,.06,20,0,29.94,0,5.94-1.93,7.92-7.79,7.95q-17,.06-34,0c-5.89,0-7.83-2-7.83-7.9q0-62.31.07-124.61c0-3.76-.79-5.57-4.86-6.7C2.57,194.1-9.37,161,8.2,136.62a41.7,41.7,0,0,1,26.47-16.94c5.93-1.17,5.93-1.17,5.93-7.35,0-27.07.06-54.13,0-81.2a141.2,141.2,0,0,1,.73-14.55C42.23,7.67,51.18.07,61.06,0,83.39,0,105.72,0,128,0Zm.09,9h-119C64,9,62.76,9,61.52,9c-7.06.26-11.27,4.55-11.28,11.62,0,31.43,0,62.86,0,94.3,0,3.12.83,4.64,4.08,5.4a42,42,0,0,1,20.94,12.38c8.56,8.94,11.57,19.87,11.66,31.84q.14,16.84,0,33.68c0,3,.91,3.68,3.79,2.86,8.39-2.41,16.94-4.18,25.51-5.88,11-2.17,22.13-3.66,33.28-4.89,2.38-.26,3.06-1,1.88-3.28-1.77-3.44-3.3-7-4.92-10.51-3.14-6.79-6.32-13.56-9.39-20.38-1.18-2.64-1.18-5.22,1.75-6.79,2.48-1.33,5.08-.1,6.7,3,.23.44.4.92.61,1.37,5.13,11,10.3,21.89,15.35,32.88.92,2,2.16,2.88,4.31,2.73,3.61-.26,7.21-.59,10.82-.63,9.47-.11,19-.32,28.4.69,3.53.37,5.06-1.12,6.16-4.37,3.19-9.45,6.72-18.78,10.12-28.16.64-1.76,1.24-3.54,2-5.25,1.17-2.64,3-4.45,6.13-3.38s3.26,3.52,2.6,6.15A58.06,58.06,0,0,1,230,160c-3.19,8.79-6.37,17.59-9.63,26.36-.91,2.47-.8,4.09,2.34,4.39A333.65,333.65,0,0,1,277.83,201c3.18.86,3.91-.18,3.88-3.18-.12-10.85-.14-21.71,0-32.56a59.69,59.69,0,0,1,1.09-11.88c3.82-17.53,14.88-28.32,31.89-33.17,2.63-.75,3.66-1.82,3.65-4.57,0-31.93,0-63.87,0-95.8,0-5.82-4-10.07-9.82-10.73A39.36,39.36,0,0,0,304,9Zm0,255.92h93.16c2.4,0,4.82.37,4.79-3.39q-.2-23.19-.1-46.39c0-2.39-.83-3.51-3.19-4.18a333,333,0,0,0-75.11-12.34A359.1,359.1,0,0,0,90.53,210.79c-3.3.88-4.24,2.56-4.21,5.82.15,14.34.06,28.68.06,43,0,5.28,0,5.29,5.48,5.29ZM77.17,244h0q0-41,0-81.92a33.8,33.8,0,0,0-42.08-33A33.18,33.18,0,0,0,9.88,166.84c2.18,13.54,13.29,24.63,27.07,27,6.92,1.2,8.88,3.5,8.91,10.55,0,5.61,0,11.22,0,16.83q0,52.94,0,105.87c0,5.12,0,5.13,5.23,5.14h21c5.09,0,5.1,0,5.1-5.26Q77.18,285.47,77.17,244Zm214.17-.39h.06V327c0,5.25,0,5.26,5.1,5.27h20.58c5.6,0,5.61,0,5.61-5.51q0-60.79,0-121.59c0-8.12,1.53-9.92,9.63-11.39,18.85-3.41,31.13-23.44,25.53-41.67-4.87-15.85-20.8-26.21-36.65-23.82-18,2.72-29.84,16.09-29.86,33.72Q291.3,202.79,291.34,243.56ZM183.9,290.29c31.18,0,62.35,0,93.53.06,3.49,0,5.15-1,4.79-4.68-.18-1.85,0-3.74,0-5.61,0-5.93,0-5.94-6.06-5.94H96.94c-10.62,0-10.62,0-10.56,10.79,0,5.31.07,5.38,5.49,5.38Z"/></g></g></svg>