<svg xmlns="http://www.w3.org/2000/svg" viewBox="0 0 368.5 176.6"><defs><style>.cls-1{fill:#fff;}</style></defs><g id="Layer_2" data-name="Layer 2"><g id="Layer_1-2" data-name="Layer 1"><path class="cls-1" d="M183.64,115.23c0,14.71.08,29.43-.06,44.14,0,3.35.95,4.81,4.47,4.59a89.05,89.05,0,0,1,10.46.08c3.1.18,5.35,1.67,5.17,5.12s-2.58,4.4-5.45,4.42q-19.26.09-38.53,0c-3,0-5.2-1.47-5.25-4.65s2.28-4.67,5.13-4.87a105.92,105.92,0,0,1,10.84-.12c2.79.08,4.06-.82,4.06-3.84q-.09-45.25,0-90.53c0-3.43-1.79-3.7-4.48-3.8-22.3-.77-44.57-1.87-66.47-6.61C97,57.74,90.43,56.11,84.4,53c-2.54-1.34-5-2.79-6.59-5.36C75,43,76.07,37.9,80.82,34.48c6.44-4.62,14-6.58,21.53-8.2,17.83-3.79,35.92-5.41,54.12-6.31,11.85-.58,23.69-.85,35.51-.43,23.16.83,46.31,2.09,68.9,8a53.93,53.93,0,0,1,14.6,5.65c8.81,5.31,8.87,13.22.11,18.7a47.91,47.91,0,0,1-13.1,5.39c-15.23,4.08-30.79,6.08-46.49,7.08q-14.53.93-29.1,1.43c-3.08.11-3.32,1.83-3.31,4.18q0,22.64,0,45.27Zm-5.25-59.11a407.4,407.4,0,0,0,42.1-1.46c14-1.34,28-3,41.59-7a37.39,37.39,0,0,0,8.3-3.38c1.95-1.12,2.21-2.35,0-3.43a48.24,48.24,0,0,0-5.83-2.5c-19.88-6.5-40.54-8.08-61.21-9-13-.6-26.1-1-39.22-.4-15.95.76-31.85,1.68-47.63,4.09-9,1.37-18,3-26.39,6.73-1.44.63-3.61,1-3.62,2.77s2.22,2.11,3.62,2.78c6,2.86,12.49,4.29,19,5.5A343.33,343.33,0,0,0,178.39,56.12Z"/><path class="cls-1" d="M368.49,90q0,39.3,0,78.59a25.56,25.56,0,0,1-.14,4.11,4.2,4.2,0,0,1-4.3,3.9c-2.63.06-4.19-1.43-4.61-4a23.19,23.19,0,0,1-.13-3.73c0-18.72-.08-37.43.09-56.14,0-3.73-1-5-4.86-4.94-30.06.14-60.12.07-90.19.08-4.9,0-5.11.21-5.11,5q0,27.87,0,55.76a24.3,24.3,0,0,1-.16,4.1,4.48,4.48,0,0,1-8.84.12,17.78,17.78,0,0,1-.19-3.73q0-33.12,0-66.24c0-12.82,7.6-20.54,20.49-20.58,27.2-.07,54.39,0,81.59,0,7.93,0,7.17.47,7.18-7.37q0-31.44,0-62.87c0-1.13,0-2.25,0-3.37.06-2.94,1.11-5.21,4.36-5.51,2.72-.26,4.62,2,4.64,5.58.08,13.23.06,26.45.06,39.67q0,20.77,0,41.54Zm-59,8.71c15.33,0,30.67,0,46,0,2.31,0,3.81-.43,3.81-3.25,0-2.65-1.15-3.47-3.62-3.47q-43.77.06-87.54,0a7.86,7.86,0,0,0-6,2.57c-.84.91-2.07,1.88-1.61,3.16.52,1.47,2.15.92,3.32.92Q286.71,98.74,309.53,98.7Z"/><path class="cls-1" d="M.06,86.41V9.68c0-1,0-2,0-3C.11,2.11,1.63-.08,4.72,0s4.39,2.18,4.4,6.56q0,33.51,0,67c0,5.67,0,5.68,5.84,5.68q41.73,0,83.46,0c12.19,0,19.94,7.69,20,19.8q0,33.32,0,66.62c0,.5,0,1,0,1.5-.12,4.12-1.87,6.41-4.8,6.28s-4.38-2.21-4.38-6.23q0-28.64,0-57.27c0-5.13,0-5.15-5.25-5.15H14.19c-5,0-5,0-5,5q0,26.58,0,53.15v2.24c0,5.9-1.39,8.33-4.7,8.25S0,171,0,165.38v-79Zm58.63,9.22q23,0,46,0c1.15,0,2.78.56,3.23-1,.36-1.26-.63-2.4-1.54-3.24-2.65-2.43-5.92-3-9.38-3q-38.18,0-76.34,0c-2.87,0-5.74,0-8.61,0-2,0-2.77,1-2.94,3-.29,3.31,1,4.35,4.28,4.33C28.51,95.56,43.6,95.63,58.69,95.63Z"/></g></g></svg>