<svg xmlns="http://www.w3.org/2000/svg" viewBox="0 0 353.6 366.89"><defs><style>.cls-1{fill:#fff;}</style></defs><g id="Layer_2" data-name="Layer 2"><g id="Layer_1-2" data-name="Layer 1"><path class="cls-1" d="M353.59,183.78q0,81.41,0,162.8c0,10.24-5.41,17.4-14.89,19.75a23,23,0,0,1-5.56.54q-156.25,0-312.51,0C7.81,366.88,0,359,0,346Q0,183.39.12,20.77C.13,8.09,8.25,0,21,0H312.57C319.3,0,326,0,332.78,0c12.5,0,20.68,8.15,20.68,20.59q0,81.59,0,163.18ZM176.75,9H21.81c-8.65,0-12.7,4-12.7,12.47q0,35.37.07,70.74c0,1.57-.9,4.4,1.3,4.4,2.59,0,1.52-2.92,1.53-4.54.09-23.58.07-47.16.11-70.73,0-5.56,2.11-7.7,7.68-7.81,5-.1,10-.06,15,0,6.22,0,8.61,2.35,8.71,8.55.09,5.36.11,10.73,0,16.09-.06,2.75,1.11,3.84,3.8,3.74,2.86-.1,5.74,0,8.6,0,7.61,0,8.66,1.06,8.67,8.63q0,21.52.07,43c0,1.44-.17,3.4,2,3.32,2-.08,1.54-2,1.56-3.25.07-4.74,0-9.48.07-14.22.11-4.5,2.23-6.71,6.73-6.73q39.3-.09,78.6,0c4.53,0,6.64,2.2,6.76,6.69.12,4.11,0,8.23.05,12.35,0,5.35.18,5.53,5.42,5.53H339.48c4.88,0,5-.1,5-5.1q0-34.8,0-69.61C344.49,12.66,340.81,9,331,9ZM342.66,107l.14-.74H30.48c-5.74,0-11.48.12-17.21,0-3-.08-4.21,1-4.17,4.12.13,9.85,0,19.71.06,29.56,0,5.23,0,5.26,5.16,5.26,18.46,0,36.92,0,55.37,0,5.56,0,8,2.39,8.22,7.91.12,3.12,0,6.24,0,9.35,0,5.69,0,5.69,5.69,5.91,4.91.19,7,2.26,7.13,7.16.08,3.74.24,7.5,0,11.22s1.08,4.95,4.88,4.95c43-.11,86-.06,129.07-.08,1.16,0,2.79.62,3.36-.74.44-1-.92-1.91-1.52-2.81-7.44-11.09-7.61-24.2-.78-34.88,3.25-5.08,7.21-8.1,13.52-7.28a37.3,37.3,0,0,0,6,0c1.69,0,3.6.37,4.25-2,.71-2.56-1.29-2.82-2.82-3.55-5.56-2.63-9-7.9-8.57-12.88.19-2.09,1.06-3.58,3.25-4s4,.21,5,2.28a6.65,6.65,0,0,1,.56,1.38c.43,1.42.68,3.56,2.33,3.37s.7-2.31.89-3.56c.43-2.91,1.56-5,4.88-5s4.2,2.19,4.62,4.87a6.8,6.8,0,0,1,.11,1.49c-.3,3.56,0,6.06,4.9,5.24a4.74,4.74,0,0,1,5.58,4.72c-.22,3.21-2.31,4.48-5.3,4.63a7,7,0,0,0-3.62.71c-.6.39-1.43.79-1.11,1.7.25.69,1,.59,1.62.6,2,0,4,.08,6,0a8.55,8.55,0,0,1,6.65,2.83,27.84,27.84,0,0,1,6.5,9.93c3.88,10.49,2.53,20.31-3.64,29.57-.58.87-2,1.68-1.31,2.83s2.07.5,3.15.53c2.12.06,4.26-.16,6.36.06,3.73.38,5-1,5-4.86-.18-14.59-.07-29.18,0-43.77,0-6.07,1.88-8,8-8.24,3.48-.13,7,0,10.47-.05,4.56,0,4.76-.24,4.78-4.95,0-4.49,0-9,0-13.47,0-7.07,2.27-9.3,9.46-9.34C329.71,107,336.19,107,342.66,107ZM94.05,357.71c24.45,0,48.89-.08,73.33.07,3.77,0,4.93-1.08,4.9-4.87q-.24-32.18,0-64.35c0-3.84-1.21-4.85-4.94-4.85q-76.7.17-153.39,0c-3.86,0-4.86,1.26-4.83,5,.16,18.58.06,37.16.07,55.74,0,9.65,3.69,13.29,13.4,13.29Zm168.88-73.93c-25.57,0-51.13.07-76.7-.07-3.73,0-4.95,1-4.92,4.86.16,21.32.07,42.65.08,64,0,5.15,0,5.16,5.2,5.16H331.38c9.2,0,13-3.78,13-12.92q0-27.87,0-55.75c0-5.22,0-5.24-5.14-5.24ZM90.72,201.38v0c-25.56,0-51.11.06-76.67-.07-3.74,0-5,1.09-4.94,4.89q.24,31.79,0,63.58c0,3.77,1.09,4.92,4.88,4.91q76.68-.17,153.35,0c3.72,0,5-1,4.93-4.85-.16-21.07-.07-42.14-.07-63.21,0-5.2,0-5.22-5.18-5.22Zm171.84,73.21c25.68,0,51.36-.07,77,.07,3.81,0,4.9-1.17,4.87-4.92q-.23-31.78,0-63.58c0-3.86-1.29-4.84-5-4.83q-76.67.13-153.34,0c-3.82,0-4.88,1.22-4.86,4.94q.24,31.8,0,63.58c0,3.87,1.26,4.85,4.95,4.83C211.69,274.52,237.12,274.59,262.56,274.59Zm81.85-120.78h0c0-11.09-.11-22.18.06-33.27.06-3.49-1.21-4.65-4.57-4.47-3.85.21-7.72,0-11.59.05-5.3,0-5.5.17-5.46,5.45q.25,29.9.56,59.78c0,2.12.1,4.24,0,6.36-.16,2.85,1,4.1,3.93,4,4.11-.12,8.23-.2,12.33,0,3.52.19,4.85-1,4.79-4.66C344.29,176,344.41,164.9,344.41,153.81ZM114.7,81.66H87.79c-10.61,0-10.46,0-10.59,10.75,0,3.8,1.2,4.92,4.94,4.89,19.43-.15,38.86-.07,58.3-.07,11.08,0,11,0,11-11.12,0-3.46-1.2-4.55-4.57-4.5C136.13,81.76,125.41,81.66,114.7,81.66ZM45.83,177.54c-9.22,0-18.43-.06-27.65,0-10.35.08-8.75-1.4-9.07,9.23-.12,3.75,1.09,5,4.88,4.93,19.43-.15,38.87,0,58.3-.08,10.8,0,9.11,1.53,9.42-9.63.09-3.42-1-4.58-4.49-4.52C66.76,177.65,56.3,177.54,45.83,177.54ZM21.09,59.78h0c0,11.09.07,22.19-.05,33.28,0,3,.93,4.2,4.07,4.23,9.08.09,9.2.09,9.32-9.22,0-.62,0-1.24,0-1.87,0-18.2.08-36.4,0-54.6,0-10.26,1.4-8.94-9.19-9.16C22,22.36,21,23.7,21.05,26.86,21.17,37.83,21.09,48.8,21.09,59.78ZM39,154.33c-6.73,0-13.46-.06-20.18,0-11.19.13-9.43-1.64-9.74,9.67-.1,3.55,1.31,4.45,4.61,4.42,15.07-.12,30.14,0,45.21-.07,10.61-.05,9.07,1.48,9.41-9.3.12-3.91-1.39-4.9-5-4.8C55.22,154.48,47.12,154.34,39,154.33Zm260.58,13.55h0c0,4.85-.05,9.7,0,14.55.13,10.49-1.49,9,9.37,9.33,3.89.11,4.87-1.4,4.81-5-.18-10.82,0-21.64-.07-32.47-.1-11.22,1.74-9.55-9.95-9.82-3.35-.08-4.32,1.26-4.23,4.41C299.72,155.19,299.61,161.53,299.61,167.88ZM55.53,74.49h0V58.4c0-7.64,0-7.47-7.46-7.6-3.71-.06-4.68,1.42-4.63,4.87.16,11.23.07,22.45.07,33.68,0,8.2,0,8.09,8.2,7.93,3-.06,3.89-1.29,3.84-4.08C55.45,87,55.53,80.72,55.53,74.49ZM252,175.94c-6,0-12,0-17.93,0-2.51,0-3.23.91-2.07,3.15,4,7.8,10.18,12.36,19.21,12.61,9.46.25,16.19-4,20.52-12.25,1.27-2.44.91-3.61-2.17-3.53C263.73,176,257.87,175.94,252,175.94Zm12.35-9.7v0c2.11,0,4.22,0,6.32,0s2.53-1,2.06-2.91c-1.5-6.11-4.46-8-11.81-7.65a3.64,3.64,0,0,0-3.88,3.14c-1.9,7.49-1.95,7.47,5.82,7.47Zm-26.17,0v0h5.22a2.83,2.83,0,0,0,3-2.18c2.59-7.46,2-8.38-5.7-8.37-.62,0-1.24,0-1.86,0-3.7.09-8.26,4.5-7.72,8.37.58,4.22,4.45,1.37,6.69,2.2A1.15,1.15,0,0,0,238.2,166.24Z"/><path class="cls-1" d="M90.94,308.36c-2,0-4,.13-6,0-2.66-.23-4.48-1.67-4.65-4.44a4.33,4.33,0,0,1,3.87-4.75,41.09,41.09,0,0,1,14.42.11c2.39.47,3.41,2.35,3.34,4.73a4.05,4.05,0,0,1-3.62,4.12,72.76,72.76,0,0,1-7.4.47Z"/><path class="cls-1" d="M263.54,308.35a60.72,60.72,0,0,1-6.33,0,4.64,4.64,0,0,1-4.5-4.65,4.34,4.34,0,0,1,4-4.61,46.46,46.46,0,0,1,13.73.08c2.47.41,4.12,2,4,4.61a4.52,4.52,0,0,1-4.27,4.45,51.46,51.46,0,0,1-6.69.06Z"/><path class="cls-1" d="M91.44,218.7a58.27,58.27,0,0,1,6.34,0c2.3.26,4,1.56,4.17,4.07a4.26,4.26,0,0,1-3.61,4.94,35.93,35.93,0,0,1-14.46-.1A4.18,4.18,0,0,1,80.35,223a4.4,4.4,0,0,1,4.36-4.32c2.23-.2,4.48,0,6.72,0Z"/><path class="cls-1" d="M263.4,228.28c-2.36-.08-4.73.19-7-.51s-3.78-2.13-3.64-4.55a4.42,4.42,0,0,1,4.22-4.48,117.28,117.28,0,0,1,13.39,0,4.4,4.4,0,0,1,4.17,4.52c.11,2.42-1.43,3.85-3.69,4.52C268.37,228.5,265.87,228.18,263.4,228.28Z"/></g></g></svg>