<svg xmlns="http://www.w3.org/2000/svg" viewBox="0 0 245.56 368.44"><defs><style>.cls-1{fill:#fff;}</style></defs><g id="Layer_2" data-name="Layer 2"><g id="Layer_1-2" data-name="Layer 1"><path class="cls-1" d="M117.49,368.44H39.66c-4.61-.05-6.75-1.51-6.75-4.6s2.14-4.57,6.76-4.58q11.42,0,22.82,0c2.22,0,3.9-.32,4.06-3.12,1.07-18.65,4.14-37.15,3.82-55.9-.27-15.91-4.2-31.06-9-46.07-2.21-6.88-4.47-13.76-6.36-20.74-.93-3.43-2.65-4.48-6.1-4.39-8.73.22-17.46.1-26.19.06C8.82,229,.21,220.28,0,206.33c-.13-8.84,1.81-16.61,9.81-21.69a22.79,22.79,0,0,1,12.46-3.41c7.11,0,14.22,0,21.33,0,2.85,0,3.73-.79,2-3.47a68.28,68.28,0,0,1-5.88-12.51c-1-2.69-2.61-3.63-5.36-3.51-3.61.15-7.23.06-10.85,0C10.28,161.66.25,152.19.16,138.63Q-.19,85.7.19,32.74C.28,20.35,6.63,12.05,17.06,9a23.13,23.13,0,0,1,6.67-.7q29.57,0,59.12,0A17.74,17.74,0,0,0,90.08,6.8c20.78-9,41.62-9.15,62.4,0a18.16,18.16,0,0,0,7.6,1.53q28.62-.06,57.24,0c14.2,0,23.73,9.51,23.74,23.65q.06,53,.06,105.89c0,14.4-9.57,24.59-23.86,23.72-9.47-.58-15.73,1.44-18.07,11.27-.65,2.73-4.36,5.58-3.22,7.49,1.4,2.32,5.48.82,8.39.88,6.48.15,13,0,19.45.07,12.54.19,21.42,9,21.7,21.49a45.25,45.25,0,0,1-.21,7.46c-1.59,11.51-9.82,18.75-21.47,18.88-9,.11-18,.06-26.93,0-2.31,0-4.13.33-4.86,3-5.07,18.24-12.22,35.9-14.85,54.81-1.7,12.19-1.35,24.36-.22,36.55.94,10.17,1.92,20.33,2.77,30.51.4,4.91.64,5.29,5.52,5.31h11.6c3,0,5.15,1.08,5.34,4.42.16,3-1.72,4.71-5.39,4.72-18.71.06-37.42,0-56.13,0Zm3.6-187.21c11.35,0,22.7,0,34,0,2.19,0,4.21-.15,5.73-2,1.8-2.23,3.81-4.29,5.51-6.59,15-20.22,21.27-42.83,18.67-67.89C182.78,83,174.79,64,158.54,48.94c-11.1-10.27-24.33-15.74-39.49-15-17,.81-30.89,8.8-41.45,21.82-18.22,22.47-23.66,48.45-18.94,76.64,2.89,17.31,9.85,32.87,21.88,46a8.5,8.5,0,0,0,6.89,2.94C98.65,181.16,109.87,181.23,121.09,181.23Zm2.09,47.88q-27.32,0-54.61,0c-5.08,0-5.13.12-3.58,5.08,2.37,7.62,4.67,15.26,7.11,22.85,5.42,16.87,8.64,34.15,7.81,51.85-.73,15.53-2.56,31-4,46.51-.26,2.73.44,3.88,3.33,3.88q43.95-.09,87.89,0c2.88,0,3.72-1.23,3.46-3.88-.92-9.16-1.78-18.34-2.65-27.51-1.52-16.15-2.1-32.27.91-48.37,2.9-15.5,8.39-30.25,12.76-45.32,1.39-4.8,1.26-5.08-3.81-5.09Q150.48,229.09,123.18,229.11ZM123,190.93q-50.5,0-101,0c-6,0-9.77,2.38-11.6,7-.9,2.29-.64,4.67-.65,7,0,10.9,3.42,14.38,14.19,14.38H221.51c1.49,0,3,.05,4.48-.07a10.73,10.73,0,0,0,9.76-9.71c.13-1.49.07-3,.07-4.49,0-10.65-3.48-14.19-14-14.19Q172.42,190.91,123,190.93ZM48,115.44c0-2.12-.09-4.25,0-6.36s.4-4.22.67-6.32c3.24-25.17,13-47,33-63.39,20.16-16.55,47.15-19.22,69.67-6.61,16.27,9.11,27.54,22.88,34.7,39.92,12.37,29.41,12,58.7-1.48,87.72a95.13,95.13,0,0,1-10.83,17.9c-.5.66-1.49,1.32-1.14,2.2.46,1.19,1.74.55,2.66.73,6.7,1.3,10.25-1.89,13.31-7.73,13-24.85,18.59-51,14.27-78.82-4.24-27.37-15.2-51.26-37.06-69.29C143.47,7,114.07,3.85,88.74,17.52,72.42,26.34,60.63,39.72,52.22,56a122.74,122.74,0,0,0-13.39,63.61,129.73,129.73,0,0,0,15.75,55.26c2.69,5,6,7.26,11.52,6.32,1.06-.18,2.51.48,3.12-.59s-.64-2-1.27-2.87C54.44,159.19,48.2,138.27,48,115.44ZM29.44,44.17c-5.23,0-10.47.08-15.7,0-2.81-.06-4.08.91-4.07,3.88.07,30.54,0,61.08.11,91.62,0,6.2,4,10.8,10,12.41,3.57.95,7.19.56,10.79.6,4.5,0,4.49,0,3.36-4.35a133.77,133.77,0,0,1-2.55-58.13A126.09,126.09,0,0,1,46.72,47.49c1.53-2.58,1.07-3.44-1.95-3.36C39.67,44.26,34.55,44.17,29.44,44.17ZM232,93.89h0c0-15.08-.07-30.16.06-45.23,0-3.43-1.15-4.6-4.55-4.55-9.6.16-19.19,0-28.79.07-4.07,0-4.26.43-2.37,3.89,16.61,30.36,21.11,62.41,13.26,96.15-2,8.67-2.08,8.65,7.09,8.44,9.89-.23,15.23-5.6,15.25-15.41Q232.08,115.57,232,93.89ZM71.66,18.1l-.51-.77c-16.56,0-33.13-.2-49.69.1-6.86.12-11.74,6.38-11.81,13.49,0,3,.86,4.32,4,4.3,12.84-.11,25.68,0,38.52-.06,1.25,0,2.6.06,3.48-1A113.28,113.28,0,0,1,71.66,18.1Zm100.2-.84-.5,1.06c5.9,4.61,10.82,10.15,15.76,15.69a4.34,4.34,0,0,0,3.45,1.14c12.7,0,25.4,0,38.09,0,2.63,0,3.41-1.23,3.45-3.68.11-8-5.61-14.17-13.63-14.22-12.7-.09-25.4,0-38.1,0Z"/></g></g></svg>