<svg xmlns="http://www.w3.org/2000/svg" viewBox="0 0 368.48 348.84"><defs><style>.cls-1{fill:#fff;}</style></defs><g id="Layer_2" data-name="Layer 2"><g id="Layer_1-2" data-name="Layer 1"><path class="cls-1" d="M0,255.54q0-42.1,0-84.21c0-12.92,8.11-21,21-21,18.33,0,36.67-.11,55,0,3.73,0,5-1.08,5-4.9-.17-17.21-.07-34.43-.05-51.65,0-7.12,2.23-9.31,9.46-9.32,14.22,0,28.45-.08,42.67,0,3.08,0,4.32-.5,4.15-4.09-.85-17.55,1.51-34.65,9.09-50.67,5.61-11.84,13.13-22.23,25.84-27.37,14.24-5.76,30-.81,40.31,12.18,11.37,14.26,16.51,30.8,18.23,48.67.58,6.09,1.09,12.16.23,18.27-.46,3.21,1.87,3,3.87,3q21,0,41.92,0c1.24,0,2.49,0,3.74,0,5.74.18,7.88,2.31,7.89,8q.06,26.21.05,52.4c0,5.35,0,5.37,5.41,5.37q27,0,53.9,0c12.4,0,20.68,8.21,20.69,20.63q.07,78.78.07,157.57c0,12-8.29,20.3-20.22,20.31q-74.1,0-148.21,0c-12.06,0-20.35-8.4-20.36-20.58q0-47.72,0-95.43c0-5.32,0-5.34-5.46-5.34H14.4c-5.19,0-5.2,0-5.2,5.2q0,53.9,0,107.79A25.69,25.69,0,0,1,9,344.94a4.19,4.19,0,0,1-4.4,3.78A4.21,4.21,0,0,1,.18,345a22.37,22.37,0,0,1-.17-4.1V255.54Zm94.3-37.79c26.82,0,53.64-.06,80.46.07,3.7,0,5-1,5-4.86q-.27-24.33,0-48.65c0-3.7-1-5-4.84-5q-76.53.17-153,.08c-8.7,0-12.65,3.92-12.67,12.54q0,20.4,0,40.79c0,4.9.09,5,5.06,5Zm179.65,0q40.38,0,80.78,0c2.66,0,4.57-.22,4.54-3.71-.12-14.21.1-28.42-.1-42.63-.12-8.13-4.39-12-12.54-12q-76.49,0-153-.08c-3.67,0-5,.94-5,4.82.21,16.2.11,32.41.14,48.62,0,4.87.09,5,5.08,5Zm4.7,65.86c0,17.21.08,34.41-.06,51.61,0,3.43,1.08,4.51,4.5,4.49,21.07-.13,42.13,0,63.2-.08,9.15,0,13-3.84,13-13,0-31.41-.07-62.82,0-94.23,0-3.7-1-5-4.86-5q-35.52.22-71,0c-3.88,0-4.86,1.31-4.82,5C278.77,249.46,278.68,266.54,278.68,283.61Zm-9.19,0c0-17.22-.08-34.44.06-51.65,0-3.46-1.14-4.52-4.53-4.5q-35.94.15-71.86,0c-3.24,0-4.35,1-4.34,4.31.09,31.56,0,63.13.08,94.69,0,9.32,4,13.21,13.27,13.22,20.83,0,41.66-.08,62.5.08,3.77,0,4.94-1.08,4.9-4.88C269.39,317.75,269.49,300.66,269.49,283.57ZM146,73.06c.32,10.18,1.41,19.82,4.16,29.22,3.31,11.31,8.46,21.53,17.38,29.59,8.58,7.75,20.4,8.82,30,2.4,9.22-6.18,14.4-15.35,18.34-25.35,5.93-15.07,7.14-30.8,5.58-46.7-1.48-15.1-5.94-29.28-15.55-41.46-8.08-10.23-19.46-14.18-30-10.21-5.92,2.24-10.43,6.29-14.21,11.2C150,37,146.85,54.9,146,73.06Zm38.9,77.24c29.93,0,59.86,0,89.8,0,3.29,0,4.65-.86,4.62-4.41q-.21-23.94,0-47.89c0-3.34-.95-4.64-4.46-4.6q-20.38.24-40.78,0c-3.44,0-4.71,1.22-5.43,4.51-2.88,13.18-7.9,25.38-16.76,35.87-15.85,18.78-40.76,18.54-56.12-.59-8.49-10.56-13.52-22.63-16.28-35.73-.66-3.1-2-4.06-5.05-4-13.34.11-26.69.14-40,0C91,93.41,89.94,94.67,90,98c.13,15.46.07,30.92.08,46.39,0,5.79,0,5.86,5.83,5.86Q140.42,150.31,184.93,150.3Z"/><path class="cls-1" d="M95.14,183.48a45,45,0,0,1,5.57.05,4.36,4.36,0,0,1,4.16,4.48,4.24,4.24,0,0,1-3.84,4.73,44.18,44.18,0,0,1-13-.08,4.43,4.43,0,0,1-4-4.33c-.09-2.63,1.65-4.19,4-4.65a54.76,54.76,0,0,1,7-.48Z"/><path class="cls-1" d="M271.39,179.46a53,53,0,0,1,6.31.33,4.3,4.3,0,0,1,3.94,4.64,4.12,4.12,0,0,1-3.75,4.39,39.27,39.27,0,0,1-13,0c-2.47-.41-4.14-2.05-4.07-4.6.07-2.73,2-4.24,4.58-4.54a51.49,51.49,0,0,1,6,0Z"/><path class="cls-1" d="M301.87,291.9c0,1.36.05,2.73,0,4.09-.11,2.58-1.46,4.34-4.05,4.47a4.39,4.39,0,0,1-4.88-4.13,49.29,49.29,0,0,1,0-9.64c.23-2.51,2-3.94,4.64-3.86s4.08,1.65,4.27,4.24c.11,1.6,0,3.22,0,4.83Z"/><path class="cls-1" d="M255.45,292c0,1.36.06,2.73,0,4.09-.14,2.6-1.55,4.32-4.13,4.41a4.32,4.32,0,0,1-4.83-4.17,55.53,55.53,0,0,1,0-9.65c.25-2.53,2.08-3.92,4.69-3.82a4,4,0,0,1,4.17,3.94c.17,1.71,0,3.46,0,5.2Z"/><path class="cls-1" d="M163.32,62.5A6.52,6.52,0,0,1,165.59,58q8-8.06,16.1-16.09a6.94,6.94,0,0,1,3.1-2c2-.51,3.72-.29,5,1.47a3.7,3.7,0,0,1-.2,5.12Q180,56.32,170.09,66a3.59,3.59,0,0,1-4.5.5A4.05,4.05,0,0,1,163.32,62.5Z"/><path class="cls-1" d="M177.37,83A4.25,4.25,0,0,1,173,80.71a3.85,3.85,0,0,1,.19-4.58,114.2,114.2,0,0,1,14-13.95,4.19,4.19,0,0,1,5.83.32c1.52,1.46,1.94,3.39.7,5.1a77.6,77.6,0,0,1-14.64,14.83A4.4,4.4,0,0,1,177.37,83Z"/></g></g></svg>