<svg xmlns="http://www.w3.org/2000/svg" viewBox="0 0 268.18 368.41"><defs><style>.cls-1{fill:#fff;}</style></defs><g id="Layer_2" data-name="Layer 2"><g id="Layer_1-2" data-name="Layer 1"><path class="cls-1" d="M.1,167.85V11.06C.1,2.2,2.29,0,11.11,0H257c8.9,0,11.12,2.18,11.12,11q.06,156.8.1,313.58c0,8.58-2.27,10.85-10.83,10.88-5.64,0-5.64,0-6.87,5.47C249,347.45,247.54,354,246,360.59c-1.56,6.81-2.78,7.78-9.61,7.79-2.62,0-5.24,0-7.86,0-5-.07-6.73-1.37-7.86-6.2-1.79-7.65-3.57-15.3-5.18-23-.59-2.83-1.92-3.83-4.83-3.83q-78.78.11-157.55,0c-3.2,0-4.32,1.22-4.93,4.12-1.61,7.69-3.44,15.34-5.27,23-1.07,4.45-2.84,5.84-7.32,5.93-3.24.06-6.49,0-9.73,0-4.72-.05-6.78-1.72-7.84-6.33-1.76-7.66-3.57-15.31-5.18-23-.51-2.48-1.53-3.58-4.18-3.7-6.37-.3-8.69-3-8.69-9.58q0-79,0-157.92Zm9-.29h.1v153c0,5.6,0,5.61,5.51,5.61H253.43c5.55,0,5.56,0,5.56-5.56q.06-152.85.1-305.7c0-5.95,0-6-6-6h-238c-6,0-6,0-6,5.91ZM30.83,335.42c-1.86,0-3.73.06-5.59,0-2.4-.09-3.45.66-2.81,3.3,1.45,5.92,2.75,11.87,4,17.83.51,2.43,2.17,2.66,4.19,2.68s3.59-.25,4.06-2.74c.8-4.14,1.86-8.24,2.82-12.36C39.56,335.41,39.57,335.41,30.83,335.42Zm202.58,0c-1.86,0-3.73,0-5.59,0-2.5-.07-3.36,1.05-2.78,3.48,1.36,5.8,2.73,11.6,4,17.43.49,2.32,1.88,2.89,4,2.89s3.84-.41,4.35-3c.82-4.14,1.82-8.25,2.77-12.36C242.09,335.41,242.09,335.41,233.41,335.43Z"/><path class="cls-1" d="M242.67,167.77q0,65.11,0,130.24c0,8.59-1.78,10.41-10.2,10.41H35.62c-8.25,0-10.11-1.86-10.11-10.13q0-130.8.08-261.59c0-7.77,2-9.72,9.75-9.72q98.79,0,197.6,0c7.71,0,9.65,2,9.65,9.81v131ZM134,36H40.49c-5.91,0-5.94,0-5.91,6.06.24,39.89,0,79.79.51,119.69.55,43.64.14,87.3.14,131,0,6,0,6,6,6H227.13c5.81,0,5.79,0,5.83-5.8.32-47.75-.35-95.5.44-143.26.61-36.16.18-72.33.2-108.5,0-5.09-.09-5.17-5.3-5.17Z"/><path class="cls-1" d="M197.6,169.21c0-7.38,5.25-12.74,12.59-12.82,6.74-.07,12.83,5.73,12.94,12.34A13,13,0,0,1,210.26,182,12.37,12.37,0,0,1,197.6,169.21Z"/></g></g></svg>