<svg xmlns="http://www.w3.org/2000/svg" viewBox="0 0 258.87 368.43"><defs><style>.cls-1{fill:#fff;}</style></defs><g id="Layer_2" data-name="Layer 2"><g id="Layer_1-2" data-name="Layer 1"><path class="cls-1" d="M129.44,0q40.23,0,80.46,0c13.67,0,22.8,9.07,22.82,22.71q.09,57.63,0,115.26c0,4,.63,6.2,5.06,7.47,7.69,2.23,12.45,8,13.56,15.9,1.53,10.76,1.07,21.64.26,32.46a18.14,18.14,0,0,1-5.1,11.41c-1.85,1.92-1.11,2.69.84,3.81,8.34,4.81,12.61,13.23,11.26,21.81-1.57,10-7.35,16.32-17.37,18.57-2.94.65-3.79,2.36-3.91,5q-.75,16.05-1.55,32.11-1.89,37.71-3.8,75.41c-.21,4.24-2.39,6.3-6.7,6.41s-8.73.12-13.09,0q-6.13-.18-6.47-6.25-1.22-22.21-2.29-44.42-1.58-31.92-3.06-63.85c-.14-2.91-1.55-3.85-4.3-3.82-8.11.08-16.21,0-24.32,0H64c-5.36,0-5.46,0-5.74,5.14-.78,14.18-1.48,28.37-2.19,42.55-1,20.53-2,41.07-3.1,61.6-.4,7.52-2.2,9.06-9.67,9.07-3.24,0-6.49,0-9.73,0-4.89-.08-7.13-2.1-7.41-7-.59-10.07-1-20.16-1.56-30.24-1.21-23.76-2.65-47.52-3.49-71.3-.22-6.29-.81-10-8.17-12.08C4.86,245.53.61,238.27.06,229.69c-.52-8,2.49-14.69,9.18-19.32,2.24-1.55,3.3-2.32.85-4.82-4-4.09-5.61-9.38-5.66-15.06-.07-8-.14-16,0-24,.23-12.11,6.94-20,18.63-22.12,2-.35,2.86-1.24,2.87-3.17,0-1.24,0-2.49,0-3.74q0-56.88.08-113.76C26.08,8.79,34.84,0,49.73,0Zm0,9Q89.17,9,49,9c-8.34,0-13.86,5.07-13.87,12.9q-.06,60.8,0,121.61a6,6,0,0,0,2.33,5.17c2.89,2.27,5.43,5.07,6.25,8.66,1,4.41,3.6,5,7.59,5q77.08-.16,154.16-.08c.88,0,1.75-.05,2.62,0,2.21.13,3.43-.81,4-3A18.85,18.85,0,0,1,220.12,148c2.73-1.84,3.65-3.87,3.64-7.08-.08-39,0-78.08,0-117.12,0-9.92-4.94-14.78-15-14.79Zm88,197.31c-5.35-6.18-6.74-12.73-6.42-19.82.14-3,0-6,0-9,0-6,0-6.05-5.9-6.05H51.3c-.75,0-1.5.05-2.25,0-2.58-.17-3.57,1.06-3.53,3.58.08,4.73.08,9.48,0,14.21-.09,5.62-1.44,10.86-5,15.36-.38.47-.87.94-.35,1.7Zm-88.2,34q53.69,0,107.36,0c7.81,0,12.46-4.4,12.61-11.68.16-7.69-4.49-12.54-12.38-12.88-1-.05-2,0-3,0H25.06a25.55,25.55,0,0,0-6.69.55,11.44,11.44,0,0,0-8.72,10.82c-.33,8.33,4.21,13.21,12.56,13.22Q75.7,240.33,129.18,240.29ZM218.74,250a41.83,41.83,0,0,1-4.48,0c-3.53-.37-5.21.95-4.68,4.63.12.86,0,1.74.1,2.62.93,16.66,1.92,33.33,2.79,50q1.26,24.25,2.27,48.53c.12,3,1.54,3.5,4,3.45,2.34,0,4-.18,4.18-3.28q1.38-30.81,3-61.6c.62-12,1.21-23.89,2.07-35.82.61-8.52.81-8.51-7.78-8.51ZM39.31,250c-2.12,0-4.24,0-6.36,0-2.29,0-3,1-2.82,3.27.71,11.06,1.37,22.12,1.9,33.19q1.65,34.14,3.14,68.3c.11,2.43.22,4.41,3.52,4.46,2.93,0,4.7-.44,4.82-3.92.33-9.71.87-19.41,1.38-29.11,1.18-22.26,2.56-44.5,3.5-66.77C48.84,248.74,50,250.15,39.31,250Zm181.4-72.22h.06c0,4.86-.22,9.73,0,14.58a10.75,10.75,0,0,0,21.5-.26q.31-14,0-28a10.79,10.79,0,0,0-21.58.26C220.6,168.84,220.71,173.33,220.71,177.82Zm-184.9.31h0c0-4.11,0-8.22,0-12.33-.09-7.34-4.4-12.21-10.77-12.26S14.2,158.48,14.13,165.7c-.09,8.47-.07,16.94,0,25.4,0,6.91,4.58,11.7,10.89,11.68,5.92,0,10.6-5,10.77-11.57C35.9,186.85,35.81,182.49,35.81,178.13Z"/></g></g></svg>