<svg xmlns="http://www.w3.org/2000/svg" viewBox="0 0 38.06 39.63"><defs><style>.cls-1{fill:#fff;}</style></defs><g id="Layer_2" data-name="Layer 2"><g id="Layer_1-2" data-name="Layer 1"><g id="Layer_2-2" data-name="Layer 2"><g id="Layer_1-2-2" data-name="Layer 1-2"><path class="cls-1" d="M26.74,29.77A13.92,13.92,0,0,1,19,4.32c-.43,0-.86-.05-1.3-.05a17.68,17.68,0,1,0,16.8,23.16A13.79,13.79,0,0,1,26.74,29.77Z"/><polygon class="cls-1" points="33.22 7.27 37.55 0 29.63 0 29.63 2.32 33.47 2.32 29.14 9.6 38.06 9.6 38.06 7.27 33.22 7.27"/><polygon class="cls-1" points="26.59 8.84 19.42 8.84 19.42 11.16 22.5 11.16 19.16 16.77 26.51 16.77 26.51 14.45 23.24 14.45 26.59 8.84"/><polygon class="cls-1" points="30.91 22.03 33.02 18.48 27.03 18.48 27.03 20.8 28.94 20.8 26.82 24.36 33.11 24.36 33.11 22.03 30.91 22.03"/></g></g></g></g></svg>