<svg xmlns="http://www.w3.org/2000/svg" viewBox="0 0 90.44 50.7"><defs><style>.cls-1{fill:#1a1a1a;}.cls-1,.cls-2{opacity:0.4;}.cls-3{fill:#020202;}</style></defs><g id="Layer_2" data-name="Layer 2"><g id="Layer_1-2" data-name="Layer 1"><path class="cls-1" d="M14.14,24.93a3.07,3.07,0,1,1,3.07-3.06A3.06,3.06,0,0,1,14.14,24.93Zm0-4.74a1.68,1.68,0,1,0,1.68,1.68A1.68,1.68,0,0,0,14.14,20.19Z"/><g class="cls-2"><path class="cls-3" d="M86.08,38.29H4.37A4.37,4.37,0,0,1,0,33.92V19a4.37,4.37,0,0,1,4.37-4.36H86.08A4.36,4.36,0,0,1,90.44,19V33.92A4.37,4.37,0,0,1,86.08,38.29ZM4.37,17.44A1.6,1.6,0,0,0,2.77,19V33.92a1.6,1.6,0,0,0,1.6,1.6H86.08a1.6,1.6,0,0,0,1.59-1.6V19a1.59,1.59,0,0,0-1.59-1.59Z"/><path class="cls-3" d="M86.62,17.44H3.82V3.77A3.77,3.77,0,0,1,7.59,0H82.85a3.77,3.77,0,0,1,3.77,3.77Zm-80-2.77H83.85V3.77a1,1,0,0,0-1-1H7.59a1,1,0,0,0-1,1Z"/><path class="cls-3" d="M38.76,17.44H10.15V9.67a2.35,2.35,0,0,1,2.34-2.34H36.41a2.35,2.35,0,0,1,2.35,2.34ZM12.92,14.67H36V10.11H12.92Z"/><path class="cls-3" d="M79.66,17.44H51.06V9.67A2.35,2.35,0,0,1,53.4,7.33H77.32a2.35,2.35,0,0,1,2.34,2.34ZM53.83,14.67H76.89V10.11H53.83Z"/><path class="cls-3" d="M6.79,50.7A3.82,3.82,0,0,1,3,46.89V35.52H13.27L10.5,47.73A3.78,3.78,0,0,1,6.79,50.7Zm-1-12.41v8.6a1,1,0,0,0,1,1,1,1,0,0,0,1-.81l2-8.83Z"/><path class="cls-3" d="M83,50.7a3.8,3.8,0,0,1-3.72-3L76.54,35.52H86.83V46.89A3.81,3.81,0,0,1,83,50.7ZM80,38.29l2,8.83a1,1,0,0,0,2-.23v-8.6Z"/></g></g></g></svg>