<svg xmlns="http://www.w3.org/2000/svg" viewBox="0 0 78.61 78.61"><defs><style>.cls-1,.cls-4{fill:#eaedf0;}.cls-1{stroke:#193563;stroke-miterlimit:10;stroke-width:2px;}.cls-2{opacity:0.8;}.cls-3{fill:#1b3663;}</style></defs><g id="Layer_2" data-name="Layer 2"><g id="Layer_1-2" data-name="Layer 1"><path class="cls-1" d="M77.61,39.3A38.31,38.31,0,1,1,39.3,1,38.35,38.35,0,0,1,77.61,39.3Z"/><g class="cls-2"><path class="cls-3" d="M24.25,35.09H35.83V23.52H24.25Zm2.32-9.26h6.94v7H26.57Z"/><path class="cls-3" d="M28.88,28.15H31.2v2.31H28.88Z"/><path class="cls-3" d="M24.25,53.61H35.83V42H24.25Zm2.32-9.26h6.94v6.94H26.57Z"/><path class="cls-3" d="M28.88,46.67H31.2V49H28.88Z"/><path class="cls-3" d="M54.34,23.52H42.77V35.09H54.34ZM52,32.78H45.08v-7H52Z"/><path class="cls-3" d="M47.39,28.15h2.32v2.31H47.39Z"/><path class="cls-3" d="M57.38,58.28,59,56.65l-6.29-6.29a8.1,8.1,0,1,0-6.49,3.25A8,8,0,0,0,51.09,52l6.29,6.29"/><path class="cls-4" d="M45.47,39.77v5h-5a5.8,5.8,0,0,1,5-5Z"/><path class="cls-4" d="M46.24,51.29a5.79,5.79,0,0,1-5.57-4.24h7.12V39.93a5.79,5.79,0,0,1-1.55,11.36Z"/><path class="cls-3" d="M21.94,21.21h6.94V18.89H19.63v9.24h2.31Z"/><path class="cls-3" d="M28.87,58.24V55.92H22V49H19.64v9.26"/><path class="cls-3" d="M56.66,28.14H59V18.88H49.74v2.31h6.92Z"/><path class="cls-3" d="M38.14,23.52h2.32v4.63H38.14Z"/><path class="cls-3" d="M33.51,37.41h4.63v2.31H33.51Z"/><path class="cls-3" d="M24.25,37.41h7v2.31H24.25Z"/><path class="cls-3" d="M38.14,30.46h2.32v4.63H38.14Z"/></g></g></g></svg>