<svg xmlns="http://www.w3.org/2000/svg" viewBox="0 0 35.67 34.75"><defs><style>.cls-1{fill:#fff;}</style></defs><g id="Layer_2" data-name="Layer 2"><g id="Layer_1-2" data-name="Layer 1"><g id="Layer_2-2" data-name="Layer 2"><g id="Layer_1-2-2" data-name="Layer 1-2"><path class="cls-1" d="M.67,14.78a2.31,2.31,0,0,0,3.12,3.4l14-12.76,14,12.76a2.3,2.3,0,0,0,1.56.61A2.37,2.37,0,0,0,35.11,18h0a2.33,2.33,0,0,0-.19-3.22L19.37.6a2.32,2.32,0,0,0-3.11,0ZM17.82,7.53,5.47,18.76V33.19a1.24,1.24,0,0,0,.65,1.06,2,2,0,0,0,1,.25h21.4a2.06,2.06,0,0,0,1-.25,1.26,1.26,0,0,0,.65-1.06V18.76ZM14.3,34.75V24.61h7.07V34.75Zm17.62-24L23,2.15l9.49-.3Z"/></g></g></g></g></svg>