<svg xmlns="http://www.w3.org/2000/svg" xmlns:xlink="http://www.w3.org/1999/xlink" viewBox="0 0 87.52 231.96"><defs><style>.cls-1{fill:none;}.cls-2{clip-path:url(#clip-path);}.cls-3{fill:url(#radial-gradient);}.cls-4{fill:url(#radial-gradient-2);}.cls-5{fill:url(#radial-gradient-3);}.cls-6{fill:url(#radial-gradient-4);}.cls-7{fill:#fff;}</style><clipPath id="clip-path" transform="translate(-47.92 146.43)"><rect class="cls-1" width="184" height="260" rx="5.86"/></clipPath><radialGradient id="radial-gradient" cx="34.87" cy="123.54" r="96.07" gradientUnits="userSpaceOnUse"><stop offset="0" stop-color="#494949"/><stop offset="0.69"/><stop offset="1" stop-color="#383838"/></radialGradient><radialGradient id="radial-gradient-2" cx="90.52" cy="27.8" r="6.12" xlink:href="#radial-gradient"/><radialGradient id="radial-gradient-3" cx="41.69" cy="179.86" r="10.89" xlink:href="#radial-gradient"/><radialGradient id="radial-gradient-4" cx="80.29" cy="56.48" r="46.9" xlink:href="#radial-gradient"/></defs><g id="Layer_2" data-name="Layer 2"><g id="Layer_1-2" data-name="Layer 1"><g class="cls-2"><rect class="cls-3" x="42.62" width="2" height="174.72"/><path class="cls-4" d="M95.73,29.94a4,4,0,1,1-4-4.05A4,4,0,0,1,95.73,29.94Z" transform="translate(-47.92 146.43)"/><circle class="cls-5" cx="43.76" cy="183.66" r="7.21"/><path class="cls-6" d="M135.44,79.65h-17.2L116,75l-46.55.32-2.08,4.33H47.92A43.79,43.79,0,0,1,84.51,36.47a44.61,44.61,0,0,1,14.34,0A43.79,43.79,0,0,1,135.44,79.65Z" transform="translate(-47.92 146.43)"/><path class="cls-7" d="M135.44,79.65c0,2.22-5.6,4.21-14.51,5.58l-2.69-5.58L116,75l-46.55.32-2.08,4.33-2.84,5.88C54.41,84.16,47.92,82,47.92,79.65c0-4.14,19.59-7.5,43.76-7.5S135.44,75.51,135.44,79.65Z" transform="translate(-47.92 146.43)"/></g></g></g></svg>