<svg xmlns="http://www.w3.org/2000/svg" viewBox="0 0 35.16 38.09"><defs><style>.cls-1{fill:#fff;}</style></defs><g id="Layer_2" data-name="Layer 2"><g id="Layer_1-2" data-name="Layer 1"><g id="Layer_2-2" data-name="Layer 2"><g id="Layer_1-2-2" data-name="Layer 1-2"><path class="cls-1" d="M2.49,7.36a1.44,1.44,0,0,0,1-.35l4-3.36A1.49,1.49,0,1,0,5.57,1.36h0l-4,3.37a1.47,1.47,0,0,0-.2,2.07v0A1.47,1.47,0,0,0,2.49,7.36Z"/><path class="cls-1" d="M27.69,3.65l4,3.36a1.47,1.47,0,0,0,2.08-.17v0a1.47,1.47,0,0,0-.16-2.07l0,0-4-3.37a1.49,1.49,0,0,0-1.9,2.29Z"/><path class="cls-1" d="M30,8.13A17.42,17.42,0,0,0,19,3V1.5a1.5,1.5,0,0,0-3,0V3A17.57,17.57,0,0,0,5.17,33a9.6,9.6,0,0,0,1,.89L5,35.84a1.48,1.48,0,0,0,2.55,1.52l1.06-1.78a17.63,17.63,0,0,0,18.09,0l1.06,1.78a1.5,1.5,0,0,0,1.28.73,1.48,1.48,0,0,0,1.49-1.47,1.42,1.42,0,0,0-.22-.78l-1.86-3.13a1.49,1.49,0,0,0-2-.51l-.12.08a14.6,14.6,0,1,1,4.15-4.75,1.48,1.48,0,0,0,2.42,1.71A1,1,0,0,0,33,29,17.54,17.54,0,0,0,30,8.13Z"/><path class="cls-1" d="M17.51,9.61A1.5,1.5,0,0,0,16,11.09v9.45a1.56,1.56,0,0,0,.44,1l4.21,4.21a1.48,1.48,0,0,0,2.1-2.1L19,19.92V11.09a1.48,1.48,0,0,0-1.5-1.48Z"/></g></g></g></g></svg>