<svg xmlns="http://www.w3.org/2000/svg" xmlns:xlink="http://www.w3.org/1999/xlink" viewBox="0 0 88.23 227.93"><defs><style>.cls-1{fill:none;}.cls-2{clip-path:url(#clip-path);}.cls-3{fill:url(#radial-gradient);}.cls-4{fill:url(#radial-gradient-2);}.cls-5{fill:url(#radial-gradient-3);}.cls-6{fill:url(#radial-gradient-4);}</style><clipPath id="clip-path" transform="translate(-47.14 148.49)"><rect class="cls-1" width="184" height="260" rx="5.86"/></clipPath><radialGradient id="radial-gradient" cx="35.15" cy="124.54" r="96.85" gradientUnits="userSpaceOnUse"><stop offset="0" stop-color="#494949"/><stop offset="0.69"/><stop offset="1" stop-color="#383838"/></radialGradient><radialGradient id="radial-gradient-2" cx="90.08" cy="27.17" r="6.17" xlink:href="#radial-gradient"/><radialGradient id="radial-gradient-3" cx="42.03" cy="181.32" r="10.98" xlink:href="#radial-gradient"/><radialGradient id="radial-gradient-4" cx="79.77" cy="56.08" r="47.28" xlink:href="#radial-gradient"/></defs><g id="Layer_2" data-name="Layer 2"><g id="Layer_1-2" data-name="Layer 1"><g class="cls-2"><rect class="cls-3" x="42.97" width="2.01" height="176.14"/><path class="cls-4" d="M95.34,29.32a4.09,4.09,0,1,1-4.08-4.08A4.08,4.08,0,0,1,95.34,29.32Z" transform="translate(-47.14 148.49)"/><circle class="cls-5" cx="44.11" cy="185.16" r="7.27"/><path class="cls-6" d="M91.26,35.32A44.12,44.12,0,0,0,47.14,79.44h88.23A44.11,44.11,0,0,0,91.26,35.32Z" transform="translate(-47.14 148.49)"/></g></g></g></svg>