<svg xmlns="http://www.w3.org/2000/svg" xmlns:xlink="http://www.w3.org/1999/xlink" viewBox="0 0 610 610"><defs><style>.cls-1{fill:url(#Home_x);}.cls-2{clip-path:url(#clip-path);}.cls-3{fill:url(#Home_x-3);}.cls-4{fill:url(#Home_x-4);}.cls-5{fill:url(#Home_x-5);}.cls-6{fill:url(#Home_x-6);}.cls-7{fill:url(#Home_x-7);}.cls-8{fill:url(#Home_x-8);}.cls-9{fill:url(#Home_x-9);}.cls-10{fill:url(#Home_x-10);}.cls-11{fill:url(#Home_x-11);}.cls-12{fill:url(#Home_x-12);}.cls-13{fill:url(#Home_x-13);}.cls-14{fill:url(#Home_x-14);}.cls-15{fill:url(#Home_x-15);}.cls-16{fill:url(#Home_x-16);}.cls-17{fill:url(#Home_x-17);}.cls-18{fill:url(#Home_x-18);}.cls-19{fill:url(#Home_x-19);}.cls-20{fill:url(#Home_x-20);}.cls-21{fill:url(#Home_x-21);}.cls-22{fill:url(#Home_x-22);}.cls-23{fill:url(#Home_x-23);}.cls-24{fill:url(#Home_x-24);}.cls-25{fill:url(#Home_x-25);}.cls-26{fill:url(#Home_x-26);}.cls-27{fill:url(#Home_x-27);}.cls-28{fill:url(#Home_x-28);}.cls-29{fill:url(#Home_x-29);}.cls-30{fill:url(#Home_x-30);}.cls-31{fill:url(#Home_x-31);}.cls-32{fill:url(#Home_x-32);}.cls-33{fill:url(#Home_x-33);}.cls-34{fill:url(#Home_x-34);}.cls-35{fill:url(#Home_x-35);}.cls-36{fill:url(#Home_x-36);}.cls-37{fill:url(#Home_x-37);}.cls-38{fill:url(#Home_x-38);}.cls-39{fill:url(#Home_x-39);}.cls-40{fill:url(#Home_x-40);}.cls-41{fill:url(#Home_x-41);}.cls-42{fill:url(#Home_x-42);}.cls-43{fill:url(#Home_x-43);}.cls-44{fill:url(#Home_x-44);}.cls-45{fill:url(#Home_x-45);}.cls-46{fill:url(#Home_x-46);}.cls-47{fill:url(#Home_x-47);}.cls-48{fill:url(#Home_x-48);}.cls-49{fill:url(#Home_x-49);}.cls-50{fill:url(#Home_x-50);}.cls-51{fill:url(#Home_x-51);}.cls-52{fill:url(#Home_x-52);}.cls-53{fill:url(#Home_x-53);}.cls-54{fill:url(#Home_x-54);}.cls-55{fill:url(#Home_x-55);}.cls-56{fill:url(#Home_x-56);}.cls-57{fill:url(#Home_x-57);}.cls-58{fill:url(#Home_x-58);}.cls-59{fill:url(#Home_x-59);}.cls-60{fill:url(#Home_x-60);}.cls-61{fill:url(#Home_x-61);}.cls-62{fill:url(#Home_x-62);}.cls-63{fill:url(#Home_x-63);}.cls-64{fill:url(#Home_x-64);}.cls-65{fill:url(#Home_x-65);}.cls-66{fill:url(#Home_x-66);}.cls-67{fill:url(#Home_x-67);}.cls-68{fill:url(#Home_x-68);}.cls-69{fill:url(#Home_x-69);}.cls-70{fill:url(#Home_x-70);}.cls-71{fill:url(#Home_x-71);}.cls-72{fill:url(#Home_x-72);}.cls-73{fill:url(#Home_x-73);}.cls-74{fill:url(#Home_x-74);}.cls-75{fill:url(#Home_x-75);}.cls-76{fill:url(#Home_x-76);}.cls-77{fill:url(#Home_x-77);}.cls-78{fill:url(#Home_x-78);}.cls-79{fill:url(#Home_x-79);}.cls-80{fill:url(#Home_x-80);}.cls-81{fill:url(#Home_x-81);}.cls-82{fill:url(#Home_x-82);}.cls-83{fill:url(#Home_x-83);}.cls-84{fill:url(#Home_x-84);}.cls-85{fill:url(#Home_x-85);}.cls-86{fill:url(#Home_x-86);}.cls-87{fill:url(#Home_x-87);}.cls-88{fill:url(#Home_x-88);}.cls-89{fill:url(#Home_x-89);}.cls-90{fill:url(#Home_x-90);}.cls-91{fill:url(#Home_x-91);}.cls-92{fill:url(#Home_x-92);}.cls-93{fill:url(#Home_x-93);}.cls-94{fill:url(#Home_x-94);}.cls-95{fill:url(#Home_x-95);}.cls-96{fill:url(#Home_x-96);}.cls-97{fill:url(#Home_x-97);}.cls-98{fill:url(#Home_x-98);}.cls-99{fill:url(#Home_x-99);}.cls-100{fill:url(#Home_x-100);}.cls-101{fill:url(#Home_x-101);}.cls-102{fill:url(#Home_x-102);}.cls-103{fill:url(#Home_x-103);}.cls-104{fill:url(#Home_x-104);}.cls-105{fill:url(#Home_x-105);}.cls-106{fill:url(#Home_x-106);}.cls-107{fill:url(#Home_x-107);}.cls-108{fill:url(#Home_x-108);}.cls-109{fill:url(#Home_x-109);}.cls-110{fill:url(#Home_x-110);}.cls-111{fill:url(#Home_x-111);}.cls-112{fill:url(#Home_x-112);}.cls-113{fill:url(#Home_x-113);}.cls-114{fill:url(#Home_x-114);}.cls-115{fill:url(#Home_x-115);}.cls-116{fill:url(#Home_x-116);}.cls-117{fill:url(#Home_x-117);}.cls-118{fill:url(#Home_x-118);}.cls-119{fill:url(#Home_x-119);}.cls-120{fill:url(#Home_x-120);}.cls-121{fill:url(#Home_x-121);}.cls-122{fill:url(#Home_x-122);}.cls-123{fill:url(#Home_x-123);}.cls-124{fill:url(#Home_x-124);}.cls-125{fill:url(#Home_x-125);}.cls-126{fill:url(#Home_x-126);}.cls-127{fill:url(#Home_x-127);}.cls-128{fill:url(#Home_x-128);}.cls-129{fill:url(#Home_x-129);}.cls-130{fill:url(#Home_x-130);}.cls-131{fill:url(#Home_x-131);}.cls-132{fill:url(#Home_x-132);}.cls-133{fill:url(#Home_x-133);}.cls-134{fill:url(#Home_x-134);}.cls-135{fill:url(#Home_x-135);}.cls-136{fill:url(#Home_x-136);}.cls-137{fill:url(#Home_x-137);}.cls-138{fill:url(#Home_x-138);}.cls-139{fill:url(#Home_x-139);}.cls-140{fill:url(#Home_x-140);}.cls-141{fill:url(#Home_x-141);}.cls-142{fill:url(#Home_x-142);}.cls-143{fill:url(#Home_x-143);}.cls-144{fill:url(#Home_x-144);}.cls-145{fill:url(#Home_x-145);}.cls-146{fill:url(#Home_x-146);}.cls-147{fill:url(#Home_x-147);}.cls-148{fill:url(#Home_x-148);}.cls-149{fill:url(#Home_x-149);}.cls-150{fill:url(#Home_x-150);}.cls-151{fill:url(#Home_x-151);}.cls-152{fill:url(#Home_x-152);}.cls-153{fill:url(#Home_x-153);}.cls-154{fill:url(#Home_x-154);}.cls-155{fill:url(#Home_x-155);}.cls-156{fill:url(#Home_x-156);}.cls-157{fill:url(#Home_x-157);}.cls-158{fill:url(#Home_x-158);}.cls-159{fill:url(#Home_x-159);}.cls-160{fill:url(#Home_x-160);}.cls-161{fill:url(#Home_x-161);}.cls-162{fill:url(#Home_x-162);}.cls-163{fill:url(#Home_x-163);}.cls-164{fill:url(#Home_x-164);}.cls-165{fill:url(#Home_x-165);}.cls-166{fill:url(#Home_x-166);}.cls-167{fill:url(#Home_x-167);}.cls-168{fill:url(#Home_x-168);}.cls-169{fill:url(#Home_x-169);}.cls-170{fill:url(#Home_x-170);}.cls-171{fill:url(#Home_x-171);}.cls-172{fill:url(#Home_x-172);}.cls-173{fill:url(#Home_x-173);}.cls-174{fill:url(#Home_x-174);}.cls-175{fill:url(#Home_x-175);}.cls-176{fill:url(#Home_x-176);}.cls-177{fill:url(#Home_x-177);}.cls-178{fill:url(#Home_x-178);}.cls-179{fill:url(#Home_x-179);}.cls-180{fill:url(#Home_x-180);}.cls-181{fill:url(#Home_x-181);}.cls-182{fill:url(#Home_x-182);}.cls-183{fill:url(#Home_x-183);}.cls-184{fill:url(#Home_x-184);}.cls-185{fill:url(#Home_x-185);}.cls-186{fill:url(#Home_x-186);}.cls-187{fill:url(#Home_x-187);}.cls-188{fill:url(#Home_x-188);}.cls-189{fill:url(#Home_x-189);}.cls-190{fill:url(#Home_x-190);}.cls-191{fill:url(#Home_x-191);}.cls-192{fill:url(#Home_x-192);}.cls-193{fill:url(#Home_x-193);}.cls-194{fill:url(#Home_x-194);}.cls-195{fill:url(#Home_x-195);}.cls-196{fill:url(#Home_x-196);}.cls-197{fill:url(#Home_x-197);}.cls-198{fill:url(#Home_x-198);}.cls-199{fill:url(#Home_x-199);}.cls-200{fill:url(#Home_x-200);}.cls-201{fill:url(#Home_x-201);}.cls-202{fill:url(#Home_x-202);}.cls-203{fill:url(#Home_x-203);}.cls-204{fill:url(#Home_x-204);}.cls-205{fill:url(#Home_x-205);}.cls-206{fill:url(#Home_x-206);}.cls-207{fill:url(#Home_x-207);}.cls-208{fill:url(#Home_x-208);}.cls-209{fill:url(#Home_x-209);}.cls-210{fill:url(#Home_x-210);}.cls-211{fill:url(#Home_x-211);}.cls-212{fill:url(#Home_x-212);}.cls-213{fill:url(#Home_x-213);}.cls-214{fill:url(#Home_x-214);}.cls-215{fill:url(#Home_x-215);}.cls-216{fill:url(#Home_x-216);}.cls-217{fill:#231f20;}.cls-218,.cls-219{fill:#fff;}.cls-218{stroke:#fff;stroke-miterlimit:10;stroke-width:10px;}</style><linearGradient id="Home_x" x1="5" y1="305" x2="605" y2="305" gradientUnits="userSpaceOnUse"><stop offset="0" stop-color="#13274b"/><stop offset="0.25" stop-color="#13274b" stop-opacity="0.97"/><stop offset="0.5" stop-color="#1d3b6c" stop-opacity="0.93"/><stop offset="0.75" stop-color="#0f4d8b" stop-opacity="0.8"/><stop offset="1" stop-color="#0b55a1" stop-opacity="0.73"/><stop offset="1" stop-color="#3c5f9f" stop-opacity="0.7"/></linearGradient><clipPath id="clip-path"><rect class="cls-1" x="5" y="5" width="600" height="600" rx="75.59"/></clipPath><linearGradient id="Home_x-3" x1="5" y1="602.15" x2="10.73" y2="602.15" xlink:href="#Home_x"/><linearGradient id="Home_x-4" x1="5" y1="598.09" x2="18.9" y2="598.09" xlink:href="#Home_x"/><linearGradient id="Home_x-5" x1="5" y1="594.03" x2="27.07" y2="594.03" xlink:href="#Home_x"/><linearGradient id="Home_x-6" x1="5" y1="589.98" x2="35.23" y2="589.98" xlink:href="#Home_x"/><linearGradient id="Home_x-7" x1="5" y1="585.92" x2="43.4" y2="585.92" xlink:href="#Home_x"/><linearGradient id="Home_x-8" x1="5" y1="581.86" x2="51.57" y2="581.86" xlink:href="#Home_x"/><linearGradient id="Home_x-9" x1="5" y1="577.8" x2="59.73" y2="577.8" xlink:href="#Home_x"/><linearGradient id="Home_x-10" x1="5" y1="573.74" x2="67.9" y2="573.74" xlink:href="#Home_x"/><linearGradient id="Home_x-11" x1="5" y1="569.68" x2="76.07" y2="569.68" xlink:href="#Home_x"/><linearGradient id="Home_x-12" x1="5" y1="565.62" x2="84.24" y2="565.62" xlink:href="#Home_x"/><linearGradient id="Home_x-13" x1="5" y1="561.56" x2="92.4" y2="561.56" xlink:href="#Home_x"/><linearGradient id="Home_x-14" x1="5" y1="557.5" x2="100.57" y2="557.5" xlink:href="#Home_x"/><linearGradient id="Home_x-15" x1="5" y1="553.45" x2="108.74" y2="553.45" xlink:href="#Home_x"/><linearGradient id="Home_x-16" x1="5" y1="549.39" x2="116.9" y2="549.39" xlink:href="#Home_x"/><linearGradient id="Home_x-17" x1="5" y1="545.33" x2="125.07" y2="545.33" xlink:href="#Home_x"/><linearGradient id="Home_x-18" x1="5" y1="541.27" x2="133.24" y2="541.27" xlink:href="#Home_x"/><linearGradient id="Home_x-19" x1="5" y1="537.21" x2="141.41" y2="537.21" xlink:href="#Home_x"/><linearGradient id="Home_x-20" x1="5" y1="533.15" x2="149.57" y2="533.15" xlink:href="#Home_x"/><linearGradient id="Home_x-21" x1="5" y1="531.12" x2="153.66" y2="531.12" xlink:href="#Home_x"/><linearGradient id="Home_x-22" x1="5" y1="529.09" x2="157.74" y2="529.09" xlink:href="#Home_x"/><linearGradient id="Home_x-23" x1="5" y1="527.06" x2="161.82" y2="527.06" xlink:href="#Home_x"/><linearGradient id="Home_x-24" x1="5" y1="525.03" x2="165.91" y2="525.03" xlink:href="#Home_x"/><linearGradient id="Home_x-25" x1="5" y1="523" x2="169.99" y2="523" xlink:href="#Home_x"/><linearGradient id="Home_x-26" x1="5" y1="520.98" x2="174.07" y2="520.98" xlink:href="#Home_x"/><linearGradient id="Home_x-27" x1="5" y1="518.95" x2="178.16" y2="518.95" xlink:href="#Home_x"/><linearGradient id="Home_x-28" x1="5" y1="516.92" x2="182.24" y2="516.92" xlink:href="#Home_x"/><linearGradient id="Home_x-29" x1="5" y1="514.89" x2="186.32" y2="514.89" xlink:href="#Home_x"/><linearGradient id="Home_x-30" x1="5" y1="512.86" x2="190.41" y2="512.86" xlink:href="#Home_x"/><linearGradient id="Home_x-31" x1="5" y1="510.83" x2="194.49" y2="510.83" xlink:href="#Home_x"/><linearGradient id="Home_x-32" x1="5" y1="508.8" x2="198.57" y2="508.8" xlink:href="#Home_x"/><linearGradient id="Home_x-33" x1="5" y1="506.77" x2="202.66" y2="506.77" xlink:href="#Home_x"/><linearGradient id="Home_x-34" x1="5" y1="504.74" x2="206.74" y2="504.74" xlink:href="#Home_x"/><linearGradient id="Home_x-35" x1="5" y1="502.71" x2="210.83" y2="502.71" xlink:href="#Home_x"/><linearGradient id="Home_x-36" x1="5" y1="500.68" x2="214.91" y2="500.68" xlink:href="#Home_x"/><linearGradient id="Home_x-37" x1="5" y1="498.65" x2="218.99" y2="498.65" xlink:href="#Home_x"/><linearGradient id="Home_x-38" x1="5" y1="496.62" x2="223.08" y2="496.62" xlink:href="#Home_x"/><linearGradient id="Home_x-39" x1="5" y1="494.59" x2="227.16" y2="494.59" xlink:href="#Home_x"/><linearGradient id="Home_x-40" x1="5" y1="492.56" x2="231.24" y2="492.56" xlink:href="#Home_x"/><linearGradient id="Home_x-41" x1="5" y1="490.53" x2="235.33" y2="490.53" xlink:href="#Home_x"/><linearGradient id="Home_x-42" x1="5" y1="488.5" x2="239.41" y2="488.5" xlink:href="#Home_x"/><linearGradient id="Home_x-43" x1="5" y1="486.48" x2="243.49" y2="486.48" xlink:href="#Home_x"/><linearGradient id="Home_x-44" x1="5" y1="484.45" x2="247.58" y2="484.45" xlink:href="#Home_x"/><linearGradient id="Home_x-45" x1="5" y1="482.42" x2="251.66" y2="482.42" xlink:href="#Home_x"/><linearGradient id="Home_x-46" x1="5" y1="480.39" x2="255.74" y2="480.39" xlink:href="#Home_x"/><linearGradient id="Home_x-47" x1="5" y1="478.36" x2="259.83" y2="478.36" xlink:href="#Home_x"/><linearGradient id="Home_x-48" x1="5" y1="476.33" x2="263.91" y2="476.33" xlink:href="#Home_x"/><linearGradient id="Home_x-49" x1="5" y1="474.3" x2="268" y2="474.3" xlink:href="#Home_x"/><linearGradient id="Home_x-50" x1="5" y1="472.27" x2="272.08" y2="472.27" xlink:href="#Home_x"/><linearGradient id="Home_x-51" x1="5" y1="470.24" x2="276.16" y2="470.24" xlink:href="#Home_x"/><linearGradient id="Home_x-52" x1="5" y1="468.21" x2="280.25" y2="468.21" xlink:href="#Home_x"/><linearGradient id="Home_x-53" x1="5" y1="466.18" x2="284.33" y2="466.18" xlink:href="#Home_x"/><linearGradient id="Home_x-54" x1="5" y1="464.15" x2="288.41" y2="464.15" xlink:href="#Home_x"/><linearGradient id="Home_x-55" x1="5" y1="462.12" x2="292.5" y2="462.12" xlink:href="#Home_x"/><linearGradient id="Home_x-56" x1="5" y1="460.09" x2="296.58" y2="460.09" xlink:href="#Home_x"/><linearGradient id="Home_x-57" x1="5" y1="458.06" x2="300.66" y2="458.06" xlink:href="#Home_x"/><linearGradient id="Home_x-58" x1="5" y1="456.03" x2="304.75" y2="456.03" xlink:href="#Home_x"/><linearGradient id="Home_x-59" x1="5" y1="454" x2="308.83" y2="454" xlink:href="#Home_x"/><linearGradient id="Home_x-60" x1="5" y1="451.98" x2="312.91" y2="451.98" xlink:href="#Home_x"/><linearGradient id="Home_x-61" x1="5" y1="449.95" x2="317" y2="449.95" xlink:href="#Home_x"/><linearGradient id="Home_x-62" x1="5" y1="447.92" x2="321.08" y2="447.92" xlink:href="#Home_x"/><linearGradient id="Home_x-63" x1="5" y1="445.89" x2="325.17" y2="445.89" xlink:href="#Home_x"/><linearGradient id="Home_x-64" x1="5" y1="443.86" x2="329.25" y2="443.86" xlink:href="#Home_x"/><linearGradient id="Home_x-65" x1="5" y1="441.83" x2="333.33" y2="441.83" xlink:href="#Home_x"/><linearGradient id="Home_x-66" x1="5" y1="439.8" x2="337.42" y2="439.8" xlink:href="#Home_x"/><linearGradient id="Home_x-67" x1="5" y1="437.77" x2="341.5" y2="437.77" xlink:href="#Home_x"/><linearGradient id="Home_x-68" x1="5" y1="435.74" x2="345.58" y2="435.74" xlink:href="#Home_x"/><linearGradient id="Home_x-69" x1="5" y1="433.71" x2="349.67" y2="433.71" xlink:href="#Home_x"/><linearGradient id="Home_x-70" x1="5" y1="431.68" x2="353.75" y2="431.68" xlink:href="#Home_x"/><linearGradient id="Home_x-71" x1="5" y1="429.65" x2="357.83" y2="429.65" xlink:href="#Home_x"/><linearGradient id="Home_x-72" x1="5" y1="427.62" x2="361.92" y2="427.62" xlink:href="#Home_x"/><linearGradient id="Home_x-73" x1="5" y1="425.59" x2="366" y2="425.59" xlink:href="#Home_x"/><linearGradient id="Home_x-74" x1="5" y1="423.56" x2="370.08" y2="423.56" xlink:href="#Home_x"/><linearGradient id="Home_x-75" x1="5" y1="421.53" x2="374.17" y2="421.53" xlink:href="#Home_x"/><linearGradient id="Home_x-76" x1="5" y1="419.5" x2="378.25" y2="419.5" xlink:href="#Home_x"/><linearGradient id="Home_x-77" x1="5" y1="417.48" x2="382.34" y2="417.48" xlink:href="#Home_x"/><linearGradient id="Home_x-78" x1="5" y1="415.45" x2="386.42" y2="415.45" xlink:href="#Home_x"/><linearGradient id="Home_x-79" x1="5" y1="413.42" x2="390.5" y2="413.42" xlink:href="#Home_x"/><linearGradient id="Home_x-80" x1="5" y1="411.39" x2="394.59" y2="411.39" xlink:href="#Home_x"/><linearGradient id="Home_x-81" x1="5" y1="409.36" x2="398.67" y2="409.36" xlink:href="#Home_x"/><linearGradient id="Home_x-82" x1="5" y1="407.33" x2="402.75" y2="407.33" xlink:href="#Home_x"/><linearGradient id="Home_x-83" x1="5" y1="405.3" x2="406.84" y2="405.3" xlink:href="#Home_x"/><linearGradient id="Home_x-84" x1="5" y1="403.27" x2="410.92" y2="403.27" xlink:href="#Home_x"/><linearGradient id="Home_x-85" x1="5" y1="401.24" x2="415" y2="401.24" xlink:href="#Home_x"/><linearGradient id="Home_x-86" x1="5" y1="399.21" x2="419.09" y2="399.21" xlink:href="#Home_x"/><linearGradient id="Home_x-87" x1="5" y1="396.98" x2="423.58" y2="396.98" xlink:href="#Home_x"/><linearGradient id="Home_x-88" x1="5" y1="394.75" x2="428.07" y2="394.75" xlink:href="#Home_x"/><linearGradient id="Home_x-89" x1="5" y1="392.51" x2="432.56" y2="392.51" xlink:href="#Home_x"/><linearGradient id="Home_x-90" x1="5" y1="390.28" x2="437.05" y2="390.28" xlink:href="#Home_x"/><linearGradient id="Home_x-91" x1="5" y1="388.05" x2="441.55" y2="388.05" xlink:href="#Home_x"/><linearGradient id="Home_x-92" x1="5" y1="385.82" x2="446.04" y2="385.82" xlink:href="#Home_x"/><linearGradient id="Home_x-93" x1="5" y1="383.58" x2="450.53" y2="383.58" xlink:href="#Home_x"/><linearGradient id="Home_x-94" x1="5" y1="381.35" x2="455.02" y2="381.35" xlink:href="#Home_x"/><linearGradient id="Home_x-95" x1="5" y1="379.12" x2="459.51" y2="379.12" xlink:href="#Home_x"/><linearGradient id="Home_x-96" x1="5" y1="376.89" x2="464.01" y2="376.89" xlink:href="#Home_x"/><linearGradient id="Home_x-97" x1="5" y1="374.65" x2="468.5" y2="374.65" xlink:href="#Home_x"/><linearGradient id="Home_x-98" x1="5" y1="372.42" x2="472.99" y2="372.42" xlink:href="#Home_x"/><linearGradient id="Home_x-99" x1="5" y1="370.19" x2="477.48" y2="370.19" xlink:href="#Home_x"/><linearGradient id="Home_x-100" x1="5" y1="367.96" x2="481.97" y2="367.96" xlink:href="#Home_x"/><linearGradient id="Home_x-101" x1="5" y1="365.73" x2="486.47" y2="365.73" xlink:href="#Home_x"/><linearGradient id="Home_x-102" x1="5" y1="363.49" x2="490.96" y2="363.49" xlink:href="#Home_x"/><linearGradient id="Home_x-103" x1="5" y1="361.26" x2="495.45" y2="361.26" xlink:href="#Home_x"/><linearGradient id="Home_x-104" x1="5" y1="359.03" x2="499.94" y2="359.03" xlink:href="#Home_x"/><linearGradient id="Home_x-105" x1="5" y1="356.8" x2="504.43" y2="356.8" xlink:href="#Home_x"/><linearGradient id="Home_x-106" x1="5" y1="354.56" x2="508.93" y2="354.56" xlink:href="#Home_x"/><linearGradient id="Home_x-107" x1="5" y1="352.33" x2="513.42" y2="352.33" xlink:href="#Home_x"/><linearGradient id="Home_x-108" x1="5" y1="350.1" x2="517.91" y2="350.1" xlink:href="#Home_x"/><linearGradient id="Home_x-109" x1="5" y1="347.87" x2="522.4" y2="347.87" xlink:href="#Home_x"/><linearGradient id="Home_x-110" x1="5" y1="345.63" x2="526.89" y2="345.63" xlink:href="#Home_x"/><linearGradient id="Home_x-111" x1="5" y1="343.4" x2="531.39" y2="343.4" xlink:href="#Home_x"/><linearGradient id="Home_x-112" x1="5" y1="341.17" x2="535.88" y2="341.17" xlink:href="#Home_x"/><linearGradient id="Home_x-113" x1="5" y1="338.94" x2="540.37" y2="338.94" xlink:href="#Home_x"/><linearGradient id="Home_x-114" x1="5" y1="336.7" x2="544.86" y2="336.7" xlink:href="#Home_x"/><linearGradient id="Home_x-115" x1="5" y1="334.47" x2="549.35" y2="334.47" xlink:href="#Home_x"/><linearGradient id="Home_x-116" x1="5" y1="332.24" x2="553.84" y2="332.24" xlink:href="#Home_x"/><linearGradient id="Home_x-117" x1="5" y1="330.01" x2="558.34" y2="330.01" xlink:href="#Home_x"/><linearGradient id="Home_x-118" x1="5" y1="327.78" x2="562.83" y2="327.78" xlink:href="#Home_x"/><linearGradient id="Home_x-119" x1="5" y1="325.54" x2="567.32" y2="325.54" xlink:href="#Home_x"/><linearGradient id="Home_x-120" x1="5" y1="323.31" x2="571.81" y2="323.31" xlink:href="#Home_x"/><linearGradient id="Home_x-121" x1="5" y1="321.08" x2="576.3" y2="321.08" xlink:href="#Home_x"/><linearGradient id="Home_x-122" x1="5" y1="318.85" x2="580.8" y2="318.85" xlink:href="#Home_x"/><linearGradient id="Home_x-123" x1="5" y1="316.61" x2="585.29" y2="316.61" xlink:href="#Home_x"/><linearGradient id="Home_x-124" x1="5" y1="314.38" x2="589.78" y2="314.38" xlink:href="#Home_x"/><linearGradient id="Home_x-125" x1="5" y1="312.15" x2="594.27" y2="312.15" xlink:href="#Home_x"/><linearGradient id="Home_x-126" x1="5" y1="309.92" x2="598.76" y2="309.92" xlink:href="#Home_x"/><linearGradient id="Home_x-127" x1="5" y1="307.68" x2="603.26" y2="307.68" xlink:href="#Home_x"/><linearGradient id="Home_x-128" x1="5" y1="305.45" x2="605" y2="305.45" xlink:href="#Home_x"/><linearGradient id="Home_x-129" x1="5" y1="303.63" x2="605" y2="303.63" xlink:href="#Home_x"/><linearGradient id="Home_x-130" x1="8.58" y1="301.4" x2="605" y2="301.4" xlink:href="#Home_x"/><linearGradient id="Home_x-131" x1="13.08" y1="299.17" x2="605" y2="299.17" xlink:href="#Home_x"/><linearGradient id="Home_x-132" x1="17.57" y1="296.94" x2="605" y2="296.94" xlink:href="#Home_x"/><linearGradient id="Home_x-133" x1="22.06" y1="294.71" x2="605" y2="294.71" xlink:href="#Home_x"/><linearGradient id="Home_x-134" x1="26.55" y1="292.47" x2="605" y2="292.47" xlink:href="#Home_x"/><linearGradient id="Home_x-135" x1="31.04" y1="290.24" x2="605" y2="290.24" xlink:href="#Home_x"/><linearGradient id="Home_x-136" x1="35.53" y1="288.01" x2="605" y2="288.01" xlink:href="#Home_x"/><linearGradient id="Home_x-137" x1="40.03" y1="285.78" x2="605" y2="285.78" xlink:href="#Home_x"/><linearGradient id="Home_x-138" x1="44.52" y1="283.54" x2="605" y2="283.54" xlink:href="#Home_x"/><linearGradient id="Home_x-139" x1="49.01" y1="281.31" x2="605" y2="281.31" xlink:href="#Home_x"/><linearGradient id="Home_x-140" x1="53.5" y1="279.08" x2="605" y2="279.08" xlink:href="#Home_x"/><linearGradient id="Home_x-141" x1="57.99" y1="276.85" x2="605" y2="276.85" xlink:href="#Home_x"/><linearGradient id="Home_x-142" x1="62.49" y1="274.61" x2="605" y2="274.61" xlink:href="#Home_x"/><linearGradient id="Home_x-143" x1="66.98" y1="272.38" x2="605" y2="272.38" xlink:href="#Home_x"/><linearGradient id="Home_x-144" x1="71.47" y1="270.15" x2="605" y2="270.15" xlink:href="#Home_x"/><linearGradient id="Home_x-145" x1="75.96" y1="267.92" x2="605" y2="267.92" xlink:href="#Home_x"/><linearGradient id="Home_x-146" x1="80.45" y1="265.68" x2="605" y2="265.68" xlink:href="#Home_x"/><linearGradient id="Home_x-147" x1="84.95" y1="263.45" x2="605" y2="263.45" xlink:href="#Home_x"/><linearGradient id="Home_x-148" x1="92.23" y1="259.83" x2="605" y2="259.83" xlink:href="#Home_x"/><linearGradient id="Home_x-149" x1="99.51" y1="256.21" x2="605" y2="256.21" xlink:href="#Home_x"/><linearGradient id="Home_x-150" x1="106.8" y1="252.59" x2="605" y2="252.59" xlink:href="#Home_x"/><linearGradient id="Home_x-151" x1="114.08" y1="248.97" x2="605" y2="248.97" xlink:href="#Home_x"/><linearGradient id="Home_x-152" x1="121.37" y1="245.35" x2="605" y2="245.35" xlink:href="#Home_x"/><linearGradient id="Home_x-153" x1="128.65" y1="241.73" x2="605" y2="241.73" xlink:href="#Home_x"/><linearGradient id="Home_x-154" x1="135.94" y1="238.11" x2="605" y2="238.11" xlink:href="#Home_x"/><linearGradient id="Home_x-155" x1="143.22" y1="234.49" x2="605" y2="234.49" xlink:href="#Home_x"/><linearGradient id="Home_x-156" x1="150.5" y1="230.87" x2="605" y2="230.87" xlink:href="#Home_x"/><linearGradient id="Home_x-157" x1="157.79" y1="227.25" x2="605" y2="227.25" xlink:href="#Home_x"/><linearGradient id="Home_x-158" x1="165.07" y1="223.63" x2="605" y2="223.63" xlink:href="#Home_x"/><linearGradient id="Home_x-159" x1="172.36" y1="220.01" x2="605" y2="220.01" xlink:href="#Home_x"/><linearGradient id="Home_x-160" x1="179.64" y1="216.39" x2="605" y2="216.39" xlink:href="#Home_x"/><linearGradient id="Home_x-161" x1="186.92" y1="212.77" x2="605" y2="212.77" xlink:href="#Home_x"/><linearGradient id="Home_x-162" x1="194.21" y1="209.15" x2="605" y2="209.15" xlink:href="#Home_x"/><linearGradient id="Home_x-163" x1="201.49" y1="205.53" x2="605" y2="205.53" xlink:href="#Home_x"/><linearGradient id="Home_x-164" x1="208.78" y1="201.91" x2="605" y2="201.91" xlink:href="#Home_x"/><linearGradient id="Home_x-165" x1="216.06" y1="198.29" x2="605" y2="198.29" xlink:href="#Home_x"/><linearGradient id="Home_x-166" x1="223.35" y1="194.67" x2="605" y2="194.67" xlink:href="#Home_x"/><linearGradient id="Home_x-167" x1="230.63" y1="191.05" x2="605" y2="191.05" xlink:href="#Home_x"/><linearGradient id="Home_x-168" x1="237.91" y1="187.43" x2="605" y2="187.43" xlink:href="#Home_x"/><linearGradient id="Home_x-169" x1="245.2" y1="183.81" x2="605" y2="183.81" xlink:href="#Home_x"/><linearGradient id="Home_x-170" x1="252.48" y1="180.19" x2="605" y2="180.19" xlink:href="#Home_x"/><linearGradient id="Home_x-171" x1="259.77" y1="176.57" x2="605" y2="176.57" xlink:href="#Home_x"/><linearGradient id="Home_x-172" x1="267.05" y1="172.95" x2="605" y2="172.95" xlink:href="#Home_x"/><linearGradient id="Home_x-173" x1="274.33" y1="169.33" x2="605" y2="169.33" xlink:href="#Home_x"/><linearGradient id="Home_x-174" x1="281.62" y1="165.71" x2="605" y2="165.71" xlink:href="#Home_x"/><linearGradient id="Home_x-175" x1="288.9" y1="162.09" x2="605" y2="162.09" xlink:href="#Home_x"/><linearGradient id="Home_x-176" x1="296.19" y1="158.47" x2="605" y2="158.47" xlink:href="#Home_x"/><linearGradient id="Home_x-177" x1="303.47" y1="154.85" x2="605" y2="154.85" xlink:href="#Home_x"/><linearGradient id="Home_x-178" x1="310.76" y1="151.23" x2="605" y2="151.23" xlink:href="#Home_x"/><linearGradient id="Home_x-179" x1="318.04" y1="147.61" x2="605" y2="147.61" xlink:href="#Home_x"/><linearGradient id="Home_x-180" x1="325.32" y1="143.99" x2="605" y2="143.99" xlink:href="#Home_x"/><linearGradient id="Home_x-181" x1="332.61" y1="140.37" x2="605" y2="140.37" xlink:href="#Home_x"/><linearGradient id="Home_x-182" x1="339.89" y1="136.75" x2="605" y2="136.75" xlink:href="#Home_x"/><linearGradient id="Home_x-183" x1="347.18" y1="133.13" x2="605" y2="133.13" xlink:href="#Home_x"/><linearGradient id="Home_x-184" x1="354.46" y1="129.51" x2="605" y2="129.51" xlink:href="#Home_x"/><linearGradient id="Home_x-185" x1="362.16" y1="125.68" x2="605" y2="125.68" xlink:href="#Home_x"/><linearGradient id="Home_x-186" x1="369.86" y1="121.86" x2="605" y2="121.86" xlink:href="#Home_x"/><linearGradient id="Home_x-187" x1="377.56" y1="118.03" x2="605" y2="118.03" xlink:href="#Home_x"/><linearGradient id="Home_x-188" x1="385.26" y1="114.2" x2="605" y2="114.2" xlink:href="#Home_x"/><linearGradient id="Home_x-189" x1="392.96" y1="110.38" x2="605" y2="110.38" xlink:href="#Home_x"/><linearGradient id="Home_x-190" x1="400.66" y1="106.55" x2="605" y2="106.55" xlink:href="#Home_x"/><linearGradient id="Home_x-191" x1="408.36" y1="102.72" x2="605" y2="102.72" xlink:href="#Home_x"/><linearGradient id="Home_x-192" x1="416.06" y1="98.9" x2="605" y2="98.9" xlink:href="#Home_x"/><linearGradient id="Home_x-193" x1="423.76" y1="95.07" x2="605" y2="95.07" xlink:href="#Home_x"/><linearGradient id="Home_x-194" x1="431.47" y1="91.24" x2="605" y2="91.24" xlink:href="#Home_x"/><linearGradient id="Home_x-195" x1="439.17" y1="87.42" x2="605" y2="87.42" xlink:href="#Home_x"/><linearGradient id="Home_x-196" x1="446.87" y1="83.59" x2="605" y2="83.59" xlink:href="#Home_x"/><linearGradient id="Home_x-197" x1="454.57" y1="79.76" x2="605" y2="79.76" xlink:href="#Home_x"/><linearGradient id="Home_x-198" x1="462.27" y1="75.93" x2="605" y2="75.93" xlink:href="#Home_x"/><linearGradient id="Home_x-199" x1="469.97" y1="72.11" x2="605" y2="72.11" xlink:href="#Home_x"/><linearGradient id="Home_x-200" x1="477.67" y1="68.28" x2="605" y2="68.28" xlink:href="#Home_x"/><linearGradient id="Home_x-201" x1="485.37" y1="64.45" x2="605" y2="64.45" xlink:href="#Home_x"/><linearGradient id="Home_x-202" x1="493.07" y1="60.63" x2="605" y2="60.63" xlink:href="#Home_x"/><linearGradient id="Home_x-203" x1="500.77" y1="56.8" x2="605" y2="56.8" xlink:href="#Home_x"/><linearGradient id="Home_x-204" x1="508.47" y1="52.97" x2="605" y2="52.97" xlink:href="#Home_x"/><linearGradient id="Home_x-205" x1="516.17" y1="49.15" x2="605" y2="49.15" xlink:href="#Home_x"/><linearGradient id="Home_x-206" x1="523.87" y1="45.32" x2="605" y2="45.32" xlink:href="#Home_x"/><linearGradient id="Home_x-207" x1="531.57" y1="41.49" x2="605" y2="41.49" xlink:href="#Home_x"/><linearGradient id="Home_x-208" x1="539.27" y1="37.67" x2="605" y2="37.67" xlink:href="#Home_x"/><linearGradient id="Home_x-209" x1="546.97" y1="33.84" x2="605" y2="33.84" xlink:href="#Home_x"/><linearGradient id="Home_x-210" x1="554.67" y1="30.01" x2="605" y2="30.01" xlink:href="#Home_x"/><linearGradient id="Home_x-211" x1="562.37" y1="26.19" x2="605" y2="26.19" xlink:href="#Home_x"/><linearGradient id="Home_x-212" x1="570.07" y1="22.36" x2="605" y2="22.36" xlink:href="#Home_x"/><linearGradient id="Home_x-213" x1="577.77" y1="18.53" x2="605" y2="18.53" xlink:href="#Home_x"/><linearGradient id="Home_x-214" x1="585.47" y1="14.7" x2="605" y2="14.7" xlink:href="#Home_x"/><linearGradient id="Home_x-215" x1="593.17" y1="10.88" x2="605" y2="10.88" xlink:href="#Home_x"/><linearGradient id="Home_x-216" x1="600.87" y1="7.05" x2="605" y2="7.05" xlink:href="#Home_x"/></defs><g id="Layer_2" data-name="Layer 2"><g id="Layer_1-2" data-name="Layer 1"><rect class="cls-1" x="5" y="5" width="600" height="600" rx="75.59"/><g class="cls-2"><polygon class="cls-3" points="5 599.3 10.73 605 5 605 5 599.3"/><polygon class="cls-4" points="5 591.19 18.9 605 10.73 605 5 599.3 5 591.19"/><polygon class="cls-5" points="5 583.07 27.07 605 18.9 605 5 591.19 5 583.07"/><polygon class="cls-6" points="5 574.95 35.23 605 27.07 605 5 583.07 5 574.95"/><polygon class="cls-7" points="5 566.83 43.4 605 35.23 605 5 574.95 5 566.83"/><polygon class="cls-8" points="5 558.72 51.57 605 43.4 605 5 566.83 5 558.72"/><polygon class="cls-9" points="5 550.6 59.73 605 51.57 605 5 558.72 5 550.6"/><polygon class="cls-10" points="5 542.48 67.9 605 59.73 605 5 550.6 5 542.48"/><polygon class="cls-11" points="5 534.36 76.07 605 67.9 605 5 542.48 5 534.36"/><polygon class="cls-12" points="5 526.25 84.23 605 76.07 605 5 534.36 5 526.25"/><polygon class="cls-13" points="5 518.13 92.4 605 84.23 605 5 526.25 5 518.13"/><polygon class="cls-14" points="5 510.01 100.57 605 92.4 605 5 518.13 5 510.01"/><polygon class="cls-15" points="5 501.89 108.74 605 100.57 605 5 510.01 5 501.89"/><polygon class="cls-16" points="5 493.77 116.9 605 108.74 605 5 501.89 5 493.77"/><polygon class="cls-17" points="5 485.66 125.07 605 116.9 605 5 493.77 5 485.66"/><polygon class="cls-18" points="5 477.54 133.24 605 125.07 605 5 485.66 5 477.54"/><polygon class="cls-19" points="5 469.42 141.41 605 133.24 605 5 477.54 5 469.42"/><polygon class="cls-20" points="5 461.3 149.57 605 141.41 605 5 469.42 5 461.3"/><polygon class="cls-21" points="5 457.25 153.66 605 149.57 605 5 461.3 5 457.25"/><polygon class="cls-22" points="5 453.19 157.74 605 153.66 605 5 457.25 5 453.19"/><polygon class="cls-23" points="5 449.13 161.82 605 157.74 605 5 453.19 5 449.13"/><polygon class="cls-24" points="5 445.07 165.91 605 161.82 605 5 449.13 5 445.07"/><polygon class="cls-25" points="5 441.01 169.99 605 165.91 605 5 445.07 5 441.01"/><polygon class="cls-26" points="5 436.95 174.07 605 169.99 605 5 441.01 5 436.95"/><polygon class="cls-27" points="5 432.89 178.16 605 174.07 605 5 436.95 5 432.89"/><polygon class="cls-28" points="5 428.83 182.24 605 178.16 605 5 432.89 5 428.83"/><polygon class="cls-29" points="5 424.77 186.32 605 182.24 605 5 428.83 5 424.77"/><polygon class="cls-30" points="5 420.72 190.41 605 186.32 605 5 424.77 5 420.72"/><polygon class="cls-31" points="5 416.66 194.49 605 190.41 605 5 420.72 5 416.66"/><polygon class="cls-32" points="5 412.6 198.57 605 194.49 605 5 416.66 5 412.6"/><polygon class="cls-33" points="5 408.54 202.66 605 198.57 605 5 412.6 5 408.54"/><polygon class="cls-34" points="5 404.48 206.74 605 202.66 605 5 408.54 5 404.48"/><polygon class="cls-35" points="5 400.42 210.83 605 206.74 605 5 404.48 5 400.42"/><polygon class="cls-36" points="5 396.36 214.91 605 210.83 605 5 400.42 5 396.36"/><polygon class="cls-37" points="5 392.3 218.99 605 214.91 605 5 396.36 5 392.3"/><polygon class="cls-38" points="5 388.25 223.08 605 218.99 605 5 392.3 5 388.25"/><polygon class="cls-39" points="5 384.19 227.16 605 223.08 605 5 388.25 5 384.19"/><polygon class="cls-40" points="5 380.13 231.24 605 227.16 605 5 384.19 5 380.13"/><polygon class="cls-41" points="5 376.07 235.33 605 231.24 605 5 380.13 5 376.07"/><polygon class="cls-42" points="5 372.01 239.41 605 235.33 605 5 376.07 5 372.01"/><polygon class="cls-43" points="5 367.95 243.49 605 239.41 605 5 372.01 5 367.95"/><polygon class="cls-44" points="5 363.89 247.58 605 243.49 605 5 367.95 5 363.89"/><polygon class="cls-45" points="5 359.83 251.66 605 247.58 605 5 363.89 5 359.83"/><polygon class="cls-46" points="5 355.77 255.75 605 251.66 605 5 359.83 5 355.77"/><polygon class="cls-47" points="5 351.71 259.83 605 255.75 605 5 355.77 5 351.71"/><polygon class="cls-48" points="5 347.66 263.91 605 259.83 605 5 351.71 5 347.66"/><polygon class="cls-49" points="5 343.6 268 605 263.91 605 5 347.66 5 343.6"/><polygon class="cls-50" points="5 339.54 272.08 605 268 605 5 343.6 5 339.54"/><polygon class="cls-51" points="5 335.48 276.16 605 272.08 605 5 339.54 5 335.48"/><polygon class="cls-52" points="5 331.42 280.25 605 276.16 605 5 335.48 5 331.42"/><polygon class="cls-53" points="5 327.36 284.33 605 280.25 605 5 331.42 5 327.36"/><polygon class="cls-54" points="5 323.3 288.41 605 284.33 605 5 327.36 5 323.3"/><polygon class="cls-55" points="5 319.25 292.5 605 288.41 605 5 323.3 5 319.25"/><polygon class="cls-56" points="5 315.19 296.58 605 292.5 605 5 319.25 5 315.19"/><polygon class="cls-57" points="5 311.13 300.66 605 296.58 605 5 315.19 5 311.13"/><polygon class="cls-58" points="5 307.07 304.75 605 300.66 605 5 311.13 5 307.07"/><polygon class="cls-59" points="5 303.01 308.83 605 304.75 605 5 307.07 5 303.01"/><polygon class="cls-60" points="5 298.95 312.92 605 308.83 605 5 303.01 5 298.95"/><polygon class="cls-61" points="5 294.89 317 605 312.92 605 5 298.95 5 294.89"/><polygon class="cls-62" points="5 290.83 321.08 605 317 605 5 294.89 5 290.83"/><polygon class="cls-63" points="5 286.77 325.17 605 321.08 605 5 290.83 5 286.77"/><polygon class="cls-64" points="5 282.71 329.25 605 325.17 605 5 286.77 5 282.71"/><polygon class="cls-65" points="5 278.66 333.33 605 329.25 605 5 282.71 5 278.66"/><polygon class="cls-66" points="5 274.6 337.42 605 333.33 605 5 278.66 5 274.6"/><polygon class="cls-67" points="5 270.54 341.5 605 337.42 605 5 274.6 5 270.54"/><polygon class="cls-68" points="5 266.48 345.58 605 341.5 605 5 270.54 5 266.48"/><polygon class="cls-69" points="5 262.42 349.67 605 345.58 605 5 266.48 5 262.42"/><polygon class="cls-70" points="5 258.36 353.75 605 349.67 605 5 262.42 5 258.36"/><polygon class="cls-71" points="5 254.3 357.83 605 353.75 605 5 258.36 5 254.3"/><polygon class="cls-72" points="5 250.25 361.92 605 357.83 605 5 254.3 5 250.25"/><polygon class="cls-73" points="5 246.19 366 605 361.92 605 5 250.25 5 246.19"/><polygon class="cls-74" points="5 242.13 370.08 605 366 605 5 246.19 5 242.13"/><polygon class="cls-75" points="5 238.07 374.17 605 370.08 605 5 242.13 5 238.07"/><polygon class="cls-76" points="5 234.01 378.25 605 374.17 605 5 238.07 5 234.01"/><polygon class="cls-77" points="5 229.95 382.33 605 378.25 605 5 234.01 5 229.95"/><polygon class="cls-78" points="5 225.89 386.42 605 382.33 605 5 229.95 5 225.89"/><polygon class="cls-79" points="5 221.83 390.5 605 386.42 605 5 225.89 5 221.83"/><polygon class="cls-80" points="5 217.77 394.59 605 390.5 605 5 221.83 5 217.77"/><polygon class="cls-81" points="5 213.72 398.67 605 394.59 605 5 217.77 5 213.72"/><polygon class="cls-82" points="5 209.66 402.75 605 398.67 605 5 213.72 5 209.66"/><polygon class="cls-83" points="5 205.6 406.84 605 402.75 605 5 209.66 5 205.6"/><polygon class="cls-84" points="5 201.54 410.92 605 406.84 605 5 205.6 5 201.54"/><polygon class="cls-85" points="5 197.48 415 605 410.92 605 5 201.54 5 197.48"/><polygon class="cls-86" points="5 193.42 419.09 605 415 605 5 197.48 5 193.42"/><polygon class="cls-87" points="5 188.96 423.58 605 419.09 605 5 193.42 5 188.96"/><polygon class="cls-88" points="5 184.49 428.07 605 423.58 605 5 188.96 5 184.49"/><polygon class="cls-89" points="5 180.03 432.56 605 428.07 605 5 184.49 5 180.03"/><polygon class="cls-90" points="5 175.56 437.06 605 432.56 605 5 180.03 5 175.56"/><polygon class="cls-91" points="5 171.1 441.55 605 437.06 605 5 175.56 5 171.1"/><polygon class="cls-92" points="5 166.63 446.04 605 441.55 605 5 171.1 5 166.63"/><polygon class="cls-93" points="5 162.17 450.53 605 446.04 605 5 166.63 5 162.17"/><polygon class="cls-94" points="5 157.7 455.02 605 450.53 605 5 162.17 5 157.7"/><polygon class="cls-95" points="5 153.24 459.51 605 455.02 605 5 157.7 5 153.24"/><polygon class="cls-96" points="5 148.77 464.01 605 459.51 605 5 153.24 5 148.77"/><polygon class="cls-97" points="5 144.31 468.5 605 464.01 605 5 148.77 5 144.31"/><polygon class="cls-98" points="5 139.84 472.99 605 468.5 605 5 144.31 5 139.84"/><polygon class="cls-99" points="5 135.38 477.48 605 472.99 605 5 139.84 5 135.38"/><polygon class="cls-100" points="5 130.91 481.97 605 477.48 605 5 135.38 5 130.91"/><polygon class="cls-101" points="5 126.45 486.47 605 481.97 605 5 130.91 5 126.45"/><polygon class="cls-102" points="5 121.99 490.96 605 486.47 605 5 126.45 5 121.99"/><polygon class="cls-103" points="5 117.52 495.45 605 490.96 605 5 121.99 5 117.52"/><polygon class="cls-104" points="5 113.06 499.94 605 495.45 605 5 117.52 5 113.06"/><polygon class="cls-105" points="5 108.59 504.43 605 499.94 605 5 113.06 5 108.59"/><polygon class="cls-106" points="5 104.13 508.93 605 504.43 605 5 108.59 5 104.13"/><polygon class="cls-107" points="5 99.66 513.42 605 508.93 605 5 104.13 5 99.66"/><polygon class="cls-108" points="5 95.2 517.91 605 513.42 605 5 99.66 5 95.2"/><polygon class="cls-109" points="5 90.73 522.4 605 517.91 605 5 95.2 5 90.73"/><polygon class="cls-110" points="5 86.27 526.89 605 522.4 605 5 90.73 5 86.27"/><polygon class="cls-111" points="5 81.8 531.38 605 526.89 605 5 86.27 5 81.8"/><polygon class="cls-112" points="5 77.34 535.88 605 531.38 605 5 81.8 5 77.34"/><polygon class="cls-113" points="5 72.87 540.37 605 535.88 605 5 77.34 5 72.87"/><polygon class="cls-114" points="5 68.41 544.86 605 540.37 605 5 72.87 5 68.41"/><polygon class="cls-115" points="5 63.95 549.35 605 544.86 605 5 68.41 5 63.95"/><polygon class="cls-116" points="5 59.48 553.85 605 549.35 605 5 63.95 5 59.48"/><polygon class="cls-117" points="5 55.02 558.34 605 553.85 605 5 59.48 5 55.02"/><polygon class="cls-118" points="5 50.55 562.83 605 558.34 605 5 55.02 5 50.55"/><polygon class="cls-119" points="5 46.09 567.32 605 562.83 605 5 50.55 5 46.09"/><polygon class="cls-120" points="5 41.62 571.81 605 567.32 605 5 46.09 5 41.62"/><polygon class="cls-121" points="5 37.16 576.3 605 571.81 605 5 41.62 5 37.16"/><polygon class="cls-122" points="5 32.69 580.8 605 576.3 605 5 37.16 5 32.69"/><polygon class="cls-123" points="5 28.23 585.29 605 580.8 605 5 32.69 5 28.23"/><polygon class="cls-124" points="5 23.76 589.78 605 585.29 605 5 28.23 5 23.76"/><polygon class="cls-125" points="5 19.3 594.27 605 589.78 605 5 23.76 5 19.3"/><polygon class="cls-126" points="5 14.83 598.76 605 594.27 605 5 19.3 5 14.83"/><polygon class="cls-127" points="5 10.37 603.26 605 598.76 605 5 14.83 5 10.37"/><polygon class="cls-128" points="5 5.9 605 602.27 605 604.24 604.25 605 603.26 605 5 10.37 5 5.9"/><polygon class="cls-129" points="5 5.76 5.76 5 8.58 5 605 597.8 605 602.27 5 5.9 5 5.76"/><polygon class="cls-130" points="13.07 5 605 593.34 605 597.8 8.58 5 13.07 5"/><polygon class="cls-131" points="17.57 5 605 588.88 605 593.34 13.07 5 17.57 5"/><polygon class="cls-132" points="22.06 5 605 584.41 605 588.88 17.57 5 22.06 5"/><polygon class="cls-133" points="26.55 5 605 579.95 605 584.41 22.06 5 26.55 5"/><polygon class="cls-134" points="31.04 5 605 575.48 605 579.95 26.55 5 31.04 5"/><polygon class="cls-135" points="35.53 5 605 571.02 605 575.48 31.04 5 35.53 5"/><polygon class="cls-136" points="40.03 5 605 566.55 605 571.02 35.53 5 40.03 5"/><polygon class="cls-137" points="44.52 5 605 562.09 605 566.55 40.03 5 44.52 5"/><polygon class="cls-138" points="49.01 5 605 557.62 605 562.09 44.52 5 49.01 5"/><polygon class="cls-139" points="53.5 5 605 553.16 605 557.62 49.01 5 53.5 5"/><polygon class="cls-140" points="57.99 5 605 548.69 605 553.16 53.5 5 57.99 5"/><polygon class="cls-141" points="62.49 5 605 544.23 605 548.69 57.99 5 62.49 5"/><polygon class="cls-142" points="66.98 5 605 539.76 605 544.23 62.49 5 66.98 5"/><polygon class="cls-143" points="71.47 5 605 535.3 605 539.76 66.98 5 71.47 5"/><polygon class="cls-144" points="75.96 5 605 530.83 605 535.3 71.47 5 75.96 5"/><polygon class="cls-145" points="80.45 5 605 526.37 605 530.83 75.96 5 80.45 5"/><polygon class="cls-146" points="84.95 5 605 521.9 605 526.37 80.45 5 84.95 5"/><polygon class="cls-147" points="92.23 5 605 514.66 605 521.9 84.95 5 92.23 5"/><polygon class="cls-148" points="99.51 5 605 507.42 605 514.66 92.23 5 99.51 5"/><polygon class="cls-149" points="106.8 5 605 500.18 605 507.42 99.51 5 106.8 5"/><polygon class="cls-150" points="114.08 5 605 492.94 605 500.18 106.8 5 114.08 5"/><polygon class="cls-151" points="121.37 5 605 485.7 605 492.94 114.08 5 121.37 5"/><polygon class="cls-152" points="128.65 5 605 478.46 605 485.7 121.37 5 128.65 5"/><polygon class="cls-153" points="135.94 5 605 471.22 605 478.46 128.65 5 135.94 5"/><polygon class="cls-154" points="143.22 5 605 463.98 605 471.22 135.94 5 143.22 5"/><polygon class="cls-155" points="150.5 5 605 456.74 605 463.98 143.22 5 150.5 5"/><polygon class="cls-156" points="157.79 5 605 449.5 605 456.74 150.5 5 157.79 5"/><polygon class="cls-157" points="165.07 5 605 442.26 605 449.5 157.79 5 165.07 5"/><polygon class="cls-158" points="172.36 5 605 435.02 605 442.26 165.07 5 172.36 5"/><polygon class="cls-159" points="179.64 5 605 427.78 605 435.02 172.36 5 179.64 5"/><polygon class="cls-160" points="186.93 5 605 420.54 605 427.78 179.64 5 186.93 5"/><polygon class="cls-161" points="194.21 5 605 413.3 605 420.54 186.93 5 194.21 5"/><polygon class="cls-162" points="201.49 5 605 406.06 605 413.3 194.21 5 201.49 5"/><polygon class="cls-163" points="208.78 5 605 398.82 605 406.06 201.49 5 208.78 5"/><polygon class="cls-164" points="216.06 5 605 391.58 605 398.82 208.78 5 216.06 5"/><polygon class="cls-165" points="223.35 5 605 384.34 605 391.58 216.06 5 223.35 5"/><polygon class="cls-166" points="230.63 5 605 377.1 605 384.34 223.35 5 230.63 5"/><polygon class="cls-167" points="237.91 5 605 369.86 605 377.1 230.63 5 237.91 5"/><polygon class="cls-168" points="245.2 5 605 362.62 605 369.86 237.91 5 245.2 5"/><polygon class="cls-169" points="252.48 5 605 355.38 605 362.62 245.2 5 252.48 5"/><polygon class="cls-170" points="259.77 5 605 348.14 605 355.38 252.48 5 259.77 5"/><polygon class="cls-171" points="267.05 5 605 340.9 605 348.14 259.77 5 267.05 5"/><polygon class="cls-172" points="274.33 5 605 333.66 605 340.9 267.05 5 274.33 5"/><polygon class="cls-173" points="281.62 5 605 326.42 605 333.66 274.33 5 281.62 5"/><polygon class="cls-174" points="288.9 5 605 319.18 605 326.42 281.62 5 288.9 5"/><polygon class="cls-175" points="296.19 5 605 311.94 605 319.18 288.9 5 296.19 5"/><polygon class="cls-176" points="303.47 5 605 304.7 605 311.94 296.19 5 303.47 5"/><polygon class="cls-177" points="310.76 5 605 297.46 605 304.7 303.47 5 310.76 5"/><polygon class="cls-178" points="318.04 5 605 290.22 605 297.46 310.76 5 318.04 5"/><polygon class="cls-179" points="325.32 5 605 282.98 605 290.22 318.04 5 325.32 5"/><polygon class="cls-180" points="332.61 5 605 275.74 605 282.98 325.32 5 332.61 5"/><polygon class="cls-181" points="339.89 5 605 268.5 605 275.74 332.61 5 339.89 5"/><polygon class="cls-182" points="347.18 5 605 261.26 605 268.5 339.89 5 347.18 5"/><polygon class="cls-183" points="354.46 5 605 254.02 605 261.26 347.18 5 354.46 5"/><polygon class="cls-184" points="362.16 5 605 246.37 605 254.02 354.46 5 362.16 5"/><polygon class="cls-185" points="369.86 5 605 238.71 605 246.37 362.16 5 369.86 5"/><polygon class="cls-186" points="377.56 5 605 231.06 605 238.71 369.86 5 377.56 5"/><polygon class="cls-187" points="385.26 5 605 223.41 605 231.06 377.56 5 385.26 5"/><polygon class="cls-188" points="392.96 5 605 215.75 605 223.41 385.26 5 392.96 5"/><polygon class="cls-189" points="400.66 5 605 208.1 605 215.75 392.96 5 400.66 5"/><polygon class="cls-190" points="408.36 5 605 200.44 605 208.1 400.66 5 408.36 5"/><polygon class="cls-191" points="416.06 5 605 192.79 605 200.44 408.36 5 416.06 5"/><polygon class="cls-192" points="423.76 5 605 185.14 605 192.79 416.06 5 423.76 5"/><polygon class="cls-193" points="431.46 5 605 177.48 605 185.14 423.76 5 431.46 5"/><polygon class="cls-194" points="439.17 5 605 169.83 605 177.48 431.46 5 439.17 5"/><polygon class="cls-195" points="446.87 5 605 162.18 605 169.83 439.17 5 446.87 5"/><polygon class="cls-196" points="454.57 5 605 154.52 605 162.18 446.87 5 454.57 5"/><polygon class="cls-197" points="462.27 5 605 146.87 605 154.52 454.57 5 462.27 5"/><polygon class="cls-198" points="469.97 5 605 139.22 605 146.87 462.27 5 469.97 5"/><polygon class="cls-199" points="477.67 5 605 131.56 605 139.22 469.97 5 477.67 5"/><polygon class="cls-200" points="485.37 5 605 123.91 605 131.56 477.67 5 485.37 5"/><polygon class="cls-201" points="493.07 5 605 116.25 605 123.91 485.37 5 493.07 5"/><polygon class="cls-202" points="500.77 5 605 108.6 605 116.25 493.07 5 500.77 5"/><polygon class="cls-203" points="508.47 5 605 100.95 605 108.6 500.77 5 508.47 5"/><polygon class="cls-204" points="516.17 5 605 93.29 605 100.95 508.47 5 516.17 5"/><polygon class="cls-205" points="523.87 5 605 85.64 605 93.29 516.17 5 523.87 5"/><polygon class="cls-206" points="531.57 5 605 77.98 605 85.64 523.87 5 531.57 5"/><polygon class="cls-207" points="539.27 5 605 70.33 605 77.98 531.57 5 539.27 5"/><polygon class="cls-208" points="546.97 5 605 62.68 605 70.33 539.27 5 546.97 5"/><polygon class="cls-209" points="554.67 5 605 55.02 605 62.68 546.97 5 554.67 5"/><polygon class="cls-210" points="562.37 5 605 47.37 605 55.02 554.67 5 562.37 5"/><polygon class="cls-211" points="570.07 5 605 39.72 605 47.37 562.37 5 570.07 5"/><polygon class="cls-212" points="577.77 5 605 32.06 605 39.72 570.07 5 577.77 5"/><polygon class="cls-213" points="585.47 5 605 24.41 605 32.06 577.77 5 585.47 5"/><polygon class="cls-214" points="593.17 5 605 16.75 605 24.41 585.47 5 593.17 5"/><polygon class="cls-215" points="600.87 5 605 9.1 605 16.75 593.17 5 600.87 5"/><polygon class="cls-216" points="605 9.1 600.87 5 605 5 605 9.1"/></g><path class="cls-217" d="M532.09,607.5H77.9A75.4,75.4,0,0,1,2.5,532.1V77.91A75.41,75.41,0,0,1,77.91,2.5H532.1a75.4,75.4,0,0,1,75.4,75.4V532.09A75.41,75.41,0,0,1,532.09,607.5ZM77.9,7.5A70.4,70.4,0,0,0,7.5,77.9V532.09A70.41,70.41,0,0,0,77.91,602.5H532.1a70.4,70.4,0,0,0,70.4-70.4V77.91A70.41,70.41,0,0,0,532.09,7.5Z"/><path class="cls-217" d="M532.09,610H77.9A78,78,0,0,1,0,532.1V77.9A78,78,0,0,1,77.91,0H532.1A78,78,0,0,1,610,77.9V532.1A78,78,0,0,1,532.09,610ZM5,532.1A73,73,0,0,0,77.9,605h0A73,73,0,0,1,5,532.1ZM77.9,10A68,68,0,0,0,10,77.9V532.1A68,68,0,0,0,77.91,600H532.1A68,68,0,0,0,600,532.1V77.9A68,68,0,0,0,532.1,10ZM605,77.9V532.1h0ZM532.1,5A73,73,0,0,1,605,76.73,73,73,0,0,0,532.1,5Z"/><path class="cls-218" d="M438.2,567.59a393.82,393.82,0,0,1-53.5-3.89,4.51,4.51,0,0,1-.95-.1c-4.5-.66-9.12-1.39-13.74-2.17l-1.15-.17a582.82,582.82,0,0,1-105.53-29.09c-3-1.14-6.1-2.32-9.11-3.61-5.05-1.93-10.07-4-14.38-5.86-43.57-18.44-83.59-41.46-115.73-66.59a2.51,2.51,0,0,1-1-2V264.68a57.15,57.15,0,0,1,25.67-47.79l10.88-7.19,79.73-52.9L276.85,132a57.37,57.37,0,0,1,62.64-.51l133.12,85.42A57.08,57.08,0,0,1,499,265.16V558.54A2.49,2.49,0,0,1,497.1,561C480,565.37,460.13,567.59,438.2,567.59Zm-53.33-8.89a2.07,2.07,0,0,1,.35,0c41.93,5.79,79.47,5,108.75-2.14V265.16a52.09,52.09,0,0,0-24.06-44L336.79,135.72a52.37,52.37,0,0,0-57.17.46L242.19,161l-79.73,52.89-10.89,7.2a52.17,52.17,0,0,0-23.42,43.62V452.92c31.64,24.57,70.9,47.09,113.64,65.17,4.27,1.81,9.24,3.9,14.31,5.84,3,1.28,6,2.44,9,3.56a577.61,577.61,0,0,0,104.54,28.83l1.14.17c4.68.79,9.3,1.52,13.79,2.18l.24.05Z"/><path class="cls-218" d="M125.63,456.65a2.52,2.52,0,0,1-1.54-.53c-9.12-7.15-17.63-14.5-25.27-21.83a246.82,246.82,0,0,1-20.54-22.13c-25.76-31.66-34.53-61.26-25.35-85.6,4.4-11.73,12.83-21.71,25.06-29.67a2.5,2.5,0,0,1,2.73,4.19c-11.32,7.36-19.09,16.53-23.11,27.24-8.52,22.59,0,50.49,24.54,80.68a242.63,242.63,0,0,0,20.13,21.69c6.39,6.12,13.38,12.25,20.85,18.28V282a2.5,2.5,0,0,1,5,0V454.15a2.49,2.49,0,0,1-2.5,2.5Z"/><path class="cls-218" d="M496.46,561.05a2.5,2.5,0,0,1-1.53-.52,2.47,2.47,0,0,1-1-2V399a2.5,2.5,0,0,1,5,0V555.29c28-7.89,46.48-21.81,53.43-40.36,7.4-19.6,1.8-43.67-16.2-69.6a2.5,2.5,0,1,1,4.11-2.85c19,27.34,24.78,53,16.77,74.21-7.8,20.82-28.55,36.13-60,44.28A2.2,2.2,0,0,1,496.46,561.05Z"/><path class="cls-219" d="M240.8,81.63v77.26l-79.74,52.9V81.63a25.26,25.26,0,0,1,25.27-25.27h29.14A25.28,25.28,0,0,1,240.8,81.63Z"/><path class="cls-219" d="M158.56,216.44V81.63a27.8,27.8,0,0,1,27.77-27.77h29.14A27.84,27.84,0,0,1,243.3,81.63v78.6ZM186.33,58.86a22.8,22.8,0,0,0-22.77,22.77v125.5l74.74-49.58V81.63a22.83,22.83,0,0,0-22.83-22.77Z"/><image width="512" height="372" transform="translate(248.49 337.37) scale(0.25 0.25)" xlink:href="D:%5CHome-x%5Cunnamed%20copy.png"/><path class="cls-219" d="M370.43,467.32V559l-1.21-.19a581.69,581.69,0,0,1-105-28.95c-3-1.15-6-2.3-9-3.57V467.32c0-31.38,17.78-56.77,39.66-56.77h36C352.77,410.55,370.43,435.94,370.43,467.32Z"/><path class="cls-219" d="M372.93,561.85l-4.07-.59a582.82,582.82,0,0,1-105.53-29.09c-3-1.14-6.1-2.32-9.11-3.61l-1.52-.65V467.32c0-32.68,18.91-59.27,42.16-59.27h36c23.21,0,42.1,26.59,42.1,59.27ZM257.7,524.6c2.45,1,5,2,7.4,2.89A578.21,578.21,0,0,0,367.93,556v-88.7c0-29.92-16.65-54.27-37.1-54.27h-36c-20.49,0-37.16,24.35-37.16,54.27Z"/></g></g></svg>