<svg id="Layer_1" data-name="Layer 1" xmlns="http://www.w3.org/2000/svg" viewBox="0 0 556.49 572"><defs><style>.cls-1{fill:#fff;}</style></defs><path class="cls-1" d="M493.85,209.86a36.17,36.17,0,0,0-51.08,0l-36.22,36.25v-95.4A35.87,35.87,0,0,0,396,125.18L361.93,91.13a35.88,35.88,0,0,0-25.54-10.58H129.68a36.15,36.15,0,0,0-36.12,36.11V455.34a36.15,36.15,0,0,0,36.12,36.11H370.44a36.15,36.15,0,0,0,36.11-36.11v-107l87.3-87.37A36.09,36.09,0,0,0,493.85,209.86ZM334.33,104.63c2.27,0,6.65-.4,10.57,3.52l34.05,34c3.82,3.82,3.53,8,3.53,10.58H334.33Zm48.15,350.71a12.05,12.05,0,0,1-12,12H129.68a12.05,12.05,0,0,1-12-12V116.66a12.05,12.05,0,0,1,12-12H310.25v60.19a12,12,0,0,0,12,12h60.19v93.36L347,305.76l-17,17a12,12,0,0,0-2.9,4.71l-17,51.07a12,12,0,0,0,15.23,15.23l51.07-17a12,12,0,0,0,4.71-2.9l1.46-1.46v82.95Zm-27-124,17,17-6.51,6.5-25.53,8.51L349,337.79Zm34,0-17-17,57.87-57.92,17,17Zm87.29-87.37-12.41,12.42-17-17,12.41-12.43a12,12,0,1,1,17,17Z"/><path class="cls-1" d="M322.29,200.93H153.75a12,12,0,0,0,0,24.08H322.29a12,12,0,0,0,0-24.08Z"/><path class="cls-1" d="M274.14,249.08H153.75a12,12,0,0,0,0,24.08H274.14a12,12,0,0,0,0-24.08Z"/><path class="cls-1" d="M274.14,297.24H153.75a12,12,0,0,0,0,24.07H274.14a12,12,0,0,0,0-24.07Z"/><path class="cls-1" d="M274.14,345.39H153.75a12,12,0,0,0,0,24.07H274.14a12,12,0,0,0,0-24.07Z"/><path class="cls-1" d="M322.29,419.22H250.06a12,12,0,0,0,0,24.08h72.23a12,12,0,0,0,0-24.08Z"/></svg>